<svg xmlns="http://www.w3.org/2000/svg" xmlns:xlink="http://www.w3.org/1999/xlink" viewBox="0 0 59.32894 59.32676">
  <defs>
    <style>
      .cls-1 {
        fill: url(#linear-gradient);
      }

      .cls-2 {
        fill: #0c9366;
        stroke: #fff;
        stroke-miterlimit: 10;
        stroke-width: 1.08087px;
      }

      .cls-3 {
        fill: #fff;
      }
    </style>
    <linearGradient id="linear-gradient" x1="-2.79518" y1="2.23638" x2="98.22738" y2="87.59654" gradientUnits="userSpaceOnUse">
      <stop offset="0" stop-color="#fff" stop-opacity="0"/>
      <stop offset="0.2163" stop-color="#fff" stop-opacity="0.5"/>
      <stop offset="0.48388" stop-color="#fff" stop-opacity="0.28"/>
      <stop offset="1" stop-color="#fff"/>
    </linearGradient>
  </defs>
  <g id="Layer_2" data-name="Layer 2">
    <g id="side_info" data-name="side info">
      <g>
        <path class="cls-1" d="M29.66339,0a29.66338,29.66338,0,1,0,0,59.32676H59.32894V29.66337A29.6637,29.6637,0,0,0,29.66339,0ZM3.30962,29.66337A26.35485,26.35485,0,1,1,29.66339,56.01713,26.35349,26.35349,0,0,1,3.30962,29.66337Z"/>
        <path class="cls-2" d="M56.01932,29.66337A26.35485,26.35485,0,1,1,29.66339,3.30961,26.35535,26.35535,0,0,1,56.01932,29.66337Z"/>
      </g>
      <g>
        <path class="cls-3" d="M33.754,23.403a20.61116,20.61116,0,0,1-1.75087,7.39131c-.85323,2.15172-1.88624,4.23213-2.74059,6.38345a22.39157,22.39157,0,0,0-1.1642,3.87632c-.51765,2.60618.81053,3.98811,3.44025,3.56466.78758-.12682.7788.10326.799.7043A2.09686,2.09686,0,0,1,31.107,47.477a10.99966,10.99966,0,0,1-6.37547,1.49817,4.43187,4.43187,0,0,1-4.08982-4.1506A14.39331,14.39331,0,0,1,22.01032,37.785c1.17833-2.7337,2.38783-5.4549,3.50856-8.2121a10.39066,10.39066,0,0,0,.74346-4.66951c-.14392-2.07916-1.39921-3.03672-3.43281-2.58053-1.01161.22693-.9562.22479-.99444-.76383a1.64594,1.64594,0,0,1,.89364-1.61183A10.83562,10.83562,0,0,1,29.05109,17.91a4.47078,4.47078,0,0,1,4.70162,4.69663C33.76272,22.87172,33.754,23.13755,33.754,23.403Z"/>
        <path class="cls-3" d="M35.55977,12.3876A3.39891,3.39891,0,0,1,32.11005,15.862a3.48294,3.48294,0,0,1-3.4728-3.48159,3.39484,3.39484,0,0,1,3.4805-3.44184A3.316,3.316,0,0,1,35.55977,12.3876Z"/>
      </g>
    </g>
  </g>
</svg>
