<svg xmlns="http://www.w3.org/2000/svg" viewBox="0 0 26.4042 26.4042">
  <defs>
    <style>
      .cls-1 {
        fill: #fff;
      }
    </style>
  </defs>
  <g id="Layer_2" data-name="Layer 2">
    <g id="arabic">
      <g>
        <path class="cls-1" d="M20.19233,4.71456a1.54795,1.54795,0,1,0,1.548,1.54783A1.54788,1.54788,0,0,0,20.19233,4.71456Z"/>
        <path class="cls-1" d="M13.31053,6.69963A6.50251,6.50251,0,1,0,19.813,13.2021,6.51,6.51,0,0,0,13.31053,6.69963Zm0,10.66777a4.16527,4.16527,0,1,1,4.16508-4.1653A4.17,4.17,0,0,1,13.31053,17.3674Z"/>
        <path class="cls-1" d="M18.4727,26.4042H7.931A7.93988,7.93988,0,0,1,0,18.47322V7.931A7.93984,7.93984,0,0,1,7.931,0H18.4727a7.94029,7.94029,0,0,1,7.9315,7.931V18.47322A7.94033,7.94033,0,0,1,18.4727,26.4042ZM7.931,2.48418A5.45278,5.45278,0,0,0,2.484,7.931V18.47322A5.45286,5.45286,0,0,0,7.931,23.92017H18.4727A5.45318,5.45318,0,0,0,23.92,18.47322V7.931a5.4531,5.4531,0,0,0-5.44733-5.4468Z"/>
      </g>
    </g>
  </g>
</svg>
