<svg xmlns="http://www.w3.org/2000/svg" viewBox="0 0 462.49 462.49"><defs><style>.cls-1{fill:#0a152d;}.cls-2{fill:#fff;}.cls-3{fill:#0c9366;}.cls-4{fill:#53499d;}.cls-5{fill:#5dbc72;}</style></defs><title>Asset 1</title><g id="Layer_2" data-name="Layer 2"><g id="Layer_16" data-name="Layer 16"><circle class="cls-1" cx="231.24" cy="231.24" r="231.24"/><path class="cls-2" d="M204.65,209.36c-.55-.87-1-1.68-1.46-2.43l-1.16-2c-.34-.6-.58-1-.71-1.3h-.14l.41,3.73q.14,1.66.24,3.3c.06,1.08.1,2.05.1,2.89v15.79H189.5V186h12.43l12.36,16.32c.64.85,1.24,1.71,1.8,2.6s1.08,1.7,1.53,2.43.84,1.38,1.16,1.93.54,1,.68,1.17h.13c-.13-1.29-.25-2.6-.34-3.93s-.17-2.41-.23-3.63-.11-2.34-.11-3.36V186h12.23v43.3H219.25l-13-17.52c-.55-.75-1.09-1.56-1.63-2.43"/><path class="cls-2" d="M270.28,202.93a11.46,11.46,0,0,0-1.87-3.86,8.73,8.73,0,0,0-3.12-2.6,9.74,9.74,0,0,0-4.38-.93,10,10,0,0,0-4.42.93,8.69,8.69,0,0,0-3.16,2.6,11.46,11.46,0,0,0-1.87,3.86,17.51,17.51,0,0,0-.61,4.73,16,16,0,0,0,.68,4.73,12.28,12.28,0,0,0,1.94,3.86,8.66,8.66,0,0,0,3.15,2.6,9.79,9.79,0,0,0,4.35.93,8.86,8.86,0,0,0,7.34-3.53,11.49,11.49,0,0,0,1.94-3.86,16.69,16.69,0,0,0,.64-4.73,17.51,17.51,0,0,0-.61-4.73M283,217.35a20.75,20.75,0,0,1-5.1,6.9,23.5,23.5,0,0,1-7.57,4.46,27.13,27.13,0,0,1-9.38,1.6,27.92,27.92,0,0,1-9.51-1.6,23.41,23.41,0,0,1-7.64-4.46,20.74,20.74,0,0,1-7-15.79v-1.6a21,21,0,0,1,1.87-8.89,20.66,20.66,0,0,1,5.13-6.89,24,24,0,0,1,7.64-4.47A27.66,27.66,0,0,1,261,185a27.13,27.13,0,0,1,9.38,1.59,23.52,23.52,0,0,1,7.57,4.47,20.7,20.7,0,0,1,7,15.78v1.6a20.79,20.79,0,0,1-1.87,8.89"/><path class="cls-2" d="M322.6,202.93a11.46,11.46,0,0,0-1.87-3.86,8.81,8.81,0,0,0-3.12-2.6,9.76,9.76,0,0,0-4.39-.93,9.94,9.94,0,0,0-4.41.93,8.69,8.69,0,0,0-3.16,2.6,11.46,11.46,0,0,0-1.87,3.86,17.51,17.51,0,0,0-.61,4.73,15.68,15.68,0,0,0,.68,4.73,12.48,12.48,0,0,0,1.93,3.86,8.69,8.69,0,0,0,3.16,2.6,9.79,9.79,0,0,0,4.35.93,8.89,8.89,0,0,0,7.34-3.53,11.68,11.68,0,0,0,1.94-3.86,16.69,16.69,0,0,0,.64-4.73,17.51,17.51,0,0,0-.61-4.73m12.74,14.42a20.89,20.89,0,0,1-5.1,6.9,23.5,23.5,0,0,1-7.57,4.46,27.13,27.13,0,0,1-9.38,1.6,27.84,27.84,0,0,1-9.51-1.6,23.41,23.41,0,0,1-7.64-4.46,20.74,20.74,0,0,1-7-15.79v-1.6A21,21,0,0,1,291,198a20.66,20.66,0,0,1,5.13-6.89,23.86,23.86,0,0,1,7.64-4.47,27.58,27.58,0,0,1,9.48-1.59,27.13,27.13,0,0,1,9.38,1.59,23.52,23.52,0,0,1,7.57,4.47,20.7,20.7,0,0,1,7,15.78v1.6a20.94,20.94,0,0,1-1.87,8.89"/><path class="cls-2" d="M356,205.93h6.32a7.06,7.06,0,0,0,2.92-.53A5.13,5.13,0,0,0,367,204a5,5,0,0,0,.95-1.76,6.31,6.31,0,0,0,.27-1.74,6.83,6.83,0,0,0-.24-1.76,4.56,4.56,0,0,0-.85-1.67,4.43,4.43,0,0,0-1.7-1.26,6.9,6.9,0,0,0-2.85-.5H356Zm13.69-19.05a17.94,17.94,0,0,1,5.88,2.63,12.92,12.92,0,0,1,3.94,4.36,12.45,12.45,0,0,1,1.43,6.06v1.14a12.23,12.23,0,0,1-2.42,7.42,13.7,13.7,0,0,1-6.69,4.83L382.93,228v1.33H369l-10.87-15.19H356v15.19h-13V186h19.56a28.52,28.52,0,0,1,7.17.87"/><path class="cls-2" d="M202.54,263.09h6.32a6.89,6.89,0,0,0,2.92-.54,5,5,0,0,0,1.83-1.36,5.13,5.13,0,0,0,1-1.77,6.25,6.25,0,0,0,.27-1.73,6.78,6.78,0,0,0-.24-1.76,4.49,4.49,0,0,0-.85-1.67,4.63,4.63,0,0,0-1.7-1.27,6.92,6.92,0,0,0-2.85-.49h-6.66Zm13.69-19a17.74,17.74,0,0,1,5.88,2.63,12.82,12.82,0,0,1,3.94,4.36,12.39,12.39,0,0,1,1.42,6.06v1.13a12.25,12.25,0,0,1-2.41,7.43,13.79,13.79,0,0,1-6.69,4.83l11.14,14.65v1.33H215.58l-10.87-15.18h-2.17v15.18h-13V243.17h19.57a28.52,28.52,0,0,1,7.17.87"/><rect class="cls-2" x="233.32" y="243.17" width="13.04" height="43.29"/><polygon class="cls-2" points="265.73 268.75 249.63 244.5 249.63 243.17 264.17 243.17 272.73 257.89 281.22 243.17 294.88 243.17 294.88 244.5 278.77 268.68 278.77 286.46 265.73 286.46 265.73 268.75"/><path class="cls-2" d="M316.83,270.41l-2.59-7.19a41.21,41.21,0,0,1-1.32-4.36c-.43-1.71-.81-3.21-1.12-4.5h-.14c-.27,1.29-.64,2.78-1.12,4.46s-.94,3.16-1.39,4.4l-2.52,7.19Zm-29.29,14.72,17.19-42h14.2l17.12,42v1.33H322.67l-2.52-6.92H303.44L301,286.46H287.54Z"/><path class="cls-2" d="M366.29,273.64q1.83-3.36,1.83-9.16c0-3.81-.66-6.74-2-8.79a6.85,6.85,0,0,0-6.15-3.06h-7V277h6.73q4.76,0,6.59-3.37m13.69,1a19.62,19.62,0,0,1-11.62,10.56,23.25,23.25,0,0,1-7.57,1.29H339.73V243.17h21.19a24.5,24.5,0,0,1,7.54,1.2,19.69,19.69,0,0,1,6.73,3.7,18.49,18.49,0,0,1,4.82,6.32,21,21,0,0,1,1.84,9.16v1.67a22,22,0,0,1-1.87,9.39"/><polygon class="cls-2" points="416.16 243.17 416.16 259.56 400.61 259.56 400.61 243.17 387.56 243.17 387.56 286.46 400.61 286.46 400.61 269.61 416.16 269.61 416.16 286.46 429.21 286.46 429.21 243.17 416.16 243.17"/><path class="cls-3" d="M76.05,281H61.18v-5.15H73.12a2.86,2.86,0,0,1,2.3.86,3,3,0,0,1,.63,2.1Zm-3.24-10.47H61.18v-2.07H56v16.23H43.77A5.13,5.13,0,0,1,40,283.53a4.44,4.44,0,0,1-1.18-3.4v-9H33.69v9.67c0,2.72.66,5.23,2.24,6.8s4.14,2.4,7.38,2.4H61.18v-3.7h20v-7.09c0-2.43-.55-4.88-1.84-6.39-1.49-1.72-3.62-2.31-6.57-2.31"/><polygon class="cls-3" points="104.05 281.02 90.84 281.02 90.84 262.36 85.68 262.36 85.68 286.34 109.22 286.34 109.22 269.28 104.05 269.28 104.05 281.02"/><rect class="cls-3" x="150.81" y="262.36" width="5.17" height="23.98"/><path class="cls-3" d="M141.47,281H121.31l0,.09V269.28h-5.17V284.8c0,1.84-.83,2.8-2.15,2.8h-1.43v4.95a7.58,7.58,0,0,0,2,.29c4.68,0,6.35-2,6.69-6.5h25.45v-24h-5.17Z"/><polygon class="cls-3" points="72.72 264.91 69.14 261.34 65.57 264.92 69.15 268.48 72.72 264.91"/><polygon class="cls-3" points="90.29 291.57 93.88 295.13 97.45 291.56 93.86 287.99 90.29 291.57"/><polygon class="cls-3" points="97.45 291.57 101.03 295.13 104.6 291.56 101.02 287.99 97.45 291.57"/><path class="cls-4" d="M97.86,229.28c.46-.88.9-1.76,1.29-2.66a40.56,40.56,0,0,0-3.65-38.89l0,0a35.45,35.45,0,0,0-2.37-3.1c-1.16-1.35-2.72-3-5.08-5.36L55.18,212.14c15.92,14.45,3.69,40-21.9,27a40.64,40.64,0,0,0,57.39-.09,40.12,40.12,0,0,0,7.19-9.8"/><polygon class="cls-3" points="140.95 167.36 128.41 179.91 140.99 192.42 153.52 179.87 140.95 167.36"/><path class="cls-5" d="M109,179.27A26.17,26.17,0,0,0,93.1,184.6h0a26.21,26.21,0,0,0,4.76,44.67h0A26.36,26.36,0,0,0,109,231.73c.47,0,.94,0,1.4,0l2.05-2.05,22.8-22.91q0-.61,0-1.23A26.25,26.25,0,0,0,109,179.27"/><polygon class="cls-5" points="135.23 206.73 110.29 231.77 110.29 231.77 89.81 252.27 121.87 252.39 127.93 231.69 135.23 206.73"/><polygon class="cls-3" points="135.24 206.67 135.23 206.7 135.24 206.67 110.27 231.75 127.94 231.63 127.94 231.63 155.8 231.63 155.8 186.01 135.24 206.67"/></g></g></svg>