<svg xmlns="http://www.w3.org/2000/svg" viewBox="0 0 32.08027 26.40415">
  <defs>
    <style>
      .cls-1 {
        fill: #fff;
      }
    </style>
  </defs>
  <g id="Layer_2" data-name="Layer 2">
    <g id="arabic">
      <path class="cls-1" d="M31.9487,3.16514A13.24822,13.24822,0,0,1,28.70422,4.09c.52157-.08783,1.28776-1.03239,1.59523-1.41448A5.94985,5.94985,0,0,0,31.376.712c.02849-.056.04909-.12627-.00688-.16851a.18449.18449,0,0,0-.17194.01425,16.549,16.549,0,0,1-3.847,1.47194.25726.25726,0,0,1-.26521-.07022,3.14323,3.14323,0,0,0-.33591-.34381A6.80416,6.80416,0,0,0,24.88564.4738,6.49163,6.49163,0,0,0,22.02772.01357a6.83161,6.83161,0,0,0-2.711.76567A6.99162,6.99162,0,0,0,17.12914,2.566a6.71813,6.71813,0,0,0-1.3059,2.61627A7.08361,7.08361,0,0,0,15.754,7.944c.02059.1547.00686.1753-.13261.1547C10.33824,7.31238,5.95928,5.422,2.404,1.37111c-.15426-.17589-.23776-.17589-.36448.01328-1.5559,2.33187-.801,6.07777,1.14239,7.919.25933.24567.52552.49074.81231.7147a6.735,6.735,0,0,1-2.55045-.7147c-.15418-.09769-.23179-.04172-.24559.13365a4.01529,4.01529,0,0,0,.04231.75679,6.77642,6.77642,0,0,0,4.17709,5.403,3.96535,3.96535,0,0,0,.84717.25933,7.54936,7.54936,0,0,1-2.50127.07717c-.18232-.03493-.25194.05641-.18232.23127a7.03517,7.03517,0,0,0,5.25568,4.401c.23821.04179.47642.04179.7156.09776-.01471.02165-.029.02165-.04277.04224-.58977.89978-2.63588,1.56918-3.58918,1.90217a12.85252,12.85252,0,0,1-5.451.69791c-.29321-.04328-.3547-.03978-.43425,0-.08045.04955-.0103.11985.084.19545.37179.2456.75.46321,1.13545.67336A17.9843,17.9843,0,0,0,4.89846,25.6321c6.54873,1.80843,13.92508.47948,18.8424-4.4059,3.8612-3.83627,5.21478-9.12724,5.21478-14.42464,0-.20724.2447-.32171.39007-.43119a12.742,12.742,0,0,0,2.56464-2.66694.81209.81209,0,0,0,.16992-.51075V3.16514C32.08027,3.08022,32.07833,3.10581,31.9487,3.16514Z"/>
    </g>
  </g>
</svg>
