<svg xmlns="http://www.w3.org/2000/svg" viewBox="0 0 75.92 75.92"><defs><style>.cls-1{fill:#fff;}.cls-2{fill:none;stroke:#fff;stroke-linecap:round;stroke-miterlimit:10;stroke-width:4.09px;}</style></defs><title>Asset 2</title><g id="Layer_2" data-name="Layer 2"><g id="_360_icons" data-name="360 icons"><path class="cls-1" d="M45.83,26.44a19.43,19.43,0,1,0-5.69,13.7A19.41,19.41,0,0,0,45.83,26.44Zm-35.78,0A16.39,16.39,0,1,1,26.44,42.83,16.31,16.31,0,0,1,10.05,26.44Z"/><path class="cls-1" d="M52.88,26.44a26.49,26.49,0,1,0-9.26,20.07l6.23,6.23-2.5,2.5a3.7,3.7,0,0,0,0,5.24L60.07,73.2A9.28,9.28,0,1,0,73.2,60.08L60.48,47.35a3.7,3.7,0,0,0-5.24,0l-2.5,2.5-6.23-6.23A26.31,26.31,0,0,0,52.88,26.44Zm18.2,44.64a6.28,6.28,0,0,1-8.88,0l-2.5-2.5,8.88-8.88,2.5,2.5A6.28,6.28,0,0,1,71.08,71.08ZM58.35,49.47l2.95,2.94L52.41,61.3l-2.94-2.95a.69.69,0,0,1,0-1l7.89-7.89A.69.69,0,0,1,58.35,49.47Zm-54.26-23A22.35,22.35,0,1,1,26.44,48.79,22.32,22.32,0,0,1,4.09,26.44Z"/><line class="cls-2" x1="18.4" y1="26.44" x2="34.47" y2="26.44"/><line class="cls-2" x1="26.44" y1="34.47" x2="26.44" y2="18.4"/></g></g></svg>