<svg xmlns="http://www.w3.org/2000/svg" xmlns:xlink="http://www.w3.org/1999/xlink" viewBox="0 0 274.54 274.44"><defs><style>.cls-1{fill:url(#linear-gradient);}.cls-2{fill:#53499d;stroke:#fff;stroke-miterlimit:10;stroke-width:5px;}.cls-3{fill:url(#radial-gradient);}.cls-4{fill:#fffdfd;}</style><linearGradient id="linear-gradient" x1="-12.86" y1="265.63" x2="454.46" y2="-129.23" gradientTransform="matrix(1, 0, 0, -1, 0, 276)" gradientUnits="userSpaceOnUse"><stop offset="0" stop-color="#fff" stop-opacity="0"/><stop offset="0.22" stop-color="#fff" stop-opacity="0.5"/><stop offset="0.48" stop-color="#fff" stop-opacity="0.28"/><stop offset="1" stop-color="#fff"/></linearGradient><radialGradient id="radial-gradient" cx="34.97" cy="190.5" r="269.92" gradientTransform="matrix(1, 0, 0, -1, 0, 276)" gradientUnits="userSpaceOnUse"><stop offset="0.52" stop-color="#fff" stop-opacity="0"/><stop offset="0.73" stop-color="#fff" stop-opacity="0.1"/><stop offset="0.73" stop-color="#fff" stop-opacity="0.08"/><stop offset="0.73" stop-color="#fff" stop-opacity="0.03"/><stop offset="0.73" stop-color="#fff" stop-opacity="0.01"/><stop offset="0.73" stop-color="#fff" stop-opacity="0"/></radialGradient></defs><g id="Layer_2" data-name="Layer 2"><g id="Layer_1-2" data-name="Layer 1"><g id="Layer_2-2" data-name="Layer 2"><g id="icons"><path class="cls-1" d="M137.31,0a137.22,137.22,0,1,0-.18,274.44H274.54V137.22A137.22,137.22,0,0,0,137.32,0ZM15.4,137.22A121.92,121.92,0,1,1,137.32,259.13h0A121.91,121.91,0,0,1,15.4,137.22Z"/><path class="cls-2" d="M259.23,137.22A121.92,121.92,0,1,1,137.31,15.31h0A121.92,121.92,0,0,1,259.23,137.22Z"/><path class="cls-3" d="M259.23,137.22A121.92,121.92,0,1,1,137.31,15.31h0A121.92,121.92,0,0,1,259.23,137.22Z"/></g></g><path class="cls-4" d="M41.11,166.24c2.56-.2,4.8-.9,6.14-2.37,1.54-1.79,2.12-4.23,2.12-11.65V126.3H55v28.1c0,6-1,9.92-3.71,12.73-2.5,2.5-6.6,3.52-9.6,3.52ZM55.64,117.6a3.31,3.31,0,0,1-3.52,3.46,3.37,3.37,0,0,1-3.46-3.46,3.45,3.45,0,0,1,3.59-3.52A3.33,3.33,0,0,1,55.64,117.6Z"/><path class="cls-4" d="M102.36,163.61c-5.83-1.53-11.52-3.26-16.52-5a8.22,8.22,0,0,0-2.62-.64c-10.24-.38-19-7.94-19-21.82s8.45-22.72,20.1-22.72,19.33,9.09,19.33,21.82c0,11.07-5.12,18.18-12.29,20.67v.26c4.29,1.09,9,2.11,12.61,2.75Zm-4.61-28.09c0-8.64-4.48-17.54-13.63-17.54-9.41,0-14,8.71-14,18-.07,9.15,5,17.41,13.69,17.41C92.76,153.44,97.75,145.37,97.75,135.52Z"/><path class="cls-4" d="M139,148.83c0,3.2.07,6,.26,8.45h-5l-.32-5.06h-.13A11.64,11.64,0,0,1,123.54,158c-4.86,0-10.69-2.69-10.69-13.57V126.3h5.64v17.15c0,5.89,1.79,9.86,6.91,9.86a8.13,8.13,0,0,0,7.42-5.12,8.24,8.24,0,0,0,.51-2.88v-19H139Z"/><path class="cls-4" d="M153.81,142.81c.13,7.62,5,10.75,10.63,10.75A20.27,20.27,0,0,0,173,152l1,4a25.14,25.14,0,0,1-10.3,1.92c-9.54,0-15.23-6.28-15.23-15.62s5.5-16.7,14.52-16.7c10.12,0,12.8,8.89,12.8,14.59a20.05,20.05,0,0,1-.19,2.62Zm16.51-4c.07-3.58-1.47-9.15-7.8-9.15-5.7,0-8.2,5.25-8.64,9.15Z"/><path class="cls-4" d="M185.11,136c0-3.65-.07-6.79-.26-9.67h4.93l.19,6.08h.26c1.41-4.16,4.8-6.78,8.57-6.78a6,6,0,0,1,1.6.19v5.31a8.31,8.31,0,0,0-1.92-.19c-4,0-6.78,3-7.55,7.23a15.77,15.77,0,0,0-.25,2.63v16.51h-5.57Z"/><path class="cls-4" d="M210.45,126.3l6.79,18.31c.7,2,1.47,4.47,2,6.33h.13c.57-1.86,1.21-4.22,2-6.46l6.15-18.18h6L225,148.38c-4,10.62-6.78,16.06-10.62,19.39a15.41,15.41,0,0,1-6.91,3.65L206,166.68a14.63,14.63,0,0,0,4.92-2.75,17,17,0,0,0,4.74-6.27,4,4,0,0,0,.45-1.34,4.92,4.92,0,0,0-.39-1.48L204.31,126.3Z"/></g></g></svg>