<svg xmlns="http://www.w3.org/2000/svg" xmlns:xlink="http://www.w3.org/1999/xlink" viewBox="0 0 274.54 274.44"><defs><style>.cls-1{fill:url(#linear-gradient);}.cls-2{fill:#53499d;stroke:#fff;stroke-miterlimit:10;stroke-width:5px;}.cls-3{fill:url(#radial-gradient);}.cls-4{fill:#fffdfd;}</style><linearGradient id="linear-gradient" x1="-12.86" y1="265.63" x2="454.46" y2="-129.23" gradientTransform="matrix(1, 0, 0, -1, 0, 276)" gradientUnits="userSpaceOnUse"><stop offset="0" stop-color="#fff" stop-opacity="0"/><stop offset="0.22" stop-color="#fff" stop-opacity="0.5"/><stop offset="0.48" stop-color="#fff" stop-opacity="0.28"/><stop offset="1" stop-color="#fff"/></linearGradient><radialGradient id="radial-gradient" cx="34.97" cy="190.5" r="269.92" gradientTransform="matrix(1, 0, 0, -1, 0, 276)" gradientUnits="userSpaceOnUse"><stop offset="0.52" stop-color="#fff" stop-opacity="0"/><stop offset="0.73" stop-color="#fff" stop-opacity="0.1"/><stop offset="0.73" stop-color="#fff" stop-opacity="0.08"/><stop offset="0.73" stop-color="#fff" stop-opacity="0.03"/><stop offset="0.73" stop-color="#fff" stop-opacity="0.01"/><stop offset="0.73" stop-color="#fff" stop-opacity="0"/></radialGradient></defs><g id="Layer_2" data-name="Layer 2"><g id="Layer_1-2" data-name="Layer 1"><g id="Layer_2-2" data-name="Layer 2"><g id="icons"><path class="cls-1" d="M137.31,0a137.22,137.22,0,1,0-.18,274.44H274.54V137.22A137.22,137.22,0,0,0,137.32,0ZM15.4,137.22A121.92,121.92,0,1,1,137.32,259.13h0A121.91,121.91,0,0,1,15.4,137.22Z"/><path class="cls-2" d="M259.23,137.22A121.92,121.92,0,1,1,137.31,15.31h0A121.92,121.92,0,0,1,259.23,137.22Z"/><path class="cls-3" d="M259.23,137.22A121.92,121.92,0,1,1,137.31,15.31h0A121.92,121.92,0,0,1,259.23,137.22Z"/></g></g><path class="cls-4" d="M40,143.82l-3.5,10.61H32l11.45-33.71h5.25l11.5,33.71H55.54l-3.6-10.61Zm11-3.4-3.3-9.7c-.75-2.2-1.25-4.2-1.75-6.15h-.1c-.5,2-1,4.05-1.7,6.1l-3.3,9.75Z"/><path class="cls-4" d="M67,154.43V120.72h4.75l10.8,17.05a95.4,95.4,0,0,1,6,10.95l.1-.05c-.4-4.5-.5-8.6-.5-13.85v-14.1h4.1v33.71h-4.4l-10.7-17.11a107,107,0,0,1-6.3-11.25l-.15.05c.25,4.25.35,8.3.35,13.9v14.41Z"/><path class="cls-4" d="M101.74,121.17a62.31,62.31,0,0,1,9.25-.7c6.25,0,10.7,1.45,13.65,4.2s4.75,6.65,4.75,12.1-1.7,10-4.85,13.1-8.35,4.85-14.9,4.85a70.21,70.21,0,0,1-7.9-.4Zm4.35,29.8a26.35,26.35,0,0,0,4.4.25c9.3,0,14.35-5.2,14.35-14.3,0-7.95-4.45-13-13.65-13a24.72,24.72,0,0,0-5.1.45Z"/><path class="cls-4" d="M136.89,121.17a45.31,45.31,0,0,1,8.35-.7c4.65,0,7.65.85,9.75,2.75a8.39,8.39,0,0,1,2.65,6.4,8.85,8.85,0,0,1-6.35,8.6v.15c2.6.9,4.15,3.3,5,6.8,1.1,4.7,1.9,8,2.6,9.26h-4.5c-.55-1-1.3-3.86-2.25-8.06-1-4.65-2.8-6.4-6.75-6.55h-4.1v14.61h-4.35Zm4.35,15.35h4.45c4.65,0,7.6-2.55,7.6-6.4,0-4.35-3.15-6.25-7.75-6.3a17.9,17.9,0,0,0-4.3.4Z"/><path class="cls-4" d="M194.44,137.22c0,11.6-7.05,17.75-15.65,17.75-8.9,0-15.15-6.9-15.15-17.1,0-10.7,6.65-17.7,15.65-17.7C188.49,120.17,194.44,127.22,194.44,137.22Zm-26.15.55c0,7.2,3.9,13.66,10.75,13.66s10.8-6.36,10.8-14c0-6.7-3.5-13.7-10.75-13.7S168.29,130.37,168.29,137.77Z"/><path class="cls-4" d="M206.29,120.72v33.71h-4.35V120.72Z"/><path class="cls-4" d="M215.74,121.17a62.31,62.31,0,0,1,9.25-.7c6.25,0,10.7,1.45,13.65,4.2s4.75,6.65,4.75,12.1-1.7,10-4.85,13.1-8.35,4.85-14.9,4.85a70.21,70.21,0,0,1-7.9-.4Zm4.35,29.8a26.35,26.35,0,0,0,4.4.25c9.3,0,14.35-5.2,14.35-14.3,0-7.95-4.45-13-13.65-13a24.72,24.72,0,0,0-5.1.45Z"/></g></g></svg>