<svg xmlns="http://www.w3.org/2000/svg" xmlns:xlink="http://www.w3.org/1999/xlink" viewBox="0 0 274.54 274.44"><defs><style>.cls-1{fill:url(#linear-gradient);}.cls-2{fill:#53499d;stroke:#fff;stroke-miterlimit:10;stroke-width:5px;}.cls-3{fill:url(#radial-gradient);}.cls-4{fill:#fffdfd;}</style><linearGradient id="linear-gradient" x1="-12.86" y1="265.63" x2="454.46" y2="-129.23" gradientTransform="matrix(1, 0, 0, -1, 0, 276)" gradientUnits="userSpaceOnUse"><stop offset="0" stop-color="#fff" stop-opacity="0"/><stop offset="0.22" stop-color="#fff" stop-opacity="0.5"/><stop offset="0.48" stop-color="#fff" stop-opacity="0.28"/><stop offset="1" stop-color="#fff"/></linearGradient><radialGradient id="radial-gradient" cx="34.97" cy="190.5" r="269.92" gradientTransform="matrix(1, 0, 0, -1, 0, 276)" gradientUnits="userSpaceOnUse"><stop offset="0.52" stop-color="#fff" stop-opacity="0"/><stop offset="0.73" stop-color="#fff" stop-opacity="0.1"/><stop offset="0.73" stop-color="#fff" stop-opacity="0.08"/><stop offset="0.73" stop-color="#fff" stop-opacity="0.03"/><stop offset="0.73" stop-color="#fff" stop-opacity="0.01"/><stop offset="0.73" stop-color="#fff" stop-opacity="0"/></radialGradient></defs><g id="Layer_2" data-name="Layer 2"><g id="Layer_1-2" data-name="Layer 1"><g id="Layer_2-2" data-name="Layer 2"><g id="icons"><path class="cls-1" d="M137.31,0a137.22,137.22,0,1,0-.18,274.44H274.54V137.22A137.22,137.22,0,0,0,137.32,0ZM15.4,137.22A121.92,121.92,0,1,1,137.32,259.13h0A121.91,121.91,0,0,1,15.4,137.22Z"/><path class="cls-2" d="M259.23,137.22A121.92,121.92,0,1,1,137.31,15.31h0A121.92,121.92,0,0,1,259.23,137.22Z"/><path class="cls-3" d="M259.23,137.22A121.92,121.92,0,1,1,137.31,15.31h0A121.92,121.92,0,0,1,259.23,137.22Z"/></g></g><path class="cls-4" d="M37.9,147.28l-8-31.68h4.33l3.76,16c.93,3.94,1.78,7.89,2.34,11h.1c.52-3.15,1.5-6.91,2.58-11l4.23-16h4.28l3.85,16.07c.9,3.76,1.74,7.52,2.21,10.86h.1c.65-3.48,1.55-7,2.53-10.95l4.19-16h4.18l-9,31.68H55.29l-4-16.5a96.12,96.12,0,0,1-2.07-10.34h-.09a99.1,99.1,0,0,1-2.44,10.34l-4.52,16.5Z"/><path class="cls-4" d="M94.67,135.71c0,8.42-5.83,12.08-11.32,12.08-6.16,0-10.91-4.51-10.91-11.7,0-7.61,5-12.08,11.28-12.08C90.26,124,94.67,128.76,94.67,135.71Zm-18,.24c0,5,2.86,8.74,6.9,8.74s6.91-3.71,6.91-8.83c0-3.86-1.92-8.75-6.81-8.75S76.63,131.63,76.63,136Z"/><path class="cls-4" d="M101.63,131.63c0-2.68,0-5-.19-7.1h3.62l.14,4.46h.19a6.82,6.82,0,0,1,6.3-5,4.58,4.58,0,0,1,1.17.14v3.9a6.4,6.4,0,0,0-1.41-.14c-2.91,0-5,2.21-5.54,5.31a11.17,11.17,0,0,0-.19,1.93v12.13h-4.09Z"/><path class="cls-4" d="M138.38,113.91V141.4c0,2,.05,4.33.19,5.88h-3.71l-.19-3.95h-.09a8.42,8.42,0,0,1-7.76,4.46c-5.5,0-9.73-4.65-9.73-11.56,0-7.56,4.66-12.22,10.2-12.22,3.48,0,5.83,1.65,6.86,3.48h.1V113.91Zm-4.13,19.88a7.36,7.36,0,0,0-.19-1.74,6.09,6.09,0,0,0-6-4.8c-4.28,0-6.81,3.76-6.81,8.79,0,4.61,2.25,8.42,6.72,8.42a6.22,6.22,0,0,0,6.06-4.94,7.2,7.2,0,0,0,.19-1.78Z"/><path class="cls-4" d="M147.13,116a47.14,47.14,0,0,1,7.84-.61c4.05,0,7,.93,8.89,2.63a8.49,8.49,0,0,1,2.77,6.62,9.35,9.35,0,0,1-2.44,6.77c-2.17,2.3-5.69,3.48-9.69,3.48a14.37,14.37,0,0,1-3.29-.28v12.69h-4.08Zm4.08,15.27a13.57,13.57,0,0,0,3.39.33c4.93,0,7.94-2.4,7.94-6.77,0-4.18-3-6.2-7.47-6.2a17.09,17.09,0,0,0-3.86.33Z"/><path class="cls-4" d="M173.73,131.63c0-2.68,0-5-.19-7.1h3.62l.14,4.46h.19a6.82,6.82,0,0,1,6.3-5,4.63,4.63,0,0,1,1.17.14v3.9a6.46,6.46,0,0,0-1.41-.14c-2.91,0-5,2.21-5.55,5.31a12.31,12.31,0,0,0-.18,1.93v12.13h-4.09Z"/><path class="cls-4" d="M193.14,136.65c.09,5.6,3.66,7.9,7.8,7.9a15.11,15.11,0,0,0,6.3-1.17l.7,3a18.53,18.53,0,0,1-7.56,1.41c-7,0-11.19-4.61-11.19-11.47s4-12.27,10.67-12.27c7.42,0,9.4,6.53,9.4,10.72a17.09,17.09,0,0,1-.14,1.92Zm12.12-3c.05-2.63-1.08-6.72-5.73-6.72-4.18,0-6,3.86-6.35,6.72Z"/><path class="cls-4" d="M215.56,143.05a10.81,10.81,0,0,0,5.45,1.64c3,0,4.42-1.5,4.42-3.38s-1.18-3.06-4.23-4.18c-4.09-1.46-6-3.72-6-6.44,0-3.67,3-6.68,7.85-6.68a11.38,11.38,0,0,1,5.59,1.41l-1,3a8.88,8.88,0,0,0-4.65-1.32c-2.45,0-3.81,1.41-3.81,3.11,0,1.88,1.36,2.72,4.32,3.85,4,1.5,6,3.48,6,6.86,0,4-3.1,6.82-8.5,6.82a13.09,13.09,0,0,1-6.4-1.55Z"/><path class="cls-4" d="M235.91,143.05a10.81,10.81,0,0,0,5.45,1.64c3,0,4.42-1.5,4.42-3.38s-1.18-3.06-4.23-4.18c-4.09-1.46-6-3.72-6-6.44,0-3.67,3-6.68,7.85-6.68a11.38,11.38,0,0,1,5.59,1.41l-1,3a8.88,8.88,0,0,0-4.65-1.32c-2.45,0-3.81,1.41-3.81,3.11,0,1.88,1.36,2.72,4.32,3.85,3.95,1.5,6,3.48,6,6.86,0,4-3.1,6.82-8.5,6.82a13.09,13.09,0,0,1-6.4-1.55Z"/></g></g></svg>