<svg xmlns="http://www.w3.org/2000/svg" xmlns:xlink="http://www.w3.org/1999/xlink" viewBox="0 0 274.54 274.44"><defs><style>.cls-1{fill:url(#linear-gradient);}.cls-2{fill:#53499d;stroke:#fff;stroke-miterlimit:10;stroke-width:5px;}.cls-3{fill:url(#radial-gradient);}.cls-4{fill:#fffdfd;}</style><linearGradient id="linear-gradient" x1="-12.86" y1="265.63" x2="454.46" y2="-129.23" gradientTransform="matrix(1, 0, 0, -1, 0, 276)" gradientUnits="userSpaceOnUse"><stop offset="0" stop-color="#fff" stop-opacity="0"/><stop offset="0.22" stop-color="#fff" stop-opacity="0.5"/><stop offset="0.48" stop-color="#fff" stop-opacity="0.28"/><stop offset="1" stop-color="#fff"/></linearGradient><radialGradient id="radial-gradient" cx="34.97" cy="190.5" r="269.92" gradientTransform="matrix(1, 0, 0, -1, 0, 276)" gradientUnits="userSpaceOnUse"><stop offset="0.52" stop-color="#fff" stop-opacity="0"/><stop offset="0.73" stop-color="#fff" stop-opacity="0.1"/><stop offset="0.73" stop-color="#fff" stop-opacity="0.08"/><stop offset="0.73" stop-color="#fff" stop-opacity="0.03"/><stop offset="0.73" stop-color="#fff" stop-opacity="0.01"/><stop offset="0.73" stop-color="#fff" stop-opacity="0"/></radialGradient></defs><g id="Layer_2" data-name="Layer 2"><g id="Layer_1-2" data-name="Layer 1"><g id="Layer_2-2" data-name="Layer 2"><g id="icons"><path class="cls-1" d="M137.31,0a137.22,137.22,0,1,0-.18,274.44H274.54V137.22A137.22,137.22,0,0,0,137.32,0ZM15.4,137.22A121.92,121.92,0,1,1,137.32,259.13h0A121.91,121.91,0,0,1,15.4,137.22Z"/><path class="cls-2" d="M259.23,137.22A121.92,121.92,0,1,1,137.31,15.31h0A121.92,121.92,0,0,1,259.23,137.22Z"/><path class="cls-3" d="M259.23,137.22A121.92,121.92,0,1,1,137.31,15.31h0A121.92,121.92,0,0,1,259.23,137.22Z"/></g></g><path class="cls-4" d="M33.06,119.84a48.79,48.79,0,0,1,8.85-.74c4.93,0,8.11.9,10.34,2.92a8.89,8.89,0,0,1,2.81,6.78,9.37,9.37,0,0,1-6.73,9.11v.16c2.75,1,4.4,3.5,5.24,7.21,1.17,5,2,8.43,2.76,9.8H51.56c-.58-1-1.38-4.08-2.38-8.53-1.06-4.93-3-6.78-7.16-6.94H37.68v15.47H33.06Zm4.62,16.27h4.71c4.93,0,8.06-2.7,8.06-6.78,0-4.61-3.34-6.63-8.22-6.68a18.4,18.4,0,0,0-4.55.43Z"/><path class="cls-4" d="M82,138.34H68.15v12.87H83.62v3.87H63.54V119.37H82.83v3.86H68.15v11.29H82Z"/><path class="cls-4" d="M97.35,143.85l-3.71,11.23H88.87L101,119.37h5.56l12.19,35.71h-4.93L110,143.85Zm11.71-3.6L105.57,130c-.8-2.33-1.33-4.45-1.86-6.51h-.1c-.53,2.12-1.12,4.29-1.81,6.46l-3.49,10.34Z"/><path class="cls-4" d="M150.93,153.92a22.82,22.82,0,0,1-9.43,1.69c-10.07,0-17.65-6.36-17.65-18.07,0-11.18,7.58-18.76,18.66-18.76a19.25,19.25,0,0,1,8.48,1.59l-1.12,3.77a16.75,16.75,0,0,0-7.2-1.49c-8.38,0-13.94,5.35-13.94,14.73,0,8.75,5,14.36,13.72,14.36a18.51,18.51,0,0,0,7.53-1.48Z"/><path class="cls-4" d="M165.46,123.29H154.59v-3.92H181v3.92H170.12v31.79h-4.66Z"/><path class="cls-4" d="M207.48,119.37h4.61v23.9c0,9.48-4.66,12.4-10.81,12.4a14.8,14.8,0,0,1-4.92-.85l.68-3.76a11.1,11.1,0,0,0,3.87.68c4.14,0,6.57-1.85,6.57-8.84Z"/><path class="cls-4" d="M221.11,149.47a16.31,16.31,0,0,0,8.26,2.33c4.72,0,7.47-2.49,7.47-6.1,0-3.33-1.9-5.24-6.73-7.1-5.82-2.06-9.43-5.08-9.43-10.12,0-5.56,4.61-9.7,11.55-9.7a16.25,16.25,0,0,1,7.9,1.75l-1.27,3.76a14.32,14.32,0,0,0-6.78-1.69c-4.88,0-6.74,2.91-6.74,5.35,0,3.34,2.18,5,7.11,6.89,6,2.33,9.11,5.25,9.11,10.49,0,5.51-4.08,10.28-12.51,10.28-3.44,0-7.2-1-9.11-2.28Z"/></g></g></svg>