<svg xmlns="http://www.w3.org/2000/svg" xmlns:xlink="http://www.w3.org/1999/xlink" viewBox="0 0 274.54 274.44"><defs><style>.cls-1{fill:url(#linear-gradient);}.cls-2{fill:#53499d;stroke:#fff;stroke-miterlimit:10;stroke-width:5px;}.cls-3{fill:url(#radial-gradient);}.cls-4{fill:#fffdfd;}</style><linearGradient id="linear-gradient" x1="-12.86" y1="265.63" x2="454.46" y2="-129.23" gradientTransform="matrix(1, 0, 0, -1, 0, 276)" gradientUnits="userSpaceOnUse"><stop offset="0" stop-color="#fff" stop-opacity="0"/><stop offset="0.22" stop-color="#fff" stop-opacity="0.5"/><stop offset="0.48" stop-color="#fff" stop-opacity="0.28"/><stop offset="1" stop-color="#fff"/></linearGradient><radialGradient id="radial-gradient" cx="34.97" cy="190.5" r="269.92" gradientTransform="matrix(1, 0, 0, -1, 0, 276)" gradientUnits="userSpaceOnUse"><stop offset="0.52" stop-color="#fff" stop-opacity="0"/><stop offset="0.73" stop-color="#fff" stop-opacity="0.1"/><stop offset="0.73" stop-color="#fff" stop-opacity="0.08"/><stop offset="0.73" stop-color="#fff" stop-opacity="0.03"/><stop offset="0.73" stop-color="#fff" stop-opacity="0.01"/><stop offset="0.73" stop-color="#fff" stop-opacity="0"/></radialGradient></defs><g id="Layer_2" data-name="Layer 2"><g id="Layer_1-2" data-name="Layer 1"><g id="Layer_2-2" data-name="Layer 2"><g id="icons"><path class="cls-1" d="M137.31,0a137.22,137.22,0,1,0-.18,274.44H274.54V137.22A137.22,137.22,0,0,0,137.32,0ZM15.4,137.22A121.92,121.92,0,1,1,137.32,259.13h0A121.91,121.91,0,0,1,15.4,137.22Z"/><path class="cls-2" d="M259.23,137.22A121.92,121.92,0,1,1,137.31,15.31h0A121.92,121.92,0,0,1,259.23,137.22Z"/><path class="cls-3" d="M259.23,137.22A121.92,121.92,0,1,1,137.31,15.31h0A121.92,121.92,0,0,1,259.23,137.22Z"/></g></g><path class="cls-4" d="M41.05,115.6H58.11V119h-13v10.53h12v3.38h-12v14.34H41.05Z"/><path class="cls-4" d="M69.76,115.6v18.75c0,7.1,3.15,10.11,7.38,10.11,4.7,0,7.71-3.11,7.71-10.11V115.6H89v18.47c0,9.73-5.13,13.72-12,13.72-6.48,0-11.37-3.71-11.37-13.53V115.6Z"/><path class="cls-4" d="M114.22,132.42H101.91v11.43h13.72v3.43H97.82V115.6h17.11V119h-13v10h12.31Z"/><path class="cls-4" d="M122.69,115.6h4.08v28.25h13.54v3.43H122.69Z"/><path class="cls-4" d="M156.05,133v3.05h-11.6V133Z"/><path class="cls-4" d="M162.78,116a47.24,47.24,0,0,1,7.84-.61c4,0,7,.93,8.89,2.63a8.49,8.49,0,0,1,2.77,6.62,9.35,9.35,0,0,1-2.44,6.77c-2.17,2.3-5.69,3.48-9.69,3.48a14.37,14.37,0,0,1-3.29-.28v12.69h-4.08Zm4.08,15.27a13.57,13.57,0,0,0,3.39.33c4.93,0,7.94-2.4,7.94-6.77,0-4.18-3-6.2-7.47-6.2a17.09,17.09,0,0,0-3.86.33Z"/><path class="cls-4" d="M193.61,115.6v13.25h15.32V115.6h4.13v31.68h-4.13V132.42H193.61v14.86h-4.09V115.6Z"/><path class="cls-4" d="M221.9,116a47.37,47.37,0,0,1,7.85-.61c4,0,7,.93,8.88,2.63a8.49,8.49,0,0,1,2.77,6.62,9.31,9.31,0,0,1-2.44,6.77c-2.16,2.3-5.69,3.48-9.68,3.48a14.37,14.37,0,0,1-3.29-.28v12.69H221.9ZM226,131.25a13.44,13.44,0,0,0,3.38.33c4.94,0,7.95-2.4,7.95-6.77,0-4.18-3-6.2-7.48-6.2a17,17,0,0,0-3.85.33Z"/></g></g></svg>