<svg xmlns="http://www.w3.org/2000/svg" xmlns:xlink="http://www.w3.org/1999/xlink" viewBox="0 0 274.54 274.44"><defs><style>.cls-1{fill:url(#linear-gradient);}.cls-2{fill:#53499d;stroke:#fff;stroke-miterlimit:10;stroke-width:5px;}.cls-3{fill:url(#radial-gradient);}.cls-4{fill:#fffdfd;}</style><linearGradient id="linear-gradient" x1="-12.86" y1="265.63" x2="454.46" y2="-129.23" gradientTransform="matrix(1, 0, 0, -1, 0, 276)" gradientUnits="userSpaceOnUse"><stop offset="0" stop-color="#fff" stop-opacity="0"/><stop offset="0.22" stop-color="#fff" stop-opacity="0.5"/><stop offset="0.48" stop-color="#fff" stop-opacity="0.28"/><stop offset="1" stop-color="#fff"/></linearGradient><radialGradient id="radial-gradient" cx="34.97" cy="190.5" r="269.92" gradientTransform="matrix(1, 0, 0, -1, 0, 276)" gradientUnits="userSpaceOnUse"><stop offset="0.52" stop-color="#fff" stop-opacity="0"/><stop offset="0.73" stop-color="#fff" stop-opacity="0.1"/><stop offset="0.73" stop-color="#fff" stop-opacity="0.08"/><stop offset="0.73" stop-color="#fff" stop-opacity="0.03"/><stop offset="0.73" stop-color="#fff" stop-opacity="0.01"/><stop offset="0.73" stop-color="#fff" stop-opacity="0"/></radialGradient></defs><g id="Layer_2" data-name="Layer 2"><g id="Layer_1-2" data-name="Layer 1"><g id="Layer_2-2" data-name="Layer 2"><g id="icons"><path class="cls-1" d="M137.31,0a137.22,137.22,0,1,0-.18,274.44H274.54V137.22A137.22,137.22,0,0,0,137.32,0ZM15.4,137.22A121.92,121.92,0,1,1,137.32,259.13h0A121.91,121.91,0,0,1,15.4,137.22Z"/><path class="cls-2" d="M259.23,137.22A121.92,121.92,0,1,1,137.31,15.31h0A121.92,121.92,0,0,1,259.23,137.22Z"/><path class="cls-3" d="M259.23,137.22A121.92,121.92,0,1,1,137.31,15.31h0A121.92,121.92,0,0,1,259.23,137.22Z"/></g></g><path class="cls-4" d="M71,110.66a81.52,81.52,0,0,1,13.53-1c7,0,12.07,1.62,15.31,4.53a14.68,14.68,0,0,1,4.78,11.42c0,4.94-1.46,8.83-4.21,11.67-3.73,4-9.81,6-16.69,6a24,24,0,0,1-5.67-.49V164.6H71ZM78,137a23.36,23.36,0,0,0,5.83.57c8.51,0,13.69-4.13,13.69-11.66,0-7.21-5.1-10.69-12.88-10.69a29.93,29.93,0,0,0-6.64.56Z"/><path class="cls-4" d="M124.11,110v22.84h26.4V110h7.13V164.6h-7.13V139h-26.4V164.6h-7V110Z"/><path class="cls-4" d="M172.87,110.66a81.42,81.42,0,0,1,13.53-1c7,0,12.07,1.62,15.31,4.53a14.7,14.7,0,0,1,4.77,11.42c0,4.94-1.45,8.83-4.21,11.67-3.72,4-9.8,6-16.68,6a24,24,0,0,1-5.67-.49V164.6h-7Zm7,26.32a23.36,23.36,0,0,0,5.83.57c8.5,0,13.69-4.13,13.69-11.66,0-7.21-5.1-10.69-12.88-10.69a29.86,29.86,0,0,0-6.64.56Z"/></g></g></svg>