<svg xmlns="http://www.w3.org/2000/svg" xmlns:xlink="http://www.w3.org/1999/xlink" viewBox="0 0 274.54 274.44"><defs><style>.cls-1{fill:url(#linear-gradient);}.cls-2{fill:#53499d;stroke:#fff;stroke-miterlimit:10;stroke-width:5px;}.cls-3{fill:url(#radial-gradient);}.cls-4{fill:#fffdfd;}</style><linearGradient id="linear-gradient" x1="-12.86" y1="265.63" x2="454.46" y2="-129.23" gradientTransform="matrix(1, 0, 0, -1, 0, 276)" gradientUnits="userSpaceOnUse"><stop offset="0" stop-color="#fff" stop-opacity="0"/><stop offset="0.22" stop-color="#fff" stop-opacity="0.5"/><stop offset="0.48" stop-color="#fff" stop-opacity="0.28"/><stop offset="1" stop-color="#fff"/></linearGradient><radialGradient id="radial-gradient" cx="34.97" cy="190.5" r="269.92" gradientTransform="matrix(1, 0, 0, -1, 0, 276)" gradientUnits="userSpaceOnUse"><stop offset="0.52" stop-color="#fff" stop-opacity="0"/><stop offset="0.73" stop-color="#fff" stop-opacity="0.1"/><stop offset="0.73" stop-color="#fff" stop-opacity="0.08"/><stop offset="0.73" stop-color="#fff" stop-opacity="0.03"/><stop offset="0.73" stop-color="#fff" stop-opacity="0.01"/><stop offset="0.73" stop-color="#fff" stop-opacity="0"/></radialGradient></defs><g id="Layer_2" data-name="Layer 2"><g id="Layer_1-2" data-name="Layer 1"><g id="Layer_2-2" data-name="Layer 2"><g id="icons"><path class="cls-1" d="M137.31,0a137.22,137.22,0,1,0-.18,274.44H274.54V137.22A137.22,137.22,0,0,0,137.32,0ZM15.4,137.22A121.92,121.92,0,1,1,137.32,259.13h0A121.91,121.91,0,0,1,15.4,137.22Z"/><path class="cls-2" d="M259.23,137.22A121.92,121.92,0,1,1,137.31,15.31h0A121.92,121.92,0,0,1,259.23,137.22Z"/><path class="cls-3" d="M259.23,137.22A121.92,121.92,0,1,1,137.31,15.31h0A121.92,121.92,0,0,1,259.23,137.22Z"/></g></g><path class="cls-4" d="M50.49,115.6h4.09v28.25H68.12v3.43H50.49Z"/><path class="cls-4" d="M79.54,137.31l-3.29,10H72L82.78,115.6h4.94l10.81,31.68H94.16l-3.39-10Zm10.39-3.19L86.82,125c-.7-2.07-1.17-4-1.64-5.78h-.09c-.47,1.88-1,3.81-1.6,5.73l-3.11,9.17Z"/><path class="cls-4" d="M104.92,116a42.94,42.94,0,0,1,7.85-.65c4.37,0,7.19.79,9.16,2.58a7.88,7.88,0,0,1,2.49,6,8.31,8.31,0,0,1-6,8.08v.14c2.45.85,3.9,3.1,4.66,6.39,1,4.42,1.78,7.47,2.44,8.7h-4.23c-.52-.9-1.22-3.62-2.11-7.57-.94-4.37-2.64-6-6.35-6.16H109v13.73h-4.09ZM109,130.45h4.18c4.37,0,7.14-2.4,7.14-6,0-4.09-3-5.88-7.28-5.93a16.67,16.67,0,0,0-4,.38Z"/><path class="cls-4" d="M137.07,137.31l-3.29,10h-4.23l10.76-31.68h4.93l10.81,31.68h-4.37l-3.38-10Zm10.38-3.19-3.1-9.12c-.7-2.07-1.17-4-1.64-5.78h-.1c-.47,1.88-1,3.81-1.6,5.73l-3.1,9.17Z"/><path class="cls-4" d="M169.4,147.28,159.06,115.6h4.42l4.94,15.6c1.36,4.28,2.53,8.13,3.38,11.85h.09c.9-3.67,2.21-7.66,3.62-11.8l5.36-15.65h4.37l-11.33,31.68Z"/><path class="cls-4" d="M206.81,132.42H194.5v11.43h13.72v3.43H190.41V115.6h17.11V119h-13v10h12.31Z"/><path class="cls-4" d="M215.27,115.6h4.09v28.25H232.9v3.43H215.27Z"/></g></g></svg>