<svg xmlns="http://www.w3.org/2000/svg" xmlns:xlink="http://www.w3.org/1999/xlink" viewBox="0 0 274.54 274.44"><defs><style>.cls-1{fill:url(#linear-gradient);}.cls-2{fill:#53499d;stroke:#fff;stroke-miterlimit:10;stroke-width:5px;}.cls-3{fill:url(#radial-gradient);}.cls-4{fill:#fffdfd;}</style><linearGradient id="linear-gradient" x1="-12.86" y1="265.63" x2="454.46" y2="-129.23" gradientTransform="matrix(1, 0, 0, -1, 0, 276)" gradientUnits="userSpaceOnUse"><stop offset="0" stop-color="#fff" stop-opacity="0"/><stop offset="0.22" stop-color="#fff" stop-opacity="0.5"/><stop offset="0.48" stop-color="#fff" stop-opacity="0.28"/><stop offset="1" stop-color="#fff"/></linearGradient><radialGradient id="radial-gradient" cx="34.97" cy="190.5" r="269.92" gradientTransform="matrix(1, 0, 0, -1, 0, 276)" gradientUnits="userSpaceOnUse"><stop offset="0.52" stop-color="#fff" stop-opacity="0"/><stop offset="0.73" stop-color="#fff" stop-opacity="0.1"/><stop offset="0.73" stop-color="#fff" stop-opacity="0.08"/><stop offset="0.73" stop-color="#fff" stop-opacity="0.03"/><stop offset="0.73" stop-color="#fff" stop-opacity="0.01"/><stop offset="0.73" stop-color="#fff" stop-opacity="0"/></radialGradient></defs><g id="Layer_2" data-name="Layer 2"><g id="Layer_1-2" data-name="Layer 1"><g id="Layer_2-2" data-name="Layer 2"><g id="icons"><path class="cls-1" d="M137.31,0a137.22,137.22,0,1,0-.18,274.44H274.54V137.22A137.22,137.22,0,0,0,137.32,0ZM15.4,137.22A121.92,121.92,0,1,1,137.32,259.13h0A121.91,121.91,0,0,1,15.4,137.22Z"/><path class="cls-2" d="M259.23,137.22A121.92,121.92,0,1,1,137.31,15.31h0A121.92,121.92,0,0,1,259.23,137.22Z"/><path class="cls-3" d="M259.23,137.22A121.92,121.92,0,1,1,137.31,15.31h0A121.92,121.92,0,0,1,259.23,137.22Z"/></g></g><path class="cls-4" d="M52.86,136.27c0,10.21-6.21,15.62-13.78,15.62-7.83,0-13.33-6.07-13.33-15,0-9.42,5.85-15.58,13.78-15.58C47.62,121.26,52.86,127.47,52.86,136.27Zm-23,.48c0,6.34,3.44,12,9.46,12s9.51-5.59,9.51-12.33c0-5.89-3.08-12-9.46-12S29.84,130.24,29.84,136.75Z"/><path class="cls-4" d="M59.46,122.1a44,44,0,0,1,7.34-.57c3.79,0,6.56.88,8.32,2.46a8,8,0,0,1,2.6,6.2,8.71,8.71,0,0,1-2.29,6.34c-2,2.16-5.33,3.26-9.07,3.26a13.18,13.18,0,0,1-3.08-.27v11.89H59.46Zm3.82,14.3a12.9,12.9,0,0,0,3.17.31c4.62,0,7.44-2.25,7.44-6.34,0-3.92-2.77-5.81-7-5.81a15.83,15.83,0,0,0-3.61.31Z"/><path class="cls-4" d="M99.85,137.5H88.32v10.69h12.85v3.22H84.49V121.75h16V125H88.32v9.37H99.85Z"/><path class="cls-4" d="M107.77,151.41V121.75H112l9.5,15a84.39,84.39,0,0,1,5.33,9.64l.09,0c-.36-4-.45-7.57-.45-12.19V121.75H130v29.66h-3.87l-9.42-15a95.57,95.57,0,0,1-5.54-9.91l-.13,0c.22,3.74.31,7.3.31,12.23v12.68Z"/><path class="cls-4" d="M170,150.44a19.11,19.11,0,0,1-7.84,1.41c-8.36,0-14.65-5.29-14.65-15,0-9.29,6.29-15.58,15.49-15.58a15.84,15.84,0,0,1,7,1.32l-.92,3.13a13.85,13.85,0,0,0-6-1.24c-6.95,0-11.57,4.45-11.57,12.24,0,7.26,4.18,11.92,11.4,11.92a15.31,15.31,0,0,0,6.25-1.23Z"/><path class="cls-4" d="M181.25,142.08l-3.09,9.33h-4l10.08-29.66h4.62L199,151.41h-4.09l-3.17-9.33Zm9.72-3-2.9-8.53c-.66-1.94-1.1-3.7-1.54-5.42h-.09c-.44,1.76-.93,3.57-1.5,5.37l-2.9,8.58Z"/><path class="cls-4" d="M205,122.14a40.3,40.3,0,0,1,7.34-.61c4.1,0,6.74.74,8.58,2.42a7.37,7.37,0,0,1,2.34,5.63,7.8,7.8,0,0,1-5.59,7.57v.13c2.29.79,3.65,2.9,4.36,6,1,4.14,1.67,7,2.28,8.15h-4a39.23,39.23,0,0,1-2-7.09c-.88-4.09-2.46-5.63-5.94-5.76h-3.61v12.85H205Zm3.82,13.51h3.92c4.09,0,6.69-2.24,6.69-5.63,0-3.83-2.77-5.5-6.82-5.55a15.49,15.49,0,0,0-3.79.36Z"/><path class="cls-4" d="M235.94,125h-9v-3.25h22V125h-9.07v26.41h-3.87Z"/></g></g></svg>