<svg xmlns="http://www.w3.org/2000/svg" xmlns:xlink="http://www.w3.org/1999/xlink" viewBox="0 0 274.54 274.44"><defs><style>.cls-1{fill:url(#linear-gradient);}.cls-2{fill:#53499d;stroke:#fff;stroke-miterlimit:10;stroke-width:5px;}.cls-3{fill:url(#radial-gradient);}.cls-4{fill:#fffdfd;}</style><linearGradient id="linear-gradient" x1="-12.86" y1="265.63" x2="454.46" y2="-129.23" gradientTransform="matrix(1, 0, 0, -1, 0, 276)" gradientUnits="userSpaceOnUse"><stop offset="0" stop-color="#fff" stop-opacity="0"/><stop offset="0.22" stop-color="#fff" stop-opacity="0.5"/><stop offset="0.48" stop-color="#fff" stop-opacity="0.28"/><stop offset="1" stop-color="#fff"/></linearGradient><radialGradient id="radial-gradient" cx="34.97" cy="190.5" r="269.92" gradientTransform="matrix(1, 0, 0, -1, 0, 276)" gradientUnits="userSpaceOnUse"><stop offset="0.52" stop-color="#fff" stop-opacity="0"/><stop offset="0.73" stop-color="#fff" stop-opacity="0.1"/><stop offset="0.73" stop-color="#fff" stop-opacity="0.08"/><stop offset="0.73" stop-color="#fff" stop-opacity="0.03"/><stop offset="0.73" stop-color="#fff" stop-opacity="0.01"/><stop offset="0.73" stop-color="#fff" stop-opacity="0"/></radialGradient></defs><g id="Layer_2" data-name="Layer 2"><g id="Layer_1-2" data-name="Layer 1"><g id="Layer_2-2" data-name="Layer 2"><g id="icons"><path class="cls-1" d="M137.31,0a137.22,137.22,0,1,0-.18,274.44H274.54V137.22A137.22,137.22,0,0,0,137.32,0ZM15.4,137.22A121.92,121.92,0,1,1,137.32,259.13h0A121.91,121.91,0,0,1,15.4,137.22Z"/><path class="cls-2" d="M259.23,137.22A121.92,121.92,0,1,1,137.31,15.31h0A121.92,121.92,0,0,1,259.23,137.22Z"/><path class="cls-3" d="M259.23,137.22A121.92,121.92,0,1,1,137.31,15.31h0A121.92,121.92,0,0,1,259.23,137.22Z"/></g></g><path class="cls-4" d="M39,115.61v18.75c0,7.1,3.15,10.11,7.38,10.11,4.7,0,7.71-3.11,7.71-10.11V115.61h4.14v18.47c0,9.73-5.13,13.72-12,13.72-6.48,0-11.37-3.71-11.37-13.53V115.61Z"/><path class="cls-4" d="M67.1,147.29V115.61h4.47l10.15,16a90.63,90.63,0,0,1,5.69,10.29l.09-.05c-.38-4.23-.47-8.08-.47-13V115.61h3.85v31.68H86.75L76.69,131.21a100.24,100.24,0,0,1-5.92-10.57l-.14,0c.23,4,.33,7.8.33,13.06v13.54Z"/><path class="cls-4" d="M103.85,115.61v31.68H99.77V115.61Z"/><path class="cls-4" d="M118.76,119.09h-9.64v-3.48h23.45v3.48h-9.68v28.2h-4.13Z"/><path class="cls-4" d="M144.89,147.29V133.85l-10-18.24h4.65l4.46,8.74c1.23,2.4,2.17,4.33,3.15,6.53h.1c.89-2.06,2-4.13,3.19-6.53l4.56-8.74h4.65L149,133.8v13.49Z"/><path class="cls-4" d="M176.23,142.54a13.89,13.89,0,0,0,6.77,1.93c5.31,0,7-3.39,6.91-5.93,0-4.27-3.9-6.1-7.89-6.1h-2.31v-3.11H182c3,0,6.81-1.55,6.81-5.17,0-2.44-1.55-4.6-5.36-4.6a11.24,11.24,0,0,0-6.11,2l-1.08-3a14.57,14.57,0,0,1,8-2.35c6,0,8.74,3.57,8.74,7.29,0,3.14-1.88,5.82-5.64,7.19v.09c3.76.75,6.82,3.57,6.82,7.85,0,4.89-3.81,9.16-11.14,9.16a15.59,15.59,0,0,1-7.94-2.06Z"/><path class="cls-4" d="M202.55,116a59.68,59.68,0,0,1,8.7-.65c5.87,0,10.06,1.36,12.83,3.94s4.46,6.25,4.46,11.38S227,140.1,224,143s-7.85,4.56-14,4.56a64.89,64.89,0,0,1-7.43-.38Zm4.09,28a25.6,25.6,0,0,0,4.14.24c8.74,0,13.49-4.89,13.49-13.44,0-7.48-4.19-12.22-12.83-12.22a23.66,23.66,0,0,0-4.8.42Z"/></g></g></svg>