<svg xmlns="http://www.w3.org/2000/svg" xmlns:xlink="http://www.w3.org/1999/xlink" viewBox="0 0 274.54 274.44"><defs><style>.cls-1{fill:url(#linear-gradient);}.cls-2{fill:#53499d;stroke:#fff;stroke-miterlimit:10;stroke-width:5px;}.cls-3{fill:url(#radial-gradient);}.cls-4{fill:#fffdfd;}</style><linearGradient id="linear-gradient" x1="-12.86" y1="265.63" x2="454.46" y2="-129.23" gradientTransform="matrix(1, 0, 0, -1, 0, 276)" gradientUnits="userSpaceOnUse"><stop offset="0" stop-color="#fff" stop-opacity="0"/><stop offset="0.22" stop-color="#fff" stop-opacity="0.5"/><stop offset="0.48" stop-color="#fff" stop-opacity="0.28"/><stop offset="1" stop-color="#fff"/></linearGradient><radialGradient id="radial-gradient" cx="34.97" cy="190.5" r="269.92" gradientTransform="matrix(1, 0, 0, -1, 0, 276)" gradientUnits="userSpaceOnUse"><stop offset="0.52" stop-color="#fff" stop-opacity="0"/><stop offset="0.73" stop-color="#fff" stop-opacity="0.1"/><stop offset="0.73" stop-color="#fff" stop-opacity="0.08"/><stop offset="0.73" stop-color="#fff" stop-opacity="0.03"/><stop offset="0.73" stop-color="#fff" stop-opacity="0.01"/><stop offset="0.73" stop-color="#fff" stop-opacity="0"/></radialGradient></defs><g id="Layer_2" data-name="Layer 2"><g id="Layer_1-2" data-name="Layer 1"><g id="Layer_2-2" data-name="Layer 2"><g id="icons"><path class="cls-1" d="M137.31,0a137.22,137.22,0,1,0-.18,274.44H274.54V137.22A137.22,137.22,0,0,0,137.32,0ZM15.4,137.22A121.92,121.92,0,1,1,137.32,259.13h0A121.91,121.91,0,0,1,15.4,137.22Z"/><path class="cls-2" d="M259.23,137.22A121.92,121.92,0,1,1,137.31,15.31h0A121.92,121.92,0,0,1,259.23,137.22Z"/><path class="cls-3" d="M259.23,137.22A121.92,121.92,0,1,1,137.31,15.31h0A121.92,121.92,0,0,1,259.23,137.22Z"/></g></g><path class="cls-4" d="M38.86,115.76H57.37v3.72H43.29V130.9h13v3.67h-13v15.56H38.86Z"/><path class="cls-4" d="M65.58,115.76H70V146.4H84.7v3.73H65.58Z"/><path class="cls-4" d="M96,115.76V136.1c0,7.7,3.42,11,8,11,5.1,0,8.36-3.37,8.36-11V115.76h4.49v20c0,10.55-5.56,14.89-13,14.89-7,0-12.34-4-12.34-14.69V115.76Z"/><path class="cls-4" d="M133,119.53H122.49v-3.77h25.45v3.77h-10.5v30.6H133Z"/><path class="cls-4" d="M160.18,119.53H149.73v-3.77h25.44v3.77h-10.5v30.6h-4.49Z"/><path class="cls-4" d="M198.68,134H185.32V146.4h14.9v3.73H180.89V115.76h18.56v3.72H185.32v10.86h13.36Z"/><path class="cls-4" d="M207.87,116.21a46.93,46.93,0,0,1,8.51-.71c4.75,0,7.81.87,10,2.81a8.54,8.54,0,0,1,2.7,6.52,9,9,0,0,1-6.48,8.77v.16c2.66.91,4.24,3.36,5,6.93,1.12,4.8,1.94,8.11,2.65,9.44h-4.59c-.56-1-1.32-3.93-2.29-8.21-1-4.75-2.86-6.53-6.88-6.68H212.3v14.89h-4.43Zm4.43,15.66h4.54c4.74,0,7.75-2.6,7.75-6.53,0-4.43-3.21-6.37-7.9-6.42a18,18,0,0,0-4.39.41Z"/></g></g></svg>