<svg xmlns="http://www.w3.org/2000/svg" xmlns:xlink="http://www.w3.org/1999/xlink" viewBox="0 0 274.54 274.44"><defs><style>.cls-1{fill:url(#linear-gradient);}.cls-2{fill:#53499d;stroke:#fff;stroke-miterlimit:10;stroke-width:5px;}.cls-3{fill:url(#radial-gradient);}.cls-4{fill:#fffdfd;}</style><linearGradient id="linear-gradient" x1="-12.86" y1="265.63" x2="454.46" y2="-129.23" gradientTransform="matrix(1, 0, 0, -1, 0, 276)" gradientUnits="userSpaceOnUse"><stop offset="0" stop-color="#fff" stop-opacity="0"/><stop offset="0.22" stop-color="#fff" stop-opacity="0.5"/><stop offset="0.48" stop-color="#fff" stop-opacity="0.28"/><stop offset="1" stop-color="#fff"/></linearGradient><radialGradient id="radial-gradient" cx="34.97" cy="190.5" r="269.92" gradientTransform="matrix(1, 0, 0, -1, 0, 276)" gradientUnits="userSpaceOnUse"><stop offset="0.52" stop-color="#fff" stop-opacity="0"/><stop offset="0.73" stop-color="#fff" stop-opacity="0.1"/><stop offset="0.73" stop-color="#fff" stop-opacity="0.08"/><stop offset="0.73" stop-color="#fff" stop-opacity="0.03"/><stop offset="0.73" stop-color="#fff" stop-opacity="0.01"/><stop offset="0.73" stop-color="#fff" stop-opacity="0"/></radialGradient></defs><g id="Layer_2" data-name="Layer 2"><g id="Layer_1-2" data-name="Layer 1"><g id="Layer_2-2" data-name="Layer 2"><g id="icons"><path class="cls-1" d="M137.31,0a137.22,137.22,0,1,0-.18,274.44H274.54V137.22A137.22,137.22,0,0,0,137.32,0ZM15.4,137.22A121.92,121.92,0,1,1,137.32,259.13h0A121.91,121.91,0,0,1,15.4,137.22Z"/><path class="cls-2" d="M259.23,137.22A121.92,121.92,0,1,1,137.31,15.31h0A121.92,121.92,0,0,1,259.23,137.22Z"/><path class="cls-3" d="M259.23,137.22A121.92,121.92,0,1,1,137.31,15.31h0A121.92,121.92,0,0,1,259.23,137.22Z"/></g></g><path class="cls-4" d="M58,106.25h7v36.53c0,14.49-7.13,18.95-16.52,18.95a22.77,22.77,0,0,1-7.53-1.3L42,154.68a16.71,16.71,0,0,0,5.91,1.06c6.32,0,10-2.84,10-13.53Z"/><path class="cls-4" d="M88.59,143.67l-5.67,17.17H75.63l18.55-54.59h8.51l18.62,54.59h-7.53L108,143.67Zm17.9-5.51-5.34-15.71c-1.22-3.57-2-6.81-2.84-10h-.16c-.81,3.24-1.7,6.56-2.75,9.89l-5.35,15.79Z"/><path class="cls-4" d="M144.32,160.84,126.5,106.25h7.62l8.5,26.89c2.35,7.37,4.37,14,5.83,20.41h.16c1.54-6.32,3.81-13.2,6.24-20.33l9.23-27h7.54L152.1,160.84Z"/><path class="cls-4" d="M189.36,143.67l-5.67,17.17H176.4L195,106.25h8.5l18.63,54.59h-7.53l-5.84-17.17Zm17.9-5.51-5.35-15.71c-1.21-3.57-2-6.81-2.83-10h-.17c-.81,3.24-1.7,6.56-2.75,9.89l-5.35,15.79Z"/></g></g></svg>