<svg xmlns="http://www.w3.org/2000/svg" xmlns:xlink="http://www.w3.org/1999/xlink" viewBox="0 0 274.54 274.44"><defs><style>.cls-1{fill:url(#linear-gradient);}.cls-2{fill:#53499d;stroke:#fff;stroke-miterlimit:10;stroke-width:5px;}.cls-3{fill:url(#radial-gradient);}.cls-4{fill:#fffdfd;}</style><linearGradient id="linear-gradient" x1="-12.86" y1="265.63" x2="454.46" y2="-129.23" gradientTransform="matrix(1, 0, 0, -1, 0, 276)" gradientUnits="userSpaceOnUse"><stop offset="0" stop-color="#fff" stop-opacity="0"/><stop offset="0.22" stop-color="#fff" stop-opacity="0.5"/><stop offset="0.48" stop-color="#fff" stop-opacity="0.28"/><stop offset="1" stop-color="#fff"/></linearGradient><radialGradient id="radial-gradient" cx="34.97" cy="190.5" r="269.92" gradientTransform="matrix(1, 0, 0, -1, 0, 276)" gradientUnits="userSpaceOnUse"><stop offset="0.52" stop-color="#fff" stop-opacity="0"/><stop offset="0.73" stop-color="#fff" stop-opacity="0.1"/><stop offset="0.73" stop-color="#fff" stop-opacity="0.08"/><stop offset="0.73" stop-color="#fff" stop-opacity="0.03"/><stop offset="0.73" stop-color="#fff" stop-opacity="0.01"/><stop offset="0.73" stop-color="#fff" stop-opacity="0"/></radialGradient></defs><g id="Layer_2" data-name="Layer 2"><g id="Layer_1-2" data-name="Layer 1"><g id="Layer_2-2" data-name="Layer 2"><g id="icons"><path class="cls-1" d="M137.31,0a137.22,137.22,0,1,0-.18,274.44H274.54V137.22A137.22,137.22,0,0,0,137.32,0ZM15.4,137.22A121.92,121.92,0,1,1,137.32,259.13h0A121.91,121.91,0,0,1,15.4,137.22Z"/><path class="cls-2" d="M259.23,137.22A121.92,121.92,0,1,1,137.31,15.31h0A121.92,121.92,0,0,1,259.23,137.22Z"/><path class="cls-3" d="M259.23,137.22A121.92,121.92,0,1,1,137.31,15.31h0A121.92,121.92,0,0,1,259.23,137.22Z"/></g></g><path class="cls-4" d="M29.9,144l-5.48-21.56h2.95l2.56,10.91c.64,2.68,1.21,5.37,1.6,7.45h.06c.35-2.14,1-4.7,1.76-7.49l2.88-10.87h2.91l2.63,10.94c.6,2.56,1.18,5.12,1.5,7.39h.06c.45-2.37,1.06-4.77,1.73-7.46l2.85-10.87h2.85L44.65,144H41.73L39,132.77a63.07,63.07,0,0,1-1.4-7h-.07a66.26,66.26,0,0,1-1.66,7L32.81,144Z"/><path class="cls-4" d="M73.06,133c0,7.43-4.51,11.36-10,11.36-5.7,0-9.7-4.41-9.7-10.94,0-6.85,4.26-11.33,10-11.33S73.06,126.59,73.06,133Zm-16.73.36c0,4.6,2.49,8.73,6.88,8.73s6.91-4.06,6.91-9c0-4.29-2.24-8.76-6.88-8.76S56.33,128.61,56.33,133.35Z"/><path class="cls-4" d="M96.29,133c0,7.43-4.51,11.36-10,11.36-5.7,0-9.7-4.41-9.7-10.94,0-6.85,4.26-11.33,10-11.33S96.29,126.59,96.29,133Zm-16.73.36c0,4.6,2.49,8.73,6.88,8.73s6.91-4.06,6.91-9c0-4.29-2.24-8.76-6.88-8.76S79.56,128.61,79.56,133.35Z"/><path class="cls-4" d="M116.17,143.3a13.93,13.93,0,0,1-5.7,1c-6.08,0-10.65-3.84-10.65-10.91,0-6.75,4.57-11.33,11.26-11.33a11.63,11.63,0,0,1,5.12,1l-.67,2.28a10,10,0,0,0-4.36-.9c-5,0-8.41,3.23-8.41,8.89,0,5.28,3,8.68,8.29,8.68a11.21,11.21,0,0,0,4.54-.9Z"/><path class="cls-4" d="M134.76,136.13c0,5.73-4,8.22-7.71,8.22-4.2,0-7.43-3.07-7.43-8,0-5.19,3.39-8.23,7.68-8.23C131.75,128.16,134.76,131.39,134.76,136.13Zm-12.29.16c0,3.39,2,6,4.7,6s4.71-2.53,4.71-6c0-2.63-1.31-6-4.64-6S122.47,133.35,122.47,136.29Z"/><path class="cls-4" d="M139.49,132.71c0-1.6,0-2.92-.12-4.2h2.46L142,131h.09a5.36,5.36,0,0,1,4.87-2.85,4.57,4.57,0,0,1,4.38,3.11h.06a6.34,6.34,0,0,1,1.73-2,5.31,5.31,0,0,1,3.43-1.09c2,0,5.08,1.35,5.08,6.72V144h-2.75v-8.77c0-3-1.09-4.76-3.36-4.76a3.65,3.65,0,0,0-3.33,2.56,4.84,4.84,0,0,0-.22,1.4V144h-2.75v-9.28c0-2.46-1.09-4.25-3.23-4.25a3.84,3.84,0,0,0-3.49,2.81,3.92,3.92,0,0,0-.22,1.38V144h-2.76Z"/><path class="cls-4" d="M167.36,132.71c0-1.6,0-2.92-.12-4.2h2.46l.13,2.5h.09a5.36,5.36,0,0,1,4.87-2.85,4.57,4.57,0,0,1,4.38,3.11h.07a6.31,6.31,0,0,1,1.72-2,5.33,5.33,0,0,1,3.43-1.09c2.05,0,5.09,1.35,5.09,6.72V144h-2.76v-8.77c0-3-1.08-4.76-3.36-4.76A3.63,3.63,0,0,0,180,133a4.51,4.51,0,0,0-.23,1.4V144h-2.75v-9.28c0-2.46-1.09-4.25-3.23-4.25a3.84,3.84,0,0,0-3.49,2.81,3.92,3.92,0,0,0-.22,1.38V144h-2.76Z"/><path class="cls-4" d="M196.8,136.77c.07,3.81,2.5,5.38,5.32,5.38a10.27,10.27,0,0,0,4.28-.8l.48,2a12.47,12.47,0,0,1-5.15,1c-4.77,0-7.61-3.13-7.61-7.81s2.75-8.35,7.26-8.35c5.06,0,6.4,4.45,6.4,7.3a9.18,9.18,0,0,1-.1,1.31Zm8.26-2c0-1.79-.74-4.57-3.9-4.57-2.85,0-4.1,2.62-4.32,4.57Z"/><path class="cls-4" d="M212.45,133.35c0-1.83,0-3.4-.13-4.84h2.47l.09,3H215a4.65,4.65,0,0,1,4.29-3.39,3.24,3.24,0,0,1,.8.1v2.65a4.54,4.54,0,0,0-1-.09c-2,0-3.39,1.5-3.78,3.61a8.62,8.62,0,0,0-.12,1.32V144h-2.79Z"/><path class="cls-4" d="M235.14,143.43a10.48,10.48,0,0,1-4.45.89c-4.67,0-7.71-3.17-7.71-7.9s3.26-8.22,8.32-8.22a9.46,9.46,0,0,1,3.9.79l-.64,2.18a6.53,6.53,0,0,0-3.26-.74c-3.55,0-5.47,2.63-5.47,5.86,0,3.58,2.3,5.79,5.37,5.79a7.9,7.9,0,0,0,3.46-.77Z"/><path class="cls-4" d="M241.19,136.77c.06,3.81,2.49,5.38,5.31,5.38a10.32,10.32,0,0,0,4.29-.8l.48,2a12.53,12.53,0,0,1-5.16,1c-4.76,0-7.61-3.13-7.61-7.81s2.75-8.35,7.26-8.35c5.06,0,6.4,4.45,6.4,7.3a11.42,11.42,0,0,1-.09,1.31Zm8.25-2c0-1.79-.73-4.57-3.9-4.57-2.85,0-4.1,2.62-4.32,4.57Z"/></g></g></svg>