<svg xmlns="http://www.w3.org/2000/svg" xmlns:xlink="http://www.w3.org/1999/xlink" viewBox="0 0 274.54 274.44"><defs><style>.cls-1{fill:url(#linear-gradient);}.cls-2{fill:#53499d;stroke:#fff;stroke-miterlimit:10;stroke-width:5px;}.cls-3{fill:url(#radial-gradient);}.cls-4{fill:#fffdfd;}</style><linearGradient id="linear-gradient" x1="-12.86" y1="265.63" x2="454.46" y2="-129.23" gradientTransform="matrix(1, 0, 0, -1, 0, 276)" gradientUnits="userSpaceOnUse"><stop offset="0" stop-color="#fff" stop-opacity="0"/><stop offset="0.22" stop-color="#fff" stop-opacity="0.5"/><stop offset="0.48" stop-color="#fff" stop-opacity="0.28"/><stop offset="1" stop-color="#fff"/></linearGradient><radialGradient id="radial-gradient" cx="34.97" cy="190.5" r="269.92" gradientTransform="matrix(1, 0, 0, -1, 0, 276)" gradientUnits="userSpaceOnUse"><stop offset="0.52" stop-color="#fff" stop-opacity="0"/><stop offset="0.73" stop-color="#fff" stop-opacity="0.1"/><stop offset="0.73" stop-color="#fff" stop-opacity="0.08"/><stop offset="0.73" stop-color="#fff" stop-opacity="0.03"/><stop offset="0.73" stop-color="#fff" stop-opacity="0.01"/><stop offset="0.73" stop-color="#fff" stop-opacity="0"/></radialGradient></defs><g id="Layer_2" data-name="Layer 2"><g id="Layer_1-2" data-name="Layer 1"><g id="Layer_2-2" data-name="Layer 2"><g id="icons"><path class="cls-1" d="M137.31,0a137.22,137.22,0,1,0-.18,274.44H274.54V137.22A137.22,137.22,0,0,0,137.32,0ZM15.4,137.22A121.92,121.92,0,1,1,137.32,259.13h0A121.91,121.91,0,0,1,15.4,137.22Z"/><path class="cls-2" d="M259.23,137.22A121.92,121.92,0,1,1,137.31,15.31h0A121.92,121.92,0,0,1,259.23,137.22Z"/><path class="cls-3" d="M259.23,137.22A121.92,121.92,0,1,1,137.31,15.31h0A121.92,121.92,0,0,1,259.23,137.22Z"/></g></g><path class="cls-4" d="M43.34,117h4.09v21.2c0,8.41-4.14,11-9.59,11a13,13,0,0,1-4.37-.76l.61-3.33a9.76,9.76,0,0,0,3.43.61c3.67,0,5.83-1.65,5.83-7.85Z"/><path class="cls-4" d="M68.44,148.67l-.33-2.87H68a8.48,8.48,0,0,1-7,3.39c-4.6,0-6.95-3.25-6.95-6.54,0-5.5,4.88-8.5,13.67-8.46v-.47c0-1.88-.51-5.26-5.17-5.26a11.38,11.38,0,0,0-5.92,1.69l-.94-2.72a14.05,14.05,0,0,1,7.47-2c7,0,8.65,4.74,8.65,9.3v8.51a31.2,31.2,0,0,0,.38,5.45Zm-.61-11.61c-4.52-.09-9.64.71-9.64,5.12a3.66,3.66,0,0,0,3.9,3.95,5.66,5.66,0,0,0,5.5-3.81,4.32,4.32,0,0,0,.24-1.31Z"/><path class="cls-4" d="M81.83,125.92l4.47,12.79a58.2,58.2,0,0,1,1.83,5.82h.14c.52-1.88,1.18-3.76,1.93-5.82l4.41-12.79h4.33L90,148.67h-4l-8.65-22.75Z"/><path class="cls-4" d="M117.18,148.67l-.33-2.87h-.15a8.44,8.44,0,0,1-7,3.39c-4.61,0-7-3.25-7-6.54,0-5.5,4.89-8.5,13.68-8.46v-.47c0-1.88-.52-5.26-5.17-5.26a11.38,11.38,0,0,0-5.92,1.69l-.94-2.72a14,14,0,0,1,7.47-2c7,0,8.65,4.74,8.65,9.3v8.51a31.2,31.2,0,0,0,.38,5.45Zm-.62-11.61c-4.51-.09-9.63.71-9.63,5.12a3.66,3.66,0,0,0,3.9,3.95,5.66,5.66,0,0,0,5.5-3.81,4.3,4.3,0,0,0,.23-1.31Z"/><path class="cls-4" d="M128.55,143.69a14.55,14.55,0,0,0,7.33,2.06c4.18,0,6.63-2.2,6.63-5.4,0-3-1.69-4.65-6-6.3-5.17-1.83-8.37-4.51-8.37-9,0-4.94,4.09-8.6,10.25-8.6a14.38,14.38,0,0,1,7,1.55l-1.13,3.33a12.62,12.62,0,0,0-6-1.5c-4.33,0-6,2.58-6,4.75,0,3,1.93,4.41,6.3,6.11,5.35,2.06,8.08,4.65,8.08,9.3,0,4.89-3.62,9.12-11.09,9.12a16.31,16.31,0,0,1-8.08-2Z"/><path class="cls-4" d="M170.1,147.82a15.15,15.15,0,0,1-6.54,1.32c-6.86,0-11.32-4.65-11.32-11.61s4.79-12.08,12.22-12.08a13.72,13.72,0,0,1,5.73,1.18l-.94,3.19a9.65,9.65,0,0,0-4.79-1.08c-5.22,0-8,3.86-8,8.6,0,5.27,3.38,8.51,7.9,8.51a11.65,11.65,0,0,0,5.07-1.13Z"/><path class="cls-4" d="M176.68,133c0-2.68-.05-5-.19-7.1h3.62l.14,4.47h.19a6.81,6.81,0,0,1,6.29-5,4.29,4.29,0,0,1,1.18.14v3.9a5.9,5.9,0,0,0-1.41-.14c-2.92,0-5,2.21-5.55,5.31a12.06,12.06,0,0,0-.18,1.92v12.13h-4.09Z"/><path class="cls-4" d="M198.39,119.53a2.56,2.56,0,0,1-5.12,0,2.51,2.51,0,0,1,2.58-2.58A2.45,2.45,0,0,1,198.39,119.53Zm-4.61,29.14V125.92h4.14v22.75Z"/><path class="cls-4" d="M206.52,133.35c0-2.92-.09-5.27-.19-7.43h3.72l.19,3.9h.09a8.94,8.94,0,0,1,8.08-4.41c5.5,0,9.64,4.65,9.64,11.56,0,8.17-5,12.22-10.34,12.22a8,8,0,0,1-7-3.58h-.09V158h-4.09Zm4.09,6.06a8.73,8.73,0,0,0,.19,1.69,6.37,6.37,0,0,0,6.2,4.84c4.37,0,6.91-3.57,6.91-8.79,0-4.55-2.4-8.45-6.77-8.45a6.6,6.6,0,0,0-6.25,5.12,6.79,6.79,0,0,0-.28,1.69Z"/><path class="cls-4" d="M240,119.39v6.53h5.92v3.15H240v12.27c0,2.82.79,4.41,3.1,4.41a9.16,9.16,0,0,0,2.39-.28l.19,3.1a10.08,10.08,0,0,1-3.66.57,5.74,5.74,0,0,1-4.47-1.74c-1.17-1.22-1.6-3.24-1.6-5.92V129.07h-3.52v-3.15h3.52v-5.45Z"/></g></g></svg>