<svg xmlns="http://www.w3.org/2000/svg" viewBox="0 0 225.37 154.45"><defs><style>.cls-1,.cls-2{fill:#fffdfd;}.cls-2{opacity:0;}</style></defs><g id="Layer_2" data-name="Layer 2"><g id="Layer_1-2" data-name="Layer 1"><path class="cls-1" d="M46.31,50.33a82.39,82.39,0,0,1,13.52-1c7,0,12.07,1.62,15.31,4.54a14.66,14.66,0,0,1,4.78,11.42c0,4.94-1.46,8.83-4.21,11.66-3.73,4-9.8,6-16.69,6a24.58,24.58,0,0,1-5.67-.48v21.87h-7Zm7,26.33a24,24,0,0,0,5.83.56c8.51,0,13.69-4.13,13.69-11.66,0-7.21-5.1-10.69-12.88-10.69a29.23,29.23,0,0,0-6.64.57Z"/><path class="cls-1" d="M99.44,49.69V72.53h26.4V49.69H133v54.59h-7.13V78.68H99.44v25.6h-7V49.69Z"/><path class="cls-1" d="M148.2,50.33a82.62,82.62,0,0,1,13.53-1c7,0,12.07,1.62,15.31,4.54a14.7,14.7,0,0,1,4.78,11.42c0,4.94-1.46,8.83-4.22,11.66-3.72,4-9.8,6-16.68,6a24.53,24.53,0,0,1-5.67-.48v21.87H148.2Zm7.05,26.33a23.9,23.9,0,0,0,5.83.56c8.51,0,13.69-4.13,13.69-11.66,0-7.21-5.1-10.69-12.88-10.69a29.17,29.17,0,0,0-6.64.57Z"/><rect class="cls-2" width="225.37" height="154.45"/></g></g></svg>