<svg xmlns="http://www.w3.org/2000/svg" viewBox="0 0 240.89 165.08"><defs><style>.cls-1,.cls-2{fill:#fffdfd;}.cls-2{opacity:0;}</style></defs><g id="Layer_2" data-name="Layer 2"><g id="Layer_1-2" data-name="Layer 1"><path class="cls-1" d="M34.39,83.16c0,10.21-6.2,15.62-13.77,15.62-7.84,0-13.34-6.07-13.34-15,0-9.42,5.86-15.58,13.78-15.58C29.16,68.15,34.39,74.36,34.39,83.16Zm-23,.48c0,6.34,3.43,12,9.46,12s9.5-5.59,9.5-12.33c0-5.89-3.08-12-9.46-12S11.38,77.13,11.38,83.64Z"/><path class="cls-1" d="M41,69a44.23,44.23,0,0,1,7.35-.57c3.78,0,6.55.88,8.31,2.46a8,8,0,0,1,2.6,6.21A8.71,8.71,0,0,1,57,83.42c-2,2.16-5.32,3.26-9.06,3.26a13.12,13.12,0,0,1-3.08-.27V98.3H41Zm3.83,14.3A12.79,12.79,0,0,0,48,83.6c4.62,0,7.43-2.25,7.43-6.34,0-3.92-2.77-5.81-7-5.81a15.72,15.72,0,0,0-3.6.31Z"/><path class="cls-1" d="M81.38,84.39H69.85V95.08H82.7V98.3H66V68.64H82v3.21H69.85v9.37H81.38Z"/><path class="cls-1" d="M89.3,98.3V68.64h4.18l9.51,15a84.21,84.21,0,0,1,5.32,9.64l.09,0c-.35-4-.44-7.57-.44-12.19V68.64h3.61V98.3h-3.88l-9.41-15a93.88,93.88,0,0,1-5.55-9.91l-.13,0c.22,3.74.31,7.3.31,12.23V98.3Z"/><path class="cls-1" d="M151.56,97.33a19.05,19.05,0,0,1-7.83,1.41c-8.36,0-14.66-5.28-14.66-15,0-9.29,6.3-15.58,15.49-15.58a15.84,15.84,0,0,1,7,1.32l-.92,3.13a13.83,13.83,0,0,0-6-1.24c-7,0-11.58,4.45-11.58,12.24,0,7.26,4.18,11.92,11.4,11.92a15.31,15.31,0,0,0,6.25-1.23Z"/><path class="cls-1" d="M162.78,89,159.7,98.3h-4l10.07-29.66h4.62L180.56,98.3h-4.1L173.3,89Zm9.72-3-2.9-8.53c-.66-1.94-1.1-3.7-1.54-5.42H168c-.44,1.76-.92,3.57-1.5,5.37L163.57,86Z"/><path class="cls-1" d="M186.54,69a40.42,40.42,0,0,1,7.35-.61c4.09,0,6.73.74,8.58,2.42a7.4,7.4,0,0,1,2.33,5.63A7.78,7.78,0,0,1,199.21,84v.13c2.29.79,3.65,2.9,4.36,6,1,4.13,1.67,7,2.29,8.14h-4a37.55,37.55,0,0,1-2-7.09c-.88-4.09-2.47-5.63-5.95-5.76h-3.6V98.3h-3.83Zm3.83,13.51h3.91c4.1,0,6.69-2.24,6.69-5.63,0-3.83-2.77-5.5-6.82-5.55a15.32,15.32,0,0,0-3.78.36Z"/><path class="cls-1" d="M217.47,71.89h-9V68.64h22v3.25h-9.07V98.3h-3.87Z"/><rect class="cls-2" width="240.89" height="165.08"/></g></g></svg>