<svg xmlns="http://www.w3.org/2000/svg" viewBox="0 0 225.37 154.45"><defs><style>.cls-1,.cls-2{fill:#fffdfd;}.cls-2{opacity:0;}</style></defs><g id="Layer_2" data-name="Layer 2"><g id="Layer_1-2" data-name="Layer 1"><path class="cls-1" d="M18.12,94.6c2.56-.19,4.8-.9,6.14-2.37,1.54-1.79,2.11-4.22,2.11-11.65V54.67H32V82.76c0,6-1,9.92-3.72,12.73C25.8,98,21.7,99,18.69,99ZM32.65,46a3.31,3.31,0,0,1-3.52,3.46A3.36,3.36,0,0,1,25.67,46a3.45,3.45,0,0,1,3.58-3.52A3.34,3.34,0,0,1,32.65,46Z"/><path class="cls-1" d="M79.36,92c-5.82-1.54-11.52-3.27-16.51-5a8.22,8.22,0,0,0-2.62-.64c-10.24-.38-19-7.93-19-21.82S49.67,41.8,61.32,41.8s19.32,9.09,19.32,21.83c0,11.07-5.12,18.17-12.28,20.67v.25c4.28,1.09,9,2.11,12.6,2.75Zm-4.6-28.1c0-8.64-4.48-17.53-13.64-17.53-9.4,0-14,8.7-13.95,18-.06,9.15,5,17.41,13.7,17.41C69.76,81.8,74.76,73.74,74.76,63.88Z"/><path class="cls-1" d="M116,77.19c0,3.2.07,6,.26,8.45h-5l-.32-5.06h-.13a11.65,11.65,0,0,1-10.24,5.76c-4.86,0-10.69-2.68-10.69-13.56V54.67h5.63V71.82c0,5.88,1.8,9.85,6.91,9.85a7.92,7.92,0,0,0,7.94-8v-19H116Z"/><path class="cls-1" d="M130.82,71.18c.13,7.61,5,10.75,10.62,10.75a20.45,20.45,0,0,0,8.58-1.6l1,4a25,25,0,0,1-10.3,1.92c-9.54,0-15.24-6.27-15.24-15.62S131,54,140,54c10.11,0,12.8,8.9,12.8,14.59a22.39,22.39,0,0,1-.19,2.63Zm16.51-4c.07-3.59-1.47-9.16-7.81-9.16-5.69,0-8.19,5.25-8.64,9.16Z"/><path class="cls-1" d="M162.12,64.33c0-3.65-.07-6.78-.26-9.66h4.93l.19,6.08h.26c1.4-4.16,4.8-6.79,8.57-6.79a6.44,6.44,0,0,1,1.6.19v5.32a8.27,8.27,0,0,0-1.92-.2c-4,0-6.78,3-7.55,7.23a15.71,15.71,0,0,0-.26,2.63V85.64h-5.56Z"/><path class="cls-1" d="M187.46,54.67,194.24,73c.71,2,1.48,4.48,2,6.33h.13c.57-1.85,1.21-4.22,2-6.46l6.14-18.17h6L202,76.74c-4,10.63-6.79,16.07-10.63,19.39a15.1,15.1,0,0,1-6.91,3.65L183,95.05A14.88,14.88,0,0,0,188,92.29,17,17,0,0,0,192.71,86a4.14,4.14,0,0,0,.45-1.34,4.81,4.81,0,0,0-.39-1.47L181.32,54.67Z"/><rect class="cls-2" width="225.37" height="154.45"/></g></g></svg>