<svg xmlns="http://www.w3.org/2000/svg" viewBox="0 0 417.08993 172.56812">
  <defs>
    <style>
      .cls-1 {
        fill: #fff;
      }
    </style>
  </defs>
  <g id="Layer_2" data-name="Layer 2">
    <g id="Layer_4" data-name="Layer 4">
      <path class="cls-1" d="M416.96838,41.53064a27.114,27.114,0,0,0-1.07984-8.40979c-3.61052-12.544-20.103-21.72039-48.98172-27.29664-.02881-.00738-.05656-.0116-.0859-.01722-.38559-.07431-.74853-.15511-1.13851-.22819-45.74977-8.567-116.38829-7.21788-193.795,3.70731C63.50824,24.57913,5.72586,52.54279.14521,92.40414a14.44914,14.44914,0,0,0,3.77056,11.85554c4.97476,5.71977,14.43119,9.96779,25.75726,13.13651v41.45853a1.43825,1.43825,0,0,0,1.43908,1.43908h6.08235a1.4386,1.4386,0,0,0,1.43486-1.54027l-2.813-39.78142c2.53121.59429,5.12408,1.141,7.75982,1.64654v38.23607a1.43825,1.43825,0,0,0,1.43907,1.43908h5.21245a1.4398,1.4398,0,0,0,1.43908-1.47l-.82319-36.921q2.2253.357,4.46129.67949a1.43134,1.43134,0,0,0-.43391,1.02626v33.94482A1.43826,1.43826,0,0,0,56.31,158.99244H58.917a1.43831,1.43831,0,0,0,1.43767-1.49529l-1.30416-33.94483a1.41671,1.41671,0,0,0-.11155-.47114c5.7874.76346,11.52756,1.36038,17.00245,1.83029v33.94325a1.43825,1.43825,0,0,0,1.43908,1.43908h4.56176a1.44245,1.44245,0,0,0,1.43908-1.484l-1.0252-33.39112c9.8053.70056,18.25778.99534,23.77536,1.11848l-14.25622,2.77434a1.44161,1.44161,0,0,0-1.16222,1.48124l.28107,6.03984a1.4288,1.4288,0,0,0-.25859,1.105,1.40512,1.40512,0,0,0,.341.664l.94071,20.21386a1.43961,1.43961,0,0,0,1.41659,1.37162l21.52066.31322.0079.00158h.06184l.00211-.00053,14.49284.211a1.419,1.419,0,0,0,1.18735.6693.58768.58768,0,0,0,.07027-.00281,1.41031,1.41031,0,0,0,1.096-.63224l9.25248.13457.01458.003h.02811l.00948-.0021,2.64593.03847-.00071.09855a1.438,1.438,0,0,0,1.42924,1.44751h.00984a1.43918,1.43918,0,0,0,1.43908-1.43065l.00053-.07343,32.37944.47115c.01072.00052.0195.00667.03021.007h.03935c.00984,0,.0181-.00544.02794-.00562l3.08492.045,6.5289.65191a1.41433,1.41433,0,0,0,1.09793.55388h.00984a1.41752,1.41752,0,0,0,.91541-.35186l6.26136.6252-.1444,8.14471a1.43968,1.43968,0,0,0,1.43908,1.46437H206.192a1.43968,1.43968,0,0,0,1.43908-1.46437l-.126-7.10475,85.865,8.56069a1.226,1.226,0,0,0,.14334.00843h.02671c.00772-.00017.014-.00456.02178-.00474a1.32314,1.32314,0,0,0,.234-.02336L344.3,162.43836a1.43878,1.43878,0,0,0,1.14817-1.25357l4.88781-44.63673a1.44164,1.44164,0,0,0-1.04-1.54308L292.80675,99.09519c-.02126-.00861-.0462-.01142-.06834-.01915l-.137-.03865a1.2388,1.2388,0,0,0-.14914-.00895,1.49451,1.49451,0,0,0-.26825-.04445c-.03619.0007-.06605.01915-.10153.02249-.03127.00281-.06289-.01037-.09381-.00562L206.5901,112.37171l-.06957-3.92216L362.68058,82.81421l3.43152-.57514c2.6612-.657,36.04705-9.23069,47.27211-28.52984a26.10493,26.10493,0,0,0,3.333-9.413S417.348,41.67645,416.96838,41.53064Zm-3.84557-7.61436a23.93614,23.93614,0,0,1,.91014,8.2733L376.28244,55.52512l-40.26539-27.6125L366.81389,8.73873C393.88111,14.032,409.9007,22.719,413.12281,33.91628ZM213.06964,104.45906,261.74833,74.152a1.41667,1.41667,0,0,0,.53966.29179l33.99981,9.33978L259.18937,96.88879ZM187.33,122.3128l.15687-9.39055,1.29819,3.70925-.0404,5.55166Zm1.39358,2.7631-.248,34.13666-1.75915-.17515.5653-33.82941Zm-61.11218.21379.208,4.35447-12.54468,2.3097-.176-4.22888Zm.34677,7.25775,1.2079,25.28348-12.82136-.18761-.94879-22.78284Zm2.85655-.52595,8.31967-1.53183.5372,27.495-7.62157-.11155Zm8.26276-4.45022-8.40136,1.54694-.269-5.62772c-.00053-.01019-.00668-.0188-.00738-.029-.0007-.01142.00422-.02143.00316-.03285l-.5523-6.07673,8.961-3.38286Zm-7.96377-13.77383-49.31426-6.508-.64313-20.945,3.07631,1.04083a1.434,1.434,0,0,0,1.40008,1.15134,1.31765,1.31765,0,0,0,.23329-.01968l1.1545-.18849,59.42435,20.10512h-.85709a1.43,1.43,0,0,0-.50873.09275Zm-52.29413-6.90133v-2.85286l.088,2.86446Zm.17742,2.92875.38155,12.42488c-.18445-.01458-.37364-.03127-.559-.0462v-12.402Zm-32.54264-7.2v-.76275h1.06385l.0202.90575Zm1.14905,3.057.28459,12.77147c-.481-.08292-.95476-.17374-1.43364-.25929V105.53029Zm2.76064-5.28974A1.4392,1.4392,0,0,0,48.92492,98.984H45.01523a1.43825,1.43825,0,0,0-1.43907,1.43908v1.82186L16.60889,98.68606,34.75372,70.64493,75.94137,84.58v7.80338L54.37118,103.6696l-3.9457-.52068ZM69.94105,35.59971l15.1307,11.41478-50.95711,20.376L20.51577,62.78955C31.79563,52.58109,48.34908,43.48759,69.94105,35.59971Zm132.64433-5.2402-8.0372,41.374-63.31577,6.49728-39.695-29.94608Zm-15.0037,77.23576a1.40263,1.40263,0,0,0-.48555.8383H171.2675L134.60631,80.7761,193.975,74.68391Zm-36.10274-.49679L93.07716,87.33926l37.36-6.101,36.04864,27.19529H152.44354A1.42817,1.42817,0,0,0,151.47894,107.09848ZM38.31031,68.80989,87.75509,49.03873l39.50615,29.80378-39.99415,6.531ZM75.94137,95.63416v10.88216l-16.60878-2.192Zm71.07629,15.67756H179.008l-.31181,11.68338-31.75494.30426Zm34.87042,0h2.74676l-.18832,11.26529-2.86586.26245Zm9.76789,6.31213,6.24151-.97812-.08379,4.732c-.03971-.0007-.07519-.01722-.11559-.01493l-6.07322.55652Zm6.29158-3.80533a1.49372,1.49372,0,0,0-.44761-.025l-6.31143.98937-1.66551-4.75922,8.50676-.83618Zm.1335-7.53057-7.45608.73289,6.31863-32.52648h1.701Zm-.5783-34.67175,8.05178-41.44869,122.7417-.83987L260.373,71.6162H197.50275Zm58.24755,2.87816-49.28774,30.68635-.54387-30.68635Zm44.84437,10.82172,3.26287,4.24065-28.51982,4.68139Zm.44866-3.21245-36.127-9.92406,68.43458-42.607,39.57431,27.13854Zm61.545-74.12625-29.61776,18.44-126.85621.868L209.9134,7.729a1.37145,1.37145,0,0,0-.00123-.15669C270.21223,1.39068,325.29581,1.44549,362.58836,7.97738Zm-190.299,4.15878q17.52216-2.47165,34.66225-4.25294l-3.782,19.4692L88.35694,45.88547,73.17107,34.42906C99.28441,25.24808,132.42924,17.7609,172.28937,12.13616ZM2.99526,92.80326c1.39587-9.97061,6.51433-19.241,15.166-27.772l13.77963,4.66207L13.45019,98.26919,4.149,97.0418a1.42037,1.42037,0,0,0-.86493.18445A11.04955,11.04955,0,0,1,2.99526,92.80326ZM4.38832,99.9788l8.95735,1.18208L20.387,111.29907c-6.20163-2.46094-11.2291-5.39724-14.3-8.92819A14.84328,14.84328,0,0,1,4.38832,99.9788ZM35.65,157.41564h-3.0988V118.18c.10962.02811.22064.05534.33061.08344Zm-.04708-41.46187-.01475-.20957a1.43759,1.43759,0,0,0-1.43487-1.3379H31.11211a1.3989,1.3989,0,0,0-.7199.22047c-1.84153-.51067-3.603-1.06122-5.32276-1.63074L17.20318,101.67l26.373,3.48035v12.51587Q39.4958,116.882,35.6029,115.95377Zm13.15338,41.46187h-2.302V121.15831c.49767.08889.99973.17092,1.49969.257Zm1.7342-51.35272,2.32093.30619a1.41007,1.41007,0,0,0-.04286.9458L56.837,119.842c-2.027-.28142-4.04741-.59147-6.05987-.91488ZM59.998,120.25765l-4.39066-13.51946,20.334,2.68351v12.53994C70.793,121.51544,65.41477,120.95506,59.998,120.25765Zm20.46015,37.158H78.81953V125.15c.21818.01722.43267.03338.64962.05024Zm32.32867-33.66657c-.33851,0-13.462-.04163-30.52139-1.28379L81.889,110.20659l45.08345,5.94973a1.343,1.343,0,0,0-.08713.36363l.534,5.87436-13.23735,2.576A1.41976,1.41976,0,0,0,112.78684,123.74907Zm-.54528,4.5319.17479,4.19919L93.83218,135.902,93.646,131.9001ZM93.96727,138.806l18.57012-3.41921.92525,22.21437-18.63336-.27264Zm48.58436,19.2208-.88186-45.13686,2.46551-.93069-.08168,12.80414-.00053.00316.00053.00264-.212,33.27641ZM146.923,126.178l31.69644-.3039-.87166,32.66754-31.0282-.45393Zm33.70381,32.4058.87641-32.84637,2.895-.26526-.55616,33.27886-1.41449-.14088Zm10.72493.91523.25208-34.687,6.159-.56425-.635,35.8266Zm8.48392,10.1909,1.68783-95.19561h1.51637L204.72766,169.69Zm6.94542-46.54151,84.39707-.63662.8664,47.02477L207.45386,161.104ZM342.70212,159.8216l-47.78137,9.55849-.84866-46.0593,51.63221,9.08489Zm3.31593-30.28143-51.99989-9.14953-.33272-18.0577,53.65715,15.11173ZM290.802,102.1l.323,17.53385-84.395.63663-.08854-4.993Zm16.2801-13.07256-3.63178-4.72005,69.89632-24.69077-9.21734,20.04679ZM410.89955,52.25891c-9.181,15.78718-35.341,24.3115-43.22154,26.57447l9.44992-20.55255,36.46814-12.88214A23.65265,23.65265,0,0,1,410.89955,52.25891Z"/>
    </g>
  </g>
</svg>
