<svg xmlns="http://www.w3.org/2000/svg" viewBox="0 0 400.91009 178.99749">
  <defs>
    <style>
      .cls-1 {
        fill: #fff;
      }
    </style>
  </defs>
  <g id="Layer_2" data-name="Layer 2">
    <g id="Layer_4" data-name="Layer 4">
      <path class="cls-1" d="M400.644,163.67237c-5.81777-18.3831-15.03465-49.47337-17.86853-59.06358.28523-.08333.59681-.16588.83322-.22856a10.506,10.506,0,0,0,1.61161-.51256,2.9159,2.9159,0,0,0,1.85311-2.39525,4.51427,4.51427,0,0,0-.31788-1.83832l-.11582-.35485c-.38442-1.311-.84277-2.55789-1.41448-4.029-.41646-1.067-.759-2.15621-1.10151-3.24294-.26368-.83292-.52735-1.66583-.8206-2.48889-.34006-.95859-.75159-1.88514-1.168-2.8117-.30556-.6826-.61113-1.36519-.8822-2.05764-.897-2.31146-1.74715-4.62046-2.54063-6.96888-.14293-.42139-.27846-.85016-.414-1.27894a21.46781,21.46781,0,0,0-1.80137-4.48739l-.62838-1.07687-1.08426.61606a4.89077,4.89077,0,0,0-1.70526,2.14389,7.41271,7.41271,0,0,1-.38689.68259c-.24642.34746-.483.70231-.722,1.05716-.02957-.07392-.05668-.14785-.08378-.22178a12.42927,12.42927,0,0,0-.67274-1.54752,3.19964,3.19964,0,0,0-1.73729-1.725,3.55884,3.55884,0,0,0-1.93443.16757,3.47045,3.47045,0,0,1-.45835.11582,2.07389,2.07389,0,0,0-1.87036,2.25971l-.02218.313a3.92815,3.92815,0,0,1-.54953,1.87282c-.106.1651-.37949.23657-.73434.25875a8.95926,8.95926,0,0,0-.2341-3.57316l-.27846-.80087-.84524-.04683a18.60718,18.60718,0,0,0-2.28435.02218c-.12075.00986-.28339.00247-.46328.00247a4.18153,4.18153,0,0,0-2.33856.3992,3.1278,3.1278,0,0,0-1.14834,2.272,8.01578,8.01578,0,0,0-.05914,1.5229l.00739.25628c-.20946.04928-.40907.10843-.60128.1651-.13307.03943-.27106.07886-.40413.11336v-.1996c-.00247-.20454-.00493-.38443-.01725-.515-.00986-.10843-.00739-.24889-.00739-.40414-.00247-.87234-.0074-2.0675-.95613-2.64413a2.28809,2.28809,0,0,0-1.59683-.15525c-.53967.02711-1.07687.08625-1.60915.14539l-.515.04682a10.571,10.571,0,0,0-1.44158.18729l-.74174.16756-.1996.73435c-.04682.17-.11089.33267-.175.50024a7.21521,7.21521,0,0,0-.276.81566,1.42058,1.42058,0,0,0-.32528-.62591,1.86571,1.86571,0,0,0-1.64118-.49039,16.39634,16.39634,0,0,0-2.6466.35732l-.40906.07393a1.579,1.579,0,0,0-1.13848.59634,3.23268,3.23268,0,0,0-.49531,1.71511,2.84667,2.84667,0,0,1-.032.29571,62.92734,62.92734,0,0,0-.93888,6.8506c-.20206,2.08228-.37456,3.965-.42138,5.95114a47.23124,47.23124,0,0,1-.70231,7.686l-.06161.3031a6.18563,6.18563,0,0,0-.14292,2.59485,5.01655,5.01655,0,0,0,.86,1.55493l.00724.0077L186.11854,59.33572c-1.02528-9.32793-1.96046-17.40849-2.71914-23.26938a3.45257,3.45257,0,0,0,1.55925-1.02251l.30064-.26613a8.07428,8.07428,0,0,0,2.08229-2.41989c.95859-2.07243.63084-4.55638.3647-6.55242l-.11089-.88713c-.24149-2.07489-.4411-4.15225-.6407-6.23207-.16757-1.77918-.3376-3.55836-.53474-5.33508-.09611-.85017-.21685-1.69787-.3376-2.5431l-.28585-2.16114a10.77938,10.77938,0,0,0-.36964-2.07736c-.66042-2.09214-2.45192-2.01821-3.50908-1.98371l-.34746.01232c-2.73038.07885-3.09755,2.5431-3.31687,4.01425l-.06161.4066a18.4465,18.4465,0,0,0-.17249,2.102l-.00986.19467-.07639.0074-.3721.05175c-.12814.01971-.36225.05667-.56185.07392a9.24486,9.24486,0,0,1-.05175-1.15573c0-.29078-.00246-.552-.01971-.75159L176.90058,9.12c-.06407-1.23458-.175-3.29962-1.74468-4.05121a4.18368,4.18368,0,0,0-3.3563-.00739,2.99525,2.99525,0,0,0-1.7299,1.85311,4.99049,4.99049,0,0,0-.12075,1.54261c.00493.23164.00986.57417-.00985.82059-.06161,0-.12322-.00246-.18482-.00492-.00986-.207-.00247-.45835.00246-.60867.00493-.19468.00986-.3721.00493-.515-.01232-.345.01232-.73681.037-1.14341a8.28448,8.28448,0,0,0-.16264-2.9152,1.76757,1.76757,0,0,0-1.66829-1.412c-.73188-.15524-1.47115-.28092-2.21042-.4066l-.74667-.12814c-.106-.01971-.2415-.05421-.38935-.08871a4.24723,4.24723,0,0,0-2.4051-.11336,2.37583,2.37583,0,0,0-1.3923,1.94676,8.882,8.882,0,0,0-.19221.97584c-.03943.24149-.101.63084-.175.90437q-.13677.00739-.3031.02218c-.037.00247-.07886.00739-.12321.00986-.01479-.34007.00246-.78363.01232-1.01773.01232-.28586.02218-.53474.01232-.70971C159.92441,1.14079,158.5198.28816,157.3616.08855a3.20922,3.20922,0,0,0-2.4741.60621,3.0354,3.0354,0,0,0-.98077,1.31344,5.21408,5.21408,0,0,0-.14785-1.035l-.21932-.86249L152.6549.027a6.0933,6.0933,0,0,0-3.18627.52488,3.14258,3.14258,0,0,0-1.62886,3.10988c-.00739.22671-.02957.29817-.17743.308a4.7426,4.7426,0,0,1-1.06948.22917c-.00986-.17989-.01478-.35978-.01725-.45835l-.01478-.35485c-.00247-.07885.00246-.20207.00739-.34746a3.09,3.09,0,0,0-.53967-2.42481,2.8451,2.8451,0,0,0-2.45192-.42385c-1.77179.26121-2.43221,2.00343-2.824,3.0458l-.09857.25382a7.30037,7.30037,0,0,0-.446,2.208c-.16264.00986-.32775.02218-.49039.0345q-.42138.03327-.84277.05914l-.00246-.01232c-.02957-.26614-.06407-.53228-.07886-.79841l-.00493-.36718a3.82574,3.82574,0,0,0-.86248-2.95709c-1.33808-1.16066-3.66926-.23164-4.59581.6136a6.24062,6.24062,0,0,0-1.62887,3.307,10.6473,10.6473,0,0,1-.51256,1.66829c-.02957-.50024-.01232-1.03005.00739-1.57711a14.86784,14.86784,0,0,0-.04682-2.33364l-.11582-.96352-.96352-.13307a4.43048,4.43048,0,0,0-3.00884,1.14341,3.16023,3.16023,0,0,0-1.05962,1.28634c-.37456.74173-.73927,1.4884-1.10644,2.23753l-.828,1.68308a34.67528,34.67528,0,0,0-3.24787,10.88948l-.04682.34007c-.19961,1.4884-.4066,3.02609-.47067,4.60321-.0074.20946-.03943.483-.07393.78609a7.29248,7.29248,0,0,0,.11582,3.33165,5.36132,5.36132,0,0,0,2.87331,2.43221,8.046,8.046,0,0,0,1.65566.29587L118.62063,67.399,51.32355,107.21857c-.0596-.38642-.11074-.77346-.17327-1.16019a35.5016,35.5016,0,0,1-.54213-4.5416,2.10721,2.10721,0,0,0-.20207-1.04484c-.48545-.89206-1.64118-.95613-2.42728-1.00048l-.382-.0345a11.72289,11.72289,0,0,0-1.55493-.06407,1.69445,1.69445,0,0,0-1.14587.36963,2.12947,2.12947,0,0,0-.63085,1.64612c-.02218.24889-.02711.50024-.032.74913-.00246.19714-.00246.39181.08872.47806a2.49983,2.49983,0,0,1-.74667.08132c-.069.00246-.13307.00246-.19221.00246-.76392,0-1.0202-.11582-1.01773-.07885a2.33379,2.33379,0,0,1-.05668-.791,2.20484,2.20484,0,0,0-.90684-2.29421c-1.36273-.76145-3.46965.3031-3.70622.42631a1.98776,1.98776,0,0,0-1.1237,2.134c.00247.069.0074.16018.00986.2415a3.77658,3.77658,0,0,1-.82306.2341,6.45966,6.45966,0,0,1-.18728-.91423c-.04682-.29571-.09118-.5791-.15525-.82552a2.5497,2.5497,0,0,0-1.35779-1.77426,7.7984,7.7984,0,0,0-3.03349-.63824c-.69-.04928-1.39229-.04435-2.07489-.037l-.71709.00739-.35978.62346a3.5988,3.5988,0,0,0-.37457,1.94921c0,.09857.00247.21932,0,.33514-.28585-.00246-.58156-.00739-.87727-.01971l.00493-.23164a2.72878,2.72878,0,0,0-.36717-1.92458c-.621-.8132-1.85065-.91669-3.07045-.95612l-.35731-.02218a4.771,4.771,0,0,0-1.83833.11335l-.53967.175a3.40011,3.40011,0,0,0-2.28928-.29078,2.7476,2.7476,0,0,0-2.12664.78855,3.62154,3.62154,0,0,0-.61852,1.50319l-.06407.25135a25.337,25.337,0,0,1-1.46376,3.35877,25.32419,25.32419,0,0,0-1.7028,4.0241l-.24642.791c-.20207.63084-.40167,1.26662-.55692,1.94428a1.88163,1.88163,0,0,0,.20207,1.87036,1.72466,1.72466,0,0,0,.934.50271,2.9078,2.9078,0,0,1,.54213.45835l.22425.21932v.00246a7.02252,7.02252,0,0,0,1.73236,1.348c.09826.04773.18805.0699.28246.10641L0,163.61815l1.3849.27354A81.5951,81.5951,0,0,0,15.36209,165.284a27.47168,27.47168,0,0,0,9.88161-1.46129l.08117-.033-.00231.235,76.45728.70308-1.30035,7.51517,1.11384.29818a189.288,189.288,0,0,0,48.80432,6.45631c27.97408,0,45.93595-6.39471,46.20209-6.49081l.91423-.33514-.09118-.97091c-.01463-.15294-.2284-2.38908-.5948-6.18725l161.64045-1.09705c1.88514.4682,16.646,4.034,28.5926,4.034,5.48294,0,10.37693-.75159,13.15166-2.90041l.69739-.53967ZM346.14476,77.22674h-.00247a.80319.80319,0,0,1-.31788-.08871l-.00986-.414.15771-.101Zm-.2415-.84524-.09857.01725-.01232-.41153Zm-4.51942,22.67843.06654-.345a49.387,49.387,0,0,0,.74666-8.0901c.04436-1.89747.21193-3.73333.41153-5.76387a60.96073,60.96073,0,0,1,.89452-6.5746,5.733,5.733,0,0,0,.07639-.57909c.00247-.04436.0074-.09611.01232-.14786.59635-.11582,1.16559-.22424,1.725-.27846.02465.16757.05422.33268.08379.49778l.05668.31542c.0271.16511.04435.33021.06407.50024a6.578,6.578,0,0,0,.27845,1.43419l.29325.84277.89206.00493h.00985a3.78346,3.78346,0,0,0,2.70574-1.18776,2.36519,2.36519,0,0,0,.29571-1.45144l.04682-.653a7.835,7.835,0,0,1,.106-1.03251,3.31972,3.31972,0,0,1,.17989-.56185c.14539-.01479.29078-.02711.43371-.03943l.58156-.05175c.45342-.04928.90438-.101,1.36273-.12814,0,.1035.00246.20453.00246.28093,0,.23656.00247.45342.01725.621.00739.0764.00493.18482.00739.30557a3.30814,3.30814,0,0,0,.52735,2.18825,1.41655,1.41655,0,0,0,1.04484.54706,4.40563,4.40563,0,0,0,2.065-.2415,3.018,3.018,0,0,1,.89452-.18235l1.1434.16018.26121-1.12616a6.88294,6.88294,0,0,0,.10843-1.76933,5.69717,5.69717,0,0,1,.02464-1.0473,4.31412,4.31412,0,0,1,.11582-.53721,7.48984,7.48984,0,0,1,.84031-.01232c.26121,0,.51256.00493.69492-.00739.3302-.02711.658-.03943.98323-.04436a14.05451,14.05451,0,0,1-.07393,2.04532c-.02957.36718-.05914.722-.07393,1.04977l.15525,1.24691,1.23212.07885c1.14834.07147,3.07045.19961,4.09064-1.39722a6.4123,6.4123,0,0,0,.93642-3.00638l.02464-.35485c.16264-.037.33514-.08378.51256-.13553.13307-.037.33021-.09364.4756-.12568a5.71657,5.71657,0,0,1,.29571.50024,9.255,9.255,0,0,1,.5101,1.19762,8.04016,8.04016,0,0,0,1.25923,2.42482l.60374.71217.85755-.36964a3.35678,3.35678,0,0,0,1.39476-1.39723l1.11877-1.64611a7.45153,7.45153,0,0,0,.41892-.70231c.25875.68506.483,1.39969.7171,2.1365.14046.44356.28092.88713.42877,1.32576.74667,2.21536,1.5919,4.52928,2.58007,7.07484.28585.73435.60866,1.4539.93148,2.17346.38688.865.77624,1.7299,1.09412,2.62442.28093.79842.53474,1.60176.78856,2.4051.35978,1.141.722,2.27943,1.15819,3.40066.54707,1.40708.9857,2.59731,1.34548,3.822l.14293.44849a2.42133,2.42133,0,0,1,.18728.88714,1.35243,1.35243,0,0,1-.44356.27845,7.9992,7.9992,0,0,1-1.14341.3376c-.33945.09025-.631.17142-.90115.25089-.08578-.29124-.13661-.46374-.14369-.48746l-.15771-.53967-.5101-.24149c-.65549-.313-16.37736-7.60219-39.24306-.05915l-.4773.15664a5.11448,5.11448,0,0,1-.31619-.48931A5.21377,5.21377,0,0,1,341.38384,99.05993ZM160.94461,5.7711l.01232,1.26169L160.63412,5.845A.83686.83686,0,0,1,160.94461,5.7711ZM123.9514,28.55548a3.4496,3.4496,0,0,1-1.27155-.96844,7.42037,7.42037,0,0,1,.05668-2.102c.04189-.3721.07639-.70724.08871-.966.05668-1.45636.24643-2.86837.44849-4.36417l.04436-.34253a32.26973,32.26973,0,0,1,3.00638-10.09846l.83784-1.70033q.54336-1.1089,1.09166-2.21289c.13307-.26121.14785-.27353.30064-.38689.04435-.02957.08624-.0616.12814-.09117-.00247.08624-.0074.17249-.00986.25874a11.39258,11.39258,0,0,0,.1996,3.19366l.22671.92655,1.34055.05915a2.65828,2.65828,0,0,0,2.7501-1.0547,8.156,8.156,0,0,0,.95612-2.50367,4.30458,4.30458,0,0,1,.88467-2.07,2.743,2.743,0,0,1,1.18776-.50024,7.323,7.323,0,0,1,.04682.98076c0,.19961.00246.377.00986.515.01725.31542.05421.63331.09364.94873a9.49447,9.49447,0,0,1,.08625,1.0202l.01478,1.22719,1.2272.01972c.7368,0,1.47115-.0419,2.20549-.09611.515-.037,1.03006-.07639,1.54755-.08625l1.19762-.02464.04682-1.49333a6.57545,6.57545,0,0,1,.313-2.24246l.1035-.27353c.18481-.48792.52981-1.39476.828-1.43912.03943-.00493.07639-.00986.11336-.01479-.00247.11336-.00493.21686-.0074.29079-.00739.27353-.00739.50517.00986.83537a3.39512,3.39512,0,0,0,.56431,2.29914c1.19516,1.28634,3.94033.22918,3.97236.21686a2.54705,2.54705,0,0,0,1.77179-2.55542c.0345-.84768.06407-.86249.25382-.96106a2.65237,2.65237,0,0,1,.78116-.2341v.33514a9.56879,9.56879,0,0,0,.08379,1.57957c.02464.14293.03943.28832.05421.43125a2.74856,2.74856,0,0,0,.84031,2.01575,2.01278,2.01278,0,0,0,1.55.40169c2.54063-.28587,2.39031-2.484,2.32624-3.42285a5.58878,5.58878,0,0,1-.02218-.86.48865.48865,0,0,1,.19714-.35239.59748.59748,0,0,1,.50764-.11582c.43863.07393.56924.9167.60127,1.60915.00493.11828-.00493.29078-.01478.48792-.04682,1.09412-.1035,2.45439.73188,3.20351a2.69747,2.69747,0,0,0,2.11678.42632l.4066-.01232a1.79369,1.79369,0,0,0,1.58944-.72942A5.00857,5.00857,0,0,0,163.123,5.261c.04189-.25875.07639-.50271.12568-.68013l.0616-.22918c.239.03943.53967.11336.71463.15525.20946.04929.39921.09611.54953.12075l.76145.1306c.65056.11089,1.30112.22179,1.95168.35732a9.53507,9.53507,0,0,1-.00739,1.73729c-.02957.49038-.05668.966-.04189,1.3849l-.00493.35241a3.379,3.379,0,0,0,.71216,2.649,3.70517,3.70517,0,0,0,3.4598.24643c1.11384-.69,1.08673-2.07243,1.06455-3.08031a5.32952,5.32952,0,0,1,.01479-.75406c.04189-.14046.244-.24149.33021-.28092a1.73234,1.73234,0,0,1,1.21733-.04682,4.90793,4.90793,0,0,1,.34992,1.9295l.032.50517c.01232.14046.00986.32775.00986.53474,0,.998,0,2.36568.83537,3.15916a3.149,3.149,0,0,0,2.691.41646l.4066-.04189a2.2625,2.2625,0,0,0,1.79889-.64564,2.00154,2.00154,0,0,0,.35978-1.43663l.02465-.51505a15.673,15.673,0,0,1,.14539-1.81861l.06407-.42631c.27353-1.84572.4411-1.85065.88959-1.863l.377-.01478c.32035-.01232.80827-.02957,1.00541.2218a8.95285,8.95285,0,0,1,.26614,1.59434l.29817,2.24c.11582.82306.2341,1.64365.32528,2.46671.19468,1.76439.36471,3.53126.53228,5.29565.1996,2.09707.40167,4.19415.64316,6.28382l.11829.92656c.2341,1.75947.49777,3.7555-.15525,5.16507a6.51928,6.51928,0,0,1-1.46376,1.58695l-.54182.50132c-.05714-.418-.11336-.82537-.16788-1.211l-.07393-.52981-.43371-.313c-15.643-11.37494-54.42772-3.896-56.06891-3.57069l-.85016.16757-.14385.83168A5.63157,5.63157,0,0,1,123.9514,28.55548ZM27.98394,101.30239l.08132,1.25923-.36225-1.15327A.64554.64554,0,0,1,27.98394,101.30239Zm-4.241,60.39119c-5.97086,2.07736-16.66568.59881-20.47539-.032l14.82734-46.80583,16.04222,2.4741.38442-2.49381L16.34039,112.0317l-.27337.86326a5.56709,5.56709,0,0,1-1.01789-.84847l-.87974.90437.66042-1.1163a5.46408,5.46408,0,0,0-.91177-.76638c.11829-.483.27353-.96352.42632-1.44158l.26367-.84031a23.35665,23.35665,0,0,1,1.54508-3.62736,27.132,27.132,0,0,0,1.60176-3.69883c.0345-.10843.07392-.26121.11582-.43617.02218-.09118.05667-.22918.08871-.34746.10843-.00986.244-.01232.3721-.01725l.18235-.01478-.00492.17249a3.02632,3.02632,0,0,0,.48545,2.07243,2.29438,2.29438,0,0,0,2.07243.86988c1.1508-.29817,1.35287-1.58451,1.43172-2.09707.05422-.33021.08872-.66781.1109-1.00541a.18679.18679,0,0,0,.037.00246l.57663.032a8.95466,8.95466,0,0,1,.89452.06407c-.00246.037-.00493.07146-.00739.101-.01232.17743-.02218.34007-.01725.61853a3.9666,3.9666,0,0,0,.21932,1.42186l.26614.67521.71463.11089a16.96724,16.96724,0,0,0,2.47656.14046,1.94353,1.94353,0,0,0,1.91718-.98077,3.85264,3.85264,0,0,0,.33514-1.90979v-.02957c.3031.00739.62345.01972.9783.04682a3.91648,3.91648,0,0,1,1.9714.49778c.04435.17742.07392.382.106.59388a4.34986,4.34986,0,0,0,.94134,2.44946c.91423.966,2.4396.62345,3.55344.16757a2.3265,2.3265,0,0,0,1.52536-2.57021,6.45482,6.45482,0,0,1,.68013-.24642c-.00739.11828-.00985.23164-.00739.33021a2.918,2.918,0,0,0,1.104,2.46177,4.63337,4.63337,0,0,0,2.755.58649c.69985-.01725,2.82895-.06407,3.08277-2.19564a7.57182,7.57182,0,0,0,.04436-.85262c.00246-.09118.00246-.18236.00493-.27353.20206.01232.40413.032.60374.05174l.56677.04436c.05914.00493.11582.00739.17.01232a41.58838,41.58838,0,0,0,.55692,4.45535c.11551.71217.22471,1.42711.32082,2.143l-11.01316,6.51638Zm2.69434-.1822,13.65837-44.7163L118.056,70.66246,113.75313,95.5299,46.90686,125.15133l1.02019,2.30653L113.236,98.519,102.21586,162.2083Zm76.92287,8.88591L116.00945,97.29l.69954-.30988.6481-.28585,3.92353-29.86863,6.35729-36.74232c5.73922-1.03,38.98924-6.444,52.81611,2.98913,3.72593,26.774,13.297,126.2875,14.3616,137.37167C188.61066,172.43521,151.75545,182.99449,103.36019,170.39729Zm149.28566-8.2854c.00555-5.76017-.003-27.27019-.003-27.27019l-15.374-2.11606-1.3407,29.49945-39.34363.26644c-1.33778-13.83826-4.09064-42.06878-6.88571-69.28618l149.10254,29.30431.48792-2.4741L189.4291,90.58232c-1.02805-9.97633-2.05533-19.74213-3.01423-28.53963L341.3766,105.82905l.07378.58664,1.22473-.11335c.09471-.00894.17157-.02249.25243-.035l8.10381,2.28974,6.17,52.84645Zm107.12525-.47545-6.42829-55.05072-9.56434-2.7025c-.01355-.276-.03127-.57725-.0536-.9224,19.17427-6.02014,33.17117-1.09412,35.941.02711,1.44158,4.894,11.80372,39.98726,18.28961,60.54644C390.61294,167.81276,368.826,163.82977,359.7711,161.63644Z"/>
    </g>
  </g>
</svg>
