<svg xmlns="http://www.w3.org/2000/svg" viewBox="0 0 225.37 154.45"><defs><style>.cls-1,.cls-2{fill:#fffdfd;}.cls-2{opacity:0;}</style></defs><g id="Layer_2" data-name="Layer 2"><g id="Layer_1-2" data-name="Layer 1"><path class="cls-1" d="M19.16,60.82V79.57c0,7.1,3.15,10.11,7.37,10.11,4.7,0,7.71-3.1,7.71-10.11V60.82h4.14V79.29C38.38,89,33.26,93,26.39,93,19.91,93,15,89.3,15,79.48V60.82Z"/><path class="cls-1" d="M47.22,92.5V60.82h4.46l10.15,16a90.63,90.63,0,0,1,5.69,10.29l.09,0c-.37-4.23-.47-8.08-.47-13V60.82H71V92.5H66.86L56.8,76.43a101.37,101.37,0,0,1-5.92-10.58l-.14.05c.24,4,.33,7.8.33,13.06V92.5Z"/><path class="cls-1" d="M84,60.82V92.5H79.88V60.82Z"/><path class="cls-1" d="M98.87,64.3H89.23V60.82h23.45V64.3H103V92.5H98.87Z"/><path class="cls-1" d="M125,92.5V79.06L115,60.82h4.65l4.47,8.74c1.22,2.4,2.16,4.33,3.14,6.54h.1c.89-2.07,2-4.14,3.19-6.54l4.56-8.74h4.66L129.13,79V92.5Z"/><path class="cls-1" d="M156.35,87.75a13.81,13.81,0,0,0,6.76,1.93c5.32,0,7-3.39,6.91-5.92,0-4.28-3.9-6.11-7.89-6.11h-2.31v-3.1h2.31c3,0,6.81-1.56,6.81-5.17,0-2.45-1.55-4.61-5.36-4.61a11.18,11.18,0,0,0-6.1,2l-1.09-3a14.57,14.57,0,0,1,8-2.35c6,0,8.75,3.58,8.75,7.29,0,3.15-1.88,5.83-5.64,7.19V76c3.76.75,6.81,3.57,6.81,7.85,0,4.89-3.81,9.16-11.14,9.16A15.59,15.59,0,0,1,155.22,91Z"/><path class="cls-1" d="M182.67,61.25a58,58,0,0,1,8.69-.66c5.88,0,10.06,1.36,12.83,3.94s4.47,6.26,4.47,11.38-1.6,9.4-4.56,12.31-7.85,4.56-14,4.56a64.57,64.57,0,0,1-7.42-.38Zm4.09,28a26.74,26.74,0,0,0,4.13.23c8.74,0,13.49-4.89,13.49-13.44.05-7.47-4.18-12.22-12.83-12.22a23.54,23.54,0,0,0-4.79.42Z"/><rect class="cls-2" width="225.37" height="154.45"/></g></g></svg>