<svg xmlns="http://www.w3.org/2000/svg" viewBox="0 0 335.37222 250.43427">
  <defs>
    <style>
      .cls-1 {
        fill: #fff;
      }
    </style>
  </defs>
  <g id="Layer_2" data-name="Layer 2">
    <g id="Layer_4" data-name="Layer 4">
      <path class="cls-1" d="M334.24758,160.867h-4.68309v-9.33157l3.56723-2.28608a1.06993,1.06993,0,0,0,.09665-.09336,1.08892,1.08892,0,0,0,.17133-.166,1.54681,1.54681,0,0,0,.19275-.37382,1.0899,1.0899,0,0,0,.03542-.2349,1.06706,1.06706,0,0,0,.02005-.13248l-.40417-8.43483c-.00055-.01084-.006-.01963-.00687-.03034a1.06854,1.06854,0,0,0-.03706-.16405,1.05442,1.05442,0,0,0-.41076-.658l-2.70178-2.18545a1.07091,1.07091,0,0,0-.12576-.06535.82174.82174,0,0,0-.42833-.15417,1.0651,1.0651,0,0,0-.15321-.03089h-38.7343a1.12464,1.12464,0,1,0,0,2.24928H328.9824l2.04061,1.65073.34871,7.28094-2.01645,1.29227a1.1045,1.1045,0,0,0-.91542-.50741,1.124,1.124,0,0,0-1.12464,1.12464V160.867H306.07V150.71441a1.09213,1.09213,0,0,0-.05657-.28116h19.74222a1.12465,1.12465,0,0,0,0-2.24929H274.58a1.12465,1.12465,0,1,0,0,2.24929h9.493l-6.8,34.563a1.08426,1.08426,0,0,0,.0011.31411H265.38128l4.86486-14.09539a2.80019,2.80019,0,0,1,.0615-.36683V56.55269l9.13114.39113V143.435a1.124,1.124,0,0,0,1.12464,1.12464h8.5798a1.12465,1.12465,0,1,0,0-2.24929h-7.45515V56.71222a1.10981,1.10981,0,0,0-.96073-1.09156,1.11042,1.11042,0,0,0-1.036-.9172l-25.0678-1.07385a1.11089,1.11089,0,0,0-1.08675-.79763,1.12357,1.12357,0,0,0-1.0895,1.15869l.56727,18.04-.17188-.12369a1.1228,1.1228,0,0,0-1.57055.2559,1.09782,1.09782,0,0,0-.19165.6889,1.10923,1.10923,0,0,0-.32455.2095l-3.84893,3.76a1.09156,1.09156,0,0,0-.30258-.06095,1.124,1.124,0,0,0-1.12465,1.12464v92.96321a1.12465,1.12465,0,1,0,2.24929,0V99.79779l9.06305,45.1671c.00494.0254.02059.04489.02745.06946a1.07794,1.07794,0,0,0,.0659.169,1.10251,1.10251,0,0,0,.11532.20209,1.05347,1.05347,0,0,0,.112.12795,1.11266,1.11266,0,0,0,.187.14785,1.08021,1.08021,0,0,0,.1436.081,1.10384,1.10384,0,0,0,.26029.07345,1.073,1.073,0,0,0,.10544.02979c.02691.00206.05381.00275.08237.003l.0011.00028.0011-.00014.00329.00014.00467-.00083a1.09724,1.09724,0,0,0,.215-.02114c.0324-.00659.05711-.02787.08841-.03707a1.21308,1.21308,0,0,0,.65321-.50686,1.68476,1.68476,0,0,0,.1392-.40046c.00357-.0254.01758-.04654.01977-.07262l4.91592-64.2848a1.06209,1.06209,0,0,0-.01647-.13221.95948.95948,0,0,0-.10324-.42421,1.07405,1.07405,0,0,0-.10159-.17847,1.10217,1.10217,0,0,0-.15925-.17161,1.0522,1.0522,0,0,0-.08512-.09184l-8.14927-5.85949-.55958-17.80059,13.29968.56974V170.65953l-5.0565,14.65085h-7.43978c-.00934,0-.017.00508-.02636.00535-.036.00082-.06947.01359-.10516.01785a1.10592,1.10592,0,0,0-.18039.03967,1.15119,1.15119,0,0,0-.14168.036c-.0313.01373-.056.04036-.08622.057a1.10848,1.10848,0,0,0-.14607.09953,1.12432,1.12432,0,0,0-.123.09363c-.00494.00521-.01208.007-.017.01235-.0195.021-.02526.04833-.04283.07043a2.96782,2.96782,0,0,0-.17353.28487,1.09753,1.09753,0,0,0-.02911.11038c-.00659.02443-.02389.04283-.0291.06809L251.874,198.63806a1.11142,1.11142,0,0,0,.13893.79434l-8.5496,11.17381V164.052a1.124,1.124,0,0,0-1.12464-1.12465h-.97528V78.6889a1.127,1.127,0,0,0-.358-.82372,1.08277,1.08277,0,0,0-.84787-.29763l-13.71978.98845a1.12348,1.12348,0,0,0-.85666.50082L214.38078,95.99265V43.73983a1.11656,1.11656,0,0,0,.43273-1.19109l-.43273-1.66253V2.95118a1.07834,1.07834,0,0,0-.04063-.20167,1.14274,1.14274,0,0,0-.04229-.21019,1.111,1.111,0,0,0-.1112-.18313,1.11849,1.11849,0,0,0-.12-.17834,1.1199,1.1199,0,0,0-.171-.12726,1.08977,1.08977,0,0,0-.17875-.1204,1.12232,1.12232,0,0,0-.21664-.0545,1.06632,1.06632,0,0,0-.19137-.04805L204.019,1.38887A1.11083,1.11083,0,0,0,202.82463.949a1.09358,1.09358,0,0,0-.54475.35763l-5.88461-.27787a1.01065,1.01065,0,0,0-.85391-.04036L174.61848.00009c-.00988-.00082-.01812.00426-.028.00371a1.08029,1.08029,0,0,0-.18781.02526,1.01893,1.01893,0,0,0-.25315.05079l-.0195.007c-.03157.01317-.05381.0394-.08374.05532l-.01318.00865a1.11493,1.11493,0,0,0-.23366.15472c-.00851.00783-.0184.01291-.02663.02114a1.13948,1.13948,0,0,0-.11862.17367,1.14211,1.14211,0,0,0-.10543.15678c-.0055.01153-.01511.02018-.02.032L173.52679.692a1.058,1.058,0,0,0-.04366.2224,1.05476,1.05476,0,0,0-.03981.15651c-.00055.00837.00384.01551.00357.02389-.00028.01016-.00577.01867-.00577.02883V124.26387L157.46081,135.98l1.15786-27.21564a1.12767,1.12767,0,0,0-1.09389-1.173l-35.479-.939a1.23662,1.23662,0,0,0-.81493.31851,1.12674,1.12674,0,0,0-.34046.80614v37.535l-2.84017,2.73363a1.13428,1.13428,0,0,0-.34486.7655l-.71388,17.84905-6.601-.334c1.54391-2.21167,3.84866-6.23949,3.84866-10.59034,0-3.464-1.397-4.08782-2.827-4.42939-.8325-.19879-1.43436-.34266-1.43436-3.375,0-2.59085.41954-2.68969,1.05435-2.84016,2.08015-.492,3.207-1.72321,3.207-6.81376,0-10.02844-4.26134-14.62036-4.44146-14.81147a1.12759,1.12759,0,0,0-.81493-.34925H89.195l.3196-21.36054A1.12324,1.12324,0,0,0,88.39,100.61505H74.657a1.124,1.124,0,0,0-1.12464,1.12465v2.83467H68.98985V101.7397a1.124,1.124,0,0,0-1.12464-1.12465H54.79562A1.124,1.124,0,0,0,53.671,101.7397v93.71H1.12464A1.124,1.124,0,0,0,0,196.57438v52.73524a1.124,1.124,0,0,0,1.12464,1.12465H86.971a1.124,1.124,0,0,0,1.12464-1.12465V238.13293l33.1704-.4783a1.12507,1.12507,0,0,0,1.10927-1.12465V182.65472a14.33807,14.33807,0,0,0,4.01093-8.65448c.28775-5.53975-3.21578-6.92468-3.36514-6.9807a1.10749,1.10749,0,0,0-.33827-.07139l-.30752-.01551v-.84884l40.64092.60406-.41734,15.65825h-.01758v-4.67979a1.124,1.124,0,0,0-1.12464-1.12465h-29.7064a1.124,1.124,0,0,0-1.12465,1.12465v64.60989a1.124,1.124,0,0,0,1.12465,1.12464h29.7064a1.124,1.124,0,0,0,1.12464-1.12464V238.061l8.74674,6.33381a1.11917,1.11917,0,0,0,.659.21417,1.005,1.005,0,0,0,.18232-.01538l7.19157-1.19384,16.69832-.54914a1.12419,1.12419,0,0,0,1.0873-1.12354V236.016H274.58a1.13965,1.13965,0,0,0,.257-.02966l8.3821-1.96044a1.12464,1.12464,0,0,0,.69412-1.69575L282.604,230.261h24.45881a1.124,1.124,0,0,0,1.12464-1.12464v-5.06968h26.0601a1.124,1.124,0,0,0,1.12464-1.12465V161.9916A1.124,1.124,0,0,0,334.24758,160.867ZM257.394,136.53143l-9.66491-48.166V79.16239l4.59962-4.49322a1.086,1.086,0,0,0,.16529-.243l9.14624,6.57639Zm-13.17283,76.7874,9.64733-12.6083a2.53456,2.53456,0,0,1,.20648-1.61339l2.18257-10.48642,6.9277,6.40506L254.556,227.72572l-11.09268-3.31915V213.72932A1.10066,1.10066,0,0,0,244.22118,213.31883Zm-15.78674,6.59081v-54.733h2.60293v55.51184Zm-5.22784-1.56423V165.17662h2.97855v54.06Zm-10.54573-3.15551V165.17662h3.3937V216.2054Zm-5.63859-1.68724v-48.326h3.3893v49.34031Zm-23.77567-31.15655h-7.5562V162.31243L185.72,146.25153v36.09458Zm-3.85718,5.14656a1.14016,1.14016,0,0,0-.17133.56452l-.0648,2.16389-10.63414-5.62569h12.69233ZM202.34358,3.56183,212.1315,41.166v.14332L197.08527,69.80817l-.0442-.05423V3.31128ZM219.6369,144.40819l8.18579,1.20441-.63975,9.11988-7.71655-6.91082Zm8.34339-1.046-9.23932-1.35941c-.01894-.003-.03624.00453-.05491.00247-.01867-.00178-.03377-.01249-.05272-.01345a1.1783,1.1783,0,0,0-.16968.02334,1.088,1.088,0,0,0-.21829.03006,1.03074,1.03074,0,0,0-.32591.15651l-.02032.01263a.99951.99951,0,0,0-.26908.29777c-.00659.0103-.01428.019-.02032.02952a1.134,1.134,0,0,0-.106.29544,1.09341,1.09341,0,0,0-.04119.11463c-.00274.01895.00494.03624.003.05519-.00165.01853-.011.03364-.0118.05244l-.14168,2.83317-7.83462-7.0164,18.7307,1.23571Zm-18.4056-6.73441a1.14622,1.14622,0,0,0-1.19713,1.04886,1.0942,1.0942,0,0,0,.19.66748,1.10418,1.10418,0,0,0-.98735.34294,1.12514,1.12514,0,0,0,.08566,1.58812l18.14806,16.25269.29654,6.39943H214.283L198.78953,142.642a1.11613,1.11613,0,0,0-.291-.25343l13.633-31.001v25.40895Zm-21.60546,6.02176,1.63425-2.61708c.01538-.0243.01593-.05217.02911-.07715a1.10157,1.10157,0,0,0,.08154-.21678,1.07228,1.07228,0,0,0,.04339-.2154c.00247-.02993.01729-.05546.01729-.08594a1.00729,1.00729,0,0,0-.02471-.12177,1.12628,1.12628,0,0,0-.24821-.58992,1.07146,1.07146,0,0,0-.168-.159,1.04178,1.04178,0,0,0-.08841-.08375c-.02526-.01565-.05436-.01647-.08017-.02993a1.39458,1.39458,0,0,0-.42284-.12163c-.03185-.00275-.05931-.01867-.09226-.01867h-7.73192V112.609l13.87353,21.38209v20.86878l-6.82255,6.55168Zm9.07184-60.00136,14.94326,23.48366-14.94326,33.98025Zm-2.24929,47.208-13.69232-21.103,13.69232-25.49709Zm0-51.35278-13.87353,25.83427V53.543l13.87353,17.01271ZM178.68214,50.21586c-.00138.00879.00219.01675.0011.02554-.00385.02938-.00165.05766-.0033.08731-.00082.01936-.011.03556-.011.05519v87.92868h-2.97855V2.80923l9.54684,3.97085Zm-2.99173,90.346h3.23939a1.08181,1.08181,0,0,0,1.7276,0H185.72v1.4459l-10.02954,16.061Zm36.44109-38.38944L197.04107,78.45771V72.90588a.81556.81556,0,0,0,.75452-.08457,1.04843,1.04843,0,0,0,.10131-.0567,1.0292,1.0292,0,0,0,.10187-.057,1.117,1.117,0,0,0,.28336-.3472l13.84937-26.2317ZM194.79178,66.99573l-13.812-16.93747,6.61167-43.81113c.0044-.0291-.006-.0556-.00412-.08443a1.46935,1.46935,0,0,0-.05134-.43176,1.09052,1.09052,0,0,0-.095-.19975,1.0773,1.0773,0,0,0-.11258-.1712,1.45738,1.45738,0,0,0-.34431-.27059c-.02636-.01345-.04365-.03665-.07139-.04818L180.92319,2.5499l13.86859.65512ZM196.6962,156.152l.00742-.01058a1.11792,1.11792,0,0,0,.165-.23846,1.08536,1.08536,0,0,0,.08293-.123c.00823-.01894.00631-.04187.01317-.06136a1.1199,1.1199,0,0,0,.07414-.36752l.0022-.01071v-9.638l.45825-1.04228,13.95234,18.26722H189.64082Zm21.60766,9.0246h2.65345V217.6723l-2.65345-.79393Zm14.9828,0h3.989v57.37851l-3.989-1.19356Zm6.23825,0h1.68917v58.557l-1.68917-.50548ZM227.15164,80.75916l11.96252-.86215v83.03032H228.3603l-.2235-4.82009.01867.00082a1.12534,1.12534,0,0,0,1.12025-1.04557l1.25644-17.91961-.00055-.00371.00055-.00178a1.0564,1.0564,0,0,0-.02389-.1793,1.14539,1.14539,0,0,0-.03487-.26084,57.2541,57.2541,0,0,0-.21581-.37245,1.12092,1.12092,0,0,0-.23311-.18205,1.08815,1.08815,0,0,0-.10626-.08223,1.12324,1.12324,0,0,0-.402-.11051c-.00989-.001-.01758-.00687-.02746-.00756h-.00028l-.00411-.00109-15.10362-.99642V100.0703ZM204.69474,3.67275l7.43676.35132V32.24463Zm-49.1628,133.72139-7.97519,5.84713V109.57788l8.76431.232-1.13782,26.73665A1.11087,1.11087,0,0,0,155.53194,137.39414Zm-43.542.88329c0,4.27562-.749,4.45355-1.4739,4.62488-1.766.41735-2.78745,1.374-2.78745,5.029,0,4.02082,1.15979,5.084,3.16087,5.56282.75562.18012,1.10048.26358,1.10048,2.2416,0,4.68089-3.28168,9.17287-4.32505,10.48093H97.542a23.128,23.128,0,0,0,3.93955-10.98944c.18671-3.56833-1.08071-4.4843-3.03786-4.76106-.77539-.10983-1.09609-.156-.84128-2.40854a6.61337,6.61337,0,0,1,2.38986-4.77974c1.34211-1.30805,2.86433-2.79074,2.83358-7.05538-.0313-4.457-2.92034-8.82787-4.47167-10.85654h10.09708C109.33864,126.54446,111.9899,130.69817,111.9899,138.27743ZM95.5299,125.366a1.11027,1.11027,0,0,0,.1966.33388c.04832.05381,4.81488,5.43211,4.85,10.53914.02416,3.30583-.93793,4.24267-2.15483,5.42772a8.777,8.777,0,0,0-3.05543,6.13831c-.413,3.67376.80394,4.6106,2.76109,4.88737.84128.11971,1.22568.17353,1.10926,2.41842-.26853,5.18665-3.45685,9.79217-4.44585,11.10586H88.55l.61147-40.8507ZM75.78165,102.86434H87.24774l-1.38384,92.5854H75.78165Zm-2.24929,3.95932v88.62608H68.98985V106.82366Zm-17.6121-3.95932H66.74057v1.78087a1.10472,1.10472,0,0,0,0,2.10761v88.69692H55.92026ZM85.84633,248.185H2.24929V197.699h83.597Zm2.24928-51.59412.42065-28.12488H108.1588l2.87065.14511a18.37234,18.37234,0,0,1,.967,7.52861c-.43053,4.30967-5.69571,10.8829-5.74843,10.9488a1.12335,1.12335,0,0,0-.25041.71718l.4849,47.81259-18.38694.26482Zm36.04571-22.707c-.22185,4.24707-3.61995,7.44637-3.6529,7.47822a1.12591,1.12591,0,0,0-.36243.82591v53.23386l-11.39416.16406-.48049-47.40568c1.12684-1.453,5.54194-7.386,5.98125-11.81864a20.22956,20.22956,0,0,0-.79872-7.62882l8.90626.45043C122.8058,169.449,124.31265,170.57249,124.14132,173.88382ZM121.26821,163.818a1.00013,1.00013,0,0,0-.80615.324,1.12084,1.12084,0,0,0-.33607.80065v1.876l-.88632-.04475.69522-17.42141,2.85993-2.7512a1.12836,1.12836,0,0,0,.34486-.81053V108.93126l22.16778.587v35.372l-10.40954,7.63184a1.12234,1.12234,0,0,0-.45469.82042l-.82371,10.65872Zm29.84643.443-15.24364-.22624.3531-4.5701L151.1108,157.37C151.0298,159.80519,150.97187,162.85787,151.11464,164.26106Zm13.86749.54a1.12255,1.12255,0,0,0-.793-.346l-10.81755-.16049c-.00769-.02979-.00165-.05917-.01153-.08882a76.30061,76.30061,0,0,1,.04832-8.09216,1.12605,1.12605,0,0,0-1.2806-1.1576l-15.72606,2.2125.24244-3.13725,32.54383-23.859-15.47648,20.708a1.12442,1.12442,0,1,0,1.80118,1.3465l17.9284-23.98888v54.10824h-8.59078l.4459-16.73676A1.13086,1.13086,0,0,0,164.98213,164.801ZM160.332,241.15157H132.87488V178.791H160.332Zm11.934,1.1466-9.68468-7.01254V184.59539h2.64083a1.12247,1.12247,0,0,0,.59033,1.11147l13.26563,7.0179-1.46127,48.69259Zm9.19264-53.86757,2.40964-3.83521H191.699l.27457.93355a1.12145,1.12145,0,0,0,.99285.80614l1.93078.14826V188.104l-9.75935,1.21292a1.12364,1.12364,0,0,0-.98626,1.106l-.42669,50.59015-3.85.12864Zm13.43861,52.20916-8.92219.29805.41708-49.51,8.50511-1.05765Zm1.21031-56.31894-2.19437-.16913-.29214-.99615a1.12257,1.12257,0,0,0-1.07852-.80943h-4.57326V165.17662H204.773v50.12132a1.1155,1.1155,0,0,0,2.11145.51153l3.70561,1.10885a1.07018,1.07018,0,0,0,1.436.42971l4.05212,1.2125a1.09778,1.09778,0,0,0,1.95879.58608l8.18882,2.45027a1.10124,1.10124,0,0,0,1.89728.56768l3.33879.999a1.10519,1.10519,0,0,0,.70015.265,1.05072,1.05072,0,0,0,.11093-.02237l34.6248,10.36053H197.1465V185.44217A1.12479,1.12479,0,0,0,196.10752,184.32082ZM274.61566,233.728l-17.904-5.35715,8.59957-32.59819h11.9584l.55243,32.4642a1.12511,1.12511,0,0,0,1.12465,1.106h.01977a1.10071,1.10071,0,0,0,.486-.13138,1.121,1.121,0,0,0,.1598.52566l1.55517,2.45906Zm5.94776-5.71629a1.11112,1.11112,0,0,0-.49313.13481l-.57-33.51718a1.05742,1.05742,0,0,0-.04173-.18794,1.13975,1.13975,0,0,0-.05327-.24162.97776.97776,0,0,0-.49423-.52251,1.20418,1.20418,0,0,0-.10214-.06659,1.11551,1.11551,0,0,0-.28034-.05642,1.05534,1.05534,0,0,0-.15293-.03089H264.88623l-6.45-5.96369H295.683l-1.13618,40.452Zm25.37477,0h-9.14047l1.16692-41.54482c0-.006-.00329-.01112-.003-.01716l.003-.01469a1.05058,1.05058,0,0,0-.03844-.19014,1.47516,1.47516,0,0,0-.282-.59211,1.11219,1.11219,0,0,0-.17325-.12411,1.10071,1.10071,0,0,0-.18012-.12122,1.14373,1.14373,0,0,0-.20978-.04846,1.05471,1.05471,0,0,0-.21032-.0486c-.006-.00014-.01043.00288-.01647.00288l-.01428-.00288H279.50193l6.86208-34.87713h17.51325a1.09254,1.09254,0,0,0-.05656.28116v10.18618a1.10991,1.10991,0,0,0-.95771,1.091V222.942a1.124,1.124,0,0,0,1.12465,1.12465h1.95055Zm27.18475-6.19433H305.11228V163.11624h28.01066Z"/>
    </g>
  </g>
</svg>
