<svg xmlns="http://www.w3.org/2000/svg" viewBox="0 0 402.37075 209.14983">
  <defs>
    <style>
      .cls-1 {
        fill: #fff;
      }
    </style>
  </defs>
  <g id="Layer_2" data-name="Layer 2">
    <g id="Layer_4" data-name="Layer 4">
      <g>
        <path class="cls-1" d="M402.37075,130.51208,200.53705,0,.88552,127.92667,0,128.4933l22.1223,66.14288,4.201-.72228v13.80749L197.53,196.15423,371.62513,209.047l1.40472.10279.41838-13.61692,4.763.85587ZM29.022,193.44988l19.08358-3.28118v13.37643l-8.73665.58952v-11.823H36.6702v12.00515l-7.64819.51606Zm124.38457-21.3865V196.439l-38.09864,2.57109V178.61405ZM112.6092,199.19212l-27.49606,1.85555v-17.242l27.49606-4.72758Zm-30.1948,2.03773-18.42471,1.24329V187.43767l18.42471-3.168ZM61.291,202.65532l-10.48662.70763V189.70469l10.48662-1.803Zm94.81437-6.39847V171.59937l41.6671-7.16409v29.04261l-.23193-.01713Zm177.08383-7.3265v14.566l-18.32193-1.35546V185.00545l32.62737,5.8633v13.68593l-11.6067-.85867V188.93035ZM312.16848,201.9411,281.95,199.70555V179.08992l30.21852,5.43043Zm-32.91726-2.43519-35.60547-2.63417V172.20636l35.60547,6.39863ZM240.947,196.6721l-40.47585-2.99458V164.44764l40.47585,7.27378Zm129.4737,9.57869-20.22738-1.49647V191.35385l20.56868,3.69627Zm-98.37789-31.68353a31.286,31.286,0,0,1,12.76763-11.32981,35.99781,35.99781,0,0,1-10.93959-.08483c-3.93412-.79822-7.29371-3.20113-10.44774-5.68919,1.81816,2.69643,3.84222,5.45744,5.552,8.30113a22.252,22.252,0,0,1,2.85424,8.76432l-23.96253-4.30639c3.37968-5.36668,8.29553-8.9521,13.82413-11.85262-8.68756,1.03328-17.48779.14265-26.00866-7.20543,5.71671,5.94731,10.0735,11.89874,11.497,18.93451l-28.7153-5.16062a63.24262,63.24262,0,0,1,6.53173-6.74323c2.78044-2.2825,6.115-3.97794,9.25716-5.962-10.1809,1.2596-20.79237.10657-31.76161-8.08733,6.99953,6.6024,12.50342,13.09937,14.50047,20.528l-17.86467-3.21052-13.13265,2.25812c2.24775-6.931,7.554-13.07434,14.17433-19.31814-10.96957,8.1939-21.58137,9.34693-31.76227,8.08733,3.14217,1.984,6.477,3.67947,9.25716,5.962a51.12449,51.12449,0,0,1,5.61689,5.73532l-27.47828,4.72477c1.69858-6.4156,5.85211-11.9531,11.17481-17.49075-8.5212,7.34807-17.3211,8.2387-26.008,7.20542,5.09242,2.6719,9.67818,5.90992,13.01207,10.59846l-22.8912,3.93594a21.15082,21.15082,0,0,1,2.59464-7.13971c1.70977-2.84369,3.73383-5.60469,5.55165-8.30113-3.15336,2.48807-6.51361,4.891-10.44774,5.6892a35.99623,35.99623,0,0,1-10.93925.08483,31.77811,31.77811,0,0,1,11.8228,9.91059l-19.332,3.324c.67732-5.31281,3.16687-9.86793,6.58477-14.30379-5.46107,5.72593-11.68181,6.33111-18.0732,5.23886a31.28382,31.28382,0,0,1,10.373,9.25667l-16.38847,2.818c.19832-4.88306,2.19635-8.99064,4.91058-13.03068-4.46287,5.09522-9.80238,5.57966-15.39719,4.33538a67.4066,67.4066,0,0,1,5.56484,4.38891,50.7561,50.7561,0,0,1,3.9193,4.47869L77.57037,182.364a22.89782,22.89782,0,0,1,3.70286-11.79777c-1.941,1.76363-3.8264,3.46468-6.24314,3.918a21.07979,21.07979,0,0,1-6.92113-.265,28.481,28.481,0,0,1,8.69975,8.27577l-12.35452,2.1242a20.4094,20.4094,0,0,1,2.89114-11.18584c-1.63071,1.67238-3.21728,3.27987-5.33325,3.73268a15.79954,15.79954,0,0,1-6.14563-.32137c1.52364,1.267,3.10593,2.38331,4.53271,3.82509a50.82551,50.82551,0,0,1,3.41856,4.059L52.804,186.62232a15.949,15.949,0,0,1,.33537-5.04548c.47933-1.79263,1.101-3.51838,1.65311-5.25171-1.25845,1.45463-2.59925,2.877-4.43158,3.24a13.11251,13.11251,0,0,1-5.46271-.42761c1.39154,1.19668,2.80779,2.35909,4.19768,3.625a22.7758,22.7758,0,0,1,3.21859,3.94417L42.635,188.3708a18.39776,18.39776,0,0,1,1.55164-9.86744c-1.16555,1.41641-2.30671,2.78489-3.94137,3.14365a11.317,11.317,0,0,1-4.99656-.4057c1.31412,1.15154,2.63977,2.14776,3.85868,3.42762,1.06935,1.12272,2.06293,2.4538,3.10263,3.775l-8.77453,1.50865a18.716,18.716,0,0,1,1.03937-9.24085c-1.84814,3.32385-4.72708,3.39962-7.93315,2.40077a26.39337,26.39337,0,0,1,6.57324,6.89526l-9.16887,1.57652L3.22584,129.63183,200.53177,3.21,399.0922,131.60845l-19.61661,53.49006c-.00724-.08022-.01976-.15632-.04875-.16966a6.85563,6.85563,0,0,1-2.74552-2.702,16.96868,16.96868,0,0,1,.76429,8.40688l-.98963,2.69792Z"/>
        <path class="cls-1" d="M105.96513,89.39037c-.16076-9.09112,3.05981-17.72943,7.35763-26.74857-3.34048,4.64373-6.60256,9.14251-10.47936,11.13412-3.65147,1.87614-7.29669,2.81718-10.60983,4.04383A22.51988,22.51988,0,0,1,105.96513,89.39037Z"/>
        <path class="cls-1" d="M160.02364,61.37973c-4.787,5.18846-9.37905,10.11847-14.54461,12.71937a46.392,46.392,0,0,1-14.29292,4.22041c6.79825,2.22237,12.8065,5.92968,16.59634,13.27825C148.54938,81.39858,153.49685,71.64381,160.02364,61.37973Z"/>
        <path class="cls-1" d="M161.91164,58.58875a54.84329,54.84329,0,0,1,5.1369-18.02725c2.99128-6.313,6.58609-12.72776,10.33441-19.89844-11.48118,16.3486-22.97883,22.07157-33.95631,24.0388,3.44426,1.60913,6.988,3.04613,10.36011,4.90151C157.24452,51.506,159.63589,54.94963,161.91164,58.58875Z"/>
        <path class="cls-1" d="M85.4373,100.5436c-.50634-8.30624,2.0491-15.90913,5.38563-23.94688-5.03247,9.43555-11.17053,12.2939-17.54083,12.99A24.18249,24.18249,0,0,1,85.4373,100.5436Z"/>
        <path class="cls-1" d="M68.22525,109.92249c-.69742-7.28565,1.08022-13.9261,3.60041-20.84376-4.061,8.0926-9.26441,10.26391-14.67111,10.44576,2.00626,1.338,4.02571,2.52711,5.96609,4.02225A20.50122,20.50122,0,0,1,68.22525,109.92249Z"/>
        <path class="cls-1" d="M165.25377,110.59487c7.67916,2.85291,14.38911,7.00595,18.12624,14.63207,1.58294-10.1356,8.20559-19.30315,16.63323-28.98413C188.02835,107.68183,176.44142,110.57329,165.25377,110.59487Z"/>
        <path class="cls-1" d="M136.47916,120.992c3.012,1.85209,5.95522,3.45858,8.703,5.40917a23.43207,23.43207,0,0,1,6.67207,7.97384c.81206-8.65214,5.491-16.36474,11.637-24.43724C154.59684,119.16531,145.48727,121.27371,136.47916,120.992Z"/>
        <path class="cls-1" d="M165.07653,108.09692a99.30509,99.30509,0,0,1,2.85358-9.81819,70.73319,70.73319,0,0,1,5.07332-9.97714c2.00231-3.36453,4.477-6.63254,6.8213-10.05505-.03821-.14216-.07577-.28447-.114-.42662-10.61839,12.429-21.35241,15.75331-31.788,16.36145C155.26658,96.65922,161.51006,100.73352,165.07653,108.09692Z"/>
        <path class="cls-1" d="M53.625,117.91379c-.90991-6.76382.5462-12.795,2.54522-19.04834-3.18993,7.26144-7.639,9.23608-12.44215,9.456A22.79558,22.79558,0,0,1,53.625,117.91379Z"/>
        <path class="cls-1" d="M200.99331,36.83542c.01812.20787.0593.4197.06952.62625.06193-.09356.1176-.17031.17921-.26239.1209.17954.23126.33454.35513.51985.01977-.40916.08631-.82623.137-1.24066,7.96774-11.70256,10.4563-11.0455,21.53129-14.76533-.69478-.21594-1.40011-.4678-2.0906-.645-2.478-.6363-10.63124,2.38611-18.52815,2.63961-7.89725.25367-18.40066-3.09126-21.16266-2.38215-.69017.17724-1.39549.42909-2.09027.645C190.50044,25.701,192.97121,25.02842,200.99331,36.83542Z"/>
        <path class="cls-1" d="M199.357,39.57616c-12.69121,15.121-25.01673,20.3468-36.88961,22.234,7.99673,2.4482,15.00911,6.34593,18.97289,14.56717C183.0565,64.21305,190.314,52.39238,199.357,39.57616Z"/>
        <path class="cls-1" d="M130.91762,75.76374c.39532-10.60208,4.88686-20.85463,10.79694-31.77412C133.116,57.0684,124.03735,61.48136,114.98938,62.94356,121.416,65.05031,127.21575,68.45306,130.91762,75.76374Z"/>
        <path class="cls-1" d="M50.94138,135.61275c-.88882-6.15387.392-11.44808,2.24807-16.86417-2.98568,6.339-7.17084,7.831-11.753,7.53008A22.88,22.88,0,0,1,50.94138,135.61275Z"/>
        <path class="cls-1" d="M19.39655,174.54486a24.89335,24.89335,0,0,1,6.78473,7.48924,16.4918,16.4918,0,0,1-.366-5.54722c.226-1.692.5943-3.30506.9323-5.12965C25.17683,175.04857,22.47117,175.35791,19.39655,174.54486Z"/>
        <path class="cls-1" d="M19.71083,150.21319c-1.52562,4.12636-4.17857,4.86314-7.27527,4.296a23.43983,23.43983,0,0,1,6.96626,7.58362A25.01324,25.01324,0,0,1,19.71083,150.21319Z"/>
        <path class="cls-1" d="M23.23316,185.18631c-.06786.031-.07709.33306-.02273.49217.6424,1.88372,1.29732,3.75129,1.94334,5.60618l.10872.03081a16.83937,16.83937,0,0,1,.71553-8.8312A6.85842,6.85842,0,0,1,23.23316,185.18631Z"/>
        <path class="cls-1" d="M18.95905,162.96139a6.81926,6.81926,0,0,1-2.31461,2.846c-.25433.14808-.20821.46088-.054.89886.64932,1.84336,1.28282,3.67816,1.91863,5.49846.03954.1125.09818.21924.14759.32861a23.251,23.251,0,0,1,.4342-9.74423A1.17351,1.17351,0,0,0,18.95905,162.96139Z"/>
        <path class="cls-1" d="M4.92178,132.93509a22.03656,22.03656,0,0,1,7.12768,7.56863,31.55277,31.55277,0,0,1,.01449-13.31878C10.65924,132.02222,8.01123,133.16569,4.92178,132.93509Z"/>
        <path class="cls-1" d="M19.9467,149.66139a28.791,28.791,0,0,1,.342-13.05836c-1.59151,4.7228-4.45068,5.59383-7.722,5.12389,1.36651,1.16422,2.64472,2.17773,3.90415,3.34773A20.67344,20.67344,0,0,1,19.9467,149.66139Z"/>
        <path class="cls-1" d="M30.11014,130.62739c-1.044-5.6841-.24543-10.6067.9636-15.642-2.144,5.96773-5.59811,7.33918-9.43966,7.18467A21.91163,21.91163,0,0,1,30.11014,130.62739Z"/>
        <path class="cls-1" d="M41.04479,124.72982c-.96756-6.301.07511-11.859,1.78884-17.41812-1.39088,2.89789-2.85786,5.49747-4.871,6.78754a11.9793,11.9793,0,0,1-6.10808,1.62692A21.85736,21.85736,0,0,1,41.04479,124.72982Z"/>
        <path class="cls-1" d="M20.55287,135.9603a33.22849,33.22849,0,0,1,.39137-14.41959c-1.76446,5.31677-4.77288,6.57851-8.22537,6.30146A21.77056,21.77056,0,0,1,20.55287,135.9603Z"/>
        <path class="cls-1" d="M11.6963,141.54556a8.69413,8.69413,0,0,1-2.286,3.54605c-.23885.18037-.15155.55428-.002.98123q.94433,2.69338,1.86691,5.35811.16407.47143.32812.942l.10608.00329a27.504,27.504,0,0,1,.09685-10.96841A.57534.57534,0,0,0,11.6963,141.54556Z"/>
        <path class="cls-1" d="M48.10428,151.83781c-2.44014,4.81306-6.02243,5.54441-10.03595,4.7256,1.581,1.323,3.05387,2.47785,4.49219,3.78061a23.02121,23.02121,0,0,1,3.83464,4.96,19.2037,19.2037,0,0,1,.01977-6.94929C46.859,156.20778,47.4968,154.14534,48.10428,151.83781Z"/>
        <path class="cls-1" d="M34.7061,146.34858a11.0445,11.0445,0,0,1-5.34312.51837,23.25127,23.25127,0,0,1,8.256,8.48677c-.956-5.17578-.05139-9.43736,1.28217-13.70883C37.69739,143.69711,36.46068,145.59466,34.7061,146.34858Z"/>
        <path class="cls-1" d="M28.61417,146.11814c-1.82112,4.63961-4.81438,5.30112-8.14893,4.804a23.83087,23.83087,0,0,1,7.5006,7.99361,20.41506,20.41506,0,0,1-.3772-6.49978C27.83044,150.38878,28.23005,148.43127,28.61417,146.11814Z"/>
        <path class="cls-1" d="M39.677,142.20262c1.66991,1.32005,3.23934,2.447,4.75508,3.79115a21.42552,21.42552,0,0,1,4.0939,5.27642c-.82293-5.443.26619-10.03479,1.87318-14.67309C47.69841,141.84189,43.88552,142.78029,39.677,142.20262Z"/>
        <path class="cls-1" d="M37.30272,155.92183c-2.0682,4.34493-5.27592,4.96872-8.86579,4.25253a24.27894,24.27894,0,0,1,7.7009,8.1855A23.54062,23.54062,0,0,1,37.30272,155.92183Z"/>
        <path class="cls-1" d="M60.57937,147.36505c-3.02884,5.32155-7.21927,6.01716-11.695,5.32765A24.80284,24.80284,0,0,1,58.05,161.95381C57.28237,156.44662,58.6917,151.93812,60.57937,147.36505Z"/>
        <path class="cls-1" d="M91.62148,135.98237c-4.5449,6.48808-10.057,7.619-15.77176,6.86381a2.0658,2.0658,0,0,0-.02866.25119,25.17691,25.17691,0,0,1,10.95837,10.42369C86.37224,146.99114,88.64008,141.5533,91.62148,135.98237Z"/>
        <path class="cls-1" d="M72.01509,149.97518c.74814-2.53436,1.72657-4.99426,2.72344-7.82823-3.63038,5.75162-8.26819,6.69562-13.19,6.09358a25.9729,25.9729,0,0,1,9.82346,9.78A20.88255,20.88255,0,0,1,72.01509,149.97518Z"/>
        <path class="cls-1" d="M51.28136,137.10213a24.13856,24.13856,0,0,1,9.75889,9.58083c-.75276-6.04318.763-11.15587,2.85456-16.347C60.54445,136.393,56.08454,137.59776,51.28136,137.10213Z"/>
        <path class="cls-1" d="M27.70526,159.4692c-1.75228,4.02884-4.648,4.5164-7.8989,3.67815,1.272,1.11762,2.538,2.16209,3.78193,3.34131a20.64136,20.64136,0,0,1,3.43141,4.52316A22.61515,22.61515,0,0,1,27.70526,159.4692Z"/>
        <path class="cls-1" d="M92.27047,135.06654c-.31428-7.20592,2.1812-13.52286,5.57077-20.01292-5.01863,7.46305-10.95969,9.35764-17.23676,8.97961,2.2507,1.57536,4.36305,2.92737,6.393,4.50981A22.2829,22.2829,0,0,1,92.27047,135.06654Z"/>
        <path class="cls-1" d="M112.18127,127.75668c-.0313-8.07234,3.31182-15.22769,7.68146-22.69618-6.42467,8.7574-13.6156,11.01783-20.94687,10.8877C104.23955,118.3213,108.95641,121.73887,112.18127,127.75668Z"/>
        <path class="cls-1" d="M111.16166,128.70661c-5.60667,7.3181-11.90714,8.71128-18.3575,8.25007,4.6994,2.57207,9.03116,5.736,11.975,11.24794a24.55234,24.55234,0,0,1,1.76644-9.72249C107.84358,135.37357,109.43739,132.327,111.16166,128.70661Z"/>
        <path class="cls-1" d="M112.38716,129.72539c5.607,2.552,10.51429,6.19357,13.77439,12.23609.23654-7.95259,4.0066-14.79828,8.86776-21.90125C127.899,128.422,120.15461,130.14822,112.38716,129.72539Z"/>
        <path class="cls-1" d="M129.79655,77.23154c-7.38695,10.78953-15.48087,13.76912-23.58566,14.37133,5.86364,2.21216,11.10266,5.64439,14.57163,12.29522C120.8708,94.70435,124.8303,86.22927,129.79655,77.23154Z"/>
        <path class="cls-1" d="M100.25139,102.59615c1.298-3.78621,2.91222-7.54754,4.58312-11.8205C99.13,99.89478,92.54588,102.30526,85.79507,102.565c5.04038,2.19586,9.62086,5.40506,12.81244,11.39454A32.09094,32.09094,0,0,1,100.25139,102.59615Z"/>
        <path class="cls-1" d="M67.61612,110.76634c-3.57636,7.13987-8.32551,8.89955-13.42189,8.83021a24.20866,24.20866,0,0,1,10.20627,9.88358,27.81838,27.81838,0,0,1,.4925-9.32008C65.62435,117.10848,66.62979,114.12428,67.61612,110.76634Z"/>
        <path class="cls-1" d="M136.05946,118.928c.48065-9.01139,4.74652-17.20447,10.44906-25.74939-8.09063,9.93481-16.63093,12.71229-25.18243,12.98341C127.29415,108.77,132.66,112.35241,136.05946,118.928Z"/>
        <path class="cls-1" d="M36.24,131.14065a11.72034,11.72034,0,0,1-5.50817,1.03657c5.267,3.74717,5.09835,3.78028,8.57654,8.80879-1.02949-5.73416-.08269-10.5413,1.39154-15.345C39.40452,127.996,38.07887,130.16239,36.24,131.14065Z"/>
        <path class="cls-1" d="M20.94226,137.24477a22.39186,22.39186,0,0,1,8.05241,8.30838,30.2876,30.2876,0,0,1,.75243-13.87964C27.72634,136.69824,24.518,137.65426,20.94226,137.24477Z"/>
        <path class="cls-1" d="M68.59191,111.75778A24.28848,24.28848,0,0,1,80.06354,122.224c-.48361-7.316,1.74667-13.81655,4.67734-20.56011C80.163,109.67887,74.51386,111.75366,68.59191,111.75778Z"/>
        <path class="cls-1" d="M64.81657,131.0041c1.91073,1.37638,3.85177,2.63005,5.70518,4.15056a21.15643,21.15643,0,0,1,4.92837,6.20675c-.56729-6.42862,1.27689-12.0264,3.85341-17.75184C75.207,130.1787,70.104,131.47569,64.81657,131.0041Z"/>
        <path class="cls-1" d="M126.63923,144.00217c5.692,2.87482,10.72447,6.59416,13.90419,12.60835.562-7.59862,4.54029-14.10564,9.82939-20.74609C142.70913,143.33819,134.65969,144.64111,126.63923,144.00217Z"/>
        <path class="cls-1" d="M87.14642,155.18093a27.07621,27.07621,0,0,1,11.241,10.8172c-.18909-6.244,2.18746-11.46422,5.522-16.60507-2.591,2.33653-5.06541,4.645-8.12324,5.42862A26.46021,26.46021,0,0,1,87.14642,155.18093Z"/>
        <path class="cls-1" d="M201.83766,128.49972c-9.44691.04629-12.795-.91319-16.90733-.93148a8.37611,8.37611,0,0,0-1.072.13425c5.80335,2.47093,17.1801,14.35172,17.40115,13.94042.27244.49251,11.86926-11.78278,17.54149-14.19788a8.37443,8.37443,0,0,0-1.072-.13424C213.60973,127.32924,211.2849,128.45344,201.83766,128.49972Z"/>
        <path class="cls-1" d="M151.98078,136.58425c10.33639,5.58263,10.50309,5.72363,16.31632,14.14484.99556-8.98389,6.594-16.49553,13.67753-24.31256C171.884,135.52083,161.80128,137.30638,151.98078,136.58425Z"/>
        <path class="cls-1" d="M105.273,149.91851c2.38017,1.68738,4.71,3.18927,6.91058,4.94072a23.53972,23.53972,0,0,1,5.49335,6.83663c.01878-7.04747,3.40308-12.84077,7.58889-18.84013C119.12479,149.732,112.24155,150.83846,105.273,149.91851Z"/>
        <path class="cls-1" d="M36.51537,169.46923c1.40142,1.19635,2.82953,2.34378,4.22535,3.62726a23.90491,23.90491,0,0,1,3.73712,4.8689c-.82128-4.68425.14825-8.37805,1.57339-12.04665C43.70433,170.1034,40.2604,170.49362,36.51537,169.46923Z"/>
        <path class="cls-1" d="M71.84938,159.573a27.38283,27.38283,0,0,1,10.118,10.06889,18.40771,18.40771,0,0,1,.961-8.017c.906-2.48707,2.07083-4.88026,3.264-7.64489C82.16007,159.68712,77.13617,160.429,71.84938,159.573Z"/>
        <path class="cls-1" d="M51.41182,170.418a22.52269,22.52269,0,0,1,3.95521,5.11911,17.50745,17.50745,0,0,1,.19963-6.63089c.52513-2.06112,1.21694-4.054,1.8007-5.96395.142-.09438-10.44444,3.7732-10.36142,3.76216C48.42218,167.8914,49.93627,169.08594,51.41182,170.418Z"/>
        <path class="cls-1" d="M27.49541,172.20487a25.06,25.06,0,0,1,7.30557,7.91355,20.75066,20.75066,0,0,1,.96591-11.09063C33.83639,172.77233,30.8148,173.00474,27.49541,172.20487Z"/>
        <path class="cls-1" d="M58.34875,163.29692a25.99859,25.99859,0,0,1,9.40409,9.50522c-.60353-5.38875.94515-9.74917,3.12536-14.087C67.47776,163.66374,63.07913,164.289,58.34875,163.29692Z"/>
        <path class="cls-1" d="M375.16393,171.94742c-3.31907.79987-6.341.56745-8.27148-3.17708a20.74729,20.74729,0,0,1,.96624,11.09063A25.05914,25.05914,0,0,1,375.16393,171.94742Z"/>
        <path class="cls-1" d="M340.64758,176.90856c-2.11629-.45281-3.70286-2.06029-5.33357-3.73267,1.9753,3.631,3.33324,7.42466,2.83315,12.16426,1.40933-1.70994,2.67832-3.47753,4.11334-4.92787,1.42712-1.44178,3.00874-2.55807,4.53239-3.82508A15.79778,15.79778,0,0,1,340.64758,176.90856Z"/>
        <path class="cls-1" d="M351.24752,170.16056c1.47588-1.33208,2.99-2.52661,4.40621-3.71357.08269.011-10.50341-3.85655-10.36208-3.76217.58409,1.90991,1.2759,3.90284,1.80168,5.964a17.53418,17.53418,0,0,1,.19964,6.6309A22.49769,22.49769,0,0,1,351.24752,170.16056Z"/>
        <path class="cls-1" d="M352.29777,179.30768c-1.831-.363-3.17247-1.78538-4.43092-3.24.55213,1.73333,1.17411,3.45908,1.65311,5.2517a17.47621,17.47621,0,0,1,.28266,5.89362,26.10026,26.10026,0,0,1,3.76084-4.708c1.38956-1.26586,2.80647-2.42844,4.19833-3.625A13.12132,13.12132,0,0,1,352.29777,179.30768Z"/>
        <path class="cls-1" d="M362.41409,181.38955c-1.634-.35875-2.77583-1.72723-3.94137-3.14364a18.09105,18.09105,0,0,1,1.49366,10.55514c1.22616-1.51871,2.34921-3.09176,3.58559-4.38958,1.21957-1.27986,2.54522-2.27607,3.859-3.42762A11.31835,11.31835,0,0,1,362.41409,181.38955Z"/>
        <path class="cls-1" d="M361.919,172.839c1.39582-1.28349,2.8236-2.43091,4.225-3.62726-3.745,1.02438-7.18929.63416-9.53586-3.5505,1.42547,3.6686,2.39467,7.36241,1.57339,12.04666A23.90539,23.90539,0,0,1,361.919,172.839Z"/>
        <path class="cls-1" d="M344.31091,163.03946c-4.73136.9921-9.12933.36683-12.52944-4.5818,2.18021,4.33786,3.72823,8.69827,3.125,14.087A25.99684,25.99684,0,0,1,344.31091,163.03946Z"/>
        <path class="cls-1" d="M285.73485,162.16827c3.76579,4.888,6.42961,9.91059,6.75377,15.94438a30.50847,30.50847,0,0,1,11.31943-10.70552C297.41633,168.49937,291.19591,167.8942,285.73485,162.16827Z"/>
        <path class="cls-1" d="M315.51292,154.92347a26.46,26.46,0,0,1-8.6398-.35925c-3.05782-.78356-5.53222-3.09209-8.12323-5.42861,3.33488,5.14085,5.71143,10.3611,5.522,16.60507A27.07816,27.07816,0,0,1,315.51292,154.92347Z"/>
        <path class="cls-1" d="M290.47577,154.60178c2.20063-1.75145,4.5304-3.25335,6.91091-4.94072-6.96889.92-13.8518-.18646-19.99315-7.06278,4.18614,5.99936,7.57044,11.79266,7.58922,18.84012A23.53326,23.53326,0,0,1,290.47577,154.60178Z"/>
        <path class="cls-1" d="M304.913,166.4511c2.96229,4.40984,5.09868,8.88852,4.94088,14.3822,1.6821-1.97349,3.16523-4.00034,4.89114-5.6579a67.38042,67.38042,0,0,1,5.56517-4.38892C314.715,172.0306,309.37552,171.54633,304.913,166.4511Z"/>
        <path class="cls-1" d="M330.81029,159.31535c-5.28712.85621-10.31135.11432-14.34332-5.59284,1.19354,2.76463,2.3581,5.15782,3.26339,7.6449a18.40253,18.40253,0,0,1,.962,8.01683A27.38057,27.38057,0,0,1,330.81029,159.31535Z"/>
        <path class="cls-1" d="M327.62958,174.22679c-2.41674-.45331-4.30243-2.15435-6.24347-3.918a22.48856,22.48856,0,0,1,3.70615,13.00516,28.16453,28.16453,0,0,1,9.45812-9.3522A21.07841,21.07841,0,0,1,327.62958,174.22679Z"/>
        <path class="cls-1" d="M368.1845,180.45428a18.52891,18.52891,0,0,1,.9804,9.8373,26.35755,26.35755,0,0,1,6.95275-7.43653C372.91191,183.8539,370.033,183.77813,368.1845,180.45428Z"/>
        <path class="cls-1" d="M374.2224,159.9169c-3.58953.7162-6.79758.09241-8.86512-4.25253a23.544,23.544,0,0,1,1.16422,12.438A24.28562,24.28562,0,0,1,374.2224,159.9169Z"/>
        <path class="cls-1" d="M358.22762,145.73632c1.5154-1.3441,3.0855-2.4711,4.75508-3.79115-4.20855.57766-8.02177-.36073-10.72183-5.60552,1.60633,4.63829,2.69545,9.23014,1.87251,14.67309A21.43454,21.43454,0,0,1,358.22762,145.73632Z"/>
        <path class="cls-1" d="M360.09882,160.08656c1.43831-1.30275,2.91155-2.45759,4.49285-3.78061-4.01385.81882-7.59614.0873-10.03628-4.7256.60715,2.30754,1.24494,4.37,1.689,6.51691a19.19689,19.19689,0,0,1,.01911,6.94929A23.06483,23.06483,0,0,1,360.09882,160.08656Z"/>
        <path class="cls-1" d="M351.37831,136.84467c-4.80351.49564-9.26342-.70911-12.61378-6.76612,2.09159,5.19109,3.60732,10.30377,2.85456,16.34695A24.13916,24.13916,0,0,1,351.37831,136.84467Z"/>
        <path class="cls-1" d="M341.11077,147.98308c-4.92178.602-9.55925-.342-13.19-6.09359.99721,2.834,1.976,5.29388,2.72312,7.82823a20.87618,20.87618,0,0,1,.64339,8.04533A25.9729,25.9729,0,0,1,341.11077,147.98308Z"/>
        <path class="cls-1" d="M379.07171,166.23121c1.24362-1.17922,2.50964-2.2237,3.78192-3.34131-3.25153.83825-6.147.35068-7.89922-3.67832a22.61967,22.61967,0,0,1,.68523,11.54278A20.59814,20.59814,0,0,1,379.07171,166.23121Z"/>
        <path class="cls-1" d="M382.1941,150.66469c-3.33455.49712-6.32748-.16439-8.1486-4.804.38412,2.31314.78373,4.27048,1.0252,6.29783a20.396,20.396,0,0,1-.3772,6.49978A23.83093,23.83093,0,0,1,382.1941,150.66469Z"/>
        <path class="cls-1" d="M373.29669,146.60949a11.04537,11.04537,0,0,1-5.34346-.51837c-1.75457-.75391-2.99128-2.65146-4.195-4.70369,1.33323,4.27147,2.23819,8.53306,1.28217,13.70883A23.2545,23.2545,0,0,1,373.29669,146.60949Z"/>
        <path class="cls-1" d="M383.70028,162.70393a1.131,1.131,0,0,0-.13177-.17246,23.241,23.241,0,0,1,.4342,9.7444c.04974-.10938.10805-.21611.14758-.32862.63582-1.8203,1.26965-3.65509,1.919-5.49845.15418-.438.2-.75079-.05436-.89887A6.82681,6.82681,0,0,1,383.70028,162.70393Z"/>
        <path class="cls-1" d="M383.26345,174.2874c-3.07529.81305-5.78094.50371-7.3517-3.18762.33833,1.82458.70631,3.43767.93231,5.12965a16.47446,16.47446,0,0,1-.366,5.54721A24.89084,24.89084,0,0,1,383.26345,174.2874Z"/>
        <path class="cls-1" d="M382.94884,149.95574a25.01706,25.01706,0,0,1,.30868,11.87947,23.44812,23.44812,0,0,1,6.96626-7.58346C387.12708,154.81888,384.4738,154.08209,382.94884,149.95574Z"/>
        <path class="cls-1" d="M332.13759,134.89721c1.85406-1.52051,3.7951-2.77418,5.70517-4.15057-5.28679.47159-10.39041-.8254-14.48662-7.39452,2.57619,5.72543,4.42037,11.32321,3.85308,17.75167A21.1629,21.1629,0,0,1,332.13759,134.89721Z"/>
        <path class="cls-1" d="M390.963,141.28811a.56985.56985,0,0,0-.1097-.13787,27.505,27.505,0,0,1,.09653,10.96858l.10608-.0033q.16455-.47043.32811-.942.927-2.66276,1.86725-5.35812c.14956-.42694.23653-.80085-.002-.98122A8.69465,8.69465,0,0,1,390.963,141.28811Z"/>
        <path class="cls-1" d="M326.83828,142.83975a2.07114,2.07114,0,0,0-.02866-.251c-5.71473.75523-11.22686-.37572-15.77143-6.8638,2.98106,5.57093,5.24956,11.00877,4.84172,17.53869A25.1782,25.1782,0,0,1,326.83828,142.83975Z"/>
        <path class="cls-1" d="M390.61054,140.24627a22.02926,22.02926,0,0,1,7.127-7.56864c-3.08945.23061-5.73746-.91286-7.14218-5.75014A31.552,31.552,0,0,1,390.61054,140.24627Z"/>
        <path class="cls-1" d="M353.775,152.43524c-4.47572.68951-8.66615-.00609-11.695-5.32764,1.88767,4.57307,3.297,9.08157,2.53007,14.58875A24.79683,24.79683,0,0,1,353.775,152.43524Z"/>
        <path class="cls-1" d="M382.1068,135.70285a21.76373,21.76373,0,0,1,7.83432-8.11814c-3.45315.27706-6.46156-.98468-8.226-6.30145A33.23852,33.23852,0,0,1,382.1068,135.70285Z"/>
        <path class="cls-1" d="M381.71708,136.98732c-3.5757.40949-6.78408-.54654-8.80451-5.57126a30.29673,30.29673,0,0,1,.7521,13.87964A22.39677,22.39677,0,0,1,381.71708,136.98732Z"/>
        <path class="cls-1" d="M382.37068,136.34558a28.78636,28.78636,0,0,1,.34195,13.05835,20.674,20.674,0,0,1,3.47589-4.58674c1.25877-1.17015,2.53764-2.1835,3.9048-3.34773C386.82136,141.9394,383.96219,141.06837,382.37068,136.34558Z"/>
        <path class="cls-1" d="M372.5492,130.36993a21.91477,21.91477,0,0,1,8.47606-8.45728c-3.84122.1545-7.29569-1.21694-9.43966-7.18468C372.795,119.76324,373.59318,124.68584,372.5492,130.36993Z"/>
        <path class="cls-1" d="M371.92821,131.91977a11.725,11.725,0,0,1-5.50883-1.03658c-1.83859-.97826-3.16457-3.14463-4.45991-5.4996,1.47456,4.80367,2.42136,9.6108,1.39154,15.345C366.8292,135.70005,366.66053,135.66694,371.92821,131.91977Z"/>
        <path class="cls-1" d="M334.06742,111.50032c-5.92194-.00412-11.57078-2.07891-16.14863-10.09392,2.93034,6.74355,5.16062,13.24415,4.677,20.56011A24.29,24.29,0,0,1,334.06742,111.50032Z"/>
        <path class="cls-1" d="M348.46543,119.33909c-5.0967.06935-9.8452-1.69034-13.42222-8.83021.98634,3.35795,1.99178,6.34214,2.72312,9.39371a27.81813,27.81813,0,0,1,.49251,9.32008A24.2075,24.2075,0,0,1,348.46543,119.33909Z"/>
        <path class="cls-1" d="M361.61455,124.47237a21.861,21.861,0,0,1,9.19028-9.00366,11.9814,11.9814,0,0,1-6.1084-1.62692c-2.01286-1.29007-3.47951-3.88965-4.87072-6.78754C361.53944,112.61332,362.58211,118.1714,361.61455,124.47237Z"/>
        <path class="cls-1" d="M315.66182,128.28559c2.03-1.58245,4.14233-2.93445,6.393-4.50982-6.27707.378-12.21747-1.51656-17.23676-8.9796,3.38924,6.49,5.88538,12.807,5.57077,20.01292A22.29315,22.29315,0,0,1,315.66182,128.28559Z"/>
        <path class="cls-1" d="M349.47054,118.49112c1.85539,5.4161,3.13657,10.7103,2.24742,16.86417a22.88561,22.88561,0,0,1,9.50489-9.33408C356.64072,126.32215,352.45557,124.83013,349.47054,118.49112Z"/>
        <path class="cls-1" d="M310.42642,77.5623c-3.31347-1.22666-6.95835-2.16769-10.61048-4.04383-3.87647-1.99161-7.13888-6.49039-10.47936-11.13412,4.29782,9.01914,7.51839,17.65745,7.35795,26.74857A22.51788,22.51788,0,0,1,310.42642,77.5623Z"/>
        <path class="cls-1" d="M240.7477,58.33129c2.27575-3.63911,4.66745-7.08271,8.12489-8.98537,3.3721-1.85538,6.91585-3.29238,10.36011-4.90152-10.97715-1.96722-22.47546-7.69019-33.95631-24.03879,3.74832,7.17067,7.34313,13.58545,10.33441,19.89844A54.84331,54.84331,0,0,1,240.7477,58.33129Z"/>
        <path class="cls-1" d="M287.67029,62.68611c-9.048-1.4622-18.12624-5.87516-26.72551-18.95395,5.91008,10.9195,10.40194,21.172,10.79694,31.77413C275.44359,68.1956,281.24365,64.79286,287.67029,62.68611Z"/>
        <path class="cls-1" d="M349.03437,117.65633a22.79739,22.79739,0,0,1,9.89692-9.59236c-4.80318-.2199-9.25254-2.19454-12.44214-9.456C348.48849,104.86136,349.94427,110.89251,349.03437,117.65633Z"/>
        <path class="cls-1" d="M334.43442,109.665a20.4939,20.4939,0,0,1,5.10428-6.37574c1.94071-1.49515,3.9595-2.68425,5.96609-4.02225-5.40638-.18185-10.60982-2.35317-14.67177-10.44577C333.35452,95.73894,335.1315,102.37939,334.43442,109.665Z"/>
        <path class="cls-1" d="M317.222,100.28615a24.18642,24.18642,0,0,1,12.15521-10.95689c-6.37-.69609-12.508-3.55445-17.54083-12.99C315.17294,84.377,317.72871,91.97991,317.222,100.28615Z"/>
        <path class="cls-1" d="M281.33358,105.90452c-8.55183-.27113-17.09214-3.04861-25.18243-12.98341,5.70221,8.54491,9.96874,16.73783,10.44873,25.74939C269.99933,112.095,275.36519,108.5125,281.33358,105.90452Z"/>
        <path class="cls-1" d="M200.29063,92.28777c.24246.76182.4757,1.49613.72739,2.28859.07281-.16307.16867-.29863.24346-.45858.11958.24692.26651.46138.37984.716.37687-1.187.732-2.30407,1.08944-3.42778,4.11762-6.46453,10.75049-9.88819,18.41054-12.159-4.70369-1.0392-11.28055,1.84468-19.50723,1.876-8.22635.03129-15.41169-2.65773-20.11538-1.61852C189.41528,81.84563,196.20825,85.42676,200.29063,92.28777Z"/>
        <path class="cls-1" d="M240.19128,61.55269c-11.87222-1.88718-24.19742-7.113-36.88895-22.234,9.043,12.81622,16.30084,24.63688,17.91672,36.80115C225.18283,67.89861,232.19587,64.00089,240.19128,61.55269Z"/>
        <path class="cls-1" d="M237.4059,110.33741c-11.188-.02158-22.77491-2.913-34.75914-14.35205,8.427,9.68081,15.05,18.84853,16.63323,28.98413C223.01645,117.34337,229.72575,113.19033,237.4059,110.33741Z"/>
        <path class="cls-1" d="M220.68471,126.15908c7.08353,7.817,12.68164,15.32867,13.67786,24.31256,5.8129-8.42122,5.97959-8.56222,16.316-14.14484C240.85806,137.04892,230.77534,135.26338,220.68471,126.15908Z"/>
        <path class="cls-1" d="M234.72923,98.02127a99.29521,99.29521,0,0,1,2.85358,9.81819c3.56647-7.36339,9.81061-11.43769,17.1544-13.91555-10.43588-.60814-21.1699-3.93248-31.78862-16.36145q-.05632.21323-.114.42662c2.34426,3.42251,4.819,6.69052,6.82163,10.055A70.69583,70.69583,0,0,1,234.72923,98.02127Z"/>
        <path class="cls-1" d="M297.88017,147.94717c2.94385-5.512,7.27593-8.67587,11.975-11.24794-6.45036.46121-12.7505-.932-18.35684-8.25007,1.72361,3.62033,3.31775,6.667,4.6154,9.77552A24.54633,24.54633,0,0,1,297.88017,147.94717Z"/>
        <path class="cls-1" d="M290.27283,129.46794c-7.7681.42283-15.51216-1.30342-22.64215-9.66517,4.8605,7.103,8.63057,13.94866,8.86744,21.90125C279.75855,135.6615,284.66517,132.01991,290.27283,129.46794Z"/>
        <path class="cls-1" d="M271.47323,78.06205a46.38986,46.38986,0,0,1-14.29259-4.22041c-5.16556-2.60089-9.7579-7.53091-14.54494-12.71936,6.52679,10.26408,11.47426,20.01885,12.24119,30.218C258.66705,83.99174,264.675,80.28426,271.47323,78.06205Z"/>
        <path class="cls-1" d="M316.86427,102.30757c-6.75048-.25976-13.33492-2.67025-19.03944-11.78937,1.67123,4.273,3.28547,8.03429,4.58312,11.8205a32.0909,32.0909,0,0,1,1.64388,11.36341C307.24275,107.71263,311.82389,104.50326,316.86427,102.30757Z"/>
        <path class="cls-1" d="M303.74348,115.69075c-7.33061.13013-14.52221-2.13046-20.94687-10.8877,4.36964,7.46848,7.71276,14.62384,7.68146,22.69618C293.70292,121.48141,298.41979,118.06384,303.74348,115.69075Z"/>
        <path class="cls-1" d="M257.47713,126.14376c2.74783-1.95059,5.69134-3.55709,8.70272-5.40934-9.00811.28183-18.117-1.82656-27.0118-11.05407,6.146,8.07251,10.825,15.7851,11.637,24.43725A23.432,23.432,0,0,1,257.47713,126.14376Z"/>
        <path class="cls-1" d="M296.44845,91.34541c-8.10479-.60221-16.19838-3.58179-23.58533-14.37132,4.96592,8.99772,8.92541,17.4728,9.0137,26.66654C285.34579,96.98981,290.58514,93.55758,296.44845,91.34541Z"/>
        <path class="cls-1" d="M252.28686,135.607c5.28877,6.64045,9.267,13.14747,9.82906,20.74608,3.17972-6.01435,8.21219-9.73352,13.90484-12.60835C267.99965,144.38366,259.95087,143.08057,252.28686,135.607Z"/>
      </g>
    </g>
  </g>
</svg>
