<svg xmlns="http://www.w3.org/2000/svg" viewBox="0 0 225.37 154.45"><defs><style>.cls-1,.cls-2{fill:#fffdfd;}.cls-2{opacity:0;}</style></defs><g id="Layer_2" data-name="Layer 2"><g id="Layer_1-2" data-name="Layer 1"><path class="cls-1" d="M8.33,60a48.63,48.63,0,0,1,8.85-.74c4.93,0,8.11.9,10.33,2.92a8.89,8.89,0,0,1,2.81,6.78,9.39,9.39,0,0,1-6.73,9.12v.15c2.76,1,4.4,3.5,5.25,7.21,1.16,5,2,8.43,2.75,9.81H26.82c-.58-1-1.37-4.09-2.38-8.54-1.06-4.93-3-6.78-7.15-6.94H12.94V95.22H8.33Zm4.61,16.27h4.72c4.92,0,8.05-2.7,8.05-6.78,0-4.61-3.34-6.62-8.21-6.68a19,19,0,0,0-4.56.43Z"/><path class="cls-1" d="M57.3,78.47H43.41V91.35H58.89v3.87H38.8V59.5H58.09v3.87H43.41V74.65H57.3Z"/><path class="cls-1" d="M72.62,84,68.91,95.22H64.14L76.27,59.5h5.57L94,95.22H89.1L85.28,84Zm11.71-3.6L80.83,70.1C80,67.76,79.51,65.65,79,63.58h-.11c-.53,2.12-1.11,4.29-1.8,6.46l-3.5,10.34Z"/><path class="cls-1" d="M126.2,94.05a22.91,22.91,0,0,1-9.44,1.69c-10.06,0-17.64-6.35-17.64-18.07,0-11.18,7.58-18.76,18.65-18.76a19.25,19.25,0,0,1,8.48,1.59l-1.11,3.77a16.77,16.77,0,0,0-7.21-1.49c-8.37,0-13.94,5.36-13.94,14.74,0,8.74,5,14.36,13.73,14.36a18.42,18.42,0,0,0,7.52-1.49Z"/><path class="cls-1" d="M140.72,63.42H129.86V59.5H156.3v3.92H145.38v31.8h-4.66Z"/><path class="cls-1" d="M182.75,59.5h4.61V83.4c0,9.48-4.66,12.4-10.81,12.4a14.86,14.86,0,0,1-4.93-.85l.69-3.76a11,11,0,0,0,3.87.69c4.13,0,6.57-1.86,6.57-8.85Z"/><path class="cls-1" d="M196.37,89.6a16.38,16.38,0,0,0,8.27,2.33c4.71,0,7.47-2.49,7.47-6.09,0-3.34-1.91-5.25-6.73-7.11-5.83-2.06-9.43-5.08-9.43-10.12,0-5.56,4.61-9.7,11.55-9.7a16.23,16.23,0,0,1,7.89,1.75l-1.27,3.77a14.14,14.14,0,0,0-6.78-1.7c-4.88,0-6.73,2.92-6.73,5.35,0,3.34,2.17,5,7.1,6.89,6,2.33,9.12,5.25,9.12,10.49,0,5.52-4.09,10.28-12.51,10.28a18.49,18.49,0,0,1-9.12-2.27Z"/><rect class="cls-2" width="225.37" height="154.45"/></g></g></svg>