<svg xmlns="http://www.w3.org/2000/svg" viewBox="0 0 414.731 129.63743">
  <defs>
    <style>
      .cls-1 {
        fill: #fff;
      }
    </style>
  </defs>
  <g id="Layer_2" data-name="Layer 2">
    <g id="Layer_4" data-name="Layer 4">
      <g>
        <path class="cls-1" d="M31.17013,43.41478l35.575,10.42506V40.38776l-35.575-13.45208Zm2.39034-12.94962L64.68613,41.76442l-.33136,8.88441-30.7943-9.02447Z"/>
        <path class="cls-1" d="M68.20873,54.26083l25.94592,4.44373V45.87515L68.20873,40.557Zm2.39034-10.496,21.72284,3.50831v8.76374L70.59907,53.01933Z"/>
        <path class="cls-1" d="M96.37083,46.21376,95.25645,58.36608l21.6718,2.87588.40544-11.71944Zm18.50635,12.4908L98.29571,56.71734l.31049-8.70162.10271-.00116L115.268,50.85521Z"/>
        <path class="cls-1" d="M414.731,0,321.71958,8.21825l-1.48113.13087-.9025.38983C312.97144,11.46923,266.035,31.33368,237.32062,36.036c-30.71027,5.02928-42.76235,5.28606-42.8814,5.28839l-1.12747.01985-.80826,19.718H151.21935V53.71145l-11.43056-8.048-1.57041-.1208A419.82445,419.82445,0,0,1,85.05315,37.1238C54.49462,30.30643,23.77034,15.71,23.46455,15.56289l-1.71106-.81818V28.01676L5.446,16.2947V37.9l4.2648,2.50356.035,10.64565H4.08972l1.529,27.81338,16.13479-1.36062v2.376H138.34735l12.872,1.23136V72.21091h40.8272l-.39684,9.68c-11.89742-.424-24.01428-.64033-36.01383-.64033-1.201,0-2.4061.00846-3.60914.0127-1.1517-.008-2.29026-.0127-3.40781-.0127-5.4874,0-11.4154.0979-17.48812.30128C63.80329,83.17286,0,91.42744,0,105.44458c0,15.71345,80.18844,24.19285,155.63588,24.19285s155.63588-8.4794,155.63588-24.19285c0-11.24835-41.0901-18.78775-92.11329-22.1658L320.2936,85.63921l.00029.022,1.19751.006,1.19517.02786-.00029-.022,92.04472.45738ZM152.06408,83.65461c48.173.28653,77.607,6.52645,77.607,11.03227,0,4.61261-30.834,11.046-81.05213,11.046-50.21582,0-81.04981-6.43337-81.04981-11.046,0-4.03312,23.57485-9.45821,63.06681-10.75755C137.56127,83.767,144.72412,83.67839,152.06408,83.65461Zm156.81734,21.79c0,10.52893-61.57693,21.80251-153.24554,21.80251S2.39034,115.97351,2.39034,105.44458c0-7.31852,29.76545-14.99215,78.68426-18.99463-9.59958,2.03713-15.89582,4.74027-15.89582,8.23693,0,9.85782,49.90069,13.43632,83.44015,13.43632,33.54179,0,83.44247-3.5785,83.44247-13.43632,0-4.42922-10.08775-7.58726-24.22583-9.72622C269.90125,88.23016,308.88142,97.06934,308.88142,105.44458ZM148.829,54.951v6.11124h-8.69124l.36474-11.97388ZM21.59243,52.78181,15.3458,51.29894V41.76442l6.17893,1.193ZM7.869,76.27379,6.61545,53.43951h5.53l-.049-14.40624L7.8363,36.53205V20.95633l13.6044,9.77961.0674,9.784-8.55264-1.6524V53.18973L21.60964,55.242l.13685,19.86109Zm16.27486,1.02652.007-.00059-.007-1.01688V55.843l.028.00671-.028-1.47471V18.51346C31.06275,21.68,57.8467,33.50328,84.53494,39.45578a421.93161,421.93161,0,0,0,53.60991,8.47941l-.32914,10.795-.33261-6.447-17.7515-2.20811-.16471,10.98705,18.12685,1.674-.44994,14.75142h-113.1ZM135.42537,54.3744v5.65371l-13.84861-1.32355.2372-5.92275ZM148.829,78.47855l-9.19545-.87872.16428-5.38892H148.829Zm-7.16635-8.658v-6.368h50.74279l-.26086,6.368ZM320.26355,83.24873,194.10775,80.304l1.501-36.6301c3.61352-.16807,16.09978-1.02126,42.09939-5.27789,27.86124-4.56344,72.5421-23.18982,81.66023-27.07048l.7248,58.20326Zm92.07711.4797-89.68415-.44585L322.49224,70.131l-.74173-59.5169,90.59015-8.00437Z"/>
        <path class="cls-1" d="M362.02447,15.78115l-32.24391,1.606-.16436,29.722,32.24391-2.7008Zm-2.15588,26.69447L332.33525,44.307l-.16435-24.44315,28.17986-1.35041Z"/>
        <path class="cls-1" d="M406.96473,14.29449l-42.44721,1.48666L364.47317,44.317l40.71514.47542ZM367.04558,41.88076l-.22642-23.66025,36.96556-1.21968-.98675,24.2618Z"/>
        <path class="cls-1" d="M364.52219,79.62587l40.66612,3.03928V60.33508L364.52219,57.8Zm2.39034-19.3795L402.798,62.78144V80.27481l-35.88544-2.53507Z"/>
        <path class="cls-1" d="M329.78056,81.02448l33.00957-1.39861V57.653l-32.87418,2.716Zm2.255-18.27689,28.36427-2.6903V77.15155L332.1709,78.715Z"/>
        <path class="cls-1" d="M310.20731,22.98135,259.01342,37.38408l-.733,17.6912,53.1275-9.43706Zm-49.259,28.11957.45549-11.90541,46.57661-13.10486.845,16.01808Z"/>
        <path class="cls-1" d="M222.98791,58.652l32.54037-3.23887.70207-17.12338-33.24244,7.57486Zm2.39034-10.84874,27.75969-5.8568V53.24926l-27.75969,2.76266Z"/>
        <path class="cls-1" d="M198.47992,50.81807V61.836l22.84829-2.75916.35482-12.38705Zm2.39034,8.25881v-6.256l17.79192-3.16551.11364,7.31885Z"/>
      </g>
    </g>
  </g>
</svg>
