<svg xmlns="http://www.w3.org/2000/svg" viewBox="0 0 375.54474 271.20643">
  <defs>
    <style>
      .cls-1 {
        fill: #fff;
      }
    </style>
  </defs>
  <g id="Layer_2" data-name="Layer 2">
    <g id="Layer_4" data-name="Layer 4">
      <g>
        <path class="cls-1" d="M375.54474,134.75714l-1.28669.36549L198.34456,87.8324l-.331,1.2293-.11944-1.26911-79.40184,7.47484-4.3072-87.83194-2.20726-.33842c-.07714.0846-1.90366,2.08781-5.94242,1.65979-1.3786-.14184-1.88625-1.284-2.67011-3.28973C102.4645,3.15536,101.2352.00249,97.06207.00249h-.14931a4.50425,4.50425,0,0,0-4.789,3.8725c-.39162-.27576-.80346-.62041-1.24547-.99336C89.35782,1.59759,87.46411.00249,84.64221,0c-2.91507,0-4.596,2.041-5.523,3.79987C78.73151,2.129,77.88979.56674,75.83558.39566c-3.40421-.29612-3.85711,2.92891-4.13581,4.84751a6.32805,6.32805,0,0,1-.48027,2.0256,1.58916,1.58916,0,0,1-1.77645-1.2321l-2.51364-.63673-6.09469,99.43341L1.51033,114.3439,0,113.48834v48.43523l12.7656,3.64932L12.09139,187.144l175.16867,82.82424.04821.90471,1.09974-.36207,1.47083.69552-.06174-1.15931,185.72764-61.14157Zm-6.05519,1.72014-9.7174,2.76048L197.75479,97.42041l-.19907.77142V90.38509l.35336-.03313Zm-183.21523,88.0391L79.8594,177.12117V119.12282l.92571-.84172L63.135,108.95143l2.36637-38.606,17.97657,3.67466.0252,14.285L65.25219,84.71188l-.49271,2.49841,18.74815,3.69115.14915,84.7783,1.32137,1.27159,7.78885-.28866.642-1.25915c-.52008-5.15359-.958-19.57914,3.2325-24.357a4.053,4.053,0,0,1,3.04089-1.518,3.82159,3.82159,0,0,1,3.14043,1.34128,7.576,7.576,0,0,1,.95681,1.29648h-.38945v21.92326h.76349l-.1364.23143,3.9218,2.30928,13.85571-2.12762,3.60576-2.92642-.30094-.37078h.04961V152.55782c3.86254,1.31234,5.23119,9.16948,3.94668,22.85565l-.08212.87842.79133.38571c5.24022,2.56062,10.63813,5.395,10.63813,5.395l4.61608-1.58515-.00746-1.20441V162.4166a3.13263,3.13263,0,0,1,2.92891-.63985c6.64167,1.45326,6.32315,17.50378,5.63883,23.56564l-.102.90831,13.66907,6.38037,4.26272-2.96375V172.07148h-.30219a4.02441,4.02441,0,0,1,2.19341-.02737c7.40066,1.77177,7.43052,20.42521,6.81587,27.46255l-.0647.75152,12.84308,6.72679,1.55759-1.73994V182.53946a3.35815,3.35815,0,0,1,2.23214-.13842c8.06757,1.80413,7.54,21.78391,6.65661,29.3289l-.09953.856,8.19136,4.45448Zm-150.12707-90.553-.086-.04868,25.93107-22.68582,14.3932,7.60968-41.883,38.08156-17.51388-7.80036Zm41.164-12.52361v54.54656l-40.267-17.93412ZM68.42154,22.7009l14.96882,1.51283.03484,19.78506-.44077.01166L67.81281,41.7189l-.37825,2.51831,15.289,2.30928.18912-1.25915.03484,1.27409.482-.01276.04386,24.86726L65.6589,67.77439Zm44.96835,20.50563-27.41652.72491L85.939,24.3495h26.52628Zm6.27339,127.92587-10.30079,1.601c.18414-4.71562.26129-18.45436-4.70069-23.62785a6.60258,6.60258,0,0,0-9.93887.26128c-4.92325,5.61473-4.30923,20.1448-3.96955,24.81874l-4.55076.16874-.14635-83.28677,29.60916-1.45917Zm2.93777-.56954-.40048.32505-.78371-15.98177h.84825a4.5411,4.5411,0,0,1,.33594-1.49758Zm-16.66267,1.93259v-14.0386a67.40862,67.40862,0,0,1,.864,14.54733Zm-19.88662-83.977-.025-14.25308,28.462.27622.02488-2.54817-28.49137-.27653-.04433-25.23555,27.5369-.728,2.02591,41.312ZM142.50369,168.178v10.49458l-.51588.17714A46.38719,46.38719,0,0,1,142.50369,168.178Zm26.3975,5.86839v14.56926l-2.03353.3938C166.62939,184.99152,166.73468,177.687,168.90119,174.04638Zm23.04307,12.87727V200.7935C191.412,196.347,191.11436,190.80268,191.94426,186.92365Zm22.19481,29.32579-.00031-.003c-.41759-5.10179-.59909-18.25637,2.792-23.55817v22.73278Zm4.21746-25.13881a3.60125,3.60125,0,0,1,3.14307-.49769c8.99031,2.276,6.26468,18.30863,5.55734,21.804l-7.578,2.24831V191.11063Zm3.77016-2.96624a6.142,6.142,0,0,0-5.69855,1.20939c-5.36262,4.53894-5.2581,18.91223-4.97442,24.77752l-5.44971-2.96375c.48027-4.962,2.20726-28.80881-8.722-31.255a5.544,5.544,0,0,0-5.36759,1.33879c-4.3324,4.22788-3.05582,16.5706-2.15749,22.42842l-7.00251-4.70318c.36581-5.00676,1.36865-26.96984-8.82156-29.411a6.09277,6.09277,0,0,0-5.64381,1.22681c-4.16318,3.62567-4.22539,13.21616-4.0064,17.67049l-8.0377-3.75009c.44792-4.8276,1.55279-23.39643-7.72167-25.42452a5.70929,5.70929,0,0,0-5.16852,1.22432c-4.06613,3.55849-4.14576,13.14152-3.97654,17.24746a52.79624,52.79624,0,0,1-7.66443-2.99112c1.36367-15.65485-.79631-23.79209-6.59689-24.86461a4.23738,4.23738,0,0,0-3.64309.7963c-.09457.07855-.16611.17077-.25072.25538l-1.64315-33.5084,151.87287,48.771v33.02674l-41.64394,12.355C230.80486,205.94491,232.46077,190.75929,222.12669,188.14439Zm50.62056-24.18464-75.19153-24.14638V100.002l157.36006,40.61527ZM195.00754,90.62507v6.91307L118.8858,102.574l.16921,2.5432,75.95253-5.02465V138.995l-75.56091-24.2649-.82943-16.9137Zm-98.05-88.07441c2.40633-.06718,3.06577,1.3587,4.03378,3.84217.79879,2.04551,1.78919,4.58871,4.78031,4.89728a10.57113,10.57113,0,0,0,6.00557-.97159l.563,11.48281H85.93449L85.91878,12.828a26.54759,26.54759,0,0,0,5.72593-.73658c2.46606-.60718,2.593-3.20264,2.695-5.28547C94.489,3.74761,94.75279,2.588,96.95756,2.55066ZM84.64221,2.54817c1.88873,0,3.20263,1.10737,4.59368,2.28192a11.42552,11.42552,0,0,0,2.562,1.78406l-.00389.06734c-.08212,1.67971-.2026,2.72046-.75649,2.93638-4.594,1.79086-6.27023-1.11924-6.27023-1.11924-.01244.01991-2.70064,2.07231-4.679,1.6667-.37078-.29364-.50764-2.20228-.5823-3.22753l-.0241-.34822S81.65109,2.54817,84.64221,2.54817ZM71.60272,9.78708c2.05795-.311,2.38145-2.54566,2.61785-4.17811.36829-2.52827.64949-2.72983,1.401-2.67509.754.06222,1.10985,1.075,1.30892,3.72771l.03484.46036c.17171,2.38891.3658,5.09635,2.61537,5.53434a5.18666,5.18666,0,0,0,1.0327.102,5.66139,5.66139,0,0,0,2.7555-.75431l.017,9.65037L68.57754,20.15786l.65679-10.71667A3.851,3.851,0,0,0,71.60272,9.78708ZM60.67484,107.442l-.10079,1.64331L33.7137,132.58488,5.06447,116.35706ZM2.54817,160.00249V117.85806l29.05019,16.45365-17.2403,13.63641-1.02742-.45757-.48307,15.45655ZM14.68933,185.5564l1.07-34.19382L184.9542,226.71789l.70252,13.17168,1.449,27.18556Zm358.30723,21.50769-183.31928,60.345-1.45746-27.33424-.70718-13.26749L274.001,201.14655V166.25348l98.9956-28.122Z"/>
        <rect class="cls-1" x="204.23113" y="105.01337" width="2.5479" height="9.76579" transform="translate(-17.51735 177.5019) rotate(-45)"/>
        <rect class="cls-1" x="326.91305" y="134.98065" width="2.5479" height="9.99454" transform="translate(-2.85558 273.06184) rotate(-45)"/>
        <rect class="cls-1" x="126.70465" y="109.70143" width="2.5479" height="7.52406" transform="translate(-42.74672 123.72721) rotate(-45)"/>
        <rect class="cls-1" x="204.39661" y="132.55918" width="2.5479" height="10.23384" transform="translate(-37.11219 185.75544) rotate(-45)"/>
        <rect class="cls-1" x="215.20147" y="134.7714" width="2.5479" height="11.42333" transform="translate(-35.93235 194.21777) rotate(-45)"/>
        <path class="cls-1" d="M99.16559,48.53881C92.30415,48.28,93.80593,62.728,93.80593,62.728h10.71948S106.02719,48.79777,99.16559,48.53881Z"/>
        <path class="cls-1" d="M69.31163,60.5529l7.19816,1.60537s2.641-14.81049-2.48565-15.43183S69.31163,60.294,69.31163,60.294Z"/>
        <path class="cls-1" d="M287.80689,194.801l-6.40776,1.93353v19.56918l6.40776-1.69463Zm-2.54817,17.84718-1.31141.34589V198.62575l1.31141-.39566Z"/>
        <path class="cls-1" d="M296.25519,190.86925l-6.40776,1.93352V212.372l6.40776-1.69464ZM293.707,208.71642l-1.31141.3459V194.694l1.31141-.39567Z"/>
        <path class="cls-1" d="M314.172,185.39714l-6.40776,1.93353v19.56918l6.40776-1.69463Zm-2.54817,17.84718-1.31141.34589V189.22189l1.31141-.39566Z"/>
        <path class="cls-1" d="M325.45966,181.39073l-6.40776,1.93353v19.56919l6.40776-1.69215Zm-2.54817,17.84967-1.31142.34341V185.21548l1.31142-.39566Z"/>
        <path class="cls-1" d="M343.2297,176.32922l-6.40777,1.93353v19.56919l6.40777-1.69215Zm-2.54818,17.84967-1.31141.3434V180.154l1.31141-.39566Z"/>
        <path class="cls-1" d="M352.18813,173.27091l-6.40777,1.93353v19.56919l6.40777-1.69464ZM349.64,191.11809l-1.31141.3459V177.09566L349.64,176.7Z"/>
      </g>
    </g>
  </g>
</svg>
