<svg xmlns="http://www.w3.org/2000/svg" viewBox="0 0 225.37 154.45"><defs><style>.cls-1,.cls-2{fill:#fffdfd;}.cls-2{opacity:0;}</style></defs><g id="Layer_2" data-name="Layer 2"><g id="Layer_1-2" data-name="Layer 1"><path class="cls-1" d="M15.79,90.87l-3.5,10.61H7.79L19.24,67.77h5.25L36,101.48H31.34l-3.6-10.61Zm11.05-3.4-3.3-9.7c-.75-2.2-1.25-4.2-1.75-6.15h-.1c-.5,2-1.05,4-1.7,6.1l-3.3,9.75Z"/><path class="cls-1" d="M42.79,101.48V67.77h4.75l10.8,17a95.47,95.47,0,0,1,6,11l.1-.06c-.4-4.5-.5-8.6-.5-13.85V67.77h4.1v33.71h-4.4L53,84.37a107,107,0,0,1-6.3-11.25l-.15,0c.25,4.25.35,8.3.35,13.9v14.41Z"/><path class="cls-1" d="M77.54,68.22a62.31,62.31,0,0,1,9.25-.7c6.25,0,10.7,1.45,13.65,4.2s4.75,6.65,4.75,12.1-1.7,10-4.85,13.1-8.35,4.86-14.9,4.86a70,70,0,0,1-7.9-.41ZM81.89,98a27.47,27.47,0,0,0,4.4.25c9.3,0,14.35-5.2,14.35-14.31,0-8-4.45-13-13.65-13a24.72,24.72,0,0,0-5.1.45Z"/><path class="cls-1" d="M112.68,68.22a45.42,45.42,0,0,1,8.36-.7c4.65,0,7.65.85,9.75,2.75a8.39,8.39,0,0,1,2.65,6.4,8.85,8.85,0,0,1-6.35,8.6v.15c2.6.9,4.15,3.3,4.95,6.8,1.1,4.7,1.9,8,2.6,9.26h-4.5c-.55-1-1.3-3.86-2.25-8.06-1-4.65-2.8-6.4-6.75-6.55H117v14.61h-4.36ZM117,83.57h4.45c4.65,0,7.6-2.55,7.6-6.4,0-4.35-3.15-6.25-7.75-6.3a17.9,17.9,0,0,0-4.3.4Z"/><path class="cls-1" d="M170.24,84.27c0,11.6-7.05,17.76-15.65,17.76-8.9,0-15.16-6.91-15.16-17.11,0-10.7,6.65-17.7,15.66-17.7C164.29,67.22,170.24,74.27,170.24,84.27Zm-26.16.55c0,7.2,3.91,13.66,10.76,13.66s10.8-6.36,10.8-14c0-6.7-3.5-13.7-10.75-13.7S144.08,77.42,144.08,84.82Z"/><path class="cls-1" d="M182.08,67.77v33.71h-4.35V67.77Z"/><path class="cls-1" d="M191.53,68.22a62.34,62.34,0,0,1,9.26-.7c6.25,0,10.7,1.45,13.65,4.2s4.75,6.65,4.75,12.1-1.7,10-4.85,13.1-8.35,4.86-14.9,4.86a70,70,0,0,1-7.91-.41ZM195.88,98a27.6,27.6,0,0,0,4.41.25c9.3,0,14.35-5.2,14.35-14.31.05-8-4.45-13-13.65-13a24.9,24.9,0,0,0-5.11.45Z"/><rect class="cls-2" width="225.37" height="154.45"/></g></g></svg>