<svg xmlns="http://www.w3.org/2000/svg" viewBox="0 0 225.37 154.45"><defs><style>.cls-1,.cls-2{fill:#fffdfd;}.cls-2{opacity:0;}</style></defs><g id="Layer_2" data-name="Layer 2"><g id="Layer_1-2" data-name="Layer 1"><path class="cls-1" d="M39.46,45.31h7V81.84c0,14.5-7.12,19-16.52,19a22.78,22.78,0,0,1-7.53-1.29l1.05-5.75a17,17,0,0,0,5.91,1c6.32,0,10.05-2.84,10.05-13.53Z"/><path class="cls-1" d="M70.08,82.73,64.41,99.9H57.12L75.66,45.31h8.51L102.8,99.9H95.26L89.43,82.73ZM88,77.22,82.63,61.51c-1.21-3.56-2-6.8-2.83-10h-.17c-.81,3.24-1.7,6.56-2.75,9.88L71.53,77.22Z"/><path class="cls-1" d="M125.8,99.9,108,45.31h7.61l8.5,26.89c2.35,7.37,4.38,14,5.83,20.41h.17c1.54-6.31,3.8-13.2,6.23-20.33l9.24-27h7.53L133.58,99.9Z"/><path class="cls-1" d="M170.84,82.73,165.17,99.9h-7.29l18.55-54.59h8.5L203.56,99.9H196L190.2,82.73Zm17.9-5.51-5.35-15.71c-1.21-3.56-2-6.8-2.83-10h-.16c-.81,3.24-1.7,6.56-2.76,9.88L172.3,77.22Z"/><rect class="cls-2" width="225.37" height="154.45"/></g></g></svg>