<svg xmlns="http://www.w3.org/2000/svg" viewBox="0 0 393.4098 124.25185">
  <defs>
    <style>
      .cls-1 {
        opacity: 0.5;
      }

      .cls-2 {
        fill: #fff;
      }
    </style>
  </defs>
  <g id="Layer_2" data-name="Layer 2">
    <g id="Layer_4" data-name="Layer 4">
      <g>
        <g>
          <g class="cls-1">
            <path class="cls-2" d="M185.51883,25.57446c-.232.27848-.41757.557-.64958.83543l-.69634.04646C184.63723,26.13142,185.0548,25.85294,185.51883,25.57446Z"/>
            <path class="cls-2" d="M328.29005,25.43537h-.557c-.18555-.2323-.41757-.46432-.60341-.74279C327.54754,24.97105,327.91893,25.20307,328.29005,25.43537Z"/>
            <path class="cls-2" d="M299.8379,12.67137l-5.10548.09263c-.557-1.06744-1.16037-2.13489-1.76378-3.20261,1.71732.51077,3.48109,1.02126,5.15195,1.62468C298.724,11.6501,299.281,12.16059,299.8379,12.67137Z"/>
            <path class="cls-2" d="M321.83864,25.48183l-4.8273.04617a103.53123,103.53123,0,0,0-6.40523-8.44748l2.36719-.04617c.789.37111,1.57822.696,2.36719,1.06744C317.61476,20.51544,319.79639,22.97526,321.83864,25.48183Z"/>
            <path class="cls-2" d="M323.27748,47.06443l-12.94984-.09292c-1.94933-5.43043-4.2236-11.04641-6.77635-16.70913l10.86085-.09292A114.78373,114.78373,0,0,1,323.27748,47.06443Z"/>
            <path class="cls-2" d="M349.78,47.29644,341.4719,47.25a149.261,149.261,0,0,0-10.35035-17.17316l3.94512-.04646c2.83122,2.04226,5.52335,4.27006,8.21547,6.49787C345.649,40.10224,347.78422,43.72271,349.78,47.29644Z"/>
            <path class="cls-2" d="M345.9278,68.7864l-10.25771-.13909a172.47842,172.47842,0,0,0-5.38425-16.84851l8.35484.04646C341.4719,57.55416,343.83909,63.26306,345.9278,68.7864Z"/>
            <path class="cls-2" d="M370.75948,69.1578l-5.7089-.09292c-2.08871-5.52334-4.59528-11.2787-7.473-17.08052l.97481.04646A136.1858,136.1858,0,0,1,370.75948,69.1578Z"/>
            <path class="cls-2" d="M388.21139,119.42484H376.83977a182.61287,182.61287,0,0,0-4.363-26.03878h9.51493A134.02555,134.02555,0,0,1,388.21139,119.42484Z"/>
            <path class="cls-2" d="M366.53559,88.7446h-9.70048c-1.20682-4.78055-2.64566-9.886-4.363-15.22382l9.32937.13909C363.70437,78.9512,365.23613,84.01051,366.53559,88.7446Z"/>
            <path class="cls-2" d="M335.20577,88.7446H321.46724c-.83542-4.87347-1.90315-10.11833-3.24907-15.68785l13.69235.18555C333.25644,78.62627,334.32417,83.82467,335.20577,88.7446Z"/>
            <path class="cls-2" d="M357.39206,119.42484H343.23568a231.79544,231.79544,0,0,0-2.46011-26.03878h12.39289A183.47573,183.47573,0,0,1,357.39206,119.42484Z"/>
            <path class="cls-2" d="M146.99481,70.50372c-1.90287,5.47688-3.66665,11.511-5.3375,18.24088h-7.89053a132.51753,132.51753,0,0,1,8.77242-18.28734Z"/>
            <path class="cls-2" d="M169.73806,50.4526c-2.64567,5.29132-4.91994,10.53619-6.91573,15.642l-9.23645-.13938a134.62919,134.62919,0,0,1,7.1942-15.54876Z"/>
            <path class="cls-2" d="M193.68784,31.00489c-2.83122,4.96639-5.291,9.97924-7.51913,14.94563l-8.6795-.04646a141.93829,141.93829,0,0,1,9.6543-14.85271Z"/>
            <path class="cls-2" d="M220.65469,30.81933c-1.76378,4.91993-3.34172,10.07188-4.7341,15.36321L205.013,46.08962a158.17685,158.17685,0,0,1,6.96219-15.22383Z"/>
            <path class="cls-2" d="M213.414,19.0766c-1.4853,2.3669-2.83122,4.78055-4.17714,7.1942l-7.28712.04646c1.53176-2.41365,3.15615-4.78084,4.827-7.10157Z"/>
            <path class="cls-2" d="M232.86174,6.82309a57.08369,57.08369,0,0,0-4.78056,7.33358l-5.84827.09263c1.53175-2.08871,3.06323-4.131,4.68791-6.17293C228.87015,7.61205,230.86594,7.19448,232.86174,6.82309Z"/>
            <path class="cls-2" d="M239.91684,18.51964c-.60341,2.45983-1.16037,4.96611-1.71732,7.51914l-10.76821.09264c1.06745-2.59921,2.22781-5.059,3.43463-7.42622Z"/>
            <path class="cls-2" d="M255.28,13.55325l-9.32937.232a88.799,88.799,0,0,1,3.1097-8.86534c1.90316-.1391,3.85249-.18555,5.75564-.232C255.00157,7.51914,255.18712,10.48973,255.28,13.55325Z"/>
            <path class="cls-2" d="M280.576,13.04248l-5.75536.13938c-.557-2.69213-1.16036-5.19841-1.81023-7.5656,1.43884.18556,2.83122.3714,4.27006.60341C278.44086,8.44748,279.55477,10.72175,280.576,13.04248Z"/>
            <path class="cls-2" d="M296.26417,25.66738l-5.75535.04646c-.92835-2.785-1.94962-5.47688-2.9706-8.169l4.50207-.09292C293.52559,20.1905,294.918,22.9288,296.26417,25.66738Z"/>
            <path class="cls-2" d="M272.36057,25.80648l-12.06767.09292c-.04646-2.64566-.09292-5.24487-.18584-7.79761l10.954-.232C271.52514,20.42252,271.943,23.06818,272.36057,25.80648Z"/>
            <path class="cls-2" d="M255.6979,30.58732c.04618,5.24486.04618,10.58237,0,15.92015l-16.05954-.09292c.69633-5.43042,1.4853-10.72175,2.41365-15.73431Z"/>
            <path class="cls-2" d="M291.57626,46.83241l-11.975-.09292c-.557-5.5698-1.16037-11.04669-1.85642-16.29155l9.32909-.09264C288.79122,35.78572,290.27652,41.30907,291.57626,46.83241Z"/>
            <path class="cls-2" d="M276.538,67.76542l-16.57-.232c.1391-5.33778.27848-10.81467.32494-16.338l15.03827.13909C275.7952,56.81165,276.21305,62.33471,276.538,67.76542Z"/>
            <path class="cls-2" d="M312.23079,68.32237l-11.743-.18584c-.83542-5.43042-1.85641-11.00023-3.01677-16.61621l9.60756.09264Q310.07268,60.24642,312.23079,68.32237Z"/>
            <path class="cls-2" d="M320.121,119.42484H304.85075c-.09292-4.22388-.32493-13.73881-1.34592-26.03878H317.5683A200.00911,200.00911,0,0,1,320.121,119.42484Z"/>
            <path class="cls-2" d="M298.30643,88.7446H282.33981c-.232-5.15194-.46432-10.58237-.78925-16.24509l14.80625.2323C297.19252,78.34779,297.84211,83.732,298.30643,88.7446Z"/>
            <path class="cls-2" d="M278.44086,119.42484H257.74015c.27848-4.73438.789-14.15667,1.29946-26.03878h18.79784C278.25531,105.222,278.3944,114.69046,278.44086,119.42484Z"/>
            <path class="cls-2" d="M255.18712,72.1284c-.18555,5.80182-.37111,11.37162-.60341,16.6162H235.8788c.32493-5.3375.696-11.0464,1.16036-16.89468Z"/>
            <path class="cls-2" d="M234.347,51.00983c-.64988,5.384-1.20683,10.76793-1.67086,16.10572l-16.52357-.232c.97481-5.33779,2.13517-10.72175,3.43463-16.01308Z"/>
            <path class="cls-2" d="M198.3293,50.6849c-1.90288,5.384-3.52755,10.72175-4.87347,15.87369l-10.11834-.13938c1.67085-5.15194,3.574-10.44327,5.84828-15.78077Z"/>
            <path class="cls-2" d="M210.53635,71.43207c-1.021,6.03383-1.85642,11.83565-2.55275,17.31253H193.64138c.83571-5.43042,1.90316-11.32516,3.38846-17.49809Z"/>
            <path class="cls-2" d="M177.11781,70.968c-1.80995,6.26586-3.20261,12.25323-4.31652,17.77657h-12.207A182.63019,182.63019,0,0,1,166.025,70.78219Z"/>
            <path class="cls-2" d="M186.77212,119.42484h-13.228a198.81788,198.81788,0,0,1,3.06324-26.03878h11.743A182.601,182.601,0,0,0,186.77212,119.42484Z"/>
            <path class="cls-2" d="M154.79242,93.38606a170.58856,170.58856,0,0,0-3.48109,26.03878H140.729c.04646-.18584.04646-.27848.09292-.46432a259.395,259.395,0,0,1,4.54854-25.57446Z"/>
          </g>
          <path class="cls-2" d="M393.13133,121.46709A136.8021,136.8021,0,0,0,289.58047,3.899a.81105.81105,0,0,0-.18584-.232l-.232.1391A137.06715,137.06715,0,0,0,120.90986,121.46709l-.27848,2.5992H230.12344v.18556h4.64145v-.18556H393.4098ZM249.06037,4.91993c1.90316-.1391,3.85249-.18555,5.75564-.232.18556,2.83122.37111,5.80181.464,8.86533l-9.32937.232A88.799,88.799,0,0,1,249.06037,4.91993Zm6.40523,13.27478c.09292,2.55274.13938,5.10549.18584,7.75115l-12.67137.09292c.51078-2.64566,1.11419-5.15223,1.71732-7.612ZM239.91684,5.75564c1.34592-.18584,2.64566-.32493,3.99158-.46431-.97452,2.64566-1.90287,5.52334-2.78476,8.58686l-7.61205.1391A43.79187,43.79187,0,0,1,239.91684,5.75564Zm0,12.764c-.60341,2.45983-1.16037,4.96611-1.71732,7.51914l-10.76821.09264c1.06745-2.59921,2.22781-5.059,3.43463-7.42622Zm-12.996-10.44327c1.94933-.46432,3.94512-.88189,5.94092-1.25328a57.08369,57.08369,0,0,0-4.78056,7.33358l-5.84827.09263C223.76466,12.16059,225.29614,10.11834,226.92082,8.07637Zm-37.735,42.56207,9.14353.04646c-1.90288,5.384-3.52755,10.72175-4.87347,15.87369l-10.11834-.13938C185.00834,61.26727,186.9115,55.97594,189.18577,50.63844Zm-10.6753,15.68814-10.76821-.13938a161.02991,161.02991,0,0,1,7.1942-15.68814l9.23645.09292C181.99157,55.92976,180.08841,61.22081,178.51047,66.32658ZM191.228,45.997a150.1932,150.1932,0,0,1,7.84407-15.03827l7.70469-.04646c-2.55274,5.059-4.78055,10.11834-6.73017,15.17737Zm11.975,4.73409,11.55718.09292c-1.29974,5.33779-2.41365,10.67529-3.38846,16.01308l-13.13511-.18556C199.58258,61.45311,201.25344,56.11532,203.20305,50.73107Zm1.81-4.64145a158.17685,158.17685,0,0,1,6.96219-15.22383l8.6795-.04646c-1.76378,4.91993-3.34172,10.07188-4.7341,15.36321Zm9.56139-19.86528q2.089-3.69017,4.4559-7.24066l6.59079-.13938c-1.16037,2.32073-2.22781,4.78083-3.20262,7.33358Zm5.01285-16.19864c-1.06744,1.43884-2.08871,2.87768-3.10969,4.363l-6.0803.09264a.83366.83366,0,0,0,.232-.32465l-.97481-.78926C212.90353,12.11441,216.19907,11.00023,219.58724,10.0257Zm-12.81046,9.19,6.63725-.13909c-1.4853,2.3669-2.83122,4.78055-4.17714,7.1942l-7.28712.04646C203.48153,23.90361,205.10592,21.53642,206.77678,19.21569Zm-9.93278.18556,4.17742-.04618c-1.6244,2.27427-3.15616,4.64146-4.595,7.00836l-5.61626.04646C192.71332,24.0427,194.75557,21.722,196.844,19.40125Zm-3.15616,11.60364c-2.83122,4.96639-5.291,9.97924-7.51913,14.94563l-8.6795-.04646a141.93829,141.93829,0,0,1,9.6543-14.85271ZM168.2063,38.80278q4.4559-4.03818,9.32937-7.65851l3.89894-.04646a140.83242,140.83242,0,0,0-9.23673,14.75979l-8.726-.09263A81.70208,81.70208,0,0,1,168.2063,38.80278Zm1.53176,11.64982c-2.64567,5.29132-4.91994,10.53619-6.91573,15.642l-9.23645-.13938a134.62919,134.62919,0,0,1,7.1942-15.54876Zm-16.106,3.806c-1.67086,3.4811-3.34171,7.38-4.96611,11.6501l-3.29553-.04646A128.08063,128.08063,0,0,1,153.63206,54.25862ZM142.5392,70.45726l4.45561.04646c-1.90287,5.47688-3.66665,11.511-5.3375,18.24088h-7.89053A132.51753,132.51753,0,0,1,142.5392,70.45726Zm-6.35878,47.89985c-.04646.41786-.09292.74279-.13937,1.06773H125.82979a134.02555,134.02555,0,0,1,6.21967-26.03878h8.54012C138.91872,100.90548,137.43343,109.16712,136.18042,118.35711Zm15.13091,1.06773H140.729c.04646-.18584.04646-.27848.09292-.46432a259.395,259.395,0,0,1,4.54854-25.57446h9.422A170.58856,170.58856,0,0,0,151.31133,119.42484ZM146.43786,88.7446c1.67086-6.72988,3.52755-12.764,5.43042-18.148l9.28291.13938a180.5966,180.5966,0,0,0-5.291,18.00858Zm22.46477,30.68024H155.95279a161.80736,161.80736,0,0,1,3.574-26.03878h12.3926A206.50241,206.50241,0,0,0,168.90263,119.42484ZM160.59424,88.7446A182.63019,182.63019,0,0,1,166.025,70.78219l11.09286.18584c-1.80995,6.26586-3.20261,12.25323-4.31652,17.77657Zm26.17788,30.68024h-13.228a198.81788,198.81788,0,0,1,3.06324-26.03878h11.743A182.601,182.601,0,0,0,186.77212,119.42484ZM177.48921,88.7446c1.16036-5.52334,2.5992-11.51071,4.40944-17.73011l10.44327.18556c-1.4853,6.17321-2.55274,12.06767-3.342,17.54455Zm27.66317,30.68024H191.41357a184.49841,184.49841,0,0,1,1.57822-26.03878h14.43486C206.03427,105.454,205.3844,115.0154,205.15238,119.42484Zm-11.511-30.68024c.83571-5.43042,1.90316-11.32516,3.38846-17.49809l13.50651.18556c-1.021,6.03383-1.85642,11.83565-2.55275,17.31253Zm36.52852,30.68024H209.79384c.27394-4.38423,4.6746-42.96236,5.52334-47.89985l16.9876.232C231.87446,77.2251,230.258,114.29612,230.1699,119.42484Zm2.50628-52.30929-16.52357-.232c.97481-5.33779,2.13517-10.72175,3.43463-16.01308l14.7598.13938C233.69716,56.3938,233.14021,61.77776,232.67618,67.11555ZM220.74761,46.229c1.43884-5.33779,3.06323-10.5362,4.87347-15.45613l11.69655-.04646c-.88188,5.01285-1.71731,10.30418-2.41364,15.642Zm32.30463,73.19584H234.81135c.09264-5.33779.32465-14.71362.83543-26.03878h18.75138C253.88766,105.36109,253.33071,114.82984,253.05224,119.42484Zm1.53147-30.68024H235.8788c.32493-5.3375.696-11.0464,1.16036-16.89468l18.148.27848C255.00157,77.93022,254.816,83.5,254.58371,88.7446Zm.74279-21.25766-17.916-.27847c.464-5.33779.97453-10.81467,1.6244-16.19864l16.61649.1391C255.605,56.67227,255.4656,62.14916,255.3265,67.48694Zm.3714-20.97947-16.05954-.09292c.69633-5.43042,1.4853-10.72175,2.41365-15.73431l13.64589-.09292C255.74408,35.83218,255.74408,41.16969,255.6979,46.50747ZM380.2744,88.7446h-8.958c-1.25329-4.73409-2.73858-9.74694-4.54854-14.99181l6.63725.09292A127.67126,127.67126,0,0,1,380.2744,88.7446Zm-21.722-36.71378a136.1858,136.1858,0,0,1,12.207,17.127l-5.7089-.09292c-2.08871-5.52334-4.59528-11.2787-7.473-17.08052Zm7.98316,36.71378h-9.70048c-1.20682-4.78055-2.64566-9.886-4.363-15.22382l9.32937.13909C363.70437,78.9512,365.23613,84.01051,366.53559,88.7446ZM352.37921,51.98436a180.77089,180.77089,0,0,1,7.65852,17.03406l-9.19-.1391a178.52655,178.52655,0,0,0-7.0551-16.98788Zm-48.82792-21.722,10.86085-.09292a114.78373,114.78373,0,0,1,8.86534,16.895l-12.94984-.09292C308.37831,41.54108,306.104,35.9251,303.55129,30.26238Zm1.85642,16.663-9.00444-.04646c-1.253-5.5698-2.69184-11.09315-4.40944-16.57h6.45169C301.09119,35.9251,303.36545,41.49462,305.40771,46.92533Zm19.77264,4.827a165.9205,165.9205,0,0,1,5.52334,16.84851l-13.69235-.232C315.619,63.031,313.94811,57.41478,311.99849,51.613Zm5.10549.04646,8.35484.04646c2.83122,5.7089,5.19841,11.4178,7.28712,16.94114l-10.25771-.13909A172.47842,172.47842,0,0,0,330.28584,51.7988Zm4.78083-21.76844c2.83122,2.04226,5.52335,4.27006,8.21547,6.49787,2.3669,3.574,4.50208,7.19448,6.49787,10.76821L341.4719,47.25a149.261,149.261,0,0,0-10.35035-17.17316ZM336.227,47.2038l-7.79761-.09291a126.10243,126.10243,0,0,0-8.494-16.98761h5.52335A136.342,136.342,0,0,1,336.227,47.2038ZM312.9733,17.03435c.789.37111,1.57822.696,2.36719,1.06744,2.27427,2.41365,4.4559,4.87347,6.49815,7.38l-4.8273.04617a103.53123,103.53123,0,0,0-6.40523-8.44748Zm-1.67086,8.54011-9.88632.04646c-1.29974-2.73858-2.69212-5.52334-4.17742-8.26164l7.24066-.13938A74.31422,74.31422,0,0,1,311.30244,25.57446ZM298.12059,11.18607c.60341.464,1.16036.97452,1.71731,1.4853l-5.10548.09263c-.557-1.06744-1.16037-2.13489-1.76378-3.20261C294.686,10.07216,296.44973,10.58265,298.12059,11.18607Zm-6.0803,6.26585c1.4853,2.73858,2.87768,5.47688,4.22388,8.21546l-5.75535.04646c-.92835-2.785-1.94962-5.47688-2.9706-8.169Zm-5.43042-9.46847c.97481,1.6244,1.94933,3.24908,2.87768,4.87347l-3.85249.09292q-1.25315-2.92441-2.64566-5.70918C284.19622,7.473,285.403,7.705,286.60987,7.98345Zm-1.06745,17.73039-8.44748.09264c-.41785-2.78476-.88189-5.43042-1.3462-8.02963l6.82308-.13909C283.63927,20.28314,284.61408,22.97526,285.54242,25.71384ZM275.33117,51.33448c.464,5.47717.88188,11.00023,1.20682,16.43094l-16.57-.232c.1391-5.33778.27848-10.81467.32494-16.338Zm-14.99181-4.78055c.04617-5.38424.04617-10.76821,0-16.01307l12.71754-.09292c.69605,5.1984,1.29946,10.67557,1.85641,16.24509ZM277.2805,6.21967c1.16036,2.22781,2.27427,4.50208,3.29553,6.82281l-5.75536.13938c-.557-2.69213-1.16036-5.19841-1.81023-7.5656C274.44928,5.80182,275.84166,5.98766,277.2805,6.21967Zm-4.91993,19.58681-12.06767.09292c-.04646-2.64566-.09292-5.24487-.18584-7.79761l10.954-.232C271.52514,20.42252,271.943,23.06818,272.36057,25.80648ZM268.04405,5.10577c.7425,2.50628,1.43884,5.19841,2.08871,8.169l-10.21126.18555c-.09292-3.01706-.27848-5.94119-.41786-8.77241C262.33515,4.73438,265.21283,4.87375,268.04405,5.10577Zm-8.21547,67.06909,16.98789.232c.32493,5.66244.60341,11.18579.83542,16.33773H259.27163C259.45747,83.5462,259.643,77.97668,259.82858,72.17486Zm-2.08843,47.25c.27848-4.73438.789-14.15667,1.29946-26.03878h18.79784c.41786,11.83594.557,21.3044.60341,26.03878Zm20.00466-88.9769,9.32909-.09264c1.71732,5.43042,3.20262,10.95377,4.50236,16.47711l-11.975-.09292C279.04427,41.16969,278.44086,35.6928,277.74481,30.44794Zm2.27427,20.933,12.57816.09292c1.20683,5.61627,2.22809,11.18579,3.06352,16.57l-14.38868-.18584C280.901,62.42763,280.48311,56.85783,280.01908,51.38094Zm1.53148,21.11857,14.80625.2323c.83571,5.616,1.4853,11.00023,1.94962,16.01279H282.33981C282.10779,83.59266,281.87549,78.16223,281.55056,72.49951Zm1.53176,46.92533c-.04646-4.78084-.18556-14.2493-.60342-26.03878h16.29156c1.06744,12.34643,1.34592,21.90782,1.39238,26.03878ZM297.471,51.52032l9.60756.09264q2.99412,8.63346,5.15223,16.70941l-11.743-.18584C299.65235,62.70611,298.63136,57.1363,297.471,51.52032ZM301.18411,72.778l12.20705.18584c1.39238,5.616,2.50628,10.9073,3.38817,15.78077H303.087C302.57649,83.732,301.97307,78.39425,301.18411,72.778Zm3.66664,46.64685c-.09292-4.22388-.32493-13.73881-1.34592-26.03878H317.5683a200.00911,200.00911,0,0,1,2.55274,26.03878Zm13.36742-46.36809,13.69235.18555c1.34592,5.384,2.41365,10.58237,3.29525,15.5023H321.46724C320.63182,83.87113,319.56409,78.62627,318.21817,73.05675Zm6.54433,46.36809a202.75845,202.75845,0,0,0-2.50629-26.03878h13.69235a234.518,234.518,0,0,1,2.64566,26.03878Zm12.11441-46.13608,10.67529.18556c1.81024,5.29132,3.29553,10.44327,4.50208,15.27028H340.03306C339.2441,83.87113,338.17637,78.67272,336.87691,73.28876Zm6.35877,46.13608a231.79544,231.79544,0,0,0-2.46011-26.03878h12.39289a183.47573,183.47573,0,0,1,4.2236,26.03878Zm18.8443,0a203.26121,203.26121,0,0,0-4.17743-26.03878H367.696a178.89286,178.89286,0,0,1,4.4559,26.03878Zm14.75979,0a182.61287,182.61287,0,0,0-4.363-26.03878h9.51493a134.02555,134.02555,0,0,1,6.21967,26.03878Z"/>
        </g>
        <g>
          <g class="cls-1">
            <path class="cls-2" d="M49.58964,48.80867c-.17738.21291-.31925.42582-.49664.63872l-.53237.03552C48.91562,49.23449,49.23487,49.02158,49.58964,48.80867Z"/>
            <path class="cls-2" d="M158.73783,48.6891H158.32a5.8933,5.8933,0,0,1-.464-.55723C158.18088,48.36417,158.45935,48.50327,158.73783,48.6891Z"/>
            <path class="cls-2" d="M136.99157,38.94369l-3.90337.07082c-.42581-.8161-.88715-1.63221-1.34848-2.44854,1.313.39051,2.66145.78081,3.93889,1.24214C136.13994,38.16288,136.56576,38.55318,136.99157,38.94369Z"/>
            <path class="cls-2" d="M153.8179,48.73528h-.51049l-3.20262.04646c-1.53176-2.22781-3.15644-4.40944-4.87375-6.45169l1.81023-.04618c.60341.27848,1.20683.5105,1.81024.789,1.62439,1.76378,3.20261,3.52755,4.68791,5.33751v.04646A1.59247,1.59247,0,0,1,153.8179,48.73528Z"/>
            <path class="cls-2" d="M149.13,53.93369c-1.71731,2.32073-3.52755,4.91993-5.38424,7.937q-1.74056-4.66455-3.89867-9.46847l8.30811-.09292C148.48011,52.81978,148.80505,53.37674,149.13,53.93369Z"/>
            <path class="cls-2" d="M20.13634,83.159c-1.45483,4.18732-2.80331,8.80067-4.08075,13.946H10.02293a101.3163,101.3163,0,0,1,6.7069-13.98148Z"/>
            <path class="cls-2" d="M37.52455,67.82909c-2.02273,4.04545-3.76151,8.05538-5.28738,11.959L25.1755,79.6815a102.93055,102.93055,0,0,1,5.50028-11.88771Z"/>
            <path class="cls-2" d="M55.83521,52.96047C53.67061,56.75749,51.79,60.59,50.0865,64.38706l-6.63586-.03552A108.51731,108.51731,0,0,1,50.83178,52.996Z"/>
            <path class="cls-2" d="M76.45254,52.8186c-1.34849,3.76151-2.55489,7.70039-3.61942,11.74585l-8.33933-.071a120.93571,120.93571,0,0,1,5.32289-11.63928Z"/>
            <path class="cls-2" d="M70.91674,43.84077c-1.13558,1.8096-2.16459,3.65494-3.19361,5.50028l-5.57132.03552c1.1711-1.84534,2.413-3.65516,3.69046-5.42946Z"/>
            <path class="cls-2" d="M85.78536,34.47242a43.64479,43.64479,0,0,0-3.65494,5.60685l-4.47126.07082c1.17109-1.59691,2.342-3.1583,3.58411-4.71948C82.73362,35.07562,84.25949,34.75637,85.78536,34.47242Z"/>
            <path class="cls-2" d="M91.1793,43.415c-.46134,1.88065-.88715,3.79681-1.313,5.74871l-8.23276.07083c.8161-1.98721,1.70325-3.86785,2.62592-5.67767Z"/>
            <path class="cls-2" d="M102.92514,39.61793l-7.13271.17739a67.8884,67.8884,0,0,1,2.3775-6.77794c1.455-.10635,2.94539-.14187,4.40044-.17739C102.71223,35.00458,102.8541,37.27574,102.92514,39.61793Z"/>
            <path class="cls-2" d="M122.265,39.22742l-4.40022.10656c-.42582-2.05824-.88715-3.97441-1.384-5.78423,1.10006.14187,2.16459.28395,3.26465.46134C120.6326,35.71435,121.48423,37.45312,122.265,39.22742Z"/>
            <path class="cls-2" d="M134.2593,48.87971l-4.40022.03552c-.70977-2.12928-1.49057-4.18731-2.27116-6.24556l3.442-.071C132.16553,44.6924,133.23007,46.786,134.2593,48.87971Z"/>
            <path class="cls-2" d="M115.984,48.98606l-9.22627.071c-.03552-2.02273-.071-4.00993-.14208-5.96162l8.37485-.17738C115.34522,44.86978,115.66469,46.89251,115.984,48.98606Z"/>
            <path class="cls-2" d="M103.24461,52.64122c.0353,4.00993.0353,8.09068,0,12.17165l-12.27822-.071c.53238-4.15179,1.13558-8.19725,1.84534-12.02957Z"/>
            <path class="cls-2" d="M130.67518,65.0613l-9.15543-.071c-.42582-4.25836-.88715-8.44568-1.41931-12.45561l7.13249-.07082C128.5459,56.61563,129.68147,60.83846,130.67518,65.0613Z"/>
            <path class="cls-2" d="M119.17777,81.0655l-12.66851-.17738c.10634-4.081.2129-8.26829.24842-12.49113l11.49742.10634C118.60987,72.69087,118.92934,76.91349,119.17777,81.0655Z"/>
            <path class="cls-2" d="M139.75415,68.69377c-1.1139,2.04225-2.22781,4.2236-3.29525,6.54432-.3714-2.18134-.83571-4.40944-1.29974-6.59078Z"/>
            <path class="cls-2" d="M132.32794,84.79948c-1.53176,3.806-3.01706,7.89053-4.363,12.3h-4.363c-.18556-3.94541-.32494-8.07637-.60341-12.39289Z"/>
            <path class="cls-2" d="M120.6326,120.56139H104.806c.21291-3.61964.6032-10.82339.99349-19.90779h14.37177C120.49073,109.70269,120.59708,116.94175,120.6326,120.56139Z"/>
            <path class="cls-2" d="M102.8541,84.40119c-.14187,4.43575-.28373,8.6941-.46134,12.70382H88.092c.24842-4.08076.53216-8.44546.88714-12.91673Z"/>
            <path class="cls-2" d="M86.92094,68.25512c-.49686,4.11628-.92267,8.23255-1.27744,12.31353l-12.633-.17739c.74529-4.081,1.63244-8.19725,2.62593-12.2427Z"/>
            <path class="cls-2" d="M59.3838,68.0067c-1.45483,4.11627-2.697,8.19724-3.726,12.13613l-7.73591-.10656c1.27744-3.93889,2.73248-7.98434,4.47126-12.06509Z"/>
            <path class="cls-2" d="M68.71663,83.86881C67.936,88.482,67.29732,92.91769,66.76494,97.105H55.79969c.63893-4.1518,1.455-8.65859,2.59062-13.37806Z"/>
            <path class="cls-2" d="M43.16669,83.514c-1.38378,4.79052-2.44854,9.36813-3.30016,13.591H30.5337a139.62783,139.62783,0,0,1,4.152-13.733Z"/>
            <path class="cls-2" d="M50.54783,120.56139H40.43442a152.005,152.005,0,0,1,2.342-19.90779h8.978A139.60652,139.60652,0,0,0,50.54783,120.56139Z"/>
            <path class="cls-2" d="M26.098,100.6536a130.421,130.421,0,0,0-2.66145,19.90779H15.34582c.03553-.14208.03553-.21291.071-.355a198.32018,198.32018,0,0,1,3.47755-19.5528Z"/>
          </g>
          <path class="cls-2" d="M157.85594,48.13187a5.8933,5.8933,0,0,0,.464.55723h.41786C158.45935,48.50327,158.18088,48.36417,157.85594,48.13187Zm-28.87-16.05925-.13909.09263A104.76005,104.76005,0,0,0,.18556,122.11668L0,124.11275H83.68558v.1391H87.2593v-.1391h34.16105c.27847-1.53176.55723-3.11.88189-4.68791.557-2.69212,1.11418-5.33779,1.71731-7.89053-.04618-3.15616-.1391-6.82309-.27847-10.86113h3.15643c.32466-1.20683.696-2.41337,1.06745-3.57373h-4.363c-.18556-3.94541-.32494-8.07637-.60341-12.39289l9.32937.09292c.464-1.20682.92835-2.36719,1.43884-3.52755l-10.95377-.1391c-.27848-4.131-.60341-8.401-.97481-12.57844l9.60785.04646c.92835,4.27006,1.71732,8.49394,2.36719,12.57844.83543-2.08871,1.71731-4.03832,2.64566-5.9412-.3714-2.18134-.83571-4.40944-1.29974-6.59078l4.595.04646c1.34621-2.46011,2.64567-4.73438,3.99159-6.82309q-1.74056-4.66455-3.89867-9.46847l8.30811-.09292c.32493.51049.64987,1.06745.9748,1.6244,1.4853-1.94933,2.87768-3.71311,4.17743-5.19841l-3.20262.04646c-1.53176-2.22781-3.15644-4.40944-4.87375-6.45169l1.81023-.04618c.60341.27848,1.20683.5105,1.81024.789,1.62439,1.76378,3.20261,3.52755,4.68791,5.33751,1.6244-1.81,3.06324-3.29526,4.27006-4.45562a104.76008,104.76008,0,0,0-28.6377-11.69656A.3622.3622,0,0,0,128.98594,32.07262ZM98.16689,33.001c1.43884-.09292,2.97032-.13938,4.40916-.13938.13938,2.13517.27848,4.40944.3714,6.77663l-7.14774.1391C96.54221,37.31748,97.33118,35.04321,98.16689,33.001Zm-7.00864.64959c1.06745-.1391,2.04225-.232,3.06324-.37111-.74251,2.04225-1.43884,4.2236-2.13489,6.59079l-5.80182.09292A32.8878,32.8878,0,0,1,91.15825,33.65055Zm0,9.74723c-.41785,1.90287-.88189,3.806-1.29974,5.75536l-8.21519.09292c.789-1.99608,1.67086-3.89895,2.59921-5.70919Zm-9.93278-7.98345c1.4853-.32494,3.01706-.64959,4.54853-.92835a43.52107,43.52107,0,0,0-3.66664,5.61626l-4.4559.04646C78.81182,38.57048,80.01864,36.99255,81.22547,35.41433ZM52.40193,67.951l6.96218.04646C57.92527,72.1284,56.67227,76.2129,55.651,80.158l-7.75115-.13909C49.19931,76.12,50.63815,72.03548,52.40193,67.951Zm-8.16872,12.0215-8.21547-.09292a114.01057,114.01057,0,0,1,5.47688-12.0215l7.0551.09292C46.87859,72.03548,45.43975,76.07352,44.23321,79.97247Zm9.70048-15.54905A118.95985,118.95985,0,0,1,59.96752,52.9127h5.89474a121.37047,121.37047,0,0,0-5.15194,11.60364Zm9.19,3.62047,8.81888.04646c-.97481,4.08451-1.8567,8.16873-2.59921,12.25323l-10.02541-.1391C60.33892,76.25908,61.63866,72.17486,63.12368,68.04389Zm1.39266-3.52755a112.77137,112.77137,0,0,1,5.291-11.6501l6.63724-.04646c-1.34592,3.75957-2.55274,7.705-3.62018,11.743Zm7.28684-15.22411c1.06773-1.85641,2.18163-3.7131,3.38845-5.52334l5.059-.09264a56.78047,56.78047,0,0,0-2.45982,5.616Zm3.85249-12.3926c-.83543,1.1139-1.6244,2.2278-2.41337,3.342l-4.64145.09264a.81462.81462,0,0,0,.18555-.232l-.74279-.60341C70.50372,38.52431,73.05646,37.68859,75.65567,36.89963Zm-9.79341,7.0551,5.05931-.09292c-1.16036,1.81024-2.18163,3.62047-3.20261,5.47688l-5.5698.04646C63.30952,47.52874,64.56252,45.71851,65.86226,43.95473Zm-7.61205.1391,3.20261-.04618c-1.25328,1.76349-2.41364,3.57373-3.52755,5.384H53.65521C55.09405,47.62138,56.67227,45.8576,58.25021,44.09383Zm-2.41337,8.86533c-2.18163,3.806-4.03832,7.61206-5.75564,11.4178L43.444,64.33079a117.8115,117.8115,0,0,1,7.38-11.32517ZM36.34267,58.90008c2.27427-2.04225,4.64146-3.99158,7.14774-5.84828H46.461a105.30507,105.30507,0,0,0-7.0551,11.279l-6.68371-.09292C33.97549,62.24207,35.18231,60.43184,36.34267,58.90008ZM30.68,67.81188H37.503c-1.99579,4.0845-3.75957,8.07609-5.24487,11.97475L25.15661,79.694A96.70564,96.70564,0,0,1,30.68,67.81188ZM25.20307,70.736c-1.25329,2.64538-2.55275,5.66244-3.806,8.91151l-2.50628-.04646A98.95129,98.95129,0,0,1,25.20307,70.736Zm-8.49394,12.3926,3.43491.04646a140.931,140.931,0,0,0-4.0845,13.92437H10.02542A96.67962,96.67962,0,0,1,16.70913,83.12862Zm-4.827,36.62115c-.04646.32466-.09292.557-.13909.789H3.94512A100.11156,100.11156,0,0,1,8.726,100.67318h6.49815C13.97083,106.38236,12.81046,112.74113,11.88211,119.74977Zm11.55718.789H15.36321a.78862.78862,0,0,1,.04646-.32493c.92834-7.24066,2.13517-13.69235,3.48109-19.54063H26.085A132.27943,132.27943,0,0,0,23.43929,120.53874Zm-3.7131-23.43929c1.25328-5.15223,2.69212-9.74723,4.131-13.87819l7.10128.09292a134.39049,134.39049,0,0,0-4.038,13.78527Zm17.17344,23.43929H26.96684a123.2953,123.2953,0,0,1,2.73859-19.86556h9.46846A154.52111,154.52111,0,0,0,36.89963,120.53874ZM30.54086,97.09945c1.06744-4.27034,2.41336-8.9118,4.13068-13.73881L43.16548,83.5c-1.39238,4.827-2.45983,9.37555-3.29525,13.59943Zm20.00466,23.43929H40.42718a149.81945,149.81945,0,0,1,2.3669-19.86556h8.95826A143.14106,143.14106,0,0,0,50.54552,120.53874ZM43.444,97.09945c.88189-4.22388,1.9958-8.77242,3.38846-13.55325l7.98317.13938C53.65521,88.42,52.86624,92.922,52.26283,97.09945Zm21.165,23.43929H54.11924a137.15127,137.15127,0,0,1,1.20683-19.86556H66.3263C65.25885,109.86345,64.79482,117.19675,64.609,120.53874Zm-8.8186-23.43929c.64959-4.131,1.4853-8.63332,2.59921-13.36741l10.30389.13909c-.74251,4.595-1.39238,9.0509-1.94933,13.22832Zm27.94137,23.43929H68.13653c.232-3.342,3.574-32.81512,4.22388-36.62115l12.996.18556C85.0315,88.28057,83.77821,116.6398,83.73175,120.53874Zm1.90316-39.96286L73.01,80.39c.74279-4.0845,1.62468-8.21518,2.64567-12.25351l11.2787.13938C86.42388,72.36041,86.0063,76.49138,85.63491,80.57588ZM76.53755,64.60926c1.06745-4.0845,2.32073-8.07637,3.71311-11.83594l8.958-.04617c-.696,3.8522-1.34592,7.89025-1.85642,11.97475Zm24.69258,55.92948H87.2593c.09292-4.038.27848-11.23224.64988-19.86556H102.2514C101.88,109.817,101.41569,117.05765,101.23013,120.53874Zm1.16036-23.43929H88.09473c.2323-4.0845.51078-8.44748.88189-12.90338l13.87791.18555C102.71543,88.83752,102.57605,93.10758,102.39049,97.09945Zm.557-16.24509-13.69235-.2323c.37139-4.08422.74279-8.26165,1.25328-12.34615l12.71754.09292C103.17946,72.59243,103.08683,76.76985,102.94745,80.85436Zm.27847-16.05954-12.25351-.04646c.51078-4.17714,1.11419-8.21547,1.8567-12.02121l10.39681-.09292C103.27238,56.67227,103.27238,60.71032,103.22592,64.79482ZM93.52544,49.15314c.37111-1.99579.83543-3.94513,1.29946-5.80182l8.26193-.18556c.04617,1.94933.09263,3.89867.13909,5.94092Zm33.37207-13.78527c.74251,1.25328,1.485,2.4601,2.18135,3.71339l-2.92414.09263c-.64987-1.4853-1.34592-2.97031-2.04225-4.363Q125.505,35.02,126.89751,35.36787Zm-.83571,13.55325-6.4514.04646c-.32494-2.08871-.69634-4.131-1.02127-6.12675l5.1984-.09292C124.623,44.7437,125.36575,46.83241,126.0618,48.92112Zm-6.86926,32.16525-12.67108-.18584c.09263-4.08422.18555-8.26164.232-12.48524l11.51072.09264C118.58913,72.68535,118.91406,76.909,119.19254,81.08637Zm.557-47.06442c.88189,1.67085,1.71732,3.43463,2.50657,5.1984l-4.40944.09292c-.41786-2.04225-.88189-3.9454-1.3462-5.75536C117.56814,33.697,118.63559,33.83639,119.74949,34.02195ZM117.93926,64.9342l-11.13933-.09292q.06969-6.19644,0-12.25351l9.70049-.04646C117.05737,56.48672,117.52168,60.71032,117.93926,64.9342Zm-1.94934-15.96662-9.23645.09264c-.04646-2.04225-.04646-3.99159-.13938-5.98738l8.35485-.13938C115.34005,44.88308,115.665,46.87887,115.98992,48.96758Zm-3.29525-15.82752c.557,1.94933,1.06745,3.99158,1.57794,6.26613l-7.79761.1391c-.09292-2.32073-.232-4.54854-.32494-6.68371C108.33169,32.86158,110.513,33.001,112.69467,33.14006Zm-6.31259,51.288,12.996.18584c.27876,4.31652.46431,8.54012.64987,12.48553H105.96451Q106.17315,91.11165,106.38208,84.42808Zm-1.57794,36.11066c.232-3.574.60341-10.81467.97453-19.86556h14.38868c.32493,9.05089.41757,16.29155.464,19.86556Zm16.70913-55.55837c-.41758-4.27-.88189-8.44748-1.39238-12.43906l7.10128-.09264c1.3462,4.17714,2.4601,8.401,3.43491,12.62462Zm19.72618.13938h-6.86926c-.97481-4.27-2.04225-8.49394-3.38846-12.67108h4.9664C137.94392,56.71873,139.70769,60.98879,141.23945,65.11975Zm4.50236-16.29155h-7.56559c-.97481-2.08871-2.04226-4.2236-3.15616-6.31231l5.52334-.09292A58.01254,58.01254,0,0,1,145.74181,48.8282ZM135.66965,37.828a14.92137,14.92137,0,0,1,1.29974,1.11391l-3.89894.09292c-.41758-.83543-.88189-1.67086-1.34592-2.46011C133.07045,36.94609,134.41665,37.36394,135.66965,37.828Zm-1.39238,11.04669-4.40944.04646c-.696-2.13517-1.4853-4.17742-2.27427-6.26613l3.43463-.04646C132.18856,44.69724,133.20983,46.786,134.27727,48.87466Z"/>
        </g>
        <path class="cls-2" d="M133.76678,81.27193c0-.04646,0-.04646.04646-.09264v.09264Z"/>
        <path class="cls-2" d="M153.53942,48.45681a1.59247,1.59247,0,0,1,.27848.27847h-.51049C153.4,48.64264,153.4465,48.54972,153.53942,48.45681Z"/>
        <path class="cls-2" d="M158.73783,48.6891H158.32a5.8933,5.8933,0,0,1-.464-.55723C158.18088,48.36417,158.45935,48.50327,158.73783,48.6891Z"/>
      </g>
    </g>
  </g>
</svg>
