<svg xmlns="http://www.w3.org/2000/svg" viewBox="0 0 225.37 154.45"><defs><style>.cls-1,.cls-2{fill:#fffdfd;}.cls-2{opacity:0;}</style></defs><g id="Layer_2" data-name="Layer 2"><g id="Layer_1-2" data-name="Layer 1"><path class="cls-1" d="M23.48,61.11H42v3.72H27.92V76.26h13v3.67h-13V95.48H23.48Z"/><path class="cls-1" d="M50.21,61.11h4.43V91.76H69.33v3.72H50.21Z"/><path class="cls-1" d="M80.6,61.11V81.46c0,7.7,3.42,11,8,11,5.1,0,8.36-3.37,8.36-11V61.11h4.49v20c0,10.56-5.56,14.89-13,14.89-7,0-12.34-4-12.34-14.69V61.11Z"/><path class="cls-1" d="M117.58,64.88H107.12V61.11h25.45v3.77H122.06v30.6h-4.48Z"/><path class="cls-1" d="M144.81,64.88H134.35V61.11H159.8v3.77H149.3v30.6h-4.49Z"/><path class="cls-1" d="M183.31,79.37H170V91.76h14.89v3.72H165.51V61.11h18.57v3.72H170V75.69h13.36Z"/><path class="cls-1" d="M192.49,61.57a46.17,46.17,0,0,1,8.52-.72c4.74,0,7.8.87,9.94,2.81a8.55,8.55,0,0,1,2.71,6.53A9,9,0,0,1,207.18,79v.15c2.65.92,4.23,3.37,5,6.94,1.12,4.79,1.94,8.1,2.65,9.43h-4.59c-.56-1-1.33-3.93-2.29-8.21-1-4.74-2.86-6.53-6.89-6.68h-4.18V95.48h-4.44Zm4.44,15.65h4.54c4.74,0,7.75-2.6,7.75-6.52,0-4.44-3.21-6.38-7.9-6.43a18.4,18.4,0,0,0-4.39.41Z"/><rect class="cls-2" width="225.37" height="154.45"/></g></g></svg>