<svg xmlns="http://www.w3.org/2000/svg" viewBox="0 0 334.96251 170.45657">
  <defs>
    <style>
      .cls-1 {
        fill: #fff;
      }
    </style>
  </defs>
  <g id="Layer_2" data-name="Layer 2">
    <g id="Layer_4" data-name="Layer 4">
      <g>
        <path class="cls-1" d="M132.792,46.4229c-.06586-2.8673-.14014-6.11718-1.3874-8.73082a32.5523,32.5523,0,0,0-2.80143-4.50835,39.225,39.225,0,0,1-2.15677-3.31295c-.50872-.91793-1.02164-1.82044-1.53035-2.71594a82.47363,82.47363,0,0,1-5.19365-10.23033c-3.19943-8.0161-3.19522-10.84416-2.62905-11.80553l-.19082-1.02626c.11369-.62346-.31194-.65088-.12029-1.22581L115.839,1.03946c-4.00664-1.22063-8.6159-.97819-13.078-.74275-1.63405.08689-3.22465.171-4.70875.171H69.03176c-2.89533,0-5.90136-.11352-8.94383-.22844-6.50537-.24664-13.23217-.4989-19.46426.32653l-1.03.13594-.192,1.023a70.67394,70.67394,0,0,0-.88149,8.85975c-.24384,4.2589-.4975,8.66075-1.87229,12.488-.5998,1.66908-1.22343,3.32836-1.84847,4.98623A123.628,123.628,0,0,0,29.879,43.0623c-.51152,2.168-1.17579,4.371-1.819,6.50117a69.84485,69.84485,0,0,0-2.66129,10.924A52.48225,52.48225,0,0,1,22.886,70.08019a61.4207,61.4207,0,0,0-2.45948,8.97326,99.28553,99.28553,0,0,1-2.68231,10.8862c-.67688,2.36138-1.35657,4.73258-1.934,7.17244-1.17159,4.94-2.0783,9.97668-2.95419,14.848a179.19812,179.19812,0,0,1-4.99044,22.25167c-.66147,2.09512-1.393,4.23228-2.13435,6.39887-2.8631,8.365-5.82429,17.016-5.729,25.68514l.01542,1.37479L1.391,167.714a132.40359,132.40359,0,0,0,15.54871-.71612l3.45589-.28589a62.77429,62.77429,0,0,1,11.07258-.18079,42.81086,42.81086,0,0,1,4.8517.86608,34.64287,34.64287,0,0,0,6.99306,1.02443c6.53515.089,7.34691-.15359,15.44552.47424l5.70324,1.55642c.07007.0028.13734.0042.20461.0042a6.60822,6.60822,0,0,0,2.126-.419l.43724-.13734c1.962-.59,3.93938-1.31173,5.91958-2.03486,1.64526-.6012,3.29192-1.20381,4.93438-1.72654,3.90154-1.24586,8.33141-1.10432,12.61134-.96838,1.62844.05185,3.23867.0981,4.82507.08128,1.91153-.02522,3.774-.22,5.57483-.40921.77078-.07988,1.54436-.16116,2.32635-.22983a23.06978,23.06978,0,0,1,2.97661.021,15.60614,15.60614,0,0,0,5.558-.391l1.00341-.31672,4.16295-3.21759c1.27388-.625,9.037-2.98087,10.423-6.54326,1.00061-2.5674.92493-5.8327.85766-8.714-.01541-.65866-.02943-1.2935-.02943-1.8863a90.8064,90.8064,0,0,0-.951-13.44238h.49837c0-6.78845.61663-13.65959,1.21363-20.3037l.07568-.83525c.35736-3.99683.74975-7.99087,1.14215-11.9849,1.56538-15.9355,3.18542-32.41334,2.49172-48.81831C132.82,47.6113,132.806,47.0227,132.792,46.4229ZM43.35222,165.55162a32.07972,32.07972,0,0,1-6.41988-.95717,45.15113,45.15113,0,0,0-5.17823-.91933c-1.386-.13874-2.7748-.1948-4.16921-.1948-2.44827,0-4.91477.17238-7.41629.37l-3.47131.28869c-4.5574.38679-9.24373.80441-13.81235.73714.22283-7.73721,2.93457-15.65941,5.56222-23.33637.74836-2.189,1.4883-4.34719,2.15678-6.46473a181.63247,181.63247,0,0,0,5.07733-22.60623c.86887-4.83348,1.76858-9.83093,2.92055-14.69524.569-2.395,1.236-4.72417,1.90172-7.04351a103.07529,103.07529,0,0,0,2.75378-11.19731,58.40907,58.40907,0,0,1,2.35438-8.55424,55.45522,55.45522,0,0,0,2.63185-10.11542,67.70577,67.70577,0,0,1,2.56459-10.47c.65446-2.1722,1.33275-4.41866,1.86529-6.67214a121.12093,121.12093,0,0,1,4.81246-14.6518c.62923-1.67049,1.25847-3.34378,1.86388-5.02688,1.51493-4.21685,1.7798-8.83031,2.03626-13.29242.14855-2.60383.29149-5.08293.66147-7.46674A124.098,124.098,0,0,1,59.98,3.10655c3.07891.11632,6.12138.23123,9.05174.23123H98.05227c1.53175,0,3.1742-.08548,4.86011-.17517,3.68712-.1934,7.48356-.3938,10.73624.28028a36.148,36.148,0,0,0-.58719,7.60408,43.07183,43.07183,0,0,1-.26207,5.49635,98.41163,98.41163,0,0,1-2.59962,11.6808c-.54655,2.06288-1.09171,4.12016-1.564,6.17463-.939,4.08373-3.61986,7.52841-6.45913,11.17489a60.39779,60.39779,0,0,0-4.53077,6.36943A170.84838,170.84838,0,0,0,85.19709,78.49569c-.597,1.578-1.1814,3.15178-1.76579,4.72277-1.81343,4.88253-3.68993,9.929-5.85651,14.82838-2.29412,5.18944-3.11955,10.40831-3.91836,15.45621-.38819,2.45247-.7904,4.99044-1.35657,7.5298-.4975,2.22125-1.05807,4.42427-1.61864,6.6301-.96137,3.781-1.955,7.691-2.615,11.6822a89.46865,89.46865,0,0,0-.88289,10.07337c-.28869,5.77664-.58579,11.74106-2.86309,16.96133C56.31812,165.77164,49.831,165.6399,43.35222,165.55162Zm81.51893-12.42776c-.86467,2.22125-4.21826,3.14758-7.46253,4.04449-1.03845.28729-2.09652.58018-3.09993.92213a212.71,212.71,0,0,1,1.24165-21.49071c.2971-3.23446.5928-6.46192.82123-9.67256.34195-4.79985.356-9.66.37-14.35891.00841-2.74537.01542-5.49214.08689-8.24452.06587-2.60664.23264-5.18384.398-7.74983a95.99162,95.99162,0,0,0,.08269-16.76794c-.31112-2.82945-.44565-5.67152-.57458-8.4197-.27748-5.90977-.56617-12.02134-2.65428-18.13992a22.0245,22.0245,0,0,1-.81423-6.31057c0-.02943-.0014-.06026-.0028-.0911.10931.27468.21161.55777.30691.85207a71.46124,71.46124,0,0,1,2.325,10.83574c.27047,1.67329.541,3.34938.86467,5.02127.41762,2.16238.97819,4.31075,1.52054,6.38905a75.37425,75.37425,0,0,1,1.819,8.22491,97.61744,97.61744,0,0,1,.68949,11.82935c.03784,2.09231.07568,4.17341.17938,6.20967.56337,11.04175,1.1842,21.00021,3.07751,31.04976a86.04277,86.04277,0,0,1,1.45747,16.30827c0,.61242.01542,1.26968.03083,1.95217C125.59429,148.12922,125.663,151.09041,124.87115,153.12386Zm2.62486-56.407c-.3924,4.00245-.7862,8.00629-1.145,12.01154l-.07428.83244c-.25435,2.83068-.5031,5.70726-.71629,8.60066-.8829-7.08608-1.32785-14.31546-1.725-22.1005-.1023-2.00683-.14014-4.05569-.17658-6.11577a99.69283,99.69283,0,0,0-.71752-12.18391,77.547,77.547,0,0,0-1.88491-8.54163c-.52973-2.03485-1.07769-4.13838-1.47989-6.21107-.31672-1.64246-.583-3.29052-.84786-4.93438a74.7575,74.7575,0,0,0-2.42865-11.26318,23.04757,23.04757,0,0,0-3.41525-6.312c-.31112-.44986-.62784-.90532-.94315-1.3804l-2.51695,1.35377a18.75715,18.75715,0,0,1,.974,6.56563,24.449,24.449,0,0,0,.96557,7.136c1.95638,5.73319,2.22265,11.37388,2.50293,17.34812.13173,2.79162.26767,5.67853.5886,8.59768a92.27927,92.27927,0,0,1-.0939,16.269c-.16817,2.60383-.33494,5.21747-.40361,7.86194-.07007,2.772-.07848,5.5426-.08688,8.309-.014,4.65129-.028,9.46235-.36157,14.1627-.227,3.19242-.52273,6.40026-.817,9.61511a195.34111,195.34111,0,0,0-1.20943,23.90675l.00526.16589s-1.20347.738-1.30157,1.30419a17.81579,17.81579,0,0,1-3.64648.05325,24.12376,24.12376,0,0,0-3.369-.014c-.79881.07007-1.5878.15275-2.3754.234-1.81764.19059-3.53437.37-5.31417.39379-1.53875.01682-3.11114-.03083-4.69614-.07988-4.528-.14154-9.2031-.29009-13.57411,1.10152-1.6789.53534-3.3648,1.15056-5.0479,1.76578-1.66208.60681-3.3203,1.19926-4.97029,1.72269,2.24436-5.51913,2.566-11.51175,2.85556-17.33025a87.94208,87.94208,0,0,1,.84785-9.74825c.64045-3.87071,1.62-7.7204,2.566-11.44256.56758-2.23245,1.13515-4.4635,1.63686-6.71278.58719-2.62765.9964-5.20906,1.3902-7.70638.80582-5.08994,1.56678-9.89679,3.711-14.74429,2.20022-4.97783,4.09213-10.06637,5.921-14.98814.58159-1.56678,1.16458-3.135,1.76018-4.70735a167.9758,167.9758,0,0,1,12.23856-26.11678,57.57279,57.57279,0,0,1,4.32056-6.05832c2.90514-3.732,5.90977-7.59147,6.99166-12.296.46527-2.02224,1.00342-4.04869,1.54156-6.08074a100.98379,100.98379,0,0,0,2.6697-12.02695c.0988-.723.13821-1.4692.17955-2.21353.38872,1.09205.80231,2.18971,1.23307,3.2688a84.53616,84.53616,0,0,0,5.36322,10.58349q.75676,1.33065,1.51773,2.69212a41.118,41.118,0,0,0,2.31374,3.5638,30.03793,30.03793,0,0,1,2.56319,4.10054c.98239,2.05868,1.04685,4.8559,1.10852,7.56064.014.618.028,1.22623.05325,1.812C130.6604,64.50536,129.05158,80.8809,127.496,96.71689Z"/>
        <path class="cls-1" d="M334.88727,162.16439c-.02523-.37838-.05046-.73013-.05326-1.02443-.05045-5.40666-1.75737-10.13223-3.40544-14.70365-.71192-1.97319-1.44626-4.01225-2.05167-6.10457-.74555-2.5744-1.52474-5.12217-2.30393-7.66434-1.84987-6.05551-3.7642-12.31564-5.11236-18.69208a76.26816,76.26816,0,0,0-3.90715-11.919,79.43181,79.43181,0,0,1-3.60724-10.71242c-.42042-1.79662-.74275-3.61986-1.06788-5.4431A65.81718,65.81718,0,0,0,311.31266,76.8c-.66428-2.02224-1.39862-4.03608-2.13576-6.05412-1.13515-3.09993-2.30673-6.305-3.17561-9.482-.47368-1.72514-.82683-3.48532-1.18-5.2441-.40641-2.01664-.824-4.10334-1.421-6.12559-.68949-2.34316-1.61162-4.61766-2.50292-6.81788-.569-1.40282-1.13795-2.80563-1.64807-4.22667a65.489,65.489,0,0,1-2.39642-9.68238,74.93606,74.93606,0,0,0-2.26469-9.4119c-1.65927-4.96522-2.50573-9.87718-3.40824-16.68386l-.16536-1.24585h-1.25848c-6.80527,0-13.61334.51852-20.19439,1.02023-6.54181.4989-13.305,1.01462-20.02342,1.01462-12.35769,0-23.03087,0-35.041.45406a3.15623,3.15623,0,0,0-.73031.17938l-1.9576.28589a35.42933,35.42933,0,0,0-5.28894,8.1226l-.45126.87309a112.85734,112.85734,0,0,0-8.26274,19.17136,57.77054,57.77054,0,0,1-6.24191,13.05418c-1.32013,2.20443-1.21362,3.44048-.86887,5.80747.8941,6.148,1.31733,12.55948,1.72934,18.75934.29991,4.52938.611,9.213,1.10151,13.78853.77078,7.19487,1.76579,14.47522,2.73,21.51593,1.04266,7.64332,2.12455,15.5487,2.91775,23.33217a101.90615,101.90615,0,0,1,.32513,10.48679c-.014,5.69955-.02523,11.59251,1.3874,16.99076l.21862.84365.84926.192a32.28007,32.28007,0,0,0,4.84609.5942,27.339,27.339,0,0,1,4.76762.61382,8.26851,8.26851,0,0,1,3.56239,2.45248c1.506,1.4566,3.224,3.08592,6.03082,3.35376l-.01874.29132a21.75948,21.75948,0,0,0,4.76481-.391c.66707-.10511,1.33415-.21022,1.98721-.28169,5.2497-.57178,10.13223-.92633,14.92507-1.08469l.2943-.00981c5.08994-.16537,10.34805-.34195,15.12687.84085a24.50556,24.50556,0,0,1,6.93981,3.30453c1.5836.96978,3.71586.77429,5.52649,1.52124h0l.21371.04975a5.98851,5.98851,0,0,0,1.365.14294,16.293,16.293,0,0,0,2.53376-.26486,15.72466,15.72466,0,0,1,1.66768-.20741l1.82184-.07988c4.207-.18639,8.53182-.38819,12.851-.37,5.928.01121,11.87-.05045,17.80919-.11211,5.41507-.05746,10.83294-.11492,16.248-.11492.36717,0,.93334.04765,1.592.10091,3.13636.25085,5.63929.36436,6.90617-.61943C335.16475,166.3238,335.01059,164.01707,334.88727,162.16439Zm-117.76094-2.84907a10.87426,10.87426,0,0,0-4.84329-3.17,29.75651,29.75651,0,0,0-5.27493-.69511c-1.24726-.08969-2.43566-.17517-3.55959-.363-1.10432-4.81947-1.09031-10.18829-1.07909-15.389a105.06918,105.06918,0,0,0-.34195-10.78529c-.796-7.83251-1.8807-15.76172-2.929-23.43026-.95857-7.01969-1.95077-14.279-2.71874-21.43185-.48489-4.51816-.7932-9.17226-1.0903-13.67221-.41482-6.25591-.84366-12.72345-1.75177-18.98357-.2943-2.01523-.36437-2.49452.48769-3.917a60.23192,60.23192,0,0,0,6.52219-13.68622,110.67143,110.67143,0,0,1,8.06094-18.68507l.46246-.8899c.66042-1.28282,1.43873-2.75063,2.39047-4.2335.085.7375.21582,1.52912.39169,2.38433a34.05659,34.05659,0,0,0,1.2096,5.379c.025.13628.06517.30253.08356.42638l.56337,3.90434c.51572,3.603,1.04546,7.3266,1.73215,10.94926a14.98239,14.98239,0,0,0,1.66068,4.73818,99.77585,99.77585,0,0,1-.45546,15.2418c-.43725,4.92177-1.351,9.87858-2.23666,14.67142-1.18,6.39465-2.39923,13.00793-2.53376,19.73052a269.17851,269.17851,0,0,0,1.40982,28.17826c.38119,4.43829.76237,8.87937,1.03425,13.33447a173.06889,173.06889,0,0,0,2.84487,23.946,48.03681,48.03681,0,0,0,1.39861,5.07033c.36437,1.16177.71753,2.2843.99781,3.3732A12.19329,12.19329,0,0,1,217.12633,159.31532Zm41.80422,1.99561c-5.16281-1.27669-10.63114-1.09731-15.91167-.92213l-.2943.00981c-4.86571.15976-9.81831.51993-15.14089,1.09871-.6979.07708-1.40982.18779-2.12454.2999-.97907.155-1.90978.26592-2.82088.32058a45.62479,45.62479,0,0,0-1.33852-5.04194,47.11872,47.11872,0,0,1-1.32014-4.76622,170.65166,170.65166,0,0,1-2.79442-23.5648c-.27468-4.47747-.65586-8.941-1.037-13.40314a265.243,265.243,0,0,1-1.40141-27.877c.12893-6.48715,1.32574-12.98411,2.48611-19.26526.8969-4.8587,1.82464-9.88278,2.27309-14.94049.34212-3.86072.60051-7.68238.59666-11.53242.36489.4171.74432.85241,1.1439,1.32591,2.217,2.63467,4.46771,5.25531,6.71839,7.87736l3.68572,4.30094c6.9314,8.11981,12.13906,17.50228,16.88425,30.42333,4.2547,11.5785,8.26275,23.3658,12.13626,34.76351l2.42164,7.115c1.85828,5.4515,2.48051,10.85116,3.13637,16.56893.356,3.07891.72033,6.26433,1.29771,9.44274.24946,1.3832.555,2.765.85767,4.151a50.18978,50.18978,0,0,1,1.38688,9.01425c-1.03127-.53446-2.04817-1.11745-3.091-1.75632A27.12846,27.12846,0,0,0,258.93055,161.31093Zm73.05018,3.85389c-.67548.384-3.77541.13454-4.94139.04065-.754-.06027-1.40142-.10931-1.82184-.10931-5.42348,0-10.85256.05745-16.27884.11491-5.92519.06166-11.84757.12753-17.77275.11211-4.37242-.0028-8.742.185-12.98271.37278l-1.819.07988a18.46093,18.46093,0,0,0-1.99281.23964c-.583.0925-1.18.18779-1.71814.22a54.30212,54.30212,0,0,0-1.46588-9.15405c-.2971-1.35237-.5914-2.70053-.83524-4.04869-.56057-3.08732-.92213-6.22509-1.26969-9.25915-.64745-5.61687-1.31452-11.42434-3.2709-17.16734l-2.42165-7.11218c-3.88192-11.41453-7.89557-23.21725-12.15867-34.82938-4.86852-13.25458-10.23314-22.90753-17.4-31.29781l-3.68852-4.30655c-2.24507-2.615-4.49014-5.22868-6.69877-7.85633-.42323-.50031-.82683-.96137-1.21082-1.4a24.39564,24.39564,0,0,1-2.32407-2.94087c-.06062-.79127-.08812-1.57746-.18447-2.37469a88.17217,88.17217,0,0,0-3.09432-14.90266l-.32513-1.04825c-.15853-.5103-.31129-1.01165-.46212-1.51283-.14084-.72488-.32442-1.53753-.5469-2.45458-.1482-.6126-.40851-1.68941-.631-2.83664-.0282-.24648-.0741-.48945-.09214-.73837a14.44849,14.44849,0,0,1,.03364-1.58781,22.23354,22.23354,0,0,0,.03275-2.22649c11.94514-.44968,22.58171-.45021,34.89893-.45021,6.82769,0,13.647-.51992,20.242-1.023,6.12138-.46667,12.439-.94736,18.72291-1.00622a84.61346,84.61346,0,0,0,3.36059,15.96212,72.03412,72.03412,0,0,1,2.1722,9.05315,68.72116,68.72116,0,0,0,2.51133,10.1014c.52133,1.45747,1.10432,2.89812,1.69011,4.33738.86607,2.13435,1.76018,4.34158,2.41043,6.54881.56057,1.90312.967,3.92537,1.35938,5.88174.35876,1.78541.73154,3.63247,1.22483,5.43469.90252,3.29333,2.09372,6.55582,3.24849,9.71181.72593,1.98721,1.45186,3.97161,2.10772,5.963a64.30343,64.30343,0,0,1,1.96479,8.707c.33354,1.87369.66707,3.74738,1.09591,5.59445a81.83239,81.83239,0,0,0,3.73056,11.10481,73.86655,73.86655,0,0,1,3.77261,11.46778c1.37339,6.49977,3.30734,12.823,5.17683,18.93733.77358,2.52815,1.55,5.06191,2.28991,7.6237.63064,2.1806,1.3846,4.26451,2.11054,6.27974,1.63965,4.54479,3.18681,8.83873,3.23446,13.7577.00281.34054.03083.74835.05886,1.1884A9.90753,9.90753,0,0,1,331.98073,165.16482Z"/>
      </g>
    </g>
  </g>
</svg>
