<svg xmlns="http://www.w3.org/2000/svg" viewBox="0 0 117.18054 358.83094">
  <defs>
    <style>
      .cls-1 {
        fill: #fff;
      }
    </style>
  </defs>
  <g id="Layer_2" data-name="Layer 2">
    <g id="Layer_4" data-name="Layer 4">
      <g>
        <path class="cls-1" d="M13.496,358.83094c-.04943,0-.09887-.00309-.1514-.00618l-11.914-1.13393A1.58337,1.58337,0,0,1,0,356.11511V1.58217A1.581,1.581,0,0,1,1.58194.00023h9.07764a1.58241,1.58241,0,0,1,1.58194,1.56958l2.83637,355.66683a1.58417,1.58417,0,0,1-1.58194,1.5943ZM3.16389,354.67525l8.73467.83423L9.09,3.16411H3.16389Z"/>
        <path class="cls-1" d="M13.496,358.83094a1.5822,1.5822,0,0,1-1.58194-1.56958L9.07763,1.59453a1.5816,1.5816,0,0,1,3.09283-.47891c8.33609,27.03825,33.27333,97.73751,48.37285,100.15986a8.81307,8.81307,0,0,0,7.68725-2.33584C82.7245,85.81446,79.45247,28.35007,79.41848,27.77074a1.57848,1.57848,0,0,1,1.44909-1.67A1.606,1.606,0,0,1,82.57,27.5112L117.17193,355.664a1.5806,1.5806,0,0,1-1.55105,1.74879l-102.1033,1.41818Zm-1.171-346.82865,2.7406,343.64314,98.77874-1.37184L82.53911,57.3951c-.964,17.03524-3.95485,36.43721-12.18281,43.8881a11.92406,11.92406,0,0,1-10.31353,3.116C43.3644,101.725,20.84951,38.00085,12.32494,12.00229Z"/>
        <path class="cls-1" d="M60.33939,42.64626a1.58131,1.58131,0,0,1-.87131-.26108C46.57463,33.88223,18.36228,26.626,18.078,26.55339a1.58549,1.58549,0,0,1-1.10921-1.032L9.158,2.08271A1.58253,1.58253,0,0,1,11.20955.0991L81.54731,26.19343a1.58083,1.58083,0,0,1,.48509,2.6788A111.56673,111.56673,0,0,1,61.05,42.47632,1.553,1.553,0,0,1,60.33939,42.64626ZM19.70013,23.7062c4.8169,1.27142,28.28651,7.70425,40.732,15.53672A115.91823,115.91823,0,0,0,77.83654,28.191L13.20243,4.21308Z"/>
        <path class="cls-1" d="M51.34517,97.71456a1.58232,1.58232,0,0,1-.31206-3.133c.21319-.06025,5.59551-1.79977,7.64091-17.749a164.25338,164.25338,0,0,0,.09578-35.57518,1.58142,1.58142,0,0,1,3.13917-.38621c.02163.18229,2.20916,18.38854-.09578,36.36306C59.42482,95.84373,52.405,97.55853,51.61089,97.69293A1.681,1.681,0,0,1,51.34517,97.71456Z"/>
        <path class="cls-1" d="M54.713,251.69138a1.57683,1.57683,0,0,1-1.11848-.46346L22.13793,219.77135a1.58177,1.58177,0,0,1,2.237-2.237L55.83147,248.991a1.58195,1.58195,0,0,1-1.11849,2.70043Z"/>
        <path class="cls-1" d="M72.92387,320.76235a1.5871,1.5871,0,0,1-1.08141-.42638L24.56337,276.16206a1.58265,1.58265,0,0,1,2.16282-2.31112l47.27908,44.17391a1.582,1.582,0,0,1-1.0814,2.7375Z"/>
        <path class="cls-1" d="M43.64247,307.30347A1.57678,1.57678,0,0,1,42.524,306.84L24.2853,288.60441a1.58177,1.58177,0,1,1,2.237-2.237L44.761,304.60305a1.58194,1.58194,0,0,1-1.11848,2.70042Z"/>
        <path class="cls-1" d="M55.6121,334.972a1.57685,1.57685,0,0,1-1.11849-.46346L21.659,301.674a1.58177,1.58177,0,1,1,2.237-2.237L56.73058,332.2716A1.58195,1.58195,0,0,1,55.6121,334.972Z"/>
        <path class="cls-1" d="M48.92591,344.7603a1.57683,1.57683,0,0,1-1.11848-.46346L22.61684,319.10625a1.58177,1.58177,0,1,1,2.237-2.237L50.0444,342.05988a1.58194,1.58194,0,0,1-1.11849,2.70042Z"/>
        <path class="cls-1" d="M39.95642,178.90964a1.57683,1.57683,0,0,1-1.11848-.46346L23.09266,162.704a1.58177,1.58177,0,0,1,2.237-2.237L41.0749,176.20921a1.58195,1.58195,0,0,1-1.11848,2.70043Z"/>
        <path class="cls-1" d="M43.315,165.07691a1.57681,1.57681,0,0,1-1.11848-.46346L22.85475,145.27172a1.58177,1.58177,0,1,1,2.237-2.237l19.34172,19.34172a1.58195,1.58195,0,0,1-1.11848,2.70043Z"/>
      </g>
    </g>
  </g>
</svg>
