<svg xmlns="http://www.w3.org/2000/svg" viewBox="0 0 225.37 154.45"><defs><style>.cls-1,.cls-2{fill:#fffdfd;}.cls-2{opacity:0;}</style></defs><g id="Layer_2" data-name="Layer 2"><g id="Layer_1-2" data-name="Layer 1"><path class="cls-1" d="M14.52,61.41h4.09v21.2c0,8.41-4.14,11-9.59,11a13.36,13.36,0,0,1-4.37-.75l.61-3.34a9.76,9.76,0,0,0,3.43.61c3.67,0,5.83-1.64,5.83-7.84Z"/><path class="cls-1" d="M39.62,93.09l-.33-2.87h-.14a8.49,8.49,0,0,1-7,3.38c-4.6,0-6.95-3.24-6.95-6.53,0-5.5,4.89-8.51,13.67-8.46v-.47c0-1.88-.51-5.26-5.17-5.26a11.29,11.29,0,0,0-5.92,1.69l-.94-2.73a14.15,14.15,0,0,1,7.48-2c7,0,8.64,4.75,8.64,9.31v8.5a32.33,32.33,0,0,0,.38,5.46ZM39,81.48c-4.51-.1-9.64.7-9.64,5.12a3.66,3.66,0,0,0,3.9,4,5.65,5.65,0,0,0,5.5-3.81A4.33,4.33,0,0,0,39,85.42Z"/><path class="cls-1" d="M53,70.34l4.47,12.78A59.17,59.17,0,0,1,59.31,89h.14c.52-1.88,1.18-3.76,1.93-5.83L65.8,70.34h4.32L61.19,93.09H57.24L48.6,70.34Z"/><path class="cls-1" d="M88.36,93.09,88,90.22h-.14a8.5,8.5,0,0,1-7,3.38c-4.6,0-7-3.24-7-6.53,0-5.5,4.88-8.51,13.67-8.46v-.47c0-1.88-.52-5.26-5.17-5.26a11.29,11.29,0,0,0-5.92,1.69l-.94-2.73a14.14,14.14,0,0,1,7.47-2c7,0,8.65,4.75,8.65,9.31v8.5a32.33,32.33,0,0,0,.38,5.46Zm-.61-11.61c-4.52-.1-9.64.7-9.64,5.12a3.66,3.66,0,0,0,3.9,4,5.66,5.66,0,0,0,5.5-3.81,4.33,4.33,0,0,0,.24-1.32Z"/><path class="cls-1" d="M99.73,88.1a14.45,14.45,0,0,0,7.33,2.07c4.19,0,6.63-2.21,6.63-5.4,0-3-1.69-4.66-6-6.3-5.17-1.83-8.36-4.51-8.36-9,0-4.93,4.08-8.6,10.24-8.6a14.38,14.38,0,0,1,7,1.55l-1.12,3.34a12.7,12.7,0,0,0-6-1.5c-4.32,0-6,2.58-6,4.74,0,3,1.93,4.42,6.3,6.11,5.36,2.07,8.08,4.66,8.08,9.31,0,4.89-3.62,9.12-11.09,9.12a16.34,16.34,0,0,1-8.08-2Z"/><path class="cls-1" d="M141.28,92.24a15.28,15.28,0,0,1-6.53,1.32c-6.87,0-11.33-4.66-11.33-11.61s4.79-12.08,12.22-12.08A13.86,13.86,0,0,1,141.37,71l-.94,3.2a9.62,9.62,0,0,0-4.79-1.08c-5.22,0-8,3.85-8,8.6,0,5.26,3.39,8.51,7.9,8.51a11.8,11.8,0,0,0,5.07-1.13Z"/><path class="cls-1" d="M147.86,77.44c0-2.68-.05-5-.19-7.1h3.62l.14,4.46h.19a6.82,6.82,0,0,1,6.3-5,4.58,4.58,0,0,1,1.17.14v3.9a6.4,6.4,0,0,0-1.41-.14c-2.91,0-5,2.21-5.54,5.31A11.17,11.17,0,0,0,152,81V93.09h-4.09Z"/><path class="cls-1" d="M169.57,64a2.56,2.56,0,0,1-5.12,0A2.52,2.52,0,0,1,167,61.36,2.45,2.45,0,0,1,169.57,64ZM165,93.09V70.34h4.13V93.09Z"/><path class="cls-1" d="M177.7,77.76c0-2.91-.09-5.26-.18-7.42h3.71l.19,3.9h.09a9,9,0,0,1,8.08-4.42c5.5,0,9.64,4.65,9.64,11.56,0,8.18-5,12.22-10.34,12.22a8,8,0,0,1-7-3.57h-.1v12.36H177.7Zm4.09,6.07a9.7,9.7,0,0,0,.19,1.69,6.37,6.37,0,0,0,6.2,4.84c4.38,0,6.91-3.57,6.91-8.79,0-4.56-2.39-8.46-6.76-8.46a6.59,6.59,0,0,0-6.25,5.12,6.37,6.37,0,0,0-.29,1.7Z"/><path class="cls-1" d="M211.17,63.81v6.53h5.92v3.15h-5.92V85.75c0,2.82.8,4.42,3.1,4.42a9.31,9.31,0,0,0,2.4-.28l.18,3.1a10,10,0,0,1-3.66.57,5.77,5.77,0,0,1-4.47-1.74c-1.17-1.23-1.59-3.25-1.59-5.92V73.49H203.6V70.34h3.53V64.89Z"/><rect class="cls-2" width="225.37" height="154.45"/></g></g></svg>