<svg xmlns="http://www.w3.org/2000/svg" viewBox="0 0 225.37 154.45"><defs><style>.cls-1,.cls-2{fill:#fffdfd;}.cls-2{opacity:0;}</style></defs><g id="Layer_2" data-name="Layer 2"><g id="Layer_1-2" data-name="Layer 1"><path class="cls-1" d="M11.15,88l-8-31.67H7.44l3.76,16c.94,4,1.78,7.9,2.35,11h.09c.52-3.14,1.5-6.9,2.58-11l4.23-16h4.28l3.85,16.07c.9,3.76,1.74,7.52,2.21,10.86h.1c.66-3.48,1.55-7,2.54-10.95l4.18-16h4.18L32.81,88H28.54l-4-16.49a95.87,95.87,0,0,1-2.06-10.34h-.1a99.1,99.1,0,0,1-2.44,10.34L15.43,88Z"/><path class="cls-1" d="M67.92,76.42c0,8.42-5.82,12.08-11.32,12.08-6.16,0-10.91-4.51-10.91-11.7,0-7.61,5-12.08,11.28-12.08C63.51,64.72,67.92,69.47,67.92,76.42Zm-18,.24c0,5,2.86,8.74,6.91,8.74s6.9-3.71,6.9-8.84c0-3.85-1.92-8.74-6.81-8.74S49.88,72.33,49.88,76.66Z"/><path class="cls-1" d="M74.88,72.33c0-2.67,0-5-.19-7.09h3.62l.14,4.46h.19a6.83,6.83,0,0,1,6.3-5,4.58,4.58,0,0,1,1.17.14v3.9a6.4,6.4,0,0,0-1.41-.14c-2.91,0-5,2.21-5.54,5.31A11.06,11.06,0,0,0,79,75.86V88H74.88Z"/><path class="cls-1" d="M111.63,54.62V82.11c0,2,.05,4.32.19,5.87h-3.71L107.92,84h-.09a8.44,8.44,0,0,1-7.76,4.46c-5.5,0-9.73-4.65-9.73-11.56,0-7.57,4.66-12.22,10.2-12.22,3.48,0,5.83,1.65,6.86,3.48h.1V54.62ZM107.5,74.5a7.31,7.31,0,0,0-.19-1.74,6.09,6.09,0,0,0-6-4.8c-4.28,0-6.81,3.76-6.81,8.79,0,4.61,2.25,8.41,6.72,8.41a6.21,6.21,0,0,0,6.06-4.93,7.23,7.23,0,0,0,.19-1.79Z"/><path class="cls-1" d="M120.38,56.68a48.35,48.35,0,0,1,7.84-.61c4.05,0,7,.94,8.89,2.64a8.49,8.49,0,0,1,2.77,6.62,9.36,9.36,0,0,1-2.44,6.77c-2.17,2.3-5.69,3.48-9.68,3.48a14.32,14.32,0,0,1-3.29-.28V88h-4.09ZM124.47,72a13.92,13.92,0,0,0,3.38.33c4.93,0,7.94-2.4,7.94-6.77,0-4.18-3-6.2-7.47-6.2a17.71,17.71,0,0,0-3.85.32Z"/><path class="cls-1" d="M147,72.33c0-2.67,0-5-.19-7.09h3.62l.14,4.46h.19a6.82,6.82,0,0,1,6.3-5,4.58,4.58,0,0,1,1.17.14v3.9a6.4,6.4,0,0,0-1.41-.14c-2.91,0-5,2.21-5.54,5.31a11.06,11.06,0,0,0-.19,1.93V88H147Z"/><path class="cls-1" d="M166.39,77.36c.09,5.6,3.66,7.9,7.8,7.9a14.92,14.92,0,0,0,6.3-1.18l.7,3a18.32,18.32,0,0,1-7.56,1.41c-7,0-11.19-4.6-11.19-11.46s4-12.27,10.67-12.27c7.43,0,9.4,6.53,9.4,10.72a15,15,0,0,1-.14,1.92Zm12.12-3c.05-2.63-1.08-6.72-5.73-6.72-4.18,0-6,3.86-6.34,6.72Z"/><path class="cls-1" d="M188.81,83.75a10.81,10.81,0,0,0,5.45,1.65c3,0,4.42-1.5,4.42-3.38s-1.18-3.06-4.23-4.19c-4.09-1.45-6-3.71-6-6.44,0-3.66,3-6.67,7.85-6.67a11.38,11.38,0,0,1,5.59,1.41l-1,3a8.79,8.79,0,0,0-4.65-1.32c-2.45,0-3.81,1.41-3.81,3.1,0,1.88,1.36,2.73,4.32,3.86,4,1.5,6,3.48,6,6.86,0,4-3.1,6.81-8.5,6.81a13,13,0,0,1-6.4-1.55Z"/><path class="cls-1" d="M209.16,83.75a10.81,10.81,0,0,0,5.45,1.65c3,0,4.42-1.5,4.42-3.38s-1.18-3.06-4.23-4.19c-4.09-1.45-6-3.71-6-6.44,0-3.66,3-6.67,7.85-6.67a11.34,11.34,0,0,1,5.59,1.41l-1,3a8.79,8.79,0,0,0-4.65-1.32c-2.45,0-3.81,1.41-3.81,3.1,0,1.88,1.36,2.73,4.32,3.86,3.95,1.5,6,3.48,6,6.86,0,4-3.1,6.81-8.5,6.81a13,13,0,0,1-6.39-1.55Z"/><rect class="cls-2" width="225.37" height="154.45"/></g></g></svg>