<svg xmlns="http://www.w3.org/2000/svg" viewBox="0 0 335.31223 279.1551">
  <defs>
    <style>
      .cls-1 {
        fill: #fff;
      }
    </style>
  </defs>
  <g id="Layer_2" data-name="Layer 2">
    <g id="Layer_4" data-name="Layer 4">
      <path class="cls-1" d="M334.41359,71.64045c-1.92225-1.85339-6.40984-1.34219-10.4691-.72128-.482.07472-.88235.13772-1.16479.16807-3.003.34546-4.55062.35013-6.79033-.978-.61857-.3338-6.11106-3.27029-8.33093-3.86085-2.86762-.7703-11.32227-1.0294-11.77278-1.03874a76.996,76.996,0,0,0-15.01155,2.71706l-.922.23109a65.6715,65.6715,0,0,1-6.61643,1.25743c-.04756-10.46662-.363-24.06813-1.532-32.33765.07149.089.13889.18952.21082.27749.74345.91035,1.50559,1.68766,2.24437,2.43929l.72245.74229a5.464,5.464,0,0,1,.73646,1.14145,5.83173,5.83173,0,0,0,1.59779,2.07281l1.16012.84966.62325-1.2955a13.64707,13.64707,0,0,0-.69211-13.45928c-.50419-.73062-.971-1.49858-1.43906-2.26655a28.0835,28.0835,0,0,0-2.95516-4.23666,7.43358,7.43358,0,0,0-1.36437-1.04341c-.37581-.24977-1.07608-.71195-1.15662-.761a1.17577,1.17577,0,0,1,.16107-1.1251c.96054-1.3632,4.38722-2.21987,6.49037-2.31324.99673-.04669,2.00162-.02568,3.00768-.00934,1.06092.01634,2.12183.03735,3.17691-.01167l1.31068-.056-.17973-1.30018c-.51937-3.77214-5.57535-6.041-8.64022-6.58491a30.64922,30.64922,0,0,0-5.38978-.50654c2.56067-3.3263,4.784-6.19042,8.95184-6.57557l5.18787-.47852L280.69088.747c-2.19186-.82166-7.9096-.96171-10.2777-.43884-3.15007.69094-7.0541,4.1713-8.66006,7.42524-.31162-.30345-.61624-.63025-.92786-.964a10.63459,10.63459,0,0,0-4.44674-3.25394,20.3623,20.3623,0,0,0-6.4472-.68627l-1.02473-.007a19.29805,19.29805,0,0,0-5.48549.48553,12.93724,12.93724,0,0,0-1.5336.56255,11.382,11.382,0,0,1-1.31885.48786l.426,2.34125c3.88419-.3268,6.67128,3.4827,9.12925,6.865.31746.43884.62908.866.9372,1.27684a16.82012,16.82012,0,0,0-10.63717,5.64888c-3.23877,3.82583-4.63465,9.26-3.92854,15.301l.19258,1.64565,1.49975-.70028c2.02263-.94537,3.57257-2.85245,5.07115-4.69884a21.4039,21.4039,0,0,1,2.90264-3.15123,22.59953,22.59953,0,0,1,6.90237-3.76515c-1.86623,4.12462-1.82538,10.7959-1.42389,12.69831.37115,1.753,3.27845,7.46493,6.299,7.80106l1.3667.15173-.03968-1.37488c-.095-3.18274,1.05187-6.88646,2.3929-10.33546a106.27959,106.27959,0,0,1-.38443,36.777l-.01736-.38428c-5.79593.25911-11.30243,2.15218-16.628,3.98457-1.14262.39215-2.28406.7843-3.42434,1.16012-1.78921.58823-3.54223,1.33519-5.23922,2.05647a42.99616,42.99616,0,0,1-7.40891,2.64237,33.7316,33.7316,0,0,1-5.9675.60457,33.79141,33.79141,0,0,0-6.89187.77263c-5.0268,1.2535-9.89954,3.62042-14.61122,5.908l-.56329.27267c.06886-10.30892-.03136-29.53918-1.52309-40.08925.07192.08957.13961.19053.212.27908.74346.91036,1.50793,1.69,2.24672,2.444l.719.73762a5.46842,5.46842,0,0,1,.73762,1.14145,5.84409,5.84409,0,0,0,1.59546,2.07281l1.16012.852.62441-1.29784a13.64529,13.64529,0,0,0-.6921-13.46161c-.50537-.73062-.97339-1.50092-1.4414-2.27122a27.96754,27.96754,0,0,0-2.95166-4.22966,7.38674,7.38674,0,0,0-1.362-1.04107c-.377-.2521-1.07959-.71662-1.16012-.76563a1.17579,1.17579,0,0,1,.16106-1.12511c.96288-1.36554,4.38839-2.21987,6.49154-2.31091,1.0084-.04668,2.02146-.028,3.03569-.00933,1.05275.01867,2.10433.03734,3.14657-.00934l1.31185-.05836-.17974-1.30017c-.52054-3.77682-5.57652-6.04337-8.64022-6.58492a28.09668,28.09668,0,0,0-5.391-.50653c2.56184-3.3263,4.78405-6.19276,8.953-6.57791l5.18787-.47852-4.87741-1.83c-2.18836-.82166-7.90377-.95938-10.2777-.43884-3.15006.69327-7.05409,4.17364-8.66006,7.42524-.31162-.30345-.6163-.63024-.92786-.964a10.63886,10.63886,0,0,0-4.44791-3.25394,20.16684,20.16684,0,0,0-6.446-.68394l-1.02823-.007a19.53054,19.53054,0,0,0-5.482.48319,13.27887,13.27887,0,0,0-1.52894.56022,11.00633,11.00633,0,0,1-1.32118.48786l.42367,2.34358c3.87952-.31746,6.67361,3.48737,9.13041,6.86969.31745.43651.62791.86367.936,1.2745a16.81514,16.81514,0,0,0-10.636,5.64421c-3.23994,3.82817-4.63582,9.2623-3.92971,15.30567l.19258,1.648,1.50092-.70261c2.02029-.94537,3.57023-2.85479,5.07-4.70118a21.39509,21.39509,0,0,1,2.90263-3.15123,22.61282,22.61282,0,0,1,6.90238-3.76514c-1.86624,4.12461-1.82539,10.79589-1.4239,12.69831.37115,1.753,3.27846,7.46492,6.30014,7.801l1.36787.15173-.04085-1.37487c-.096-3.18538,1.05056-6.88852,2.39158-10.33635,1.45307,8.5861,3.61561,29.37506-4.24789,50.6669l-.01692-.03677c-1.65265.761-3.317,1.49859-4.9988,2.18486-7.4976,3.05553-14.62056,3.303-22.48814,3.303H155.3721c-4.85873-.02567-9.87387-.00934-14.78629.2591l.13072,2.3856c4.84473-.26143,9.83068-.28244,14.65324-.25443H157.103c8.12435,0,15.49123-.26143,23.39033-3.48036,1.18419-.48334,2.349-1.01394,3.517-1.537.4333,1.82028,2.13219,4.50846,6.36039,4.50846,5.47965,0,9.72564-7.10079,9.903-7.4019l.15873-.27078.007-.31279c.00671-.337.041-2.15363.0674-4.9168l.2629.54476,1.35969-.65826c4.602-2.23388,9.36151-4.54478,14.14671-5.73758a31.53886,31.53886,0,0,1,6.41335-.705,36.13315,36.13315,0,0,0,6.38534-.65825,45.53445,45.53445,0,0,0,7.82673-2.77776c1.65031-.70261,3.35782-1.42856,5.05015-1.98644,1.15078-.37815,2.30156-.77264,3.45468-1.16946,5.00361-1.72063,10.17266-3.48285,15.44645-3.81737A87.06225,87.06225,0,0,1,256.78,86.41157l-.10738.27311.03151.29178c.18441,1.75769,1.7752,5.084,6.47054,5.084,5.47848,0,9.72564-7.10078,9.903-7.4019l.15872-.27077.007-.31279c.01167-.58137.10475-5.54413.09847-12.24342A68.819,68.819,0,0,0,280.531,70.478l.92436-.23109a75.48655,75.48655,0,0,1,14.45133-2.64937c2.36459.07,8.974.37814,11.1332.95937a61.5934,61.5934,0,0,1,7.773,3.63211c2.898,1.72266,5.14468,1.61761,8.23406,1.27448.30579-.035.73879-.10037,1.2605-.18207,1.97127-.30112,7.21866-1.1041,8.44764.07936.07119.0677.20425.19608.15756.59524-.12722,1.09476-1.93742,2.8898-3.66127,4.0966-2.88513,2.02146-6.35382,2.17085-9.70813,2.31558-.50187.02334-1.00373.035-1.50093.04435-3.53988.0817-7.19882.16806-9.76766,3.73012a7.47218,7.47218,0,0,0-1.159,3.20026,5.00451,5.00451,0,0,1-.7563,2.2152c-2.49531,3.20726-10.45743,4.169-14.73377,4.6825l-1.21031.14939c-4.155.52988-8.50133.69094-12.70414.845-7.0576.25912-14.35446.52988-21.29185,2.521-5.57651,1.599-11.46349,6.48221-14.82364,10.61382a25.52213,25.52213,0,0,0-5.636,14.41865c-.22175,2.83378-1.58845,5.83562-4.17947,9.17593-4.79221,6.18809-13.28421,8.00647-20.77714,9.61244l-1.60246.34547c-4.59847,1.00139-9.11647,2.41828-13.48612,3.79081l-2.50115.782a21.1126,21.1126,0,0,0-9.70463,5.57185c-2.67388,2.89446-4.623,7.85241-2.58051,11.90466a36.20059,36.20059,0,0,0,5.594,7.44625,44.528,44.528,0,0,1,4.4094,5.48082c3.60174,5.66288,4.53544,12.49756,2.43695,17.836a11.05068,11.05068,0,0,1-6.10873,6.5499c-9.73148,3.71845-21.97928,4.74786-30.34522,5.19837-13.62617.73062-27.48927,1.05274-40.89486,1.3632-10.43175.24276-21.21831.49252-31.83331.9337-3.36948.14-6.7238.36881-10.07811.5999-4.665.31746-9.48872.64658-14.25058.71428-2.42295.035-4.8424.21942-7.18132.39915a62.48394,62.48394,0,0,1-12.25947.14706c-2.19419-.26143-4.48759-.40849-6.91521-.56489-8.04148-.5182-16.35724-1.05274-22.02013-5.66522-3.34147-2.72173-7.27468-7.02608-8.52817-10.50878-4.21215-11.69458,9.99641-18.1161,23.64476-23.21877l1.78687-.66992c8.74409-3.32164,18.06124-4.93927,27.07144-6.50555,2.16968-.37815,4.3382-.754,6.50322-1.15546a40.59739,40.59739,0,0,1,7.43808-.56722,46.52528,46.52528,0,0,0,4.74465-.26362,91.59322,91.59322,0,0,1-5.85576,25.25175l-.10737.2731.03151.29178c.18441,1.75769,1.7752,5.084,6.47054,5.084,5.47964,0,9.72564-7.10079,9.903-7.4019l.15873-.27078.007-.31279c.01823-.91079.23663-12.54731-.042-24.82253a79.5215,79.5215,0,0,0,17.22442-7.04229c4.41989-2.34125,8.3426-4.59613,11.58487-8.471,4.05692-4.8459,1.14028-8.05082-1.43206-10.87993a19.97992,19.97992,0,0,0-2.17319-1.95844,12.07205,12.07205,0,0,1-2.54083-2.493,10.38119,10.38119,0,0,1-1.27917-7.62132,4.11414,4.11414,0,0,1,1.8499-2.675c10.40374-5.55784,12.99359-7.89676,14.3848-9.15259,1.06208-.957,1.34686-1.21614,4.61014-2.12416,1.19761-.33219,2.37947-.72931,3.55914-1.13415a95.09755,95.09755,0,0,1-6.28321,33.78561l-.10737.27311.03151.29178c.1844,1.75769,1.77519,5.084,6.47053,5.084,5.47965,0,9.72565-7.10078,9.90305-7.4019l.15873-.27077.007-.31279c.03035-1.51.61187-32.48544-1.43994-46.99688.07193.08958.13962.19083.21213.27924.74346.91035,1.50792,1.69,2.24671,2.444l.719.73762a5.46525,5.46525,0,0,1,.73762,1.14144,5.84432,5.84432,0,0,0,1.59546,2.07282l1.16012.852.62441-1.29784a13.64854,13.64854,0,0,0-.6921-13.46161c-.50536-.73062-.97221-1.49859-1.44023-2.26889a27.8042,27.8042,0,0,0-2.954-4.232,7.43393,7.43393,0,0,0-1.36437-1.04341c-.377-.24977-1.07726-.71428-1.15662-.761a1.17577,1.17577,0,0,1,.16106-1.1251c.96405-1.36554,4.38956-2.22221,6.49155-2.31558,1.00839-.042,2.01912-.02568,3.03569-.007,1.04924.01867,2.10315.03735,3.14656-.00934l1.31185-.05835-.17974-1.30018c-.52053-3.77681-5.57652-6.04337-8.64022-6.58491a28.18669,28.18669,0,0,0-5.39094-.50654c2.56067-3.3263,4.784-6.19276,8.953-6.57557l5.19253-.47852-4.88208-1.83c-2.18836-.82166-7.90493-.95705-10.27769-.44118-3.15007.69328-7.0541,4.17364-8.66006,7.42525-.31162-.30346-.61624-.63025-.92787-.96405a10.631,10.631,0,0,0-4.44674-3.25161,20.10717,20.10717,0,0,0-6.44719-.68626l-1.02474-.007a19.28343,19.28343,0,0,0-5.48548.48553,12.93724,12.93724,0,0,0-1.5336.56255,11.38271,11.38271,0,0,1-1.31885.48786l.426,2.34125c3.87368-.3268,6.67245,3.4827,9.12924,6.865.31746.43884.62908.866.9372,1.27684A16.81994,16.81994,0,0,0,108.0569,73.928c-3.23877,3.82583-4.63465,9.26-3.92854,15.301l.19257,1.648,1.50092-.70261c2.02146-.94537,3.57257-2.85478,5.07116-4.70117a21.39953,21.39953,0,0,1,2.90147-3.15124,22.62952,22.62952,0,0,1,6.90237-3.76281c-1.86623,4.12462-1.82538,10.7959-1.42389,12.69831.37114,1.753,3.28078,7.46493,6.30013,7.80106l1.36787.15173-.04085-1.37488c-.09585-3.18172,1.05012-6.884,2.39042-10.33182a105.92526,105.92526,0,0,1,1.4042,16.03308c-1.3918.48115-2.78374.96375-4.19844,1.35751-3.63209,1.01073-4.22966,1.44256-5.57068,2.65171-1.31535,1.18813-3.764,3.39866-13.90979,8.81645a6.34076,6.34076,0,0,0-3.03569,4.183,12.74923,12.74923,0,0,0,1.57912,9.51206,13.87524,13.87524,0,0,0,3.04036,3.05553,18.25115,18.25115,0,0,1,1.91642,1.71334c2.96566,3.261,3.85151,4.77354,1.369,7.738-2.97033,3.55039-6.52889,5.59286-10.87292,7.89676a78.42218,78.42218,0,0,1-16.16657,6.68529,193.99041,193.99041,0,0,0-1.33519-19.70689c.07193.08943.13962.19068.212.27894.74346.91036,1.50793,1.69,2.24671,2.444l.71895.73762a5.466,5.466,0,0,1,.73763,1.14145,5.84348,5.84348,0,0,0,1.59545,2.07281l1.16013.852.62441-1.29784a13.64526,13.64526,0,0,0-.69211-13.46161c-.50536-.73061-.97338-1.50092-1.4414-2.27122a27.96747,27.96747,0,0,0-2.95165-4.22966,7.47371,7.47371,0,0,0-1.36443-1.0434c-.37692-.24977-1.0772-.71428-1.15773-.761a1.18029,1.18029,0,0,1,.16107-1.12744c.96287-1.3632,4.38838-2.21987,6.49154-2.31091,1.00839-.04668,2.01912-.028,3.03569-.00933,1.05041.01867,2.10549.03734,3.14657-.00934l1.31184-.05836-.17973-1.30017c-.52054-3.77682-5.57652-6.04337-8.64022-6.58492a28.33475,28.33475,0,0,0-5.391-.50653c2.56184-3.3263,4.784-6.19276,8.953-6.57791l5.2007-.48085-4.89141-1.83c-2.1907-.81933-7.90727-.95938-10.27653-.43651-3.15007.69327-7.0541,4.17364-8.66006,7.42524-.31162-.30345-.61624-.63024-.92786-.964a10.63886,10.63886,0,0,0-4.44791-3.25394,20.44961,20.44961,0,0,0-6.446-.68394l-1.02824-.007a19.63615,19.63615,0,0,0-5.482.48319,13.27871,13.27871,0,0,0-1.52893.56022,11.00633,11.00633,0,0,1-1.32118.48786l.42366,2.34358c3.90053-.32913,6.67362,3.48737,9.13041,6.86969.31746.43651.62792.86368.936,1.2745a16.81516,16.81516,0,0,0-10.636,5.64421c-3.23994,3.82817-4.63582,9.2623-3.92971,15.30567l.19257,1.648,1.50093-.70261c2.02029-.94537,3.57023-2.85479,5.07-4.70118a21.39457,21.39457,0,0,1,2.90264-3.15123,22.61277,22.61277,0,0,1,6.90237-3.76514c-1.86623,4.12461-1.82538,10.79589-1.42389,12.69831.37115,1.75535,3.28079,7.46959,6.3013,7.80105l1.36671.14939-.04085-1.37253c-.096-3.18421,1.04968-6.88589,2.39012-10.3327a107.641,107.641,0,0,1,1.1715,24.67826,43.72341,43.72341,0,0,1-4.93766.29017,42.7875,42.7875,0,0,0-7.87342.60924c-2.15568.39682-4.316.77264-6.47754,1.14845-9.12107,1.58495-18.5526,3.2236-27.51028,6.6246l-1.7752.66759C15.3289,172.41694-4.46086,179.81417.90558,194.71134c1.50442,4.18064,5.93132,8.83513,9.26579,11.5522,5.89208,4.79629,14.29042,5.59373,21.95244,6.10158-.0623.03122-.14808.06229-.20658.09351-3.46052,1.84873-5.96634,4.80622-8.38929,7.668l-2.4743,2.88279a93.3839,93.3839,0,0,0-7.75321,9.80151c-4.14912,6.30013-6.48921,11.42848-6.17408,19.01245.112,2.69606.22759,5.48315,3.65426,7.1498l1.63981.80065c3.60875,1.76236,7.34121,3.58307,11.09935,5.14235,12.60727,5.23105,26.36883,7.03542,39.67638,8.7791l2.78943.36881c3.93087.51821,7.9166,1.33753,11.77278,2.1265,3.81066.782,7.75087,1.592,11.68524,2.12417a114.96386,114.96386,0,0,0,15.40721.84033c2.1405,0,4.27517-.02568,6.38767-.05369,2.095-.02568,4.1783-.05135,6.24178-.05135.964.028,2.10082.01867,3.21426.03735,7.9306.13772,17.7928.30812,23.51054-6.12507,4.88792-5.50182,3.79432-9.246,2.01446-11.41914-3.71379-4.53078-9.13041-6.36783-14.36847-8.14653-4.595-1.55928-8.9355-3.02985-12.1801-6.17175-2.54783-2.4673-3.69628-4.36271-3.7243-6.14841-.02334-1.49625.76564-3.04853,2.41128-4.74552a34.64613,34.64613,0,0,1,16.91163-9.06856,51.93166,51.93166,0,0,1,10.20416-1.0294c.9302-.03268,1.86624-.06536,2.81277-.11205,4.574-.22175,9.23312-.33846,13.73939-.45284,4.22148-.105,8.44414-.21242,12.66446-.40382,3.66827-.16107,7.43458-.13772,11.07951-.10738,4.742.03968,9.64861.0747,14.45133-.31279a113.5935,113.5935,0,0,0,18.44756-3.55973l1.68416-.40849c3.60758-.84266,9.05922-2.11716,9.9544-6.46585.85667-4.169-2.235-5.12836-4.0826-5.70259-.3338-.1027-.726-.19841-1.14151-.29644-.84377-.19842-2.256-.53455-2.51392-.99906a.74626.74626,0,0,1,.03968-.51821c.29645-.87534,1.99461-2.60268,10.0291-4.358,2.50931-.54621,5.02563-1.06441,7.54078-1.58262,3.19326-.65592,6.38651-1.31418,9.57042-2.03313,3.85851-.87067,7.86758-1.55927,11.74477-2.22687a143.89677,143.89677,0,0,0,19.37192-4.26c3.99273-1.2745,11.2254-4.02658,14.8003-8.13252,2.7871-3.20726.24743-6.83468-1.11693-8.78378-4.61014-6.58024-11.51485-9.75249-18.19313-12.81735-2.34125-1.07609-4.76187-2.18719-7.03426-3.42668-2.73691-1.49625-5.84729-3.52471-5.6092-5.98034.524-5.39212,7.13113-9.67779,10.68035-11.977.87768-.56956,2.228-1.30018,3.79316-2.14751,7.80922-4.22965,20.87985-11.30476,16.66069-20.1679-.54271-1.13911-1.98994-2.01679-3.52238-2.94349a15.84612,15.84612,0,0,1-2.2047-1.49858,6.47087,6.47087,0,0,1,1.44957-.55089,26.82709,26.82709,0,0,1,6.44369-.52987c4.64632-.04435,9.91472-.09337,12.78468-3.5714,2.19886-2.661,2.99251-7.11712,2.06931-11.62689a13.39581,13.39581,0,0,0-3.69147-7.18525c.02028-.02524.05121-.04406.07105-.06959a7.067,7.067,0,0,0,1.21965-3.24461,5.37545,5.37545,0,0,1,.747-2.23854c1.87323-2.598,4.65916-2.66338,7.88392-2.73807.51353-.01167,1.03057-.02335,1.54877-.04435,3.52588-.15406,7.521-.32446,10.9768-2.74975,1.30718-.915,4.37905-3.31,4.66383-5.77726A2.96627,2.96627,0,0,0,334.41359,71.64045ZM187.482,41.75508a41.42578,41.42578,0,0,0-3.33331,11.31643,13.60458,13.60458,0,0,1-2.97383-5.05832c-.71545-3.387.39916-12.45554,2.90147-13.13948l-.49953-2.33425a25.18088,25.18088,0,0,0-11.71792,5.1727,23.40893,23.40893,0,0,0-3.25978,3.50837,25.44953,25.44953,0,0,1-2.68439,2.98317,16.67826,16.67826,0,0,1,3.53055-11.48216c2.584-3.05087,6.45187-4.78988,11.18222-5.02331l2.49764-.12138-1.66437-1.86739c-.699-.78431-1.43084-1.79037-2.20581-2.85712-1.788-2.46264-3.86785-5.32442-6.60008-6.83a25.30668,25.30668,0,0,1,3.422-.119l1.21848.007a17.76859,17.76859,0,0,1,5.5205.56256,8.47341,8.47341,0,0,1,3.45819,2.61669,14.11553,14.11553,0,0,0,2.5595,2.31557l1.4519.95237.37-1.697c.59873-2.73341,4.64632-6.70863,7.46726-7.32954a20.11939,20.11939,0,0,1,4.21215-.24743,23.83218,23.83218,0,0,0-5.63838,5.82161c-.56489.73529-1.13444,1.47525-1.73434,2.1942l-2.4568,2.94815,3.69628-1.03174a18.24217,18.24217,0,0,1,7.39607.16573c2.06814.36648,4.87507,1.6013,6.09822,3.22594-.426-.00234-.85317-.00934-1.27917-.01634-1.06442-.01868-2.1265-.03735-3.18158.00933-1.72151.077-6.57441.82166-8.3391,3.32164a3.56492,3.56492,0,0,0-.49369,3.20492c.23225.75863.957,1.2815,2.12416,2.05647a8.59512,8.59512,0,0,1,.90452.64659,25.66944,25.66944,0,0,1,2.68789,3.87718c.49253.80765.98505,1.6153,1.51609,2.38561a11.06616,11.06616,0,0,1,1.24766,9.09189,6.57222,6.57222,0,0,0-.97922-1.40988l-.73879-.761c-.6921-.70261-1.40755-1.43089-2.10315-2.28056-.78781-.964-1.54411-1.99811-2.30857-3.04152-.32169-.43943-.653-.879-.981-1.319-1.29624-3.533-2.88893-5.35053-4.871-5.539-.07572-.006-.14371.014-.21811.013-.40733-.32592-.7954-.67241-1.2373-.96069l-.99322-.64659-.65476.98739a13.30541,13.30541,0,0,0-1.70765,3.80964l-.18309.31031.0426.1634-.00408.014A12.94485,12.94485,0,0,1,187.482,41.75508ZM198.055,94.3947c-1.18,1.88374-4.41873,5.964-7.68434,5.964-3.10338,0-3.86785-1.95144-4.04642-2.69839,10.39908-26.69913,5.06415-53.07147,4.14679-57.105a4.65654,4.65654,0,0,1,1.52952-1.37108,29.88052,29.88052,0,0,1,3.63253,4.11134C198.69283,52.25788,198.12225,90.48046,198.055,94.3947Zm62.23106-63.33048A41.48914,41.48914,0,0,0,256.95274,42.383a13.6052,13.6052,0,0,1-2.97383-5.05832c-.71662-3.387.398-12.45554,2.90147-13.13948l-.49953-2.33425a25.16537,25.16537,0,0,0-11.71793,5.1727,23.49791,23.49791,0,0,0-3.25861,3.506,25.67333,25.67333,0,0,1-2.68555,2.9855A16.67394,16.67394,0,0,1,242.24814,22.033c2.584-3.05319,6.45187-4.78987,11.18455-5.02563l2.49648-.12372-1.66432-1.86506c-.70027-.78431-1.43206-1.7927-2.207-2.85945-1.7892-2.4603-3.86785-5.32209-6.60008-6.82535a24.96093,24.96093,0,0,1,3.42667-.12138l1.21381.007a17.62252,17.62252,0,0,1,5.52166.56488,8.46571,8.46571,0,0,1,3.45819,2.6167,14.14685,14.14685,0,0,0,2.55834,2.31557l1.45307.95237.37-1.697c.59873-2.73574,4.64515-6.70863,7.46842-7.32954A19.81008,19.81008,0,0,1,275.14,2.395a23.81712,23.81712,0,0,0-5.63954,5.82161c-.56489.73529-1.13444,1.47525-1.73435,2.19419L265.30935,13.359l3.69628-1.03174a18.06045,18.06045,0,0,1,7.3949.1634c2.06931.36881,4.87624,1.606,6.09939,3.22829-.43534-.00236-.87184-.00936-1.30835-.0187-1.05041-.01634-2.10316-.03735-3.15357.01167-1.72267.077-6.57791.824-8.3391,3.324a3.56336,3.56336,0,0,0-.49253,3.20259c.23226.75863.957,1.2815,2.12184,2.05414a8.763,8.763,0,0,1,.90568.64658,25.846,25.846,0,0,1,2.69256,3.88419c.49136.80765.98272,1.613,1.51259,2.38093a11.065,11.065,0,0,1,1.24649,9.08957,6.52408,6.52408,0,0,0-.97805-1.40989l-.74346-.7633c-.68977-.70261-1.404-1.42856-2.09849-2.27822-.78664-.96405-1.54293-1.99579-2.3074-3.0392-.32183-.43971-.6533-.87942-.98155-1.31972-1.29653-3.53186-2.88907-5.34981-4.87041-5.5383-.07732-.00729-.14633.0124-.22219.01036-.40645-.3249-.79365-.67066-1.23438-.95806l-.99322-.64659-.65476.98739a13.30312,13.30312,0,0,0-1.70969,3.81314l-.18105.30681.04216.16135-.00481.016A12.98976,12.98976,0,0,1,260.28605,31.06422Zm10.573,52.642c-1.18,1.88374-4.4199,5.964-7.68434,5.964-3.10338,0-3.86785-1.95143-4.04642-2.69839,10.39791-26.69679,5.06532-53.06679,4.14679-57.10271a4.701,4.701,0,0,1,1.512-1.38916,29.80476,29.80476,0,0,1,3.65047,4.12636C271.49642,41.57344,270.92628,79.79223,270.859,83.70618ZM138.492,137.14179c-1.18,1.88373-4.41873,5.964-7.68435,5.964-3.10338,0-3.86784-1.95143-4.04641-2.69839,10.39907-26.6968,5.06415-53.06913,4.14679-57.10271a4.74168,4.74168,0,0,1,1.52353-1.37648,29.85614,29.85614,0,0,1,3.639,4.116C139.12938,95.01138,138.55924,133.22784,138.492,137.14179ZM127.919,84.50216a41.489,41.489,0,0,0-3.3333,11.31877,13.60537,13.60537,0,0,1-2.97384-5.05832c-.71544-3.387.39916-12.45555,2.90147-13.13948l-.49952-2.33425a25.18947,25.18947,0,0,0-11.7191,5.17036,23.61433,23.61433,0,0,0-3.25744,3.506,25.485,25.485,0,0,1-2.68555,2.98551A16.67733,16.67733,0,0,1,109.88111,75.471c2.584-3.05319,6.45186-4.78987,11.18455-5.02563l2.49648-.12372-1.66432-1.86506c-.70027-.78431-1.43206-1.7927-2.207-2.85946-1.7892-2.46029-3.86785-5.32208-6.60009-6.82534a25.39148,25.39148,0,0,1,3.42668-.12138l1.21381.007a17.41125,17.41125,0,0,1,5.52283.56488,8.44428,8.44428,0,0,1,3.457,2.61436,14.10816,14.10816,0,0,0,2.5595,2.31558l1.4519.95237.37-1.697c.59874-2.7334,4.64632-6.70863,7.46726-7.32954a19.06519,19.06519,0,0,1,4.211-.24509,23.76653,23.76653,0,0,0-5.63721,5.82161c-.56489.733-1.13445,1.47291-1.73435,2.19186l-2.45329,2.94349,3.69161-1.02707a18.29194,18.29194,0,0,1,7.39723.16573c2.06814.36647,4.87508,1.60129,6.09822,3.22593-.426-.00234-.85316-.00934-1.27916-.01634-1.06442-.021-2.1265-.035-3.18158.00934-1.72035.077-6.57325.82165-8.33911,3.324a3.56862,3.56862,0,0,0-.49369,3.20725c.23226.754.95588,1.27684,2.12067,2.04947a8.75824,8.75824,0,0,1,.90685.64892,25.70387,25.70387,0,0,1,2.69022,3.87952c.49253.80765.985,1.6153,1.51493,2.38327a11.07057,11.07057,0,0,1,1.24765,9.0919,6.57233,6.57233,0,0,0-.97921-1.40989l-.73879-.761c-.69211-.70261-1.40755-1.4309-2.10316-2.28057-.78664-.964-1.54294-1.99578-2.3074-3.03919-.32184-.43956-.65345-.87942-.98156-1.31972-1.29638-3.5342-2.88906-5.35214-4.8704-5.5383-.07762-.00787-.14721.012-.22351.00949-.406-.32446-.79277-.67008-1.23306-.95719l-.99206-.64659-.65592.98739a13.2627,13.2627,0,0,0-1.71042,3.815l-.17916.30491.04129.15989-.00511.01751A12.98549,12.98549,0,0,1,127.919,84.50216Zm-45.35327,99.565c-1.18,1.88374-4.41873,5.964-7.68434,5.964-3.10339,0-3.86785-1.95143-4.04642-2.69839,10.39907-26.6968,5.06415-53.07147,4.14679-57.105a4.69363,4.69363,0,0,1,1.52835-1.3721,29.83544,29.83544,0,0,1,3.63384,4.11309C83.20328,141.932,82.633,180.15308,82.56574,184.06717Zm-10.573-52.63962A41.40887,41.40887,0,0,0,68.65946,142.744a13.58712,13.58712,0,0,1-2.97383-5.05831c-.71545-3.387.39915-12.45555,2.90147-13.13949l-.49953-2.33424a25.18094,25.18094,0,0,0-11.71793,5.17269,23.40939,23.40939,0,0,0-3.25977,3.50837,25.44873,25.44873,0,0,1-2.68439,2.98317A16.67826,16.67826,0,0,1,53.956,122.394c2.584-3.05087,6.45186-4.78986,11.18222-5.0233l2.49764-.12139-1.66432-1.86739c-.6991-.78431-1.43089-1.79037-2.20586-2.8571-1.788-2.46266-3.86785-5.32444-6.60009-6.83a25.30689,25.30689,0,0,1,3.422-.11905l1.21848.007a17.65868,17.65868,0,0,1,5.52049.56256,8.47328,8.47328,0,0,1,3.45819,2.61669,14.1162,14.1162,0,0,0,2.5595,2.31557l1.45191.95238.37-1.697c.59873-2.73341,4.64632-6.70863,7.46725-7.32954a20.40779,20.40779,0,0,1,4.211-.24743,23.84887,23.84887,0,0,0-5.63721,5.82161c-.56489.73529-1.13445,1.47525-1.73435,2.1942L77.01607,113.72l3.69628-1.03176a18.24194,18.24194,0,0,1,7.39606.16574c2.06815.36647,4.87508,1.60129,6.09823,3.22593-.426-.00234-.85317-.00934-1.27917-.01634-1.06442-.01868-2.1265-.03735-3.18158.00933-1.72151.077-6.57324.82166-8.3391,3.324a3.5664,3.5664,0,0,0-.4937,3.20724c.23226.754.95705,1.27917,2.12184,2.04947a8.85259,8.85259,0,0,1,.90685.64892,25.66976,25.66976,0,0,1,2.68789,3.87719c.49252.80765.98505,1.6153,1.51609,2.3856a11.0662,11.0662,0,0,1,1.24766,9.09189,6.57222,6.57222,0,0,0-.97922-1.40988l-.73879-.761c-.6921-.70261-1.40755-1.43089-2.10316-2.28056-.78781-.964-1.54294-1.99578-2.3074-3.04152-.32227-.43957-.654-.87958-.98257-1.32-1.2961-3.53245-2.88864-5.34951-4.87056-5.538-.0763-.006-.14472.01429-.21971.01327-.40689-.32519-.79437-.67124-1.23569-.95864l-.99206-.64659-.65592.98739a13.27521,13.27521,0,0,0-1.70794,3.80847l-.18163.30914.04187.16208-.00453.01532A13.02949,13.02949,0,0,1,71.99277,131.42755Zm237.53307-32.6678c.76914,3.76047.15289,7.53728-1.571,9.6241-2.16268,2.619-6.63743,2.66338-10.96513,2.70306a28.3575,28.3575,0,0,0-7.0716.61858c-1.44607.41082-3.1314,1.06441-3.32747,2.514-.22059,1.62931,1.58495,2.72407,3.49553,3.88185a9.58421,9.58421,0,0,1,2.60152,1.92576c3.24461,6.81367-8.57719,13.21418-15.64063,17.03768-1.60829.87067-2.99717,1.62463-3.95421,2.24321-3.88769,2.521-11.12386,7.21282-11.75878,13.75339-.4225,4.3417,4.6685,7.12179,6.84285,8.30759,2.34475,1.27916,4.80388,2.40894,7.18132,3.50137,6.683,3.06953,12.99475,5.96867,17.23258,12.019,2.09265,2.98784,2.42529,4.51677,1.27217,5.84262-3.3123,3.80249-10.7002,6.45887-13.72421,7.42291a141.87559,141.87559,0,0,1-19.0498,4.183c-3.90753.67227-7.94812,1.36554-11.86615,2.25255-3.16874.71428-6.348,1.36787-9.5249,2.02146-2.52566.52054-5.05015,1.03874-7.5688,1.58963-4.91359,1.07141-10.69436,2.71473-11.78445,5.922a2.9403,2.9403,0,0,0,.13422,2.44629c.76913,1.39122,2.591,1.82072,4.05459,2.16852.35714.084.69677.1634.98388.2521,2.38677.74,2.79877,1.23482,2.44863,2.93882-.58706,2.85011-5.14235,3.91453-8.1582,4.61947l-1.72267.41783a112.20838,112.20838,0,0,1-18.05541,3.49671c-4.69884.37348-9.54941.3408-14.24125.30345-3.67877-.03268-7.47659-.06069-11.20556.112-4.20514.18908-8.41146.29412-12.61661.39916-4.52027.11438-9.1946.23109-13.79657.45751-.93487.04435-1.86039.077-2.78009.10971a53.8965,53.8965,0,0,0-10.664,1.08776,37.07312,37.07312,0,0,0-18.08342,9.73382c-2.11016,2.17552-3.11855,4.28334-3.08588,6.44719.049,3.16524,2.40545,5.84729,4.45258,7.82907,3.62976,3.513,8.43131,5.14235,13.07413,6.718,5.14585,1.746,10.00692,3.394,13.2877,7.39723.64425.789,2.60736,3.18392-1.95376,8.31693-4.986,5.61387-14.24942,5.45747-21.6805,5.32209-1.1041-.01868-2.17318-.03735-3.19092-.03735-2.02729-.05136-4.20981.02567-6.33748.05135-7.11595.098-14.47234.18207-21.4424-.7633-3.855-.52287-7.75554-1.32352-11.52768-2.09849-3.89586-.79831-7.92483-1.62463-11.93968-2.15684l-2.79176-.36648c-13.15349-1.725-26.75515-3.50837-39.07181-8.618-3.69045-1.53127-7.38907-3.33564-10.9663-5.08166l-1.64214-.80065c-1.95844-.9547-2.18953-2.15684-2.31208-5.10033-.28944-6.97473,1.80905-11.5662,5.78194-17.59789a91.80548,91.80548,0,0,1,7.56413-9.55408l2.49181-2.90147c2.3821-2.81511,4.63348-5.47148,7.69018-7.10312a29.43062,29.43062,0,0,1,5.00871-1.77286c.77074.06653,1.54673.12926,2.28581.21592a41.16976,41.16976,0,0,0,4.83773.2661c2.66571,0,5.30224-.20308,7.88392-.40149,2.30391-.17507,4.68484-.35947,7.03309-.39215,4.82606-.07,9.68246-.40149,14.379-.72128,3.33331-.22643,6.66778-.45518,10.01626-.5929,10.59165-.44118,21.3677-.69094,31.789-.9337,13.4231-.31279,27.3037-.63492,40.96722-1.36787,8.527-.45751,21.02457-1.51259,31.07-5.35243a13.20811,13.20811,0,0,0,7.4801-7.90843c2.37276-6.034,1.3597-13.695-2.6447-19.99284a46.3051,46.3051,0,0,0-4.644-5.78893,33.95832,33.95832,0,0,1-5.24272-6.93039c-1.46007-2.89913.00233-6.82534,2.20236-9.20394,2.02379-2.18719,4.61364-3.65776,8.65889-4.91359l2.507-.78431c4.31952-1.35619,8.78611-2.75674,13.27953-3.73713l1.59429-.34313c7.89326-1.69,16.83927-3.60641,22.166-10.48311,2.88513-3.72312,4.41407-7.1428,4.67317-10.4551a23.18173,23.18173,0,0,1,5.10617-13.09746c3.024-3.71612,8.57836-8.37528,13.62967-9.82485,6.65727-1.91175,13.80591-2.17552,20.71995-2.43,4.2565-.1564,8.65656-.31746,12.9189-.86134l1.194-.14706c4.15758-.50026,10.63381-1.30937,14.45118-3.91891A10.91769,10.91769,0,0,1,309.52584,98.75975Z"/>
    </g>
  </g>
</svg>
