<svg xmlns="http://www.w3.org/2000/svg" viewBox="0 0 425.68863 230.80781">
  <defs>
    <style>
      .cls-1 {
        fill: #fff;
      }
    </style>
  </defs>
  <g id="Layer_2" data-name="Layer 2">
    <g id="Layer_4" data-name="Layer 4">
      <path class="cls-1" d="M417.09549,181.42776a38.192,38.192,0,0,0-9.65016-.57264c-1.99508.04581-3.88022.09391-5.69664-.04124l-.48331-.03435c-5.69664-.41918-11.0749-.81316-16.602-1.33082l-1.00785-.08017a12.08963,12.08963,0,0,1-3.8367-.67572,5.56619,5.56619,0,0,1-1.47971-1.31479,8.215,8.215,0,0,0-1.85078-1.66295,14.12223,14.12223,0,0,0-5.72642-1.46138l-1.088-.126a43.324,43.324,0,0,1-6.20515-1.44535c-1.23-.35275-2.46007-.70091-3.69468-.98952-4.911-1.14071-9.28825-5.06445-12.15375-7.91392a30.74655,30.74655,0,0,1-3.19076-3.9581c-.50622-.70091-1.01472-1.4064-1.5553-2.10274a20.515,20.515,0,0,0-2.9617-2.89069c-.54974-.46728-1.09718-.93226-1.60569-1.42474l-1.23232-1.20713c-2.59064-2.5494-4.82852-4.75292-8.39035-6.54873-.23407-.11811-.48188-.19684-.72053-.30293-.28246-13.6021-.01718-33.81235.38324-49.67639,2.39307,5.15521,4.85457,11.20574,5.04555,14.6635l.1947,3.532,1.95385-2.948c5.3187-8.03073,3.53435-20.02872,2.27224-25.65207,6.0952,4.31085,16.231,12.23851,16.83338,16.28136l.94143,6.33571,1.36288-6.25783c1.38809-6.36778-.67342-13.30133-5.6577-19.02775-4.30855-4.94533-10.06246-8.088-15.58044-8.64,6.1685-5.86385,13.91291-12.64851,19.5248-11.14819l.8017-2.19436c-7.41-3.461-16.56539-3.74508-23.33172-.7284a14.78056,14.78056,0,0,0-5.55234,4.0543,17.33411,17.33411,0,0,0-6.8236-10.3923,15.59,15.59,0,0,0-13.02875-1.76374l-2.68912.73756,2.40738,1.40641a27.638,27.638,0,0,1,12.53857,16.06146,31.2887,31.2887,0,0,0-13.3888-.22233l.05655-.25955c1.38809-6.36778-.67342-13.30132-5.6577-19.02774-4.30856-4.94534-10.06246-8.088-15.58044-8.64,6.1685-5.86386,13.91291-12.64852,19.5248-11.14819l.8017-2.19437c-7.41-3.461-16.56539-3.74508-23.33172-.7284a14.7805,14.7805,0,0,0-5.55234,4.05431,17.33415,17.33415,0,0,0-6.8236-10.39231,15.59,15.59,0,0,0-13.02875-1.76374l-2.68912.73757,2.40738,1.4064A27.63811,27.63811,0,0,1,268.83622,37.8703c-4.89265-1.127-17.75648-2.84717-25.62916,7.57491L241.496,47.71287l2.81282-.39856c9.91816-1.4087,16.42795.49248,19.51564,1.80039-3.91229,2.15771-10.98786,8.34225-9.964,24.59611l.20615,3.2801,1.9172-2.66851a100.73605,100.73605,0,0,1,11.93343-13.85393,107.87193,107.87193,0,0,0-2.06795,16.57741c-.16635,4.41178-.12741,16.81749-.03937,28.73574-8.12307-1.69845-16.65815-1.93453-24.65753-1.92164-7.7686.012-15.26491-.1768-22.48421-2.41412-.01818-12.05711.204-26.165.50006-37.89529,2.39307,5.15521,4.85457,11.20574,5.04555,14.6635l.19469,3.532,1.95386-2.948c5.3187-8.03073,3.53434-20.02872,2.27224-25.65206,6.0952,4.31085,16.231,12.2385,16.83338,16.28135l.94143,6.33571,1.36288-6.25783c1.38809-6.36778-.67342-13.30132-5.6577-19.02774-4.30856-4.94534-10.06246-8.088-15.58044-8.64,6.1685-5.86386,13.91291-12.64852,19.5248-11.14819l.8017-2.19437c-7.41-3.461-16.56539-3.74508-23.33172-.7284a14.7805,14.7805,0,0,0-5.55234,4.05431,17.33415,17.33415,0,0,0-6.8236-10.39231,15.59,15.59,0,0,0-13.02875-1.76374l-2.68912.73757,2.40738,1.4064A27.63811,27.63811,0,0,1,210.38108,37.8703c-4.86359-1.12023-17.59943-2.815-25.48371,7.40255a23.54739,23.54739,0,0,0-6.01861-13.79208c-4.30856-4.94534-10.06246-8.088-15.58044-8.64,6.1685-5.86386,13.91291-12.64852,19.5248-11.1482l.8017-2.19436c-7.41-3.461-16.56539-3.74508-23.33172-.7284a14.78048,14.78048,0,0,0-5.55234,4.0543,17.33416,17.33416,0,0,0-6.8236-10.3923A15.59,15.59,0,0,0,134.88841.66805l-2.68912.73756L134.60667,2.812a27.63808,27.63808,0,0,1,12.53857,16.06146c-4.89265-1.127-17.75648-2.84717-25.62916,7.57491l-1.711,2.26766,2.81281-.39856c9.91816-1.4087,16.428.49247,19.51564,1.80039-3.91229,2.15771-10.98786,8.34225-9.964,24.59611l.20615,3.28009,1.9172-2.66851a100.73648,100.73648,0,0,1,11.93343-13.85392,107.87175,107.87175,0,0,0-2.06795,16.57741c-.1947,5.16093-.10837,21.25861.00887,34.72028a27.99547,27.99547,0,0,0-16.45142,1.46152,14.7805,14.7805,0,0,0-5.55234,4.05431,17.33415,17.33415,0,0,0-6.8236-10.39231,15.2944,15.2944,0,0,0-11.78053-2.04447c-7.03118-2.68383-15.22254-2.72406-21.423.04023a14.78048,14.78048,0,0,0-5.55234,4.0543,17.33416,17.33416,0,0,0-6.8236-10.3923,15.59,15.59,0,0,0-13.02875-1.76374l-2.68912.73756,2.40738,1.40641A27.638,27.638,0,0,1,68.9885,95.99231c-4.89265-1.127-17.75648-2.84718-25.62916,7.57491l-.26614.35274c-1.10863.07688-2.21412.19542-3.31087.37752-.82532-11.36408-.53356-39.12633-.016-59.62963,2.39307,5.15521,4.85457,11.20574,5.04555,14.6635l.19469,3.532,1.95386-2.948c5.3187-8.03073,3.53434-20.02872,2.27224-25.65206,6.0952,4.31084,16.231,12.2385,16.83338,16.28135l.94142,6.33571,1.36289-6.25783c1.38809-6.36778-.67342-13.30133-5.6577-19.02774-4.30856-4.94534-10.06246-8.088-15.58044-8.64C53.30069,17.091,61.0451,10.30633,66.657,11.80665l.8017-2.19436c-7.41-3.461-16.56539-3.74508-23.33172-.7284a14.78048,14.78048,0,0,0-5.55234,4.0543A17.33416,17.33416,0,0,0,31.751,2.54589,15.59,15.59,0,0,0,18.72228.78215l-2.68912.73756,2.40738,1.40641A27.63808,27.63808,0,0,1,30.97911,18.98758c-4.89265-1.127-17.75648-2.84717-25.62916,7.57491L3.63889,28.83015l2.81282-.39856c9.91816-1.4087,16.428.49247,19.51564,1.80039-3.91229,2.15771-10.98786,8.34224-9.964,24.59611l.20615,3.28009,1.9172-2.66851A100.73648,100.73648,0,0,1,30.06016,41.58575a107.87175,107.87175,0,0,0-2.06795,16.57741c-.27086,7.18393.00215,35.54975.14574,48.50219A92.72176,92.72176,0,0,0,16.182,110.25982a90.53867,90.53867,0,0,0-10.1495,4.44829l-.81315.42146A11.62008,11.62008,0,0,0,1.007,118.1577c-2.1119,2.80824-.859,6.65868,3.35339,10.2961C7.4,131.08337,11.452,132.854,15.02989,134.41615l.76046.33442c4.036,1.77061,12.92568,3.02813,13.30133,3.08082l.16263.01145c.5841,0,1.26439-.04352,1.9905-.09162,1.98364-.12828,4.70254-.30694,5.81346.66655a1.84279,1.84279,0,0,1,.591,1.39725c.1695,2.6937.40314,3.28009,2.93651,4.62236C45.67539,147.12422,51.537,147.706,56.945,147.706c.98036,0,1.947-.02061,2.8907-.0481l1.48887-.04123c1.51392-.04023,3.04072-.08332,4.56223-.17981.0033,6.17924.04954,13.59237.10709,20.50674-.392-.08647-.78323-.17266-1.18079-.26385a28.88686,28.88686,0,0,0-6.48918-.96891c-1.45222.071-8.55756,1.356-10.48622,4.09554a2.59186,2.59186,0,0,0-.38481,2.45777c.46957,1.31479,2.5013,2.12794,5.54546,3.216.70321.252,1.30563.4627,1.63318.62533a52.50159,52.50159,0,0,0,11.14361,3.85273c.11424.02835.2292.0743.344.11238.03708,3.48238.06929,6.22576.0879,7.75944-.11939.05555-.22848.10837-.354.16578-.51309.23364-1.03534.47415-1.54155.73986a25.15415,25.15415,0,0,0-4.28107,3.03729,19.864,19.864,0,0,1-4.67047,3.1564,30.46239,30.46239,0,0,1-8.09258,1.89659c-.536.071-1.09718.11224-1.66753.15347-1.86452.13743-3.97872.29319-5.6577,1.48429-2.17833,1.55071-3.34881,4.27419-4.29023,6.98623-.378,1.09031-1.28043,1.27126-3.25261,1.42244-1.42931.11-3.04875.23364-4.04972,1.43618a4.3347,4.3347,0,0,0-.76276,3.3763c.62074,5.89821,7.1626,7.03892,11.48948,7.79251l.3894.06643c8.69958,1.52781,15.67206,1.44306,23.728,1.36289,1.87826-.02062,3.81838-.04123,5.85011-.04352a139.00024,139.00024,0,0,1,16.94562,1.45451,122.475,122.475,0,0,0,17.19758,1.4797c.54973,0,1.07656.00916,1.58278.016,3.47937.06642,6.47543.10536,9.44172-2.84031,2.07525-2.05922,4.0062-2.01341,6.91751-1.947.53371.01145,1.0926.0252,1.67441.0252a12.00935,12.00935,0,0,0,3.63513-.50851,6.23289,6.23289,0,0,1,3.62826-.16721,51.81558,51.81558,0,0,1,6.2899,2.32492,52.51219,52.51219,0,0,0,6.64722,2.43946c5.49278,1.47742,11.178,1.81642,16.67533,2.14168,2.63416.158,5.35535.31839,8.001.60471,2.73493.29548,5.51568.73756,8.20481,1.16361,3.64658.5818,7.41457,1.18193,11.18484,1.43389,3.03729.20386,6.07459.38482,9.11417.56577l5.08735.30694c4.88807.30006,9.54708.45124,14.071.45124,2.88153,0,5.7058-.06184,8.50029-.18095,3.30987-.1466,7.10076-.64365,10.11744-3.24574,1.61485-1.395,2.31347-2.83343,2.08212-4.2742-.25883-1.59652-1.67669-2.96857-4.1024-3.96726-1.85536-.76734-3.86877-1.39954-5.999-2.06838-4.45286-1.39954-9.0569-2.84489-12.18353-5.57982a9.85628,9.85628,0,0,1-2.07754-2.84718c-.97349-1.75-2.07755-3.73592-5.305-4.533a80.00976,80.00976,0,0,0-11.17768-1.82544c-1.00284-7.97247-.87915-33.37142-.44165-54.62274a13.24829,13.24829,0,0,1,3.61036.57308,25.40569,25.40569,0,0,1,1.61,6.43892l.1947,3.53206,1.95385-2.948a17.94207,17.94207,0,0,0,1.07843-1.89745,15.2895,15.2895,0,0,0,3.59347,4.06089,33.06289,33.06289,0,0,0,11.64982,5.2202c1.70877.45583,3.4015.95517,5.09423,1.45451,3.11746.91852,6.34029,1.86682,9.62725,2.53566.79483.16034,1.60111.34588,2.41655.53141,1.088.24968,2.19207.50164,3.303.71008a5.039,5.039,0,0,1-.44437.41,17.11058,17.11058,0,0,1-4.54907,2.59063,43.421,43.421,0,0,1-5.0026,1.14529c-6.338,1.21629-14.22671,2.72806-15.06735,9.56541a8.46245,8.46245,0,0,0,2.12565,7.30233c4.67962,4.785,15.25976,3.74049,21.15339,3.161a77.692,77.692,0,0,1,11.0245-.17867,59.86965,59.86965,0,0,1,12.5775,2.06839,105.59715,105.59715,0,0,0,21.00222,3.161c6.464.37336,13.01271,1.33082,19.34384,2.25621,7.95514,1.16132,16.18286,2.36386,24.43119,2.44632,1.59195.016,3.18389.0504,4.77584.08476,2.13251.04581,4.2971.09162,6.47543.09162,2.6227,0,5.266-.06643,7.88642-.28632.48331-.03894.97808-.0733,1.47742-.10537,3.00523-.19928,6.41359-.42375,9.05-2.40968l1.072-.8246c2.54253-1.97676,4.72773-3.69927,7.98034-3.26864a38.17473,38.17473,0,0,1,5.93257,1.43161,40.67954,40.67954,0,0,0,6.425,1.537c1.13612.1443,2.38219.40314,3.68323.66884,4.21693.87042,9.00422,1.85078,12.73785-.1947,1.51406-.82918,2.92963-1.78664,4.2971-2.712,3.14495-2.12794,6.11352-4.139,10.00062-4.47348a33.56385,33.56385,0,0,1,4.572.4146c6.0471.7765,12.90506,1.66066,13.71363-2.15543C426.36313,185.8119,423.35561,182.90975,417.09549,181.42776ZM331.8211,169.40242c.00229.00458.24967.47873.06413.75131-.08246.12369-.97807,1.19109-6.20972.55431-3.08769-.37565-5.21792-1.36288-6.16392-2.854a4.1563,4.1563,0,0,1-.43521-3.29842l.06643-.1947-.00229-.20615c-.00229-.15519-.07029-5.55262-.14474-12.94672a.94679.94679,0,0,1-.05726-.14559c-.56176-3.03515-.26256-6.10766-.2554-9.17072a1.07706,1.07706,0,0,1,.22147-.65424c-.1048-12.833-.1685-27.191.01374-31.98763a108.76472,108.76472,0,0,1,2.41426-18.03822l1.12324-2.083c.74672-.62847,1.414-1.17219,1.88886-1.5384.43163.8196,1.0591,2.03116,1.77834,3.46821-.22276,7.87525-.92124,35.05985-.50522,53.37881-.0617-.02019-.12283-.03951-.18453-.05984a17.27281,17.27281,0,0,1,.29176,3.4914c0,.00916-.00759.01531-.00773.02448.24437,7.32394.71079,12.69618,1.53411,13.79451A47.185,47.185,0,0,1,331.8211,169.40242Zm-15.2622-28.21535c-.57121-.2302-1.151-.45783-1.71434-.68717-1.285-.52225-2.57-1.04221-3.85732-1.54385-7.83145-3.051-15.514-4.31542-22.8988-5.376-2.18749-.30693-2.25392-.60013-2.1852-1.0926.20386-1.43618,4.48035-2.9388,6.30593-3.58016.50392-.17866.95058-.33671,1.30562-.47414,1.11322-.43292,6.693-2.76472,7.08244-6.0471.10994-.91852-.13744-2.27453-1.931-3.52289-3.2778-2.2837-7.14886-3.08311-10.89165-3.85274a45.94366,45.94366,0,0,1-6.07917-1.53926,19.24186,19.24186,0,0,1-4.49681-2.54224c-.2113-13.51106.04624-32.38519.42476-47.37839,2.39307,5.15521,4.85457,11.20574,5.04555,14.6635l.19469,3.532,1.95386-2.948c5.3187-8.03073,3.53434-20.02872,2.27224-25.65206,6.0952,4.31085,16.231,12.2385,16.83338,16.28135l.136.9158a20.30958,20.30958,0,0,0-10.1286,7.21887l-1.711,2.26766,2.81281-.39856c9.91816-1.4087,16.428.49247,19.51564,1.80039-3.91229,2.15771-10.98785,8.34224-9.964,24.59611l.20615,3.28009,1.91721-2.66851a100.73522,100.73522,0,0,1,11.93342-13.85392,107.87285,107.87285,0,0,0-2.06795,16.57741C316.391,113.98257,316.45425,128.34457,316.5589,141.18707ZM268.417,132.03782c-.00329-.22146-.14029-11.109-.23879-23.27.0471.0146.09148.03722.13858.05211-.03794-.33915-.08962-.68316-.1098-1.00957-.03035-.49133-.02591-.9828-.02706-1.47412l-.02076-.00716c-.09076-12.05912-.13342-24.74543.03565-29.19615a108.76472,108.76472,0,0,1,2.41426-18.03822l1.12323-2.083c.74673-.62848,1.414-1.1722,1.88886-1.5384.43163.81959,1.05911,2.03116,1.77834,3.4682-.21087,7.45637-.84822,32.222-.56247,50.38762q-.12971-.08461-.258-.17351c.02477.88745.02,1.77676.02033,2.66522.00587.06084.00744.12211.01317.183.09234.06442.18654.12311.27888.18754.20457,9.14222.68316,16.1077,1.63646,17.37953a47.18511,47.18511,0,0,1,4.56969,7.71463c.00229.00459.24967.47873.06413.75131-.08246.12369-.97807,1.1911-6.20973.55432-3.08768-.37565-5.21791-1.36289-6.16391-2.85405a4.15625,4.15625,0,0,1-.43521-3.29842l.06643-.19469Zm36.44751-56.27466.7463-3.4264a28.75721,28.75721,0,0,1,15.16055.40371l1.821.62762-.27716-1.90575a29.10922,29.10922,0,0,0-11.62-17.942,12.41938,12.41938,0,0,1,8.32622,1.96989c3.5,2.35928,5.77681,6.63119,6.41359,12.03006l.6551,5.57524,1.63088-5.37138c.68946-2.27453,2.79908-4.29711,5.94173-5.69893a25.91922,25.91922,0,0,1,16.16912-1.09947c-6.05168,2.02486-12.50879,8.22771-17.57552,13.09059l-2.59064,2.48755,3.26177-.252c5.64167-.39627,11.98654,2.59063,16.59516,7.88414a20.98844,20.98844,0,0,1,5.49966,13.10433c-4.81707-6.50521-16.85171-14.61611-18.48259-15.69726l-2.7441-1.82329.97578,3.14724c.0481.15347,4.26046,14.03889.339,23.81732-2.14626-8.17732-9.00651-20.79377-9.34322-21.40764l-.61845-1.13612-1.0697.7284c-.355.24051-8.23,5.676-17.248,17.46328.16492-16.81734,10.28923-19.747,10.76108-19.87525l2.46694-.63678-2.09357-1.45909c-.29549-.20615-6.95646-4.71857-20.2051-3.59848a17.97816,17.97816,0,0,1,6.65238-4.04056Zm-48.757-5.54775c.16492-16.81735,10.28922-19.747,10.76108-19.87526l2.46694-.63677-2.09358-1.4591c-.29548-.20615-6.95645-4.71856-20.20509-3.59848,9.01109-8.695,22.85986-4.07721,23.011-4.02223l1.821.62761-.27716-1.90575a29.10935,29.10935,0,0,0-11.62-17.942,12.41944,12.41944,0,0,1,8.32622,1.96989c3.5,2.35929,5.77681,6.6312,6.41358,12.03006l.65511,5.57524,1.63088-5.37138c.68946-2.27453,2.79907-4.2971,5.94173-5.69893a25.91929,25.91929,0,0,1,16.16912-1.09947c-6.05168,2.02486-12.50879,8.22772-17.57553,13.09059L278.9422,44.387l3.26177-.252c5.64167-.39627,11.98654,2.59063,16.59516,7.88413a20.98843,20.98843,0,0,1,5.49965,13.10434c-4.81706-6.50522-16.8517-14.61611-18.48258-15.69726l-2.7441-1.82329.97578,3.14724c.0481.15346,4.26045,14.03888.339,23.81732-2.14626-8.17733-9.00651-20.79378-9.34322-21.40765l-.61846-1.13612-1.06969.7284C273.00047,52.99263,265.1255,58.42815,256.10754,70.21541ZM211.59279,40.62357l1.821.62761-.27716-1.90575a29.10935,29.10935,0,0,0-11.62-17.942,12.41944,12.41944,0,0,1,8.32622,1.96989c3.5,2.35929,5.77681,6.6312,6.41358,12.03006l.65511,5.57524,1.63088-5.37138c.68946-2.27453,2.79907-4.2971,5.94173-5.69893a25.91929,25.91929,0,0,1,16.16912-1.09947c-6.05168,2.02486-12.50879,8.22772-17.57553,13.09059L220.48706,44.387l3.26177-.252c5.64167-.39627,11.98654,2.59063,16.59516,7.88413a20.9885,20.9885,0,0,1,5.49966,13.10434c-4.81707-6.50522-16.85171-14.61611-18.48259-15.69726l-2.7441-1.82329.97578,3.14724c.0481.15346,4.26045,14.03888.339,23.81732-2.14626-8.17733-9.00651-20.79378-9.34322-21.40765l-.61846-1.13612-1.06969.7284c-.355.24051-8.23,5.676-17.248,17.46329.16492-16.81735,10.28922-19.747,10.76108-19.87526l2.46694-.63677-2.09358-1.4591c-.29548-.20615-6.95645-4.71856-20.20509-3.59848C197.59284,35.95081,211.44161,40.56859,211.59279,40.62357Zm-1.88628,57.07965c.00157-.02677.01832-.0418.02133-.06757l-.07874-.03794c-.04381-8.97874-.03751-17.09093.09062-20.46479A108.76472,108.76472,0,0,1,212.154,59.0947l1.12324-2.083c.74672-.62848,1.414-1.1722,1.88885-1.5384.43163.81959,1.05911,2.03116,1.77834,3.4682-.16921,5.98654-.44036,27.55524-.46155,43.48943a27.47717,27.47717,0,0,1-3.16184-.01389,30.66691,30.66691,0,0,0-3.646-.23478q-.00644-.98931-.012-1.97275C209.8574,100.30473,209.66871,98.33341,209.70651,97.70322Zm7.53224,28.56395a26.949,26.949,0,0,0-7.40612-5.64539c-.02777-2.69027-.05683-5.69879-.08432-8.85519a28.8041,28.8041,0,0,1,6.611-3.99246A182.95278,182.95278,0,0,0,217.23875,126.26717ZM184.53646,50.50851a18.45068,18.45068,0,0,0,.37122-3.0602l.946-.134c9.91816-1.4087,16.428.49248,19.51564,1.80039-3.91229,2.15771-10.98785,8.34225-9.964,24.59611l.20615,3.2801,1.9172-2.66851a100.73605,100.73605,0,0,1,11.93343-13.85393,107.87193,107.87193,0,0,0-2.06795,16.57741c-.123,3.25991-.13357,10.89022-.09535,19.45794-.47443-.213-.94471-.43392-1.42573-.63105-4.84684-1.98363-9.12791-2.10045-13.43647-2.11648-4.40462.0176-6.85567.52425-9.86046,2.19393a16.80636,16.80636,0,0,0-8.69.17566l-2.68912.73756,2.40738,1.40641a27.47758,27.47758,0,0,1,2.625,1.765,13.48733,13.48733,0,0,1-4.1193,1.70175,52.15544,52.15544,0,0,1-6.58767.82461,40.71624,40.71624,0,0,0-9.57614,1.59366c-.82275-11.38226-.531-39.11545-.01389-59.60114,2.39307,5.15521,4.85457,11.20574,5.04555,14.6635l.19469,3.532,1.95386-2.948c5.3187-8.03073,3.53434-20.02872,2.27224-25.65206,6.0952,4.31085,16.231,12.2385,16.83338,16.28135l.94143,6.33571Zm22.79387,51.7558a24.85336,24.85336,0,0,0-8.03946,1.96331,14.78048,14.78048,0,0,0-5.55234,4.0543,17.33414,17.33414,0,0,0-6.8236-10.39231,13.85725,13.85725,0,0,0-1.32509-.78308,18.02056,18.02056,0,0,1,6.85595-1.0047c5.05987.00229,8.49343.284,12.53857,1.9424.77779.31882,1.55544.66913,2.32722,1.031Q207.32016,100.66092,207.33033,102.26431Zm-45.71472,21.511c9.91816-1.4087,16.428.49247,19.51564,1.80038a17.94735,17.94735,0,0,0-7.49531,8.33037,11.62146,11.62146,0,0,0-2.98719-.988c-5.82491-1.12467-11.83307-1.00785-17.63737-.89332-.22032.00444-.4448.00615-.66569.01059a21.73,21.73,0,0,0-3.14037-11.03982,16.02473,16.02473,0,0,0,3.7717.926,26.92626,26.92626,0,0,0,3.20451.21761c2.73035,0,4.462-.60242,5.25685-1.82329a3.07128,3.07128,0,0,0,.055-3.09456,48.27594,48.27594,0,0,0-4.76667-8.03531,8.48254,8.48254,0,0,1-.56119-2.62471,36.04288,36.04288,0,0,1,9.55167-1.66137,55.45206,55.45206,0,0,0,6.88545-.86813,16.60926,16.60926,0,0,0,5.52513-2.40495,28.04642,28.04642,0,0,1,8.01527,12.70449c-4.89265-1.127-17.75648-2.84718-25.62916,7.57491l-1.711,2.26766Zm22.10856,22.5754c-.26241,2.25091-.47486,4.6802-.56806,7.15616-.13815,3.66477-.13471,12.84722-.07917,22.68306-3.1365-2.46236-6.62289-5.23924-8.477-8.27882a9.909,9.909,0,0,1-.6551-1.36518,7.97665,7.97665,0,0,0-2.06838-3.17244,12.27268,12.27268,0,0,0-5.72871-2.46694c-2.08442-.44666-4.249-.74672-6.34029-1.03533-3.88252-.53829-7.90017-1.0926-11.45055-2.625a30.95784,30.95784,0,0,1-3.84586-2.11649,26.918,26.918,0,0,0-5.38055-2.75784c-4.20319-1.42932-8.90572-1.23-13.45021-1.03992-.93255.03923-1.82358.055-2.72663.07845.08847-7.21958.22848-14.47481.392-21.01452l.00057.00028c.07287.02992.14875.04939.22176.07874,2.32421,5.05128,4.64727,10.84827,4.83267,14.20338l.19469,3.53206,1.95386-2.948a24.21226,24.21226,0,0,0,3.54308-12.02c.59354.10923,1.18522.22118,1.78106.32855a71.38076,71.38076,0,0,0,13.24291.86054,4.81028,4.81028,0,0,1,.53857,1.46023l.94143,6.33571,1.36288-6.25783c.1141-.52353.16893-1.05566.23679-1.58593.28589-.00544.57622-.00759.86125-.01331,5.68748-.10995,11.56737-.22448,17.14719.85209a9.11984,9.11984,0,0,1,2.551.85309,35.56114,35.56114,0,0,0-1.58808,14.0963l.20615,3.28009,1.91721-2.66851c1.978-2.75412,3.9286-5.19329,5.78654-7.35057A14.37323,14.37323,0,0,0,183.72417,146.35072Zm-3.08969-4.6656c1.65436-1.83217,3.19405-3.41323,4.58958-4.75565-.32841,1.61772-.78323,4.07321-1.19023,6.99984A12.18208,12.18208,0,0,1,180.63448,141.68512ZM183.2977,201.626a27.18006,27.18006,0,0,1-4.35022-.59555c-.35733-.08475-.78109-.1695-1.24149-.26341-1.64234-.32984-5.05986-1.017-5.44239-2.17146-.142-.43292.22219-1.18193,1.00556-2.05235.94142-1.04908,3.04417-.87729,4.89265-.73756.69405.055,1.33769.087,1.95157.10078a24.05134,24.05134,0,0,0,3.12175-.21832C183.25718,197.8736,183.27851,199.87971,183.2977,201.626Zm-56.67895-70.08836c1.6797.50321,3.39233.895,5.12085,1.24536a25.42668,25.42668,0,0,1-1.621,8.24876A68.48385,68.48385,0,0,0,126.61875,131.53762Zm6.77278-9.0214c.97334-.10823,1.948-.22,2.9335-.34487,4.0072,3.0204,8.53265,6.76877,11.1552,9.90713a64.48139,64.48139,0,0,1-11.37782-.8508c-.6604-.11854-1.30548-.23951-1.95457-.35962A51.0399,51.0399,0,0,0,133.39153,122.51622Zm13.17777-10.29381c-.05926-1.13913-.05168-2.27854-.05-3.41867a1.12953,1.12953,0,0,1,.14917-.57508c-.03206-2.81339-.07387-6.66039-.11553-11.0172a7.50038,7.50038,0,0,1,3.69283-.05783l.8017-2.19437a29.26551,29.26551,0,0,0-4.53017-1.629c-.11969-13.54885-.211-29.99369-.01346-35.19414a108.76472,108.76472,0,0,1,2.41426-18.03822l1.12324-2.083c.74672-.62848,1.414-1.1722,1.88885-1.53841.43163.8196,1.05911,2.03116,1.77834,3.46821-.27229,9.62783-1.25623,48.12554-.04323,63.96338a1.64646,1.64646,0,0,1,.10937.41273,22.9004,22.9004,0,0,1,.17394,3.26692c.03093-.0176.06027-.03994.0912-.05726a8.24664,8.24664,0,0,0,.79711,3.04359,47.18511,47.18511,0,0,1,4.56969,7.71463c.00229.00458.24967.47873.06413.75131-.08246.12369-.97807,1.19109-6.20973.55432-3.08768-.37566-5.21791-1.36289-6.16391-2.85405a3.53555,3.53555,0,0,1-.19-.36663c.11539-.17681.21775-.36292.33013-.5423A8.41982,8.41982,0,0,1,146.5693,112.22241ZM134.41656,51.21859c.16492-16.81735,10.28922-19.747,10.76108-19.87526l2.46694-.63678L145.551,29.24746c-.29548-.20615-6.95645-4.71857-20.20509-3.59848,9.01109-8.695,22.85986-4.07721,23.011-4.02224l1.821.62762-.27716-1.90575a29.10935,29.10935,0,0,0-11.62-17.942A12.41944,12.41944,0,0,1,146.607,4.37648c3.5,2.35929,5.77681,6.63119,6.41358,12.03006l.65511,5.57524,1.63088-5.37138c.68946-2.27453,2.79907-4.2971,5.94173-5.69893A25.91922,25.91922,0,0,1,177.41738,9.812c-6.05168,2.02486-12.50879,8.22772-17.57553,13.09059l-2.59063,2.48756,3.26177-.252c5.64167-.39626,11.98654,2.59064,16.59516,7.88414a20.9885,20.9885,0,0,1,5.49966,13.10433c-4.81707-6.50521-16.85171-14.61611-18.48259-15.69725l-2.7441-1.8233.97578,3.14724c.0481.15347,4.26045,14.03889.339,23.81732-2.14626-8.17732-9.00651-20.79377-9.34322-21.40764l-.61846-1.13612-1.06969.7284C151.30949,33.99581,143.43452,39.43133,134.41656,51.21859Zm9.96167,61.67811a6.96375,6.96375,0,0,0-.2123,1.8734,23.85141,23.85141,0,0,0-13.44492-6.46828c4.1611-3.95552,9.03744-8.3202,13.49445-10.28808C144.29048,105.759,144.36449,111.80066,144.37823,112.8967ZM114.02965,89.83755c3.5,2.35929,5.77681,6.6312,6.41358,12.03006l.65511,5.57525,1.63088-5.37138c.68946-2.27454,2.79907-4.29711,5.94173-5.69894a25.7251,25.7251,0,0,1,15.51745-1.22946c.00115.13328.00258.26528.00372.39784-5.86285,2.23216-12.04051,8.13223-16.92758,12.82274l-2.59063,2.48756,3.26177-.252c4.85042-.34072,10.19317,1.86466,14.53122,5.84395a6.6053,6.6053,0,0,1,2.70229,2.30875,6.16783,6.16783,0,0,1,.67744,1.41443,20.31139,20.31139,0,0,1,4.18387,11.42134c-2.40954-3.254-6.625-6.90964-10.441-9.88638.06356-.01059.128-.01689.19154-.02763.06314-.01073.11511-.03378.17738-.04552-.22-.14-.43979-.2806-.64966-.4448a17.87434,17.87434,0,0,1-1.70418-1.566c-.21374.02877-.42519.06284-.63879.0919-2.66464-1.973-4.797-3.40721-5.4179-3.8188l-2.7441-1.82329.97578,3.14724c.01417.04509.38968,1.298.81114,3.2632-.10779.012-.21717.02691-.32511.03908a6.07871,6.07871,0,0,1,.49948,2.30317c.08919-.01.17924-.02219.26843-.03207a50.403,50.403,0,0,1,.73728,7.60855,45.09769,45.09769,0,0,1-6.4826-1.7971c-.78766-1.68686-1.55357-3.251-2.23044-4.59516.03465-.01374.0902-.02491.12885-.03794-.01732-.04738-.03966-.09749-.05641-.1443-.10794-.3025-.21059-.607-.32511-.90721-.02477-.06514-.05426-.12985-.07688-.196l-.00286-.00544c-.06085-.12684-.11911-.25425-.187-.37766-.05941-.10808-.12856-.2093-.19771-.31065a1.70969,1.70969,0,0,1-.14917-.1602c-.0617.02491-.13214.04051-.192.06771-.04352-.08375-.07788-.14845-.11954-.22848-.03851-.01-.07687-.02062-.1161-.02849a1.18872,1.18872,0,0,1-.81916-1.44263.9331.9331,0,0,1,.07544-.15533c-.1214-.22605-.2156-.4-.2448-.45339l-.61846-1.13612-1.06969.7284c-.3078.20859-6.27172,4.33075-13.72966,13.10434l1.02216-4.69337a18.92656,18.92656,0,0,0,.21875-6.53485,13.055,13.055,0,0,1,6.00186-4.28808l2.46694-.63678-2.09358-1.45909c-.208-.145-3.584-2.417-10.1757-3.36327a27.43578,27.43578,0,0,0-2.076-2.74568c-.45339-.52039-.931-1.00914-1.41442-1.48872,7.96416-2.83773,16.3545-.06571,16.472-.02305l1.821.62761-.27716-1.90575a29.10934,29.10934,0,0,0-11.62005-17.942A12.41938,12.41938,0,0,1,114.02965,89.83755Zm.11911,108.66453c-.00544-.35576-.356-28.21622-.33658-44.69771l.314.00015c-.02305-.78209-.04968-1.56375-.084-2.34555l-.22405-.00014c.013-3.44043.0461-6.21918.10852-7.86166a108.76491,108.76491,0,0,1,2.41426-18.03822l1.12324-2.083c.74672-.62847,1.414-1.1722,1.88885-1.5384.26757.50793.6093,1.164,1.001,1.92966a6.91555,6.91555,0,0,0,.6856,4.92014c-.13672,5.23809-.33056,13.58206-.44652,22.669l-.57966.00057c-.01646.78194-.02247,1.56388-.03922,2.34568l.59139-.00057c-.20858,18.88144-.03722,39.92316,1.69416,42.23306a47.1842,47.1842,0,0,1,4.56969,7.71463c.00229.00458.24967.47873.06413.7513-.08246.12369-.97807,1.1911-6.20973.55432-3.08768-.37565-5.21791-1.36289-6.16391-2.85405a4.15623,4.15623,0,0,1-.43521-3.29841l.06643-.1947Zm-11.75892-40.31671a4.31654,4.31654,0,0,1,.85209,1.39724,23.093,23.093,0,0,1-5.518.05727,36.58622,36.58622,0,0,0-3.784-.11682,22.98069,22.98069,0,0,0-12.72181,4.40018l-.61617.44208c-1.12925.81258-2.20138,1.58307-3.28367,2.23946-.07373-6.62661-.04867-14.309.03937-22.10484.35046-.19842.70707-.37465,1.04994-.60084,1.22445-.80571,3.65832-2.68583,4.54334-5.21061l.065,1.17964,1.95386-2.948c4.54763-6.86655,3.90069-16.62136,2.82914-22.82393l2.2416-.31767c.19427-.02763.36606-.03465.55776-.0597,4.11915,3.09642,8.8297,6.98623,11.45856,10.19846-1.76445,3.77887-2.921,9.01324-2.46465,16.25774l.20615,3.28009,1.9172-2.66851A100.73605,100.73605,0,0,1,113.649,126.93272a107.87193,107.87193,0,0,0-2.06795,16.57741c-.06271,1.66281-.09606,4.46761-.1088,7.94756-1.3354-.00029-2.66966.002-4.00649-.002l-.60242-.00687c-1.63547-.03665-3.48624-.06414-4.91785,1.95843C100.37872,155.62451,101.58814,157.16607,102.38984,158.18537ZM68.50519,190.56068l.06643-.1947-.00115-.09692a5.52485,5.52485,0,0,0,3.22655-5.60473,6.56265,6.56265,0,0,0-3.34824-5.08163c-.02219-2.12135-.04538-4.49752-.06814-6.9679a8.11855,8.11855,0,0,1-.26585-1.4913,20.22807,20.22807,0,0,1,.06084-3.40193,1.17416,1.17416,0,0,1,.15863-.41688c-.05569-6.81458-.10022-14.04776-.10222-20.074.10708-.012.21274-.03107.31968-.04395a20.9574,20.9574,0,0,1-.08905-2.36258c-.07673.00974-.15189.02448-.22877.03379.00744-4.24743.04066-7.69173.11324-9.60306.08733-2.32922.29491-4.6175.54358-6.76963a22.16612,22.16612,0,0,1,.82117-7.18508,1.09667,1.09667,0,0,1,.32454-.5264,10.36187,10.36187,0,0,1,2.53867-5.43466,1.15664,1.15664,0,0,1,1.91277.48359c.0627-.15389.14874-.29863.20629-.45424.26313.51323.55231,1.08515.85767,1.695-.06914,2.44417-.18381,6.73727-.29734,12.06384-.09635-.04624-.19928-.09921-.29734-.14674a16.22011,16.22011,0,0,1,.16878,2.68913l.07545.03651c-.06171,3.10214-.119,6.49361-.16707,9.99188a21.43688,21.43688,0,0,1,.05454,2.2061,31.62109,31.62109,0,0,0-.0408,3.65346,5.826,5.826,0,0,1-.10021,2.27009c-.046,6.16664-.04467,12.38124.0471,17.96349-.09535.03866-.19856.05727-.29477.09349.03307.81372.03393,1.632.01632,2.45334.10651-.03336.22047-.05254.32584-.08805.20371,9.17358.68244,16.16812,1.63789,17.44282a47.1842,47.1842,0,0,1,4.56969,7.71463c.00229.00458.24967.47873.06413.75131-.08246.12369-.97807,1.19109-6.20973.55431-3.08768-.37565-5.21791-1.36288-6.16391-2.854A4.15625,4.15625,0,0,1,68.50519,190.56068Zm-.02362-7.91935a3.68214,3.68214,0,0,1,.97449,2.1673,3.01328,3.01328,0,0,1-.91995,2.637C68.52122,186.19242,68.50261,184.57142,68.48157,182.64133Zm2.00568-64.15006c.12812-.61846.22633-1.06254.27415-1.27456l1.12324-2.083c.18954-.15962.40428-.34645.5775-.489A25.33428,25.33428,0,0,1,70.48725,118.49127Zm10.45143,18.0322c.23478,2.32937-2.38477,4.42065-3.54738,5.22908.03894-2.96328.08561-5.92283.13944-8.83157C79.19842,133.8919,80.79809,135.1321,80.93868,136.52347Zm-3.357-6.24852c.05926-2.9597.1244-5.848.194-8.60237a69.147,69.147,0,0,1,4.719,12.53026A12.65949,12.65949,0,0,0,77.58171,130.275ZM87.242,111.2681c.44967.31811.92639.66083,1.41457,1.0153l-.95273,1.26267C87.55111,112.709,87.39292,111.94053,87.242,111.2681Zm17.62835,21.632c-.9901,1.18179-2.00167,2.434-3.03113,3.77958a29.6114,29.6114,0,0,1,1.78292-10.41306,4.60117,4.60117,0,0,1,.45324,1.28286Zm-.51323-18.887a27.63265,27.63265,0,0,1,5.199,1.56589,16.5082,16.5082,0,0,0-3.53177,2.652A23.01153,23.01153,0,0,0,104.35715,114.01306Zm10.21078-9.6785c-3.37086-.77636-10.525-1.83217-17.22407.9931a23.34348,23.34348,0,0,0-12.20228-5.36809c5.42335-5.15549,12.06356-11.01748,17.403-11.34A27.73207,27.73207,0,0,1,114.56793,104.33456Zm-44.36772-5.589,1.821.62762-.27716-1.90576a29.10934,29.10934,0,0,0-11.62-17.942,12.41938,12.41938,0,0,1,8.32622,1.96989c3.5,2.35928,5.77681,6.63119,6.41358,12.03006l.65511,5.57524,1.63088-5.37138c.68946-2.27453,2.79907-4.29711,5.94173-5.69893a25.91929,25.91929,0,0,1,16.16912-1.09948c-6.05168,2.02487-12.50879,8.22772-17.57553,13.0906L79.09448,102.509l3.26177-.252a18.67313,18.67313,0,0,1,11.13316,3.17573,1.333,1.333,0,0,1,.57307.117,9.66013,9.66013,0,0,1,3.48109,3.152c.47859.466.96118.92639,1.40784,1.43947.25039.28761.47458.58482.70865.87844-.176-.011-.379-.0053-.55833-.01432q1.13469,1.22811,2.17046,2.54539c.05468.00616.121.00616.17537.0126a20.607,20.607,0,0,1,2.68211,6.85653q-.4589.62017-.89561,1.32781a48.1522,48.1522,0,0,0-4.00076-4.01221c-2.088-.94472-3.73893-2.75656-5.35922-4.3203a19.33832,19.33832,0,0,0-2.53723-2.07711c-.55145-.37838-1.1042-.77121-1.63117-1.19382-1.84176-1.32252-3.2559-2.27682-3.7372-2.59593l-2.7441-1.82329.97578,3.14724c.0481.15347,4.26045,14.03889.339,23.81732-2.01985-7.69559-8.211-19.31564-9.21424-21.17043-.01488-.25454-.05254-.51237-.08861-.77006a13.81007,13.81007,0,0,0-2.27353.49591l.00372.01575c-1.95271,1.43117-8.89628,6.868-16.70668,17.07675.16492-16.81734,10.28922-19.747,10.76108-19.87525l2.46694-.63678-2.09358-1.45909c-.02047-.01432-.083-.05612-.16434-.10823-.38525-.16922-.76577-.35432-1.13813-.56248-3.39977-.88144-6.68445-2.17074-10.18358-2.69872a.9837.9837,0,0,1-.46054-.196,45.128,45.128,0,0,0-8.2585-.03307C56.20026,94.07281,70.049,98.6906,70.20021,98.74557ZM43.24052,118.40279c.00229.00458.24967.47873.06413.75131-.08246.12369-.97807,1.19109-6.20973.55432-3.08768-.37566-5.21791-1.36289-6.16391-2.85405a4.15625,4.15625,0,0,1-.43521-3.29842l.06642-.1947-.00229-.20615c-.00128-.08675-.02319-1.81742-.05526-4.61062,2.48183-.5559,4.91714-1.05424,7.28344-1.50147a9.732,9.732,0,0,0,.88272,3.64515A47.18465,47.18465,0,0,1,43.24052,118.40279Zm-5.68691-13.70117c-2.29587.43249-4.66116.91608-7.07571,1.44878-.14516-13.14785-.40786-40.85026-.14015-47.9002A108.76472,108.76472,0,0,1,32.752,40.212l1.12323-2.083c.74673-.62848,1.414-1.1722,1.88886-1.53841.43163.8196,1.0591,2.03116,1.77834,3.46821C37.26614,49.82721,36.25743,89.3143,37.55361,104.70162ZM18.25042,51.33269c.16493-16.81735,10.28923-19.747,10.76109-19.87526l2.46694-.63678-2.09358-1.45909c-.29548-.20615-6.95645-4.71857-20.20509-3.59848,9.01109-8.695,22.85986-4.07721,23.011-4.02224l1.821.62762-.27716-1.90575a29.10935,29.10935,0,0,0-11.62-17.942,12.4194,12.4194,0,0,1,8.32621,1.96989c3.5,2.35928,5.77682,6.63119,6.41359,12.03006l.65511,5.57524L39.1404,16.7245c.68946-2.27453,2.79907-4.2971,5.94173-5.69893A25.91922,25.91922,0,0,1,61.25125,9.9261C55.19957,11.951,48.74246,18.15381,43.67572,23.01669l-2.59063,2.48756,3.26177-.252C49.98853,24.856,56.3334,27.84292,60.942,33.13642a20.98843,20.98843,0,0,1,5.49965,13.10433C61.62461,39.73554,49.59,31.62464,47.95908,30.54349L45.215,28.7202l.97578,3.14724c.0481.15347,4.26045,14.03889.339,23.81732-2.14626-8.17732-9.00651-20.79377-9.34322-21.40764L36.56809,33.141l-1.06969.7284C35.14336,34.10991,27.26839,39.54542,18.25042,51.33269Zm37.421,123.67c-.37566-.18554-1.0697-.43979-1.88285-.7307-1.12467-.40085-3.76111-1.34456-4.1276-1.7958-.01833-.05268-.04352-.12369.09391-.31839,1.15216-1.63546,7.08473-3.10143,8.55527-3.10143h.01374a26.621,26.621,0,0,1,5.96464.91165c.56935.13042,1.14443.26026,1.72594.38095.02592,2.9408.05312,5.74016.079,8.26794A49.83053,49.83053,0,0,1,55.67143,175.00272ZM66.0016,135.16789c-.07416,1.96587-.10751,5.52155-.114,9.91157-1.53811.10279-3.088.15089-4.62494.19169l-1.50032.04123c-5.83179.18783-12.55-.02749-18.08174-2.95025-1.57362-.83148-1.57362-.83148-1.69044-2.70058a4.19638,4.19638,0,0,0-1.3835-3.00523,7.43505,7.43505,0,0,0-4.95679-1.356c-.875,0-1.7477.05726-2.55856.10995-.63678.04352-1.23462.08246-1.75687.087-.90248-.13056-9.05232-1.3354-12.60041-2.89528l-.765-.33442c-3.4244-1.49574-7.30462-3.193-10.07392-5.5867-1.1888-1.02846-4.92243-4.57655-3.01438-7.11221a9.79137,9.79137,0,0,1,3.40378-2.35012l.85438-.44437a88.91747,88.91747,0,0,1,9.89067-4.32688,89.09435,89.09435,0,0,1,11.1356-3.3783c.02376,2.06108.04094,3.46763.04695,3.94178a6.57,6.57,0,0,0,.71237,5.06215c1.34685,2.15542,3.99933,3.49083,7.88642,3.96268a26.92626,26.92626,0,0,0,3.20451.21761c2.73035,0,4.462-.60242,5.25685-1.8233a3.07127,3.07127,0,0,0,.055-3.09455,48.27594,48.27594,0,0,0-4.76667-8.03531,8.59973,8.59973,0,0,1-.56663-2.66694,54.02191,54.02191,0,0,1,8.6134-.54215,70.18922,70.18922,0,0,0,7.1878-.30922c.76032-.08519,1.51535-.16178,2.27038-.23679a28.51136,28.51136,0,0,1,5.91124,1.69173c-3.91229,2.15771-10.98786,8.34224-9.964,24.59611l.20615,3.28009,1.9172-2.66851a100.73588,100.73588,0,0,1,11.93343-13.85392A107.87158,107.87158,0,0,0,66.0016,135.16789Zm139.80965,71.22018c2.23789.552,2.90215,1.74541,3.81838,3.39691a11.99083,11.99083,0,0,0,2.58376,3.47021c3.49541,3.0602,8.34,4.58343,13.02417,6.054,2.08212.65281,4.04514,1.27127,5.80888,1.99738,1.56216.64594,2.56314,1.45909,2.68,2.176.12369.76276-.76276,1.65608-1.301,2.12106-2.47152,2.13481-5.77681,2.55169-8.68354,2.67768a210.43239,210.43239,0,0,1-22.32617-.26571l-5.09193-.30694c-3.03271-.181-6.06542-.36191-9.09813-.56577-3.66262-.24509-7.37792-.83605-10.97182-1.4087-2.7189-.43291-5.52714-.87957-8.32163-1.17964-2.70058-.2909-5.45384-.45582-8.11319-.61387-5.38054-.32068-10.94433-.65052-16.20577-2.0638a49.97758,49.97758,0,0,1-6.34945-2.341,53.872,53.872,0,0,0-6.57851-2.42342,7.722,7.722,0,0,0-2.05693-.28861,10.65139,10.65139,0,0,0-2.77617.44895,9.96883,9.96883,0,0,1-2.99377.43292h-.03665c-.57035,0-1.1155-.01146-1.64-.0252-3.13121-.0733-5.83866-.13514-8.624,2.62957-2.26308,2.24705-4.31543,2.20582-7.75128,2.16-.51767-.00917-1.05595-.01833-1.61943-.01833a120.38776,120.38776,0,0,1-16.88148-1.4568,122.11362,122.11362,0,0,0-17.2182-1.47742c-2.02715.07559-4.02.02291-5.91883.04352-7.95743.08017-14.81539.16034-23.29965-1.32623l-.3894-.06872c-4.99114-.87042-9.15768-1.90117-9.56082-5.72871a2.45358,2.45358,0,0,1,.23134-1.6263c.36878-.44208,1.41557-.52225,2.428-.60013,1.84391-.142,4.36812-.33442,5.29122-2.99148.77421-2.23331,1.78664-4.67276,3.43127-5.84324,1.14528-.81315,2.83572-.93684,4.47118-1.05824.61617-.04352,1.22317-.08933,1.80268-.16492a32.59263,32.59263,0,0,0,8.7179-2.07068,22.01739,22.01739,0,0,0,5.22937-3.49769,22.882,22.882,0,0,1,3.88022-2.77388c.19985-.10479.40643-.19456.61043-.29205a6.259,6.259,0,0,0,.92167,3.55883c1.34685,2.15542,3.99933,3.49082,7.88642,3.96268a26.92608,26.92608,0,0,0,3.20451.2176c2.73035,0,4.462-.60242,5.25685-1.82329a3.07126,3.07126,0,0,0,.055-3.09455,48.27582,48.27582,0,0,0-4.76667-8.03532c-.70048-1.1669-1.06812-7.83932-1.216-17.04067a38.70668,38.70668,0,0,0,4.61778-2.99535l.61158-.43979a20.71232,20.71232,0,0,1,11.462-3.96268c1.04908-.04352,2.25621.03436,3.52519.11453,2.48526.16263,5.05528.32756,7.23819-.38024l.694-.22676.10308-.72382a4.90741,4.90741,0,0,0-1.37205-3.91458c-.78338-.9964-.91394-1.20942-.37337-1.97447.68488-.96891,1.34915-.98494,2.95942-.96891l.63678.00916c1.3384.004,2.67366.00172,4.01021.002-.01761,15.86389.30393,42.14429.33413,44.55454a6.57,6.57,0,0,0,.71237,5.06216c1.34685,2.15542,3.99933,3.49082,7.88642,3.96268a26.92818,26.92818,0,0,0,3.20451.2176c2.73035,0,4.462-.60242,5.25685-1.82329a3.07128,3.07128,0,0,0,.055-3.09456,48.27594,48.27594,0,0,0-4.76667-8.03531c-1.22846-2.04633-1.43461-21.00364-1.2223-40.89006.94328-.02348,1.876-.04009,2.85176-.08175,4.33833-.17866,8.80952-.36878,12.59583.91852a24.68634,24.68634,0,0,1,4.911,2.53566,32.97848,32.97848,0,0,0,4.14135,2.26995c3.84357,1.65837,8.02157,2.23559,12.05984,2.79449,2.05.284,4.16654.57722,6.16849,1.00785a9.94859,9.94859,0,0,1,4.66818,1.93095,5.7902,5.7902,0,0,1,1.46138,2.32493,12.22381,12.22381,0,0,0,.81316,1.6744c2.12793,3.48624,5.93486,6.47544,9.29512,9.11188.40214.31624.79783.62661,1.20226.94772.03192,4.85715.07416,9.74322.11625,14.10675a20.8715,20.8715,0,0,1-3.11432.26255,14.653,14.653,0,0,1-1.75228-.09391c-2.27912-.17408-5.10568-.39627-6.82131,1.50948-1.42015,1.5805-1.9195,3.04646-1.48658,4.35895.81086,2.444,4.50784,3.18847,7.20613,3.73134.43291.087.83147.16721,1.16819.24509a29.80849,29.80849,0,0,0,4.91255.66255c.0262,2.298.04567,3.87349.052,4.38013a6.57,6.57,0,0,0,.71237,5.06216c1.34685,2.15542,3.99933,3.49082,7.88642,3.96268a26.92608,26.92608,0,0,0,3.20451.2176c2.73035,0,4.462-.60242,5.25685-1.82329a3.07126,3.07126,0,0,0,.055-3.09456,48.44107,48.44107,0,0,0-4.72171-7.97232A76.52015,76.52015,0,0,1,205.81125,206.38807Zm-7.40683,7.35845c.00229.00458.24967.47873.06413.75131-.08246.12369-.97807,1.19109-6.20973.55431-3.08768-.37565-5.21791-1.36288-6.16391-2.854a4.15625,4.15625,0,0,1-.43521-3.29842l.06643-.1947-.00229-.20615c-.00043-.02978-.00344-.26256-.00831-.65553a1.12568,1.12568,0,0,1-.13113-.523c.00358-5.3018.0942-10.604-.1068-15.90355a1.06892,1.06892,0,0,1,.05855-.38381c-.02076-2.23316-.04051-4.54821-.05912-6.92539a18.99819,18.99819,0,0,1-.05283-7.65751c-.04925-8.6038-.05984-16.73947.02978-21.13206a29.04014,29.04014,0,0,1,.30321-7.72537,4.06387,4.06387,0,0,1,.07731-4.10942,6.52394,6.52394,0,0,1,.36534-3.52819,10.98491,10.98491,0,0,1,1.25838-2.21255c.21847-1.1062.38912-1.88284.45769-2.18677l1.12324-2.083c.74672-.62847,1.414-1.1722,1.88886-1.5384.43162.81959,1.0591,2.03116,1.77833,3.46821-.05769,2.04261-.14745,5.38569-.24165,9.53806a9.56327,9.56327,0,0,1-.08933,4.19961c-.2136,10.46575-.40457,24.23979-.24767,35.66815-.08933-.14159-.21474-.274-.31109-.41416a21.53847,21.53847,0,0,1,.35933,7.20054c.0305-.03565.06772-.06886.09735-.1048.13271,4.31815.33915,7.99723.64494,10.59817-.0773-.00587-.15676-.00959-.23407-.01546.11525.78667.16765,1.58178.28031,2.36687.10766.00859.21947.01289.32684.02162a4.56972,4.56972,0,0,0,.54344,1.57076A47.18458,47.18458,0,0,1,198.40442,213.74652Zm-3.59934-68.42985c.03965-1.81055.0816-3.58316.12512-5.30509.83362,1.79609,1.67111,3.69311,2.42256,5.56006A21.88578,21.88578,0,0,0,194.80508,145.31667Zm6.71422,7.97619c-1.09532-9.36355-8.89241-23.16809-9.16885-23.672l-.61846-1.13612-1.06969.7284a72.927,72.927,0,0,0-11.54575,10.62078c-.04424-.07158-.08776-.14631-.132-.21774-.51552.67214-1.00442,1.3364-1.52395,1.98907.01332.01961.023.0398.03651.05941-1.31965,1.52666-2.6844,3.18389-4.08279,5.01176a33.27913,33.27913,0,0,1,.61759-6.17079,15.80113,15.80113,0,0,1,.15418-2.61769,6.11136,6.11136,0,0,1,2.26623-4.26689c.014-.00988.03279-.00673.04725-.01575,3.07179-5.39973,7.37133-6.72139,7.67583-6.80413l2.46694-.63678-2.09358-1.45909c-.29548-.20615-6.95645-4.71857-20.20509-3.59848,9.01109-8.695,22.85986-4.07721,23.011-4.02224l1.821.62762-.27716-1.90576c-1.64978-12.25052-14.37016-18.133-14.37832-18.13614a48.11575,48.11575,0,0,1,8.24318.73885,5.41975,5.41975,0,0,0,.56978.19127,1.0592,1.0592,0,0,1,.4949.30436,10.46414,10.46414,0,0,1,1.77663.92954c3.5,2.35928,5.77681,6.63119,6.41359,12.03006l.6551,5.57524,1.63088-5.37138c.68946-2.27454,2.79908-4.29711,5.94173-5.69893a22.429,22.429,0,0,1,7.10019-1.75973l.00115.14273a14.63549,14.63549,0,0,1,3.31846-.3234,1.21966,1.21966,0,0,1,.52611.15,28.53063,28.53063,0,0,1,5.14061.67443l.00043.05039a26.60539,26.60539,0,0,0-6.60886,3.58646l-.00158-.21274c-.06342.043-.12627.08719-.18826.13214-.03135.02276-.21932.15519-.06971.04968.14974-.1058-.03823.0312-.06886.05583q-.09407.07623-.1864.15418-.15654.13207-.30923.26843c-.21875.19484-.43277.39469-.64579.59555a18.60662,18.60662,0,0,1-2.43989,2.03073c-2.47868,2.10073-4.85213,4.35923-6.97477,6.39641L196.249,120.848l3.26177-.252a17.29919,17.29919,0,0,1,7.99222,1.52623l.00329.30551a7.28174,7.28174,0,0,1,1.42431.55875,6.75515,6.75515,0,0,1,.93383.63378c-.00114-.10895-.00229-.20243-.00343-.31281a24.94128,24.94128,0,0,1,6.24494,5.17267,22.04307,22.04307,0,0,1,5.15836,10.16268,11.01748,11.01748,0,0,1-2.06981.13586,74.35178,74.35178,0,0,0-7.361-6.545c-.28718-.10136-.57393-.2093-.84336-.33442a16.00029,16.00029,0,0,1-3.91415-2.73637,13.789,13.789,0,0,1-1.55944-1.63318c-1.15731-.81186-2.03947-1.40784-2.3935-1.64248l-2.7441-1.82329.97578,3.14724C201.39661,127.345,205.86737,142.977,201.5193,153.29286Zm5.95734-33.717a20.36049,20.36049,0,0,0-5.18055-1.27728c1.62115-1.54112,3.3521-3.14266,5.12371-4.64384C207.43856,115.72641,207.45789,117.71906,207.47664,119.57585Zm7.99766,18.826c-2.51261-.45826-4.3087-1.35244-5.14132-2.66479a3.91522,3.91522,0,0,1-.59541-2.15914C211.70531,135.11492,213.7004,136.76985,215.4743,138.40188Zm207.792,50.713c-.36191,1.70189-8.175.694-11.11841.31381a30.211,30.211,0,0,0-5.07132-.42376c-4.49639.38711-7.86123,2.66393-11.11613,4.86746-1.32165.89561-2.69141,1.821-4.10927,2.5975-2.98461,1.63089-7.31837.73986-11.139-.04581-1.3606-.27945-2.66622-.54515-3.85732-.69862a38.93481,38.93481,0,0,1-6.054-1.4568,40.36,40.36,0,0,0-6.30135-1.51178c-4.21006-.552-7.01143,1.63776-9.72117,3.74508l-1.04221.8017c-2.07754,1.56446-4.98427,1.75687-7.7948,1.9424-.51309.03436-1.0193.06872-1.51406.10995a136.45782,136.45782,0,0,1-14.11906.18553c-1.60111-.03435-3.20221-.06871-4.80332-.08475-8.088-.08017-16.23554-1.27126-24.1151-2.42342-6.38152-.93226-12.98064-1.89659-19.5477-2.27453a103.29559,103.29559,0,0,1-20.53723-3.08769,61.93114,61.93114,0,0,0-13.07227-2.14168c-1.64233-.07558-3.19076-.11223-4.67046-.11223-2.46007,0-4.72544.10307-6.90377.31839-4.91785.48331-15.143,1.49574-19.03-2.48756a6.15151,6.15151,0,0,1-1.47741-5.37367c.63448-5.14462,7.3-6.42275,13.18221-7.54971a45.13387,45.13387,0,0,0,5.30037-1.22317,18.9993,18.9993,0,0,0,5.25228-2.96857,8.11666,8.11666,0,0,0,.80857-.7536,2.80744,2.80744,0,0,1,1.79122-1.05366c.52912.0252,1.06053.03207,1.59194.00916l.06872-2.33867a7.97635,7.97635,0,0,0-1.69273-.02061,39.36682,39.36682,0,0,1-6.34487-1.09718c-.83606-.19012-1.66295-.38024-2.47381-.54516-3.18847-.64594-6.36091-1.58278-9.43256-2.48755-1.711-.50393-3.42211-1.00785-5.15149-1.47055a30.87137,30.87137,0,0,1-10.84812-4.83081,15.34838,15.34838,0,0,1-3.60078-4.32917c-.10049-.1569-.20915-.31781-.31137-.47615,2.53394-7.51149,1.14772-16.49065.10608-21.13192.98094.69376,2.072,1.488,3.20551,2.33781a6.54468,6.54468,0,0,0,.72439,5.01076c1.34685,2.15543,3.99933,3.49083,7.88642,3.96268.70851.0859,1.35931.13815,1.98077.17323,1.68386,1.83059,2.84474,3.511,3.03629,4.79688l.94143,6.33571,1.36288-6.25783a18.81515,18.81515,0,0,0,.2972-5.81833,2.88919,2.88919,0,0,0,.89776-3.9299,48.27594,48.27594,0,0,0-4.76667-8.03531c-.79983-1.33239-1.166-9.83742-1.266-21.09555a7.15669,7.15669,0,0,1,3.12434.06313l.8017-2.19436c-.19126-.08934-.39555-.152-.58911-.23722,6.26585,1.33769,12.67156,1.47856,19.12352,1.48672,8.1152-.01546,16.62251.2229,24.67127,1.97476.09249,11.6242.22233,22.22451.24094,23.71324a6.57,6.57,0,0,0,.71237,5.06215c1.34685,2.15543,3.99933,3.49083,7.88642,3.96268a26.92626,26.92626,0,0,0,3.20451.21761c2.73035,0,4.462-.60242,5.25685-1.82329a3.07128,3.07128,0,0,0,.055-3.09456,48.27594,48.27594,0,0,0-4.76667-8.03531c-.63148-1.05194-.99282-6.57507-1.16618-14.39378a17.47624,17.47624,0,0,0,3.66061,1.89258,47.71961,47.71961,0,0,0,6.38839,1.624c3.67407.75818,7.142,1.47284,10.02353,3.48166.67571.46957.99181.91394.94371,1.32166-.15118,1.28272-2.96858,3.11288-5.605,4.13906-.33442.13056-.75589.27945-1.23232.44437-3.14266,1.10634-7.44664,2.61811-7.84978,5.46758-.43292,3.09456,2.79908,3.55038,4.36353,3.77027,7.06182,1.01473,14.59092,2.25163,22.191,5.21105,1.27814.49705,2.55169,1.01472,3.82525,1.53239.86082.34945,1.742.69948,2.61984,1.04908.08861,10.21378.19555,18.94685.21245,20.28769a6.5699,6.5699,0,0,0,.71236,5.06216c1.34686,2.15542,3.99933,3.49082,7.88643,3.96268a26.92592,26.92592,0,0,0,3.2045.2176c2.73036,0,4.462-.60241,5.25685-1.82329a3.07127,3.07127,0,0,0,.055-3.09455,48.27594,48.27594,0,0,0-4.76668-8.03531c-.57436-.95675-.92524-5.61175-1.1145-12.32784a30.73587,30.73587,0,0,1,7.40326,5.89578l1.24607,1.22087c.54515.52683,1.12925,1.02618,1.71563,1.52323a18.37847,18.37847,0,0,1,2.63186,2.5494c.52454.67114,1.01472,1.35144,1.50262,2.02944a32.83128,32.83128,0,0,0,3.44043,4.2513c3.06936,3.05332,7.78335,7.2588,13.27613,8.53694,1.198.27716,2.38906.61845,3.58244.95746a44.93479,44.93479,0,0,0,6.54874,1.51865l1.13612.13056a12.29493,12.29493,0,0,1,4.78041,1.14528,6.57651,6.57651,0,0,1,1.3125,1.22316,7.36565,7.36565,0,0,0,2.2104,1.85765,13.60329,13.60329,0,0,0,4.66588.89562l.96433.07788c5.55.51995,10.942.91393,16.65014,1.33311l.4856.03664c1.93324.13973,3.96268.09392,5.9234.04353a37.02577,37.02577,0,0,1,9.05233.51079C419.34941,184.37114,423.93513,185.95163,423.26628,189.1149Z"/>
    </g>
  </g>
</svg>
