<svg xmlns="http://www.w3.org/2000/svg" viewBox="0 0 225.37 154.45"><defs><style>.cls-1,.cls-2{fill:#fffdfd;}.cls-2{opacity:0;}</style></defs><g id="Layer_2" data-name="Layer 2"><g id="Layer_1-2" data-name="Layer 1"><path class="cls-1" d="M16.21,67.73H33.27v3.43h-13V81.69h12v3.38h-12V99.41H16.21Z"/><path class="cls-1" d="M44.93,67.73V86.48c0,7.1,3.15,10.11,7.38,10.11,4.7,0,7.7-3.1,7.7-10.11V67.73h4.14V86.2c0,9.73-5.12,13.72-12,13.72-6.49,0-11.38-3.71-11.38-13.53V67.73Z"/><path class="cls-1" d="M89.39,84.56H77.08V96H90.8v3.43H73V67.73h17.1v3.43h-13v10H89.39Z"/><path class="cls-1" d="M97.85,67.73h4.09V96h13.53v3.43H97.85Z"/><path class="cls-1" d="M131.22,85.17v3H119.61v-3Z"/><path class="cls-1" d="M137.94,68.11a47.28,47.28,0,0,1,7.85-.61c4,0,7,.94,8.88,2.63a8.49,8.49,0,0,1,2.77,6.62A9.31,9.31,0,0,1,155,83.52c-2.16,2.31-5.69,3.48-9.68,3.48a14.37,14.37,0,0,1-3.29-.28V99.41h-4.09ZM142,83.38a13.44,13.44,0,0,0,3.38.33c4.94,0,8-2.4,8-6.77,0-4.18-3-6.2-7.48-6.2a17,17,0,0,0-3.85.33Z"/><path class="cls-1" d="M168.77,67.73V81h15.32V67.73h4.14V99.41h-4.14V84.56H168.77V99.41h-4.09V67.73Z"/><path class="cls-1" d="M197.07,68.11a47.14,47.14,0,0,1,7.84-.61c4.05,0,7,.94,8.89,2.63a8.49,8.49,0,0,1,2.77,6.62,9.35,9.35,0,0,1-2.44,6.77C212,85.83,208.44,87,204.44,87a14.37,14.37,0,0,1-3.29-.28V99.41h-4.08Zm4.08,15.27a13.57,13.57,0,0,0,3.39.33c4.93,0,7.94-2.4,7.94-6.77,0-4.18-3-6.2-7.47-6.2a17.09,17.09,0,0,0-3.86.33Z"/><rect class="cls-2" width="225.37" height="154.45"/></g></g></svg>