<svg xmlns="http://www.w3.org/2000/svg" viewBox="0 0 236.36 161.98"><defs><style>.cls-1,.cls-2{fill:#fffdfd;}.cls-2{opacity:0;}</style></defs><g id="Layer_2" data-name="Layer 2"><g id="Layer_1-2" data-name="Layer 1"><path class="cls-1" d="M8.71,92.53,3.24,71H6.18L8.74,81.87c.64,2.69,1.22,5.38,1.6,7.46h.06c.36-2.15,1-4.71,1.76-7.49L15,71H18L20.58,81.9c.61,2.56,1.18,5.12,1.5,7.39h.07c.45-2.36,1.05-4.76,1.73-7.45L26.72,71h2.85L23.46,92.53H20.55L17.83,81.29a66,66,0,0,1-1.41-7h-.06a69,69,0,0,1-1.67,7L11.62,92.53Z"/><path class="cls-1" d="M51.88,81.52c0,7.42-4.52,11.36-10,11.36-5.7,0-9.7-4.42-9.7-10.95,0-6.84,4.26-11.32,10-11.32S51.88,75.12,51.88,81.52Zm-16.74.35c0,4.61,2.5,8.74,6.88,8.74s6.91-4.07,6.91-9c0-4.29-2.24-8.77-6.88-8.77S35.14,77.13,35.14,81.87Z"/><path class="cls-1" d="M75.11,81.52c0,7.42-4.51,11.36-10,11.36-5.69,0-9.69-4.42-9.69-10.95,0-6.84,4.25-11.32,10-11.32S75.11,75.12,75.11,81.52Zm-16.74.35c0,4.61,2.5,8.74,6.88,8.74s6.91-4.07,6.91-9c0-4.29-2.24-8.77-6.88-8.77S58.37,77.13,58.37,81.87Z"/><path class="cls-1" d="M95,91.82a13.86,13.86,0,0,1-5.7,1c-6.08,0-10.65-3.84-10.65-10.92,0-6.75,4.57-11.32,11.26-11.32a11.44,11.44,0,0,1,5.12,1l-.67,2.27a10.18,10.18,0,0,0-4.35-.9c-5.06,0-8.42,3.23-8.42,8.9,0,5.28,3,8.67,8.29,8.67a11,11,0,0,0,4.54-.9Z"/><path class="cls-1" d="M113.57,84.65c0,5.73-4,8.23-7.71,8.23-4.19,0-7.42-3.07-7.42-8,0-5.18,3.39-8.22,7.68-8.22S113.57,79.92,113.57,84.65Zm-12.29.16c0,3.4,2,6,4.71,6s4.7-2.53,4.7-6c0-2.62-1.31-6-4.64-6S101.28,81.87,101.28,84.81Z"/><path class="cls-1" d="M118.31,81.23c0-1.6,0-2.91-.13-4.19h2.46l.13,2.49h.1a5.33,5.33,0,0,1,4.86-2.84,4.58,4.58,0,0,1,4.38,3.1h.07a6.45,6.45,0,0,1,1.73-2,5.28,5.28,0,0,1,3.42-1.08c2,0,5.09,1.34,5.09,6.72v9.12h-2.75V83.76c0-3-1.09-4.77-3.36-4.77A3.64,3.64,0,0,0,131,81.55a4.57,4.57,0,0,0-.23,1.41v9.57H128V83.25c0-2.47-1.09-4.26-3.23-4.26a4.19,4.19,0,0,0-3.71,4.19v9.35h-2.75Z"/><path class="cls-1" d="M146.18,81.23c0-1.6,0-2.91-.13-4.19h2.46l.13,2.49h.1a5.33,5.33,0,0,1,4.86-2.84,4.6,4.6,0,0,1,4.39,3.1h.06a6.45,6.45,0,0,1,1.73-2,5.28,5.28,0,0,1,3.42-1.08c2.05,0,5.09,1.34,5.09,6.72v9.12h-2.75V83.76c0-3-1.09-4.77-3.36-4.77a3.64,3.64,0,0,0-3.33,2.56,4.58,4.58,0,0,0-.22,1.41v9.57h-2.76V83.25c0-2.47-1.08-4.26-3.23-4.26a4.19,4.19,0,0,0-3.71,4.19v9.35h-2.75Z"/><path class="cls-1" d="M175.62,85.29c.06,3.81,2.49,5.38,5.31,5.38a10.16,10.16,0,0,0,4.29-.8l.48,2a12.68,12.68,0,0,1-5.15,1c-4.77,0-7.62-3.14-7.62-7.81s2.75-8.35,7.26-8.35c5.06,0,6.4,4.44,6.4,7.29a11.06,11.06,0,0,1-.09,1.31Zm8.25-2c0-1.79-.73-4.58-3.9-4.58-2.85,0-4.1,2.63-4.32,4.58Z"/><path class="cls-1" d="M191.27,81.87c0-1.82,0-3.39-.13-4.83h2.46l.1,3h.13a4.64,4.64,0,0,1,4.28-3.39,3.2,3.2,0,0,1,.8.09v2.66a3.88,3.88,0,0,0-1-.1c-2,0-3.39,1.51-3.77,3.62a7.26,7.26,0,0,0-.13,1.31v8.26h-2.78Z"/><path class="cls-1" d="M214,92a10.39,10.39,0,0,1-4.44.9c-4.68,0-7.72-3.17-7.72-7.91s3.27-8.22,8.32-8.22a9.33,9.33,0,0,1,3.91.8l-.64,2.17a6.62,6.62,0,0,0-3.27-.73c-3.55,0-5.47,2.62-5.47,5.85,0,3.59,2.31,5.8,5.38,5.8a8,8,0,0,0,3.45-.77Z"/><path class="cls-1" d="M220,85.29c.07,3.81,2.5,5.38,5.31,5.38a10.16,10.16,0,0,0,4.29-.8l.48,2a12.68,12.68,0,0,1-5.15,1c-4.77,0-7.62-3.14-7.62-7.81s2.76-8.35,7.27-8.35c5,0,6.4,4.44,6.4,7.29a10.61,10.61,0,0,1-.1,1.31Zm8.26-2c0-1.79-.74-4.58-3.91-4.58-2.85,0-4.09,2.63-4.32,4.58Z"/><rect class="cls-2" width="236.36" height="161.98"/></g></g></svg>