<svg xmlns="http://www.w3.org/2000/svg" viewBox="0 0 397.78289 142.33963">
  <defs>
    <style>
      .cls-1 {
        fill: #fff;
      }
    </style>
  </defs>
  <g id="Layer_2" data-name="Layer 2">
    <g id="Layer_4" data-name="Layer 4">
      <g>
        <path class="cls-1" d="M234.74439,109.98645l1.186,2.15792a14.42047,14.42047,0,0,0,2.37564-1.63588l-1.59258-1.87886A12.0114,12.0114,0,0,1,234.74439,109.98645Z"/>
        <rect class="cls-1" x="208.6641" y="109.86135" width="7.74157" height="2.46345"/>
        <path class="cls-1" d="M395.07045,114.78945c-.44987-.166-.82636-.83959-1.06212-1.89931a33.78218,33.78218,0,0,1-.54489-3.789,30.26283,30.26283,0,0,0-.8011-4.90885c-.79028-2.85317-3.00714-6.37753-6.6554-6.92122a12.06065,12.06065,0,0,0-1.435-.09864,4.43749,4.43749,0,0,1-1.8115-.27184c-.84922-.43062-1.18241-1.55409-1.56973-2.85558a10.53694,10.53694,0,0,0-1.31351-3.12141,9.41852,9.41852,0,0,0-3.68074-2.79423,12.86583,12.86583,0,0,1-2.08815-1.25578c-2.194-1.75857-2.80506-4.98944-3.11419-7.91839l-.071-.68923c-.31274-3.04924-.66759-6.50624-2.71244-9.16816a10.53969,10.53969,0,0,0-3.03721-2.43458,6.784,6.784,0,0,1-2.40811-1.9811,13.33114,13.33114,0,0,0-1.168-1.69241c-.6315-.80351-.74577-.94906-.40055-2.609.13712-.66036.31394-1.31592.48956-1.97147a15.37026,15.37026,0,0,0,.76742-5.67868l-.11066-1.06453-1.06934-.03849c-.64353-.02405-1.29187-.06255-1.94141-.10224-3.3716-.19727-6.86228-.41138-10.10037,1.43982-.32717.18644-.6736.41258-1.03565.64954-1.72249,1.12467-2.84716,1.75015-3.91409.96108a1.84926,1.84926,0,0,1-.581-.88771,3.35836,3.35836,0,0,0-2.63425-2.28422,7.27985,7.27985,0,0,0-3.43054.30312,5.975,5.975,0,0,1-1.90412.31154c-.6736-.05774-1.19925-.63511-1.98471-1.58055a5.86371,5.86371,0,0,0-2.98624-2.27866,4.82263,4.82263,0,0,0-2.15957-4.21555,8.14554,8.14554,0,0,0-4.66708-1.19925,30.59806,30.59806,0,0,0-7.10165,1.109c-1.30029.31033-2.64387.63149-3.95619.83237a2.65486,2.65486,0,0,1-1.595-.07458c-.39334-.24778-.59181-.931-.80351-1.65512-.11547-.39695-.23215-.79269-.38131-1.16316-1.20285-2.99511-4.36636-4.33389-6.90679-5.41044-2.27219-.96229-4.797-2.16755-6.00344-4.29419a13.05908,13.05908,0,0,1-1.0116-2.67034,9.99577,9.99577,0,0,0-2.28783-4.53957c-1.98952-1.96186-4.83548-2.087-7.57317-2.1038a7.73164,7.73164,0,0,0-4.07046.82035,7.565,7.565,0,0,0-2.39128,2.72447,8.47593,8.47593,0,0,1-1.14993,1.59378,8.42878,8.42878,0,0,1-3.706,1.65994c-1.73211.48114-3.69517,1.02724-5.03274,2.59215a9.98087,9.98087,0,0,0-1.68641,3.42693,5.56418,5.56418,0,0,1-1.59017,2.89527,4.97111,4.97111,0,0,1-2.78822.587c-.69765-.04089-1.429-.02766-2.14468-.05412a20.48777,20.48777,0,0,0-6.53511.46069,11.34538,11.34538,0,0,0-7.90276,10.64767,14.07383,14.07383,0,0,0-3.34574.8462c-.23139.21757-.47287.43138-.72441.6321L241.73523,8.526a1.26376,1.26376,0,0,0-1.24255-1.18842l-12.96918.13111a1.23266,1.23266,0,0,0-.87928.38131L215.8931,19.1123l-6.90919-.20328.88771-4.4662a1.22358,1.22358,0,0,0-.00722-.516c-.18284-.79509-1.91855-7.768-6.564-7.768-4.11617,0-5.60891,8.36345-6.084,12.31362H183.85267l-8.08318-7.11247L171.06633.73509a1.22046,1.22046,0,0,0-1.245-.72772,1.232,1.232,0,0,0-1.08256.95386L157.90094,48.83454a9.00094,9.00094,0,0,1-1.16707-.68022,17.83807,17.83807,0,0,0-3.23508-1.37907c-3.6651-1.06693-7.55272-.35725-11.31405.32958-4.489.82275-8.73032,1.59739-11.89623-.8432a15.13489,15.13489,0,0,1-1.43982-1.32675,11.87548,11.87548,0,0,0-2.6583-2.17837,6.67265,6.67265,0,0,0-5.19393-.42581,7.11591,7.11591,0,0,0-2.12183,1.08257,8.04849,8.04849,0,0,0-2.13267-3.11419,7.15259,7.15259,0,0,0-11.44636,1.87525,7.91262,7.91262,0,0,0-.98754,4.66948A49.139,49.139,0,0,0,83.73444,50.142L82.19,50.76632c-2.88685,1.18481-5.86752,2.41413-8.74355,1.94261A16.26628,16.26628,0,0,1,69.204,51.14762c-.89492-.4234-1.79225-.8456-2.71724-1.1812-2.72086-.99-6.39919-1.15955-8.54508,1.352-.15276.178-.2947.36928-.43423.56053a3.10464,3.10464,0,0,1-.55813.64593.82916.82916,0,0,1-.7614.05774,2.03719,2.03719,0,0,1-1.22331-1.20887c-.37529-1.16436.01444-2.54283.52084-4.09452l.51482-1.57333-14.22014-.34883c-3.54963-.09262-7.33742.10946-10.18457,1.75256a6.99566,6.99566,0,0,0-.19486-.79749,7.79418,7.79418,0,0,0-4.2557-4.74887c-3.37762-1.44583-7.16661-.65074-10.09075.20809l-.89973.26343.01443.93823a112.57819,112.57819,0,0,1-1.27412,18.75866c-.57512.20554-1.15384.4019-1.72219.62293l-.255.09863c-1.78744.69766-3.63622,1.423-5.26128,1.014l-1.46748-.36447-.06015,1.51079C5.70407,75.29012,4.40258,86.1146,3.14439,96.583,1.5903,109.51253-.01671,122.88346.00013,136.15214l.78817-.00075.09473.4434c18.37961-3.92371,37.64814-3.51594,56.28637-3.1202,3.71682.07939,7.43.15757,11.13482.20328,15.2979.18885,30.8051-.19606,46.08737-1.14391l-.15156-2.45864c-15.22333.94545-30.66918,1.32555-45.90454,1.13911-3.69877-.04571-7.40477-.1239-11.11317-.20208-18.07-.38432-36.718-.73615-54.72717,2.7822.16-12.35437,1.6413-24.82887,3.09465-36.91681C6.80227,86.79542,8.05324,76.38471,8.532,66.04859a15.13967,15.13967,0,0,0,5.28173-1.30029l.2514-.09863a64.296,64.296,0,0,1,11.69415-3.30906,3.24557,3.24557,0,0,1,1.601-.0433c.53527.2105.89011.89733,1.30028,1.69242a8.88572,8.88572,0,0,0,1.23052,1.93419c1.696,1.87765,4.30622,1.97629,6.61691,1.927l24.786-.56414a5.66982,5.66982,0,0,0,2.44541,3.1178,2.76908,2.76908,0,0,0,2.38165.07458,4.20729,4.20729,0,0,0,1.93058-2.0208,3.632,3.632,0,0,1,.67-.95146,3.38382,3.38382,0,0,1,1.83435-.38972c3.50392-.14916,7.48416-.31395,10.78961,1.21969l.63029.30673a8.0698,8.0698,0,0,0,2.8652.98634,3.92371,3.92371,0,0,0,2.787-.848,2.97351,2.97351,0,0,0,.81914-1.07175,9.8087,9.8087,0,0,1,9.34137,2.259c.44866.427.8865.90815,1.328,1.3905,1.70805,1.86683,3.61818,3.97663,6.48218,3.64224l.90214-.10946.16239-.89492c.30552-1.69122,2.09537-2.78341,3.63021-3.08292a15.44874,15.44874,0,0,1,5.983.47272l2.36.49437-.98273-2.20122c-.80712-1.80909,1.78985-3.87921,3.27417-4.7212,2.19641-1.24255,5.87233-3.32349,5.65582-6.902a8.2832,8.2832,0,0,0-.1263-.94545,2.3389,2.3389,0,0,1-.05653-1.02483.32728.32728,0,0,1,.22613-.20448,3.32181,3.32181,0,0,1,2.19882.356,17.69089,17.69089,0,0,1,8.29488,21.6165c-.31635.79869-.68923,1.57333-1.06212,2.348a32.16618,32.16618,0,0,0-1.33276,3.04082,3.21582,3.21582,0,0,0-.15878,2.10379,3.55039,3.55039,0,0,0,2.04967,1.93539,10.1262,10.1262,0,0,1,4.98342,5.876l.492,1.56371,1.36524-.907a6.29541,6.29541,0,0,1,9.13568,4.15587,13.298,13.298,0,0,1,.06977,1.75376,7.847,7.847,0,0,0,1.61784,5.62575c.17682.26463.35243.52805.51482.79869a9.12429,9.12429,0,0,1-3.90206,12.381l.59857,1.33111c-.04-.01774-.091-.028-.12826-.04766a4.95432,4.95432,0,0,1-1.1812-1.05611l-5.01711-5.46216a24.52284,24.52284,0,0,1-4.70917-6.38475,24.43268,24.43268,0,0,1-1.506-7.228,25.179,25.179,0,0,0-1.87646-8.32977,2.0463,2.0463,0,0,0-2.15792-1.41335,2.17468,2.17468,0,0,0-1.2245.68442,22.0033,22.0033,0,0,1-4.75609,3.9177,6.32355,6.32355,0,0,1-5.25768.61827,7.80986,7.80986,0,0,1-1.97148-1.76219c-1.16556-1.26179-2.38766-2.55486-3.85033-2.37323a2.74059,2.74059,0,0,0-2.03042,1.63588c-1.26059,2.39128-.85042,6.19591-.48836,9.55428.13472,1.24736.261,2.425.27064,3.31386.095,8.87947-.1684,17.86359-.78185,26.70337l-.1239,1.79827,1.72009-.53648a8.21325,8.21325,0,0,1,5.80016.80471,31.76063,31.76063,0,0,1,3.57248,2.12424c.74216.48475,1.48432.9695,2.24813,1.41817,7.3326,4.317,16.08818,5.01229,22.5848,5.01229.599,0,1.18-.006,1.73812-.01563,2.59456-.04451,5.19272-.17562,7.78969-.30793a105.96179,105.96179,0,0,1,16.51038.02165l.82681.08871.26658.69916c5.40322-2.05929,11.30924-2.6968,17.02039-3.31387l25.19574-2.72506a45.30214,45.30214,0,0,0,7.5616.55511,76.42989,76.42989,0,0,0,11.93833-1.41094c2.90489-.50159,5.90721-1.01882,8.86022-1.251,7.36748-.58218,14.89254.56534,22.171,1.672,2.73409.41619,5.467.83238,8.20227,1.16437a44.89483,44.89483,0,0,0,5.37195.39453,22.04083,22.04083,0,0,0,3.34874-.23936,15.35277,15.35277,0,0,0,4.68181-1.487,3.86393,3.86393,0,0,0,2.19732.58248,10.43153,10.43153,0,0,0,1.506-.1275c1.94021-.28508,3.85756-.61586,5.76528-.94424,5.62335-.9695,10.93756-1.87646,16.59458-1.65513,2.26738.09262,4.5937.3392,6.84424.57857,4.56363.48475,9.28243.98273,13.95672.27185a54.51533,54.51533,0,0,0,10.6585-3.14787,58.76424,58.76424,0,0,1,9.13162-2.81288c.69855.04421,1.39546.08,2.09221.08,10.72465,0,21.074-5.03034,29.50963-9.13087l7.4156-3.605ZM160.03029,139.07027c-2.5693.12991-5.1398.261-7.70789.30432-6.303.11427-15.55772-.25861-23.03106-4.65505-.72893-.43062-1.43861-.89492-2.1495-1.35922a34.25145,34.25145,0,0,0-3.85154-2.28182,12.20892,12.20892,0,0,0-5.16626-1.29788c-.243,0-.48715.00963-.73374.03128.54129-8.39111.76983-16.8965.68082-25.30926-.01083-1.008-.14314-2.24333-.28508-3.552-.30793-2.858-.69044-6.41482.21892-8.13972.095-.18043.1696-.27786.18284-.32116a8.47317,8.47317,0,0,1,1.70805,1.57935,8.873,8.873,0,0,0,2.87242,2.38165,8.76064,8.76064,0,0,0,7.3362-.73975,22.12514,22.12514,0,0,0,4.91246-3.92973,24.38836,24.38836,0,0,1,1.48432,7.1654,26.57417,26.57417,0,0,0,1.69843,7.95087,26.70856,26.70856,0,0,0,5.15183,7.06437l5.01711,5.46336a6.97843,6.97843,0,0,0,1.844,1.56732,7.0666,7.0666,0,0,0,1.90051.60263l.48475.10585c4.50229,1.07656,7.34463,5.91684,9.09118,9.46406a4.75976,4.75976,0,0,0,2.0232,2.4021c1.74534.85523,3.30424-.13111,4.56-.92379a8.87456,8.87456,0,0,1,1.4338-.79389c1.6419-.63029,3.6242.62789,4.51431,2.15552a11.7383,11.7383,0,0,1,1.25338,4.96177A117.1886,117.1886,0,0,0,160.03029,139.07027Zm34.48463-2.49352c-5.49058.59331-11.153,1.22225-16.53022,3.07826a15.41973,15.41973,0,0,0-1.63528-6.89131c-1.40855-2.41773-4.52635-4.36876-7.52506-3.214a10.82309,10.82309,0,0,0-1.86683,1.00919c-1.02965.64954-1.69,1.02243-2.15792.79749a2.9746,2.9746,0,0,1-.89974-1.27863c-1.96666-3.99348-5.218-9.45564-10.72946-10.77277l-.34582-.07608a11.20352,11.20352,0,0,0,4.95516-6.33272,12.26646,12.26646,0,0,0,.49527-2.35294,79.3794,79.3794,0,0,1,8.72461.09758,9.97212,9.97212,0,0,1,2.90128.51,10.80142,10.80142,0,0,1,3.0336,2.16153l4.64783,4.16308a7.89389,7.89389,0,0,0,6.97054,2.46946c.48956-.00962.97913-.01924,1.46027.00121,3.06968.14193,6.054,1.73331,8.687,3.137l18.42292,9.8201c.83719.44626,1.73692.925,2.68838,1.37006Zm154.26007-7.6285a52.70521,52.70521,0,0,1-10.17134,3.02157c-4.36035.66638-8.71468.20328-13.32522-.28748-2.289-.243-4.65625-.49438-7.003-.5894-5.93007-.23937-11.61115.73975-17.11421,1.68881-1.88848.32477-3.78538.65194-5.70514.93461-.27049.04-.45708.04962-.66022.06526.24674-.22975.52415-.43619.74442-.68473l-1.84518-1.63347c-.11352.12825-.26418.23185-.38732.35394.01639-.39063.03849-.79509.06375-1.19594l.02887-.4222c.32838-4.785.29711-7.57558-.00361-9.23071a3.69245,3.69245,0,0,0,2.02922-2.1074,7.28894,7.28894,0,0,0-.0433-4.0452,95.4865,95.4865,0,0,1-1.73572-12.46157,3.96692,3.96692,0,0,1-.01925-.44987,2.74512,2.74512,0,0,1,.67119-.2959l.2947-.10585c3.12261-1.16557,4.65264-4.37358,5.04237-6.98738a23.84347,23.84347,0,0,0-.3777-7.23277l-.12509-.81553a17.39819,17.39819,0,0,1-.09984-6.34987,10.18658,10.18658,0,0,1,4.51431,1.53845,18.16559,18.16559,0,0,0,3.98025,1.65633c2.47186.60023,4.90764.12149,7.26644-.3392l1.31111-.249a36.75972,36.75972,0,0,1,9.49052-.44145c-.05653,11.31525-.02044,22.75319.10826,34.01311l.01684,1.4326,1.41335-.231c5.2661-.86124,10.62843,1.6431,15.65756,4.47462l.85734.48505c-.00346.252-.02737.499-.02737.75149h1.36855a47.42245,47.42245,0,0,0,8.60913,4.02715C351.96255,127.76344,350.35674,128.36005,348.775,128.94825Zm40.51574-11.77113c-6.164,2.99585-12.87625,6.24943-19.8934,7.86005.00195-.04.023-.07368.023-.11412V100.14966a2.37036,2.37036,0,0,0-2.37052-2.37038H361.8855a2.37036,2.37036,0,0,0-2.37052,2.37038v24.77339a2.3099,2.3099,0,0,0,.30988,1.10617c-.09051-.00316-.18118-.00827-.27184-.01218l-.01489-.21546c-4.69339-.08781-9.10546-2.3609-13.37454-4.75669.08255-2.20378.23862-4.38981.439-6.662.10585-1.198.21291-2.39969.30192-3.61217a46.096,46.096,0,0,1,1.40373-7.49619,41.84464,41.84464,0,0,0,1.5156-9.04065c.16479-7.30854.55933-15.767,3.1635-23.6421.22494-.68082.44025-1.48914.67-2.35279.62789-2.36721,1.40975-5.31421,2.79784-6.56157.34041-.30793.61226-.32236,1.45065-.30913l.46069.0024-.01684-2.46344-.415-.00241a4.03717,4.03717,0,0,0-3.12743.93943c-1.933,1.73933-2.7822,4.93892-3.53158,7.76322-.21531.81193-.41618,1.57093-.62668,2.20965-2.71124,8.19986-3.119,16.87364-3.28861,24.36141a39.2767,39.2767,0,0,1-1.44463,8.509,47.91348,47.91348,0,0,0-1.46748,7.90155c-.089,1.20045-.19366,2.39007-.29951,3.57729-.15908,1.80549-.297,3.65608-.39875,5.52261-4.92042-2.75394-10.16818-5.17092-15.598-4.78887-.11908-11.17692-.14915-22.51623-.08661-33.72563l.006-1.10663-1.09821-.12389a39.20075,39.20075,0,0,0-11.29961.35484l-1.352.25621a14.85312,14.85312,0,0,1-6.21635.36326,16.14824,16.14824,0,0,1-3.43175-1.45425c-2.12664-1.091-4.32185-2.22047-6.86469-1.67317l-.68923.14915-.22012.66879a17.7089,17.7089,0,0,0-.20208,8.22632l.1275.82636a21.69106,21.69106,0,0,1,.37409,6.49061c-.27305,1.83194-1.34479,4.25088-3.46783,5.04356l-.249.089a2.77455,2.77455,0,0,0-2.29144,3.25131,98.069,98.069,0,0,0,1.78263,12.79356,5.323,5.323,0,0,1,.13592,2.69319,1.21725,1.21725,0,0,1-.66037.67119.37324.37324,0,0,1-.28267.01684v-.0012l-1.186,2.16033a.58436.58436,0,0,1-.20088-.1696c.16961.273.68443,1.75255.16239,9.33054l-.03729.57256a15.48909,15.48909,0,0,0-.01038,2.95631,12.97143,12.97143,0,0,1-3.83755,1.19113,30.17447,30.17447,0,0,1-8.05191-.1672c-2.71-.32838-5.41886-.741-8.12769-1.15233-7.4168-1.12948-15.0874-2.29385-22.734-1.69362-3.06607.24177-6.12613.76862-9.08636,1.27863a74.51914,74.51914,0,0,1-11.551,1.37607,39.90653,39.90653,0,0,1-4.60317-.20885l-.05548-.66924c-3.018.16119-5.96255-1.39771-8.56553-2.78581l-18.42172-9.8201c-2.86279-1.52642-6.10809-3.25613-9.73349-3.42332-.53407-.02286-1.079-.01444-1.62265-.00361a5.59732,5.59732,0,0,1-5.27693-1.84037l-4.64783-4.16308a12.83986,12.83986,0,0,0-3.77576-2.61982,12.15633,12.15633,0,0,0-3.62781-.67359,82.3296,82.3296,0,0,0-8.902-.1042,10.2859,10.2859,0,0,0-1.36313-4.1936c-.18284-.30553-.38131-.60384-.57978-.90214a5.53823,5.53823,0,0,1-1.20406-4.2557,15.71706,15.71706,0,0,0-.09141-2.07733,8.20585,8.20585,0,0,0-4.957-6.27048,8.51158,8.51158,0,0,0-6.64457-.31635,12.57349,12.57349,0,0,0-5.78933-6.0227,3.25328,3.25328,0,0,1-.72893-.43783,1.45,1.45,0,0,1,.13111-.53046,29.51053,29.51053,0,0,1,1.23292-2.80386c.39815-.82756.79509-1.65633,1.13309-2.51035,3.57128-9.0587-.77343-20.38117-9.48691-24.72588a5.56408,5.56408,0,0,0-4.16789-.45468,2.77736,2.77736,0,0,0-1.63829,1.57815,4.15121,4.15121,0,0,0-.08781,2.37924,6.082,6.082,0,0,1,.09382.66879c.11307,1.88608-2.11582,3.31146-4.41086,4.61054-2.25175,1.27623-4.49026,3.4137-4.6767,5.8134a14.04261,14.04261,0,0,0-5.21678-.13232,7.14983,7.14983,0,0,0-5.28414,4.02355c-1.2642-.26583-2.40451-1.51319-3.60135-2.8219-.48114-.52685-.95867-1.04768-1.44583-1.512a12.3043,12.3043,0,0,0-12.46879-2.60058l-.73614.26944-.06857.77945a.39906.39906,0,0,1-.16719.25621,1.37916,1.37916,0,0,1-.98273.28508,6.04571,6.04571,0,0,1-1.98953-.73615l-.69524-.338c-3.84433-1.78143-8.13972-1.601-11.92631-1.44583a5.37515,5.37515,0,0,0-3.28619.93822,5.48532,5.48532,0,0,0-1.25458,1.63949c-.25621.44626-.498.86847-.75179.97672a.34119.34119,0,0,1-.326-.01082,4.23581,4.23581,0,0,1-1.45425-2.46706l-.24057-.95146-26.68894.60624c-1.7706.05533-3.73486-.00842-4.73323-1.11384a6.88943,6.88943,0,0,1-.86966-1.41456A5.23182,5.23182,0,0,0,28.26,59.00467a5.2464,5.2464,0,0,0-2.94338-.08661,66.61937,66.61937,0,0,0-7.822,1.945,115.041,115.041,0,0,0,1.14857-16.97829c2.37323-.62789,5.18551-1.06212,7.53348-.05653a5.343,5.343,0,0,1,2.87121,3.21282,3.17687,3.17687,0,0,1-.2526,2.67515l2.0629,1.34479c2.03523-3.042,6.63976-3.34754,10.86177-3.24049l10.94959.26824a7.25908,7.25908,0,0,0-.05052,4.04038,4.49244,4.49244,0,0,0,2.80024,2.793,3.23083,3.23083,0,0,0,2.96744-.39694,4.99629,4.99629,0,0,0,1.10783-1.19083c.10345-.14193.20689-.28387.31876-.41618,1.33036-1.55048,3.97062-1.31232,5.83144-.63752.854.31034,1.68039.70367,2.50554,1.0946a18.40391,18.40391,0,0,0,4.90164,1.76579c3.55684.57737,6.86829-.77945,10.0727-2.09537l1.51078-.611a46.39583,46.39583,0,0,1,21.15821-3.01075l2.02922.18645-.77825-1.88367a5.06451,5.06451,0,1,1,9.81289-1.607l-.41017,6.16824,2.74371-5.54035a4.45063,4.45063,0,0,1,5.8158-1.83074,9.90849,9.90849,0,0,1,2.10018,1.75977,17.42673,17.42673,0,0,0,1.678,1.53605c4.03678,3.113,9.02382,2.19761,13.84365,1.31592,3.47625-.6339,7.07279-1.29186,10.18217-.38852a20.789,20.789,0,0,1,4.04279,1.8548c.38627.2105.77795.4201,1.17173.62654a10.77426,10.77426,0,0,0-.017,1.12843l2.15672-.14344a11.42142,11.42142,0,0,0,2.72326.75208,17.22338,17.22338,0,0,0,3.43054.012,21.22328,21.22328,0,0,1,2.29625-.06255c5.59448.26944,9.76838,5.3948,11.278,10.04263,1.75858,5.414,1.21489,11.527.73495,16.92056l-.184,2.06891,1.90292-.83c3.00713-1.30751,6.50383,1.18962,9.21867,3.50993l1.05491.90214c3.54722,3.03359,4.892,5.43449,4.23164,7.55512l-1.10422,3.552,3.00593-2.19039c4.94614-3.60616,5.82422-9.843,6.67344-15.87648.80711-5.74122,1.57093-11.16369,5.58966-14.20691,3.69517-2.79784,8.82655-2.50194,14.1997-1.90653l13.99521,1.54086a12.93369,12.93369,0,0,1,3.552.72291c2.80626,1.1788,4.16428,4.36516,4.49988,6.95371a29.57168,29.57168,0,0,1-.42341,7.91718l-.23094,1.672a75.17017,75.17017,0,0,0,1.22931,26.41348l2.40331-.54369a72.7238,72.7238,0,0,1-1.19083-25.551l.22734-1.64551a31.78923,31.78923,0,0,0,.42822-8.57876c-.42341-3.26815-2.21927-7.32418-5.98781-8.90833a15.06,15.06,0,0,0-4.23766-.90094L225.486,60.4c-5.65342-.61947-11.54139-.95146-15.95587,2.39248-4.83066,3.65668-5.70032,9.84416-6.54232,15.82716-.65916,4.68511-1.28946,9.15973-3.69036,12.27994-.676-2.76536-3.0757-5.1386-5.076-6.85026l-1.05491-.90094c-2.5729-2.2-6.24642-4.84509-9.932-4.40966.43784-5.17829.71931-10.86057-.99836-16.14832-1.82233-5.61011-6.70472-11.41629-13.50325-11.74347a24.46825,24.46825,0,0,0-2.5693.06495,15.25044,15.25044,0,0,1-2.95421.00482,9.61257,9.61257,0,0,1-2.55952-.7578c.01594-.09157.0436-.18464.061-.27636-.167-.02947-.32236-.108-.48775-.1466l10.09736-44.602,3.30665,7.46973a1.21988,1.21988,0,0,0,.31274.427l8.63529,7.59843a1.231,1.231,0,0,0,.81313.30673h14.93344a1.23075,1.23075,0,0,0,1.22571-1.11384c.5088-5.28655,2.22167-11.19978,3.7529-11.19978,2.17476,0,3.65668,3.91529,4.10174,5.60891l-1.11746,5.62575a1.23193,1.23193,0,0,0,1.17158,1.47229l8.91315.26223a1.22351,1.22351,0,0,0,.92741-.38131L228.06719,9.92731,239.31625,9.813l1.494,42.58826,1.21624-.04285a3.6959,3.6959,0,0,1-1.28916.37063c-.0224.00165-.04315-.00632-.0654-.00527a14.61165,14.61165,0,0,0-5.65568,7.32975l2.34076.76983a12.42772,12.42772,0,0,1,11.28759-8.31534l1.38328-.024-.18284-1.37126a8.86148,8.86148,0,0,1,6.05517-9.26438,18.43932,18.43932,0,0,1,5.76168-.36567c.73975.02766,1.47951.05533,2.21445.05533a6.67787,6.67787,0,0,0,4.24127-1.04528,7.60675,7.60675,0,0,0,2.49472-4.11376,7.94974,7.94974,0,0,1,1.2233-2.6126c.85042-.99356,2.29384-1.39531,3.82147-1.81992a10.33824,10.33824,0,0,0,4.77292-2.277,10.368,10.368,0,0,0,1.52041-2.05809A5.48559,5.48559,0,0,1,283.52254,25.7a5.55684,5.55684,0,0,1,2.80145-.4619c2.206-.01083,4.51191.09021,5.83384,1.39411a8.07809,8.07809,0,0,1,1.65874,3.4967,15.05219,15.05219,0,0,0,1.22811,3.17553c1.58657,2.79664,4.54078,4.22683,7.18465,5.34669,2.2313.94544,4.7609,2.016,5.58245,4.06084.11908.2959.2093.61465.30192.93341a4.87452,4.87452,0,0,0,1.856,3.05044,4.66352,4.66352,0,0,0,3.28019.42461c1.41215-.21531,2.80746-.5485,4.15586-.87087a28.322,28.322,0,0,1,6.52909-1.04167,5.81275,5.81275,0,0,1,3.29221.78065,2.31238,2.31238,0,0,1,1.09941,2.25175,4.50014,4.50014,0,0,1-1.36042,1.85119,14.452,14.452,0,0,0-1.0092,1.085,9.8887,9.8887,0,0,0-1.96907,6.327c0,.42942.01443.87086.02887,1.31592.06014,1.8524.11667,3.60255-.89012,4.60573-1.11745,1.11625-3.18155.919-5.19392.61827a4.19167,4.19167,0,0,0-4.0019.88049l-.261.20087c-1.97749,1.447-4.89321.86726-7.71511.30553l-.52805-.10465c-2.78581-.5473-7.77284-.91417-9.92475,2.76416l-.12389.22012c-.06376.11548-.16.28989-.17442.31274a1.05525,1.05525,0,0,1-.31515.04691,5.48793,5.48793,0,0,1-4.26772-1.68038c-.25982-.27666-.49317-.57858-.72773-.87929a7.53844,7.53844,0,0,0-6.34025-3.31747c-3.48016-.47889-7.43529-.85809-11.10685.33093v-15.699a2.37037,2.37037,0,0,0-2.37038-2.37053H267.633a2.37049,2.37049,0,0,0-2.37053,2.37053V64.23318a2.33414,2.33414,0,0,0,1.15414,1.98621l-.00226.0012a5.53156,5.53156,0,0,1-4.18713.5449,7.64561,7.64561,0,0,1-1.5565-.93462,9.01691,9.01691,0,0,0-2.32391-1.30269c-3.65668-1.21128-6.89236,1.78022-9.00818,4.13661l1.83315,1.64551c2.627-2.92775,4.65024-4.02716,6.398-3.44377a6.89773,6.89773,0,0,1,1.67919.97671,9.61743,9.61743,0,0,0,2.09056,1.2197,7.68356,7.68356,0,0,0,6.149-.62549c.77584-.37529,1.5168-.81914,2.25656-1.2642a22.07657,22.07657,0,0,1,2.38766-1.3099c3.42814-1.51921,7.51784-1.12106,11.0831-.6315a7.38538,7.38538,0,0,1,3.63262,1.16075,7.57694,7.57694,0,0,1,1.10062,1.23052c.28146.36086.56534.72292.87928,1.0549a7.93646,7.93646,0,0,0,5.728,2.46586c.16238,0,.326-.00482.48956-.01564a2.9601,2.9601,0,0,0,1.5589-.48114,3.58214,3.58214,0,0,0,1.02363-1.31352c1.4362-2.45382,5.60169-1.92818,7.32418-1.59017l.522.10344c3.18756.63511,6.79973,1.35321,9.64929-.73374l.32959-.2526a3.23451,3.23451,0,0,1,.53527-.37168,3.16063,3.16063,0,0,1,1.57934-.00842c1.94863.29109,5.20957.77344,7.29892-1.31111,1.76339-1.75857,1.6828-4.24006,1.61183-6.42926-.01444-.41739-.02767-.83237-.02767-1.23413a7.6684,7.6684,0,0,1,1.417-4.77533,12.01962,12.01962,0,0,1,.84079-.89853,12.59212,12.59212,0,0,0,1.14271-1.26119c.6503-.06661,1.11445.37333,2.00155,1.44041.85523,1.03085,1.921,2.31309,3.67111,2.461a7.83688,7.83688,0,0,0,2.73409-.3813,5.25159,5.25159,0,0,1,2.277-.28147c.59781.13232.64954.2538.89853.842a4.162,4.162,0,0,0,1.38088,1.90171c2.52479,1.87646,5.0568.21772,6.73117-.87688.31755-.20809.62187-.409.90936-.57256,2.59936-1.48913,5.57763-1.31231,8.72911-1.11865q.42581.02526.84922.04932a17.55941,17.55941,0,0,1-.72653,3.73606c-.18885.70127-.37529,1.40253-.52324,2.10981-.52324,2.51877-.13472,3.34514.87688,4.63219a10.82126,10.82126,0,0,1,.9683,1.39772,8.63229,8.63229,0,0,0,3.25613,2.85317,8.6054,8.6054,0,0,1,2.372,1.83555c1.61905,2.1074,1.92217,5.06161,2.21566,7.9196l.07217.69525c.36086,3.43415,1.12227,7.25682,4.02355,9.58194a14.85914,14.85914,0,0,0,2.48871,1.518,7.4854,7.4854,0,0,1,2.799,2.01839,8.61107,8.61107,0,0,1,.97311,2.41533c.47994,1.613,1.02363,3.44016,2.81708,4.34952a6.44907,6.44907,0,0,0,2.86039.53888,9.36274,9.36274,0,0,1,1.1367.07217c2.47908.36928,4.05121,2.99992,4.64422,5.141a27.954,27.954,0,0,1,.72532,4.51191,36.43061,36.43061,0,0,0,.5894,4.06324,6.8272,6.8272,0,0,0,.86124,2.21085Z"/>
        <rect class="cls-1" x="51.48756" y="94.86326" width="11.78061" height="19.0066" rx="2.37053"/>
        <path class="cls-1" d="M167.49791,69.912h4.88464a2.37038,2.37038,0,0,1,2.37038,2.37038v12.926a2.37053,2.37053,0,0,1-2.37053,2.37053h-4.88464a2.37038,2.37038,0,0,1-2.37038-2.37038v-12.926A2.37053,2.37053,0,0,1,167.49791,69.912Z"/>
        <path class="cls-1" d="M279.41359,77.80964h1.86758a2.37053,2.37053,0,0,1,2.37053,2.37053V95.40876a2.37053,2.37053,0,0,1-2.37053,2.37053h-1.86773a2.37038,2.37038,0,0,1-2.37038-2.37038V80.18017A2.37053,2.37053,0,0,1,279.41359,77.80964Z"/>
        <path class="cls-1" d="M286.88422,99.9342a2.37059,2.37059,0,0,0-2.37053,2.37052v4.533a2.37053,2.37053,0,0,0,4.74105,0v-4.533A2.37058,2.37058,0,0,0,286.88422,99.9342Z"/>
        <path class="cls-1" d="M334.15023,93.46931h1.5804a2.37053,2.37053,0,0,1,2.37053,2.37053v9.58675a2.37053,2.37053,0,0,1-2.37053,2.37053h-1.58025a2.37053,2.37053,0,0,1-2.37053-2.37053v-9.5869A2.37038,2.37038,0,0,1,334.15023,93.46931Z"/>
      </g>
    </g>
  </g>
</svg>
