<svg xmlns="http://www.w3.org/2000/svg" viewBox="0 0 407.45166 121.72258">
  <defs>
    <style>
      .cls-1 {
        fill: #fff;
      }
    </style>
  </defs>
  <g id="Layer_2" data-name="Layer 2">
    <g id="Layer_4" data-name="Layer 4">
      <path class="cls-1" d="M407.44743,60.72394a1.14866,1.14866,0,0,0-.00855-.25042,1.19013,1.19013,0,0,0-.02361-.20972.95538.95538,0,0,0-.35514-.54981,1.13691,1.13691,0,0,0-.19277-.15613c-.01507-.00869-.02361-.02375-.03926-.03186l-16.742-8.73919v-31.989c0-.01173-.00739-.02172-.00768-.03331-.00043-.0168.00652-.032.00536-.049a1.1758,1.1758,0,0,0-.11384-.42322c-.01072-.02259-.02955-.039-.04157-.06083a1.17174,1.17174,0,0,0-.25477-.31618c-.01651-.01448-.02317-.03664-.04055-.05026-.02405-.01883-.05548-.021-.08068-.0378a1.5363,1.5363,0,0,0-.45435-.18727c-.028-.00478-.05171-.02-.08024-.02289L212.90611.006a1.14008,1.14008,0,0,0-.39164.02665L.91305,50.19732c-.01231.0029-.02158.0113-.03374.01463a1.17475,1.17475,0,0,0-.13224.05692,1.15694,1.15694,0,0,0-.2833.15686c-.01782.0139-.041.01738-.05823.0323-.024.021-.03374.05243-.0559.07517a1.15959,1.15959,0,0,0-.186.25013,1.14873,1.14873,0,0,0-.07025.13687,1.17133,1.17133,0,0,0-.07256.335C.0181,51.28838,0,51.31778,0,51.35138V91.91044a1.18739,1.18739,0,0,0,.99648,1.17145L164.30105,119.499c.03664.00594.07285.00623.10935.00869l.01579.00406,40.33311,2.20847a.62841.62841,0,0,0,.066.00232,1.18681,1.18681,0,0,0,.4403-2.28843l-16.9784-6.80329,10.77169-3.138,33.74433,4.85233a1.19906,1.19906,0,0,0,.167.0113l.001.00029.00043-.00015.00188.00015a1.16046,1.16046,0,0,0,.56183-.16222,1.11,1.11,0,0,0,.10573-.06271,1.16319,1.16319,0,0,0,.38715-.44c.00478-.00985.01593-.01332.02057-.02332a1.12427,1.12427,0,0,0,.0307-.12832,1.14456,1.14456,0,0,0,.06779-.20075c.00333-.023-.00565-.04388-.00377-.06677a1.13525,1.13525,0,0,0-.01376-.23985,1.1682,1.1682,0,0,0-.03491-.21711,2.40383,2.40383,0,0,0-.21493-.39511,1.19019,1.19019,0,0,0-.15512-.14064,1.14621,1.14621,0,0,0-.20394-.14933c-.01882-.01-.03056-.02766-.05025-.03679l-16.74782-7.74691,14.808-4.31383a1.17375,1.17375,0,0,0,.79849.51432l33.05881,5.04149a1.19181,1.19181,0,0,0,.176.01362l.0013.00029.00043-.00015.00189.00015a1.16148,1.16148,0,0,0,.57225-.168,1.10187,1.10187,0,0,0,.10081-.05939,1.16074,1.16074,0,0,0,.3841-.4487c.00652-.01333.02144-.01825.02738-.03187a1.36349,1.36349,0,0,1,.0869-.3001c.0042-.02737-.00608-.05243-.00377-.07966a1.08762,1.08762,0,0,0-.42683-.99865,1.12987,1.12987,0,0,0-.19712-.139c-.02463-.01289-.04056-.03534-.06634-.04678L247.79131,95.296l9.46352-2.75683a1.15659,1.15659,0,0,0,.65394.38049l31.01139,5.49455a1.18464,1.18464,0,0,0,.2048.01824l.00145.00029.00058-.00014.00174.00014a1.1614,1.1614,0,0,0,.55531-.15816,1.068,1.068,0,0,0,.1037-.05967,1.1636,1.1636,0,0,0,.38483-.428c.00594-.01145.01883-.01565.02448-.02738a1.08405,1.08405,0,0,0,.03186-.12557,1.12729,1.12729,0,0,0,.06663-.18033c.00463-.02563-.00464-.04953-.00174-.075a1.8742,1.8742,0,0,0-.03708-.459,1.01728,1.01728,0,0,0-.358-.54821,1.13627,1.13627,0,0,0-.19842-.14991c-.02216-.01245-.03607-.0336-.05939-.04475l-16.94335-8.13638,19.66137-5.72788a1.164,1.164,0,0,0,.67118.38629l30.63829,5.10058a1.13142,1.13142,0,0,0,.19263.01594l.00087.00029.00058-.00015.00174.00015a1.16232,1.16232,0,0,0,.49606-.12355,1.10648,1.10648,0,0,0,.11529-.06692,1.16384,1.16384,0,0,0,.32734-.29749c.01462-.01955.03838-.0268.052-.04736.0058-.00869.00565-.01912.01115-.028a1.17708,1.17708,0,0,0,.12891-.32139c.009-.0336.02926-.06431.0352-.09834l.00318-.00884a1.10059,1.10059,0,0,0-.00507-.14846,1.18942,1.18942,0,0,0-.01043-.30387,1.16423,1.16423,0,0,0-.08617-.206,1.15079,1.15079,0,0,0-.096-.21044,1.19246,1.19246,0,0,0-.20958-.20712,1.10547,1.10547,0,0,0-.11181-.11066l-13.39093-8.79118,13.59862-3.96159a1.159,1.159,0,0,0,.66365.34428L356.30308,77.283a1.15656,1.15656,0,0,0,.15223.01028l.00072.00015.00043-.00015.00189.00015a1.16075,1.16075,0,0,0,.51953-.13658,1.09056,1.09056,0,0,0,.11485-.06894,1.16624,1.16624,0,0,0,.35891-.3537c.00782-.01231.02245-.01665.02984-.0294l.00463-.01347a1.16048,1.16048,0,0,0,.11558-.89176,17.0287,17.0287,0,0,0-.19987-.40844,1.18522,1.18522,0,0,0-.34863-.30952L343.7848,67.33113l8.132-2.3691a1.178,1.178,0,0,0,.77575.42234l27.37887,3.05433a1.28192,1.28192,0,0,0,.13021.00681l.00073.00014.00029-.00014.002.00014a1.15756,1.15756,0,0,0,.55951-.16091,1.094,1.094,0,0,0,.10979-.06692,1.16443,1.16443,0,0,0,.39091-.44132c.003-.00608.00985-.00825.01275-.01448a1.09922,1.09922,0,0,0,.03244-.133,1.14676,1.14676,0,0,0,.073-.23782c.00174-.01564-.00522-.0294-.00406-.0449a1.14673,1.14673,0,0,0-.022-.24883,1.18963,1.18963,0,0,0-.03259-.20842,3.91029,3.91029,0,0,0-.22088-.39382,1.18758,1.18758,0,0,0-.14947-.12716,1.153,1.153,0,0,0-.21523-.159c-.01245-.00638-.0197-.01811-.03244-.02405L368.05749,60.26l10.60441-3.08938,27.42116,4.57773a1.14259,1.14259,0,0,0,.1935.01593l.00116.00029.00058-.00014.00174.00014a1.16,1.16,0,0,0,.53851-.14831,1.064,1.064,0,0,0,.10964-.06373,1.16674,1.16674,0,0,0,.38845-.41018c.00348-.00637.01086-.00855.01434-.01506a1.09562,1.09562,0,0,0,.03621-.12543,1.14549,1.14549,0,0,0,.082-.228C407.45206,60.75668,407.4454,60.741,407.44743,60.72394ZM2.373,90.90006V52.71053l51.202,6.95523L163.0427,74.5362l.14672,24.51849.10674,17.87784ZM164.16113,72.29253,39.88615,55.41059,7.6671,51.0339,212.86787,2.38713,381.87106,19.28775,258.55344,49.31135Zm39.47655,33.39469-18.92226,5.51236-10.25723-4.11019-.43726-27.96083,29.61675-7.63669Zm86.66307-25.24644L289.98819,59.367,268.11,65.64885V56.63113l29.52551-8.44748c-.00189.02737-.01579.05069-.01579.07864V78.30863Zm39.26654-11.4391-.36123.1053a1.11253,1.11253,0,0,0,.03447-.1712V45.65406a1.18651,1.18651,0,0,0-2.373,0V68.93578a1.16916,1.16916,0,0,0,.29779.76561l-18.31786,5.33638V45.97589l20.71984-6.26681Zm19.5229-5.68732-8.12827,2.3678-3.83645-2.24092a1.12568,1.12568,0,0,0-.24912-.08531V38.57674a1.11208,1.11208,0,0,0-.033-.1641l12.24686-3.21944Zm24.09671,1.96776-16.17469-1.80438.61831-.18018c-1.06108-.10515-2.12187-.21045-3.18816-.242a6.71777,6.71777,0,0,1-1.00981-.10037c-.27968-.00014-.55921-.00217-.83889-.00217a1.06053,1.06053,0,0,1-.86917-.406l-.26129.076v-.849c.00029-.01651-.00087-.03244,0-.04895V34.42483a1.163,1.163,0,0,0,.281-.38237,1.16206,1.16206,0,0,0,.522.13354h3.0045V57.2955a1.18651,1.18651,0,1,0,2.373,0V32.9895a1.18583,1.18583,0,0,0-1.18651-1.18651h-4.191a1.18059,1.18059,0,0,0-1.06977.68943,1.15707,1.15707,0,0,0-.81427-.09154l-14.43506,3.79473a1.17748,1.17748,0,0,0-.85005,1.376,1.16953,1.16953,0,0,0-.59369,1.00517V64.46553a1.16923,1.16923,0,0,0,.90668,1.13016,2.1444,2.1444,0,0,1,.48289.0155,1.7395,1.7395,0,0,0,.18177-.03665l.21783.12732a7.15651,7.15651,0,0,1,1.87565.97055c.77792.52243,1.60045,1.027,2.34607,1.61146l.13267-.03867,10.1373,5.92152-21.00762-2.75466,1.85884-.54154a1.24073,1.24073,0,0,1-.11949-.23739,1.22144,1.22144,0,0,1,.11963-.91421,2.42452,2.42452,0,0,1,.17221-.22262,1.92945,1.92945,0,0,1-.087-.39048,1.97134,1.97134,0,0,1,.21957-.87684V38.57674a1.12394,1.12394,0,0,0-.044-.21827,1.15234,1.15234,0,0,0-.007-.5905,1.18922,1.18922,0,0,0-1.4785-.79255L308.40237,43.632a1.16558,1.16558,0,0,0-.74143-.28142,1.18583,1.18583,0,0,0-1.1865,1.18651V75.47663a1.43594,1.43594,0,0,1,.275.4503.52243.52243,0,0,1,.029.09516.49465.49465,0,0,1,.0462.06764c.04085.06677.08111.13484.12022.20262l.06257.093c.04722.05678.09661.11167.14715.1654a4.95338,4.95338,0,0,0,.37745.35819c-.00565-.00493.23406.19306.15121.12745-.076-.06025.09646.07242.11254.0843a15.59953,15.59953,0,0,1,1.82973,1.43476,1.03584,1.03584,0,0,1,.12441.22768l8.76222,5.7525-21.49863-3.57907,1.94691-.56718a1.1393,1.1393,0,0,1,.75518-1.43867c.76995-.23145,1.55193-.41511,2.33231-.60716a11.792,11.792,0,0,1,2.1-.39888,13.39494,13.39494,0,0,1-.38208-1.42665l-.41409.12065V45.65406a1.39086,1.39086,0,0,1-.04635-.32675c-.00666-.02332-.024-.03954-.032-.06213a1.13711,1.13711,0,0,0-.11268-.21842.79292.79292,0,0,0-.293-.324,1.147,1.147,0,0,0-.18525-.12485,1.17471,1.17471,0,0,0-.21131-.06865,1.13963,1.13963,0,0,0-.23276-.04693c-.02549-.00159-.04721-.01477-.07314-.01477a1.37851,1.37851,0,0,1-.32675.04635l-34.76978,9.94771a1.11031,1.11031,0,0,0-.14527-.02926,1.18582,1.18582,0,0,0-1.1865,1.18651v31.556a1.22366,1.22366,0,0,1,.04968.15787c.13078,1.10322,1.06947,1.69532,2.09347,2.111l1.40608-.4096,11.52325,5.53365-12.1992-2.1614a13.0064,13.0064,0,0,1-2.56579-.45465l-4.21173-.7462.71043-.207c-.39164-.102-.77922-.21711-1.17289-.31719a36.359,36.359,0,0,0-3.62064-.75794l-12.78812,3.72536V60.801a1.12437,1.12437,0,0,0,.22943-.0294l16.29361-4.23012V87.1269a12.80721,12.80721,0,0,1,1.99614-.11355,1.01487,1.01487,0,0,1,.37687-.61411V55.92549l.70333-.18264a1.18625,1.18625,0,0,0-.59557-2.29654l-19.37,5.02875a1.16536,1.16536,0,0,0-.64988.46188,1.121,1.121,0,0,0-.17047-.03432,1.18582,1.18582,0,0,0-1.18651,1.1865v34.0831a1.1187,1.1187,0,0,0,.032.1586l-.52909.15411a2.36577,2.36577,0,0,1,.41945.137c.06416.01289.1263.0071.19089.0239a5.5512,5.5512,0,0,1,1.77889.96433,8.88522,8.88522,0,0,1,1.52123,1.30266,1.13874,1.13874,0,0,1,.11239.23768l10.77473,4.74255-20.83585-3.17744,1.79512-.523c-.60455-.03592-1.21-.0811-1.82046-.10066a1.192,1.192,0,0,1-1.16522-1.02878,1.24694,1.24694,0,0,1,.13528-.70231V66.8872a1.18651,1.18651,0,0,0-2.373,0V96.40735a1.167,1.167,0,0,0,.28822.75142l-19.46873,5.67153-.42466-.1964V69.864l24.72661-6.13965V93.61373a1.16931,1.16931,0,0,0,.96824,1.14248c.30879-.06677.62164-.14484.93637-.22161a1.16512,1.16512,0,0,0,.4684-.92087V63.07929a1.17037,1.17037,0,0,0,.61759-1.32048,1.18742,1.18742,0,0,0-1.43794-.86555l-.08676.02158a1.14061,1.14061,0,0,0-.27939-.05634,1.17718,1.17718,0,0,0-.80805.32632L211.547,67.784c-.03143.00782-.05388.02983-.08415.04a1.52637,1.52637,0,0,0-.39931.2258,1.59968,1.59968,0,0,0-.27577.35283,1.5298,1.5298,0,0,0-.12283.44291c-.00246.03143-.01825.05822-.01825.09023v33.9904a1.13,1.13,0,0,0,.04679.232,1.1593,1.1593,0,0,0-.001.39686c.12688.09371.24869.19843.37832.28547.98779.66336,2.01628,1.2624,3.019,1.90229l11.02066,5.0977L204.57116,107.887l1.19432-.3479a1.06055,1.06055,0,0,1-.388-1.172,9.94835,9.94835,0,0,1,.64611-1.37494l-.01289.00377v-3.2l-.00434-.01652c-.001-.01115.00492-.02158.00434-.03273V69.96007a1.01927,1.01927,0,0,1-.03707-.29663c-.00783-.03-.029-.05112-.03882-.0798a1.2972,1.2972,0,0,0-.574-.66669,1.63711,1.63711,0,0,0-.44161-.12427c-.033-.00275-.06127-.01912-.095-.01912a1.12212,1.12212,0,0,0-.15092.03042,1.142,1.142,0,0,0-.14571.00666l-32.00439,8.25225c-.033.00854-.05678.03186-.0885.043a1.46611,1.46611,0,0,0-.39454.23014,1.156,1.156,0,0,0-.14976.169,1.17063,1.17063,0,0,0-.12195.187,1.469,1.469,0,0,0-.11761.44451c-.00217.03273-.0181.061-.01752.09429l.46463,29.68468a1.1885,1.1885,0,0,0,.74505,1.08338l2.49279.99894a30.61365,30.61365,0,0,1,5.22776,1.79961c1.36827.56008,2.679,1.235,3.98389,1.92285l.04475-.013,13.10256,5.25064-26.20149-1.43461.35934-.10472a7.33344,7.33344,0,0,1-.98518-.09892,2.99441,2.99441,0,0,1-.37629-.14006c-1.08338.0517-2.16633.11138-3.25276.087a1.093,1.093,0,0,1-1.0266-.67667l-.54348.1583-.25255-42.31869L387.71307,20.30784V49.548L385.208,48.24042V25.91217a1.169,1.169,0,0,0-.29547-.76228,1.16274,1.16274,0,0,0-.02549-.386,1.18424,1.18424,0,0,0-1.45532-.83426l-21.977,5.95918a.901.901,0,0,1-1.64535-.04171,1.18582,1.18582,0,0,0-1.1865,1.1865V58.22594a1.16428,1.16428,0,0,0,.48882.93463c.03375.00391.06807-.00376.10139.00246.25477.04766.50519.13659.75837.20582a1.2991,1.2991,0,0,0,.37628-.101l1.00952.47289-.12109.03534c.33342.12891.67031.25433.99011.39845.43611.1964.86077.417,1.29325.6212.12007.05678.241.11167.36224.16613.02824.01275.02115.01014.03621.01724.01579.0055.01057.00275.04519.01564a7.51738,7.51738,0,0,0,.73679.24043,1.08147,1.08147,0,0,1,.49679.304ZM299.75022,47.57866l1.22851-.35152V77.33l-.986.28736v-29.355A1.15831,1.15831,0,0,0,299.75022,47.57866Zm75.65936,8.06845-10.60484,3.08923-3.65482-1.712a1.107,1.107,0,0,0-.15411-.03809V31.90047a1.108,1.108,0,0,0,1.07991.27794l13.31-3.60906V54.408a1.15351,1.15351,0,0,0,.179.58934,1.194,1.194,0,0,0-.1628.42568A1.13242,1.13242,0,0,0,375.40958,55.64711Zm12.69368.69377a14.9663,14.9663,0,0,1-4.77717-.22175c-1.54773-.29532-3.074-.74127-4.64087-.92942a1.28645,1.28645,0,0,1-.9471-.5792l-.01955-.00319.00362-.01825a1.12639,1.12639,0,0,1,.0365-1.282V27.92584l5.07626-1.37639V48.26229a1.15683,1.15683,0,0,0,.07285.36152,1.17177,1.17177,0,0,0,.56443,1.38812l4.04067,2.10926-.26085.076c.3127.13934.62526.28.92826.43813.127.06634.25868.13977.39193.21277.62686.17815,1.24517.374,1.83987.5947a1.32891,1.32891,0,0,1,.68855.55111l8.0195,4.18608Z"/>
    </g>
  </g>
</svg>
