<svg xmlns="http://www.w3.org/2000/svg" viewBox="0 0 225.37 154.45"><defs><style>.cls-1,.cls-2{fill:#fffdfd;}.cls-2{opacity:0;}</style></defs><g id="Layer_2" data-name="Layer 2"><g id="Layer_1-2" data-name="Layer 1"><path class="cls-1" d="M25.27,61.39h4.08V89.63H42.89v3.43H25.27Z"/><path class="cls-1" d="M54.31,83.1,51,93.06H46.79L57.55,61.39h4.94L73.3,93.06H68.93l-3.39-10ZM64.7,79.9l-3.1-9.11c-.71-2.07-1.18-4-1.65-5.79h-.09c-.47,1.88-1,3.81-1.6,5.74l-3.1,9.16Z"/><path class="cls-1" d="M79.69,61.81a42.87,42.87,0,0,1,7.85-.66c4.37,0,7.19.8,9.16,2.59a7.87,7.87,0,0,1,2.49,6,8.31,8.31,0,0,1-6,8.08V78c2.44.84,3.9,3.1,4.65,6.39,1,4.42,1.78,7.47,2.44,8.69H96.09c-.51-.89-1.22-3.62-2.11-7.56-.94-4.38-2.63-6-6.35-6.16H83.78V93.06H79.69Zm4.09,14.43H88c4.37,0,7.15-2.4,7.15-6,0-4.09-3-5.87-7.29-5.92a16.67,16.67,0,0,0-4,.38Z"/><path class="cls-1" d="M111.84,83.1l-3.29,10h-4.23l10.76-31.67H120l10.81,31.67h-4.38l-3.38-10Zm10.39-3.2-3.11-9.11c-.7-2.07-1.17-4-1.64-5.79h-.1c-.47,1.88-1,3.81-1.59,5.74l-3.11,9.16Z"/><path class="cls-1" d="M144.17,93.06,133.83,61.39h4.42L143.19,77c1.36,4.28,2.54,8.13,3.38,11.84h.1c.89-3.66,2.2-7.66,3.61-11.79l5.36-15.65H160L148.69,93.06Z"/><path class="cls-1" d="M181.59,78.21H169.27V89.63H183v3.43H165.18V61.39h17.11v3.43h-13v10h12.32Z"/><path class="cls-1" d="M190.05,61.39h4.08V89.63h13.54v3.43H190.05Z"/><rect class="cls-2" width="225.37" height="154.45"/></g></g></svg>